<?xml version="1.0" encoding="utf-8"?>
<!-- Generator: Adobe Illustrator 25.4.1, SVG Export Plug-In . SVG Version: 6.00 Build 0)  -->
<svg version="1.1" id="Capa_1" xmlns="http://www.w3.org/2000/svg" xmlns:xlink="http://www.w3.org/1999/xlink" x="0px" y="0px"
	 viewBox="0 0 1242 1298" style="enable-background:new 0 0 1242 1298;" xml:space="preserve">
<style type="text/css">
	.st0{enable-background:new    ;}
	.st1{fill:#4D4D4D;}
</style>
<g>
	<g class="st0">
		<path class="st1" d="M313,1010.3h19.5l3.1-10.4c0.6-2,0.9-3.6,0.9-4.8c0-0.5-0.1-1-0.4-1.4s-0.7-0.7-1.2-0.9s-1.6-0.3-3.2-0.3
			l0.3-1.2h17l-0.4,1.2c-1.4,0-2.5,0.1-3.2,0.4c-1,0.4-1.8,1-2.2,1.7c-0.7,1-1.4,2.7-2.1,5.2l-7.4,25.5c-0.6,2.1-0.9,3.6-0.9,4.6
			c0,0.8,0.3,1.4,0.8,1.8c0.6,0.4,1.9,0.7,3.9,0.8l-0.3,1.2h-16.5l0.4-1.2c1.6,0,2.7-0.2,3.3-0.4c0.8-0.4,1.4-0.9,1.8-1.4
			c0.5-0.8,1.2-2.6,2-5.3l3.8-12.9h-19.6l-3.8,12.9c-0.6,2.1-0.9,3.6-0.9,4.6c0,0.8,0.3,1.4,0.8,1.8s1.8,0.7,3.9,0.8l-0.2,1.2h-16.6
			l0.4-1.2c1.7,0,2.8-0.2,3.3-0.4c0.8-0.4,1.4-0.9,1.8-1.4c0.5-0.9,1.2-2.6,2-5.3l7.5-25.5c0.6-2.1,0.9-3.7,0.9-4.8
			c0-0.5-0.1-1-0.4-1.4s-0.7-0.7-1.2-0.9c-0.6-0.2-1.6-0.3-3.2-0.3l0.4-1.2h16.7l-0.3,1.2c-1.4,0-2.4,0.1-3.1,0.4
			c-1,0.4-1.7,1-2.1,1.7c-0.6,0.9-1.3,2.7-2.1,5.2L313,1010.3z"/>
		<path class="st1" d="M373.4,1005.5l-6.1,21.2l-0.7,2.9c-0.1,0.3-0.1,0.5-0.1,0.7c0,0.3,0.1,0.6,0.3,0.9c0.2,0.2,0.4,0.3,0.6,0.3
			c0.3,0,0.6-0.2,1-0.5c0.8-0.6,1.9-1.8,3.3-3.7l1,0.7c-1.4,2.2-2.9,3.8-4.4,4.9s-2.9,1.7-4.2,1.7c-0.9,0-1.5-0.2-2-0.7
			c-0.5-0.4-0.7-1.1-0.7-1.9c0-1,0.2-2.4,0.7-4l0.7-2.4c-2.7,3.6-5.2,6.1-7.5,7.5c-1.7,1-3.3,1.5-4.8,1.5s-2.8-0.6-3.9-1.9
			s-1.6-3-1.6-5.2c0-3.3,1-6.8,3-10.5s4.5-6.6,7.6-8.8c2.4-1.8,4.6-2.6,6.7-2.6c1.3,0,2.4,0.3,3.2,1c0.8,0.7,1.5,1.8,1.9,3.3
			l1.1-3.6L373.4,1005.5z M362.3,1007.1c-1.3,0-2.7,0.6-4.2,1.9c-2.1,1.8-4,4.4-5.7,7.8c-1.7,3.5-2.5,6.6-2.5,9.4
			c0,1.4,0.4,2.5,1.1,3.3s1.5,1.2,2.5,1.2c2.2,0,4.7-1.7,7.4-5c3.6-4.4,5.3-9,5.3-13.7c0-1.8-0.3-3-1-3.8
			C364.4,1007.5,363.5,1007.1,362.3,1007.1z"/>
		<path class="st1" d="M380.7,1006.2h19.8v0.8l-21.5,22.5h9.1c2.2,0,3.5-0.1,4.1-0.3c0.6-0.2,1.1-0.5,1.6-1.1c0.5-0.5,1-1.5,1.6-2.9
			h1.2l-2.7,8.5h-20.3v-0.9l21.6-22.5h-9c-1.9,0-3,0.1-3.4,0.2c-0.6,0.1-1.2,0.5-1.7,1c-0.6,0.5-1.1,1.4-1.7,2.6h-1.2L380.7,1006.2z
			"/>
		<path class="st1" d="M440.9,1026.9c-2.2,2.6-4.4,4.5-6.6,5.7s-4.5,1.8-7,1.8c-2.9,0-5.2-0.8-6.9-2.5c-1.7-1.7-2.5-3.9-2.5-6.7
			c0-3.2,0.9-6.3,2.7-9.4c1.8-3.1,4.2-5.6,7.2-7.5s5.9-2.9,8.8-2.9c2.3,0,4,0.5,5.1,1.4s1.7,2.1,1.7,3.5c0,1.3-0.4,2.4-1.2,3.3
			c-0.6,0.7-1.3,1.1-2.1,1.1c-0.6,0-1.2-0.2-1.6-0.6c-0.4-0.4-0.6-0.9-0.6-1.6c0-0.4,0.1-0.7,0.2-1.1c0.2-0.3,0.5-0.7,1-1.2
			s0.8-0.8,0.9-1s0.2-0.4,0.2-0.7c0-0.4-0.2-0.8-0.6-1.1c-0.6-0.4-1.5-0.6-2.6-0.6c-2,0-4.1,0.7-6.1,2.2c-2,1.4-3.7,3.5-5.1,6.1
			c-1.7,3.2-2.6,6.4-2.6,9.6c0,2.1,0.6,3.8,1.8,5c1.2,1.2,2.9,1.9,4.9,1.9c1.6,0,3.2-0.4,4.8-1.2c1.6-0.8,3.3-2.2,5.3-4.3
			L440.9,1026.9z"/>
		<path class="st1" d="M463.6,989.3l-10.7,37.1c-0.5,1.9-0.8,3-0.8,3.4c0,0.3,0.1,0.6,0.3,0.8c0.2,0.2,0.4,0.3,0.7,0.3
			c0.4,0,0.8-0.2,1.3-0.5c1.1-0.9,2.2-2.2,3.4-4l0.9,1c-2,2.8-3.8,4.7-5.5,5.9c-1.2,0.8-2.4,1.2-3.5,1.2c-0.8,0-1.4-0.3-2-0.8
			c-0.5-0.5-0.8-1.2-0.8-1.9c0-0.7,0.3-2.3,1-4.6l8.5-29.3c0.7-2.4,1-3.8,1-4.1c0-0.5-0.2-0.9-0.6-1.3c-0.4-0.3-1-0.5-1.8-0.5
			c-0.5,0-1.2,0.1-2.2,0.2V991L463.6,989.3z"/>
		<path class="st1" d="M477,1005.5l-6.2,21.9c-0.4,1.5-0.6,2.4-0.6,2.6c0,0.3,0.1,0.6,0.3,0.8c0.2,0.2,0.4,0.3,0.7,0.3
			c0.3,0,0.7-0.2,1.1-0.5c1.2-0.9,2.4-2.3,3.6-4l1.1,0.7c-1.4,2.1-3.1,4-5,5.5c-1.4,1.1-2.7,1.6-4,1.6c-0.9,0-1.6-0.3-2.1-0.8
			s-0.8-1.1-0.8-1.9s0.3-2.1,0.8-3.8l4.1-14c0.6-2.3,1-3.7,1-4.3c0-0.4-0.2-0.8-0.5-1.1s-0.8-0.4-1.3-0.4s-1.4,0.1-2.9,0.3v-1.2
			L477,1005.5z M476.6,993.1c0.9,0,1.6,0.3,2.2,0.9c0.6,0.6,0.9,1.3,0.9,2.2s-0.3,1.6-0.9,2.2c-0.6,0.6-1.3,0.9-2.2,0.9
			c-0.9,0-1.6-0.3-2.2-0.9c-0.6-0.6-0.9-1.4-0.9-2.2s0.3-1.6,0.9-2.2C475,993.4,475.7,993.1,476.6,993.1z"/>
		<path class="st1" d="M504.8,1026.9c-2.2,2.6-4.4,4.5-6.6,5.7s-4.5,1.8-7,1.8c-2.9,0-5.2-0.8-6.9-2.5c-1.7-1.7-2.5-3.9-2.5-6.7
			c0-3.2,0.9-6.3,2.7-9.4c1.8-3.1,4.2-5.6,7.2-7.5s5.9-2.9,8.8-2.9c2.3,0,4,0.5,5.1,1.4s1.7,2.1,1.7,3.5c0,1.3-0.4,2.4-1.2,3.3
			c-0.6,0.7-1.3,1.1-2.1,1.1c-0.6,0-1.2-0.2-1.6-0.6c-0.4-0.4-0.6-0.9-0.6-1.6c0-0.4,0.1-0.7,0.2-1.1c0.2-0.3,0.5-0.7,1-1.2
			s0.8-0.8,0.9-1s0.2-0.4,0.2-0.7c0-0.4-0.2-0.8-0.6-1.1c-0.6-0.4-1.5-0.6-2.6-0.6c-2,0-4.1,0.7-6.1,2.2c-2,1.4-3.7,3.5-5.1,6.1
			c-1.7,3.2-2.6,6.4-2.6,9.6c0,2.1,0.6,3.8,1.8,5c1.2,1.2,2.9,1.9,4.9,1.9c1.6,0,3.2-0.4,4.8-1.2c1.6-0.8,3.3-2.2,5.3-4.3
			L504.8,1026.9z"/>
		<path class="st1" d="M532,1022c-0.1,1-0.2,1.9-0.2,2.6c0,1.9,0.7,3.4,2,4.7c1.3,1.3,2.9,2,4.8,2c1.5,0,2.9-0.3,4.3-0.9
			c1.4-0.6,3.4-2,6.1-4.1l0.7,0.9c-4.9,4.9-9.6,7.3-14.1,7.3c-3,0-5.3-1-6.8-2.9s-2.3-4-2.3-6.3c0-3.1,1-6.3,2.9-9.5
			s4.3-5.8,7.2-7.6s5.9-2.7,8.9-2.7c2.2,0,3.8,0.5,4.9,1.4c1.1,0.9,1.6,2,1.6,3.2c0,1.7-0.7,3.4-2.1,5c-1.8,2.1-4.5,3.7-8,5
			C539.5,1020.8,536.2,1021.5,532,1022z M532.2,1020.4c3.1-0.4,5.6-1,7.5-1.8c2.6-1.1,4.5-2.5,5.8-4.1s1.9-3.1,1.9-4.6
			c0-0.9-0.3-1.5-0.8-2.1s-1.3-0.8-2.3-0.8c-2.1,0-4.4,1.1-6.7,3.4C535.1,1012.7,533.4,1016,532.2,1020.4z"/>
		<path class="st1" d="M566.9,1005.5l-4.1,14.2c3.9-5.8,6.9-9.6,8.9-11.5c2.1-1.8,4.1-2.8,6-2.8c1,0,1.9,0.3,2.6,1
			c0.7,0.7,1,1.6,1,2.7c0,1.3-0.3,2.9-0.9,5l-3.8,13.1c-0.4,1.5-0.7,2.5-0.7,2.8s0.1,0.5,0.3,0.7s0.3,0.3,0.5,0.3s0.5-0.1,0.9-0.4
			c1.1-0.9,2.3-2.2,3.6-4l1,0.6c-1.9,2.8-3.8,4.7-5.5,5.9c-1.2,0.8-2.3,1.2-3.3,1.2c-0.8,0-1.4-0.2-1.8-0.7
			c-0.5-0.5-0.7-1.1-0.7-1.9c0-1,0.3-2.7,1-5.2l3.6-12.6c0.4-1.6,0.7-2.8,0.7-3.6c0-0.4-0.1-0.7-0.4-1c-0.3-0.3-0.6-0.4-1-0.4
			c-0.6,0-1.3,0.2-2.1,0.7c-1.5,0.9-3.1,2.5-4.8,4.6s-3.4,4.9-5.3,8.2c-1,1.8-1.8,3.7-2.4,5.8l-1.6,5.2H554l5.7-19.5
			c0.7-2.4,1-3.8,1-4.2s-0.2-0.9-0.6-1.2c-0.4-0.3-0.8-0.5-1.3-0.5c-0.3,0-0.7,0.1-1.3,0.2l-1.2,0.2l-0.2-1.1L566.9,1005.5z"/>
		<path class="st1" d="M608.3,1022c-0.1,1-0.2,1.9-0.2,2.6c0,1.9,0.7,3.4,2,4.7c1.3,1.3,2.9,2,4.8,2c1.5,0,2.9-0.3,4.3-0.9
			c1.4-0.6,3.4-2,6.1-4.1l0.7,0.9c-4.9,4.9-9.6,7.3-14.1,7.3c-3,0-5.3-1-6.8-2.9s-2.3-4-2.3-6.3c0-3.1,1-6.3,2.9-9.5
			s4.3-5.8,7.2-7.6s5.9-2.7,8.9-2.7c2.2,0,3.8,0.5,4.9,1.4c1.1,0.9,1.6,2,1.6,3.2c0,1.7-0.7,3.4-2.1,5c-1.8,2.1-4.5,3.7-8,5
			C615.8,1020.8,612.5,1021.5,608.3,1022z M608.5,1020.4c3.1-0.4,5.6-1,7.5-1.8c2.6-1.1,4.5-2.5,5.8-4.1s1.9-3.1,1.9-4.6
			c0-0.9-0.3-1.5-0.8-2.1s-1.3-0.8-2.3-0.8c-2.1,0-4.4,1.1-6.7,3.4C611.4,1012.7,609.6,1016,608.5,1020.4z"/>
		<path class="st1" d="M648,989.3l-10.7,37.1c-0.5,1.9-0.8,3-0.8,3.4c0,0.3,0.1,0.6,0.3,0.8s0.4,0.3,0.7,0.3c0.4,0,0.8-0.2,1.3-0.5
			c1.1-0.9,2.2-2.2,3.4-4l0.9,1c-2,2.8-3.8,4.7-5.5,5.9c-1.2,0.8-2.4,1.2-3.5,1.2c-0.8,0-1.4-0.3-2-0.8c-0.5-0.5-0.8-1.2-0.8-1.9
			c0-0.7,0.3-2.3,1-4.6l8.5-29.3c0.7-2.4,1-3.8,1-4.1c0-0.5-0.2-0.9-0.6-1.3s-1-0.5-1.8-0.5c-0.5,0-1.2,0.1-2.2,0.2V991L648,989.3z"
			/>
		<path class="st1" d="M685.9,1005.5l-1.9,9.6h-1.2c-0.1-2.8-0.7-4.8-1.8-6.1s-2.4-1.9-4-1.9c-1.3,0-2.3,0.3-3,1s-1.1,1.5-1.1,2.6
			c0,0.7,0.1,1.3,0.4,2c0.3,0.6,1,1.5,2,2.6c2.7,3,4.4,5.2,5.2,6.7s1.2,2.9,1.2,4.2c0,2.2-0.9,4.1-2.7,5.8c-1.8,1.7-4.1,2.5-6.8,2.5
			c-1.5,0-3.2-0.3-5.2-1c-0.7-0.3-1.2-0.4-1.6-0.4c-0.9,0-1.6,0.5-2.1,1.4h-1.1l1.9-10.1h1.2c0.1,3.2,0.7,5.4,1.9,6.7s2.8,2,4.9,2
			c1.6,0,2.8-0.4,3.8-1.3c0.9-0.9,1.4-2,1.4-3.3c0-0.8-0.2-1.6-0.5-2.3c-0.6-1.2-1.8-3-3.7-5.2s-3.1-3.9-3.6-5s-0.8-2.2-0.8-3.3
			c0-2,0.7-3.7,2.2-5.1c1.5-1.4,3.4-2.1,5.7-2.1c0.7,0,1.3,0.1,1.8,0.2c0.3,0.1,1,0.3,2,0.7c1.1,0.4,1.8,0.6,2.2,0.6
			c0.9,0,1.6-0.5,2.2-1.5L685.9,1005.5L685.9,1005.5z"/>
		<path class="st1" d="M717.2,1015.2c0,3.1-0.8,6.2-2.5,9.3s-4,5.5-6.9,7.3s-5.8,2.7-8.6,2.7s-5.2-0.9-7-2.7c-1.8-1.8-2.7-4.2-2.7-7
			c0-3.1,0.9-6.1,2.6-9.2c1.8-3.1,4.1-5.5,7.1-7.3s5.8-2.7,8.5-2.7c2.8,0,5,0.9,6.8,2.7C716.3,1010,717.2,1012.3,717.2,1015.2z
			 M712,1013.1c0-1.9-0.5-3.4-1.4-4.5s-2.2-1.6-3.7-1.6c-3,0-5.9,2.2-8.4,6.6c-2.6,4.4-3.9,8.7-3.9,13.1c0,2,0.5,3.5,1.5,4.6
			s2.3,1.6,3.8,1.6c2.9,0,5.7-2.2,8.3-6.5C710.7,1022,712,1017.6,712,1013.1z"/>
		<path class="st1" d="M738,989.3l-6.2,21.6c2-2.1,3.7-3.5,5.2-4.3s3-1.2,4.7-1.2c2.3,0,4.2,0.8,5.6,2.3s2.2,3.6,2.2,6.2
			c0,3.3-1,6.7-2.9,10s-4.3,5.9-7.2,7.8c-2.9,1.8-5.7,2.8-8.5,2.8c-3.2,0-6.4-1.2-9.7-3.5l9.5-32.6c0.7-2.5,1.1-4,1.1-4.5
			s-0.2-0.9-0.5-1.2c-0.5-0.4-1.2-0.6-2.1-0.6c-0.4,0-1.1,0.1-2,0.2v-1.2L738,989.3z M725.9,1031.3c2.1,1.1,3.9,1.7,5.5,1.7
			c1.8,0,3.7-0.7,5.7-2s3.7-3.6,5.1-6.8c1.4-3.2,2.2-6.4,2.2-9.6c0-1.9-0.5-3.4-1.4-4.5s-2.1-1.6-3.4-1.6c-1.9,0-3.8,0.8-5.7,2.3
			c-1.9,1.6-3.2,3.7-4,6.5L725.9,1031.3z"/>
		<path class="st1" d="M754.8,1007.2l10.8-1.8l-4.5,15.2c3.6-6.2,6.9-10.6,9.9-13.1c1.7-1.4,3-2.1,4.1-2.1c0.7,0,1.2,0.2,1.6,0.6
			c0.4,0.4,0.6,1,0.6,1.8c0,1.4-0.3,2.7-1,3.9c-0.5,0.9-1.2,1.4-2.2,1.4c-0.5,0-0.9-0.2-1.2-0.5s-0.6-0.8-0.6-1.4
			c0-0.4-0.1-0.6-0.3-0.8s-0.4-0.2-0.6-0.2c-0.4,0-0.7,0.1-1,0.2c-0.5,0.3-1.4,1.1-2.5,2.4c-1.7,2-3.6,4.7-5.6,7.9
			c-0.9,1.4-1.6,2.9-2.2,4.7c-0.9,2.4-1.3,3.8-1.5,4.3l-1,3.9h-4.8l5.8-19.4c0.6-2.2,1-3.8,1-4.8c0-0.4-0.2-0.7-0.5-0.9
			c-0.4-0.3-1-0.5-1.6-0.5c-0.4,0-1.2,0.1-2.4,0.3L754.8,1007.2z"/>
		<path class="st1" d="M784,1022c-0.1,1-0.2,1.9-0.2,2.6c0,1.9,0.7,3.4,2,4.7c1.3,1.3,2.9,2,4.8,2c1.5,0,2.9-0.3,4.3-0.9
			c1.4-0.6,3.4-2,6.1-4.1l0.7,0.9c-4.9,4.9-9.6,7.3-14.1,7.3c-3,0-5.3-1-6.8-2.9s-2.3-4-2.3-6.3c0-3.1,1-6.3,2.9-9.5
			s4.3-5.8,7.2-7.6s5.9-2.7,8.9-2.7c2.2,0,3.8,0.5,4.9,1.4s1.6,2,1.6,3.2c0,1.7-0.7,3.4-2.1,5c-1.8,2.1-4.5,3.7-8,5
			C791.5,1020.8,788.2,1021.5,784,1022z M784.2,1020.4c3.1-0.4,5.6-1,7.5-1.8c2.6-1.1,4.5-2.5,5.8-4.1s1.9-3.1,1.9-4.6
			c0-0.9-0.3-1.5-0.8-2.1s-1.3-0.8-2.3-0.8c-2.1,0-4.4,1.1-6.7,3.4C787.1,1012.7,785.4,1016,784.2,1020.4z"/>
		<path class="st1" d="M834.9,1005.5l-2.2,7.2c2.3-2.7,4.3-4.5,6.1-5.6s3.6-1.6,5.4-1.6c1.9,0,3.4,0.7,4.7,2.2s2,3.4,2,5.7
			c0,4.6-1.9,9.2-5.6,14c-3.7,4.7-8.1,7.1-13,7.1c-1,0-2-0.1-2.8-0.3s-1.7-0.6-2.7-1.2l-2.3,8.1c-0.5,1.6-0.7,2.6-0.7,3.1
			s0.1,0.9,0.4,1.2c0.2,0.3,0.6,0.6,1.2,0.8c0.5,0.2,1.6,0.3,3.2,0.3l-0.3,1.2h-14.7l0.3-1.2c1.9-0.1,3.2-0.4,3.9-1s1.4-2.2,2.1-4.9
			l7.9-27.3c0.5-1.7,0.7-2.8,0.7-3.2c0-0.6-0.2-1-0.5-1.3s-0.8-0.5-1.5-0.5c-0.6,0-1.5,0.1-2.5,0.2v-1.2L834.9,1005.5z
			 M827.6,1030.4c1.3,1.5,3,2.3,5.2,2.3c1.1,0,2.2-0.3,3.3-0.9s2.2-1.5,3.3-2.7s2-2.5,2.9-4.1c0.9-1.5,1.6-3.4,2.3-5.5s1-4.2,1-6.3
			c0-1.7-0.4-2.9-1.1-3.8c-0.8-0.9-1.7-1.3-2.7-1.3c-2.2,0-4.5,1.3-6.6,3.9c-2.2,2.6-3.8,5.6-4.8,9L827.6,1030.4z"/>
		<path class="st1" d="M882.7,1005.5l-6.1,21.2l-0.7,2.9c-0.1,0.3-0.1,0.5-0.1,0.7c0,0.3,0.1,0.6,0.3,0.9c0.2,0.2,0.4,0.3,0.6,0.3
			c0.3,0,0.6-0.2,1-0.5c0.8-0.6,1.9-1.8,3.3-3.7l1,0.7c-1.4,2.2-2.9,3.8-4.4,4.9s-2.9,1.7-4.2,1.7c-0.9,0-1.5-0.2-2-0.7
			c-0.5-0.4-0.7-1.1-0.7-1.9c0-1,0.2-2.4,0.7-4l0.7-2.4c-2.7,3.6-5.2,6.1-7.5,7.5c-1.7,1-3.3,1.5-4.8,1.5s-2.8-0.6-3.9-1.9
			c-1.1-1.3-1.6-3-1.6-5.2c0-3.3,1-6.8,3-10.5s4.5-6.6,7.6-8.8c2.4-1.8,4.6-2.6,6.7-2.6c1.3,0,2.4,0.3,3.2,1s1.5,1.8,1.9,3.3
			l1.1-3.6L882.7,1005.5z M871.5,1007.1c-1.3,0-2.7,0.6-4.2,1.9c-2.1,1.8-4,4.4-5.7,7.8c-1.7,3.5-2.5,6.6-2.5,9.4
			c0,1.4,0.4,2.5,1.1,3.3c0.7,0.8,1.5,1.2,2.5,1.2c2.2,0,4.7-1.7,7.4-5c3.6-4.4,5.3-9,5.3-13.7c0-1.8-0.3-3-1-3.8
			C873.7,1007.5,872.7,1007.1,871.5,1007.1z"/>
		<path class="st1" d="M887.9,1007.2l10.8-1.8l-4.5,15.2c3.6-6.2,7-10.6,9.9-13.1c1.7-1.4,3-2.1,4.1-2.1c0.7,0,1.2,0.2,1.6,0.6
			s0.6,1,0.6,1.8c0,1.4-0.3,2.7-1,3.9c-0.5,0.9-1.2,1.4-2.2,1.4c-0.5,0-0.9-0.2-1.2-0.5s-0.6-0.8-0.6-1.4c0-0.4-0.1-0.6-0.3-0.8
			s-0.4-0.2-0.6-0.2c-0.4,0-0.7,0.1-1,0.2c-0.5,0.3-1.4,1.1-2.5,2.4c-1.7,2-3.6,4.7-5.6,7.9c-0.9,1.4-1.6,2.9-2.2,4.7
			c-0.9,2.4-1.3,3.8-1.5,4.3l-1,3.9h-4.8l5.8-19.4c0.6-2.2,1-3.8,1-4.8c0-0.4-0.2-0.7-0.5-0.9c-0.4-0.3-1-0.5-1.6-0.5
			c-0.4,0-1.2,0.1-2.4,0.3L887.9,1007.2z"/>
		<path class="st1" d="M939.5,1005.5l-6.1,21.2l-0.7,2.9c-0.1,0.3-0.1,0.5-0.1,0.7c0,0.3,0.1,0.6,0.3,0.9c0.2,0.2,0.4,0.3,0.6,0.3
			s0.6-0.2,1-0.5c0.8-0.6,1.9-1.8,3.3-3.7l1,0.7c-1.4,2.2-2.9,3.8-4.4,4.9s-2.9,1.7-4.2,1.7c-0.9,0-1.5-0.2-2-0.7
			c-0.5-0.4-0.7-1.1-0.7-1.9c0-1,0.2-2.4,0.7-4l0.7-2.4c-2.7,3.6-5.2,6.1-7.5,7.5c-1.7,1-3.3,1.5-4.8,1.5s-2.8-0.6-3.9-1.9
			c-1.1-1.3-1.6-3-1.6-5.2c0-3.3,1-6.8,3-10.5s4.5-6.6,7.6-8.8c2.4-1.8,4.6-2.6,6.7-2.6c1.3,0,2.4,0.3,3.2,1s1.5,1.8,1.9,3.3
			l1.1-3.6L939.5,1005.5z M928.3,1007.1c-1.3,0-2.7,0.6-4.2,1.9c-2.1,1.8-4,4.4-5.7,7.8c-1.7,3.5-2.5,6.6-2.5,9.4
			c0,1.4,0.4,2.5,1.1,3.3c0.7,0.8,1.5,1.2,2.5,1.2c2.2,0,4.7-1.7,7.4-5c3.6-4.4,5.3-9,5.3-13.7c0-1.8-0.3-3-1-3.8
			C930.5,1007.5,929.5,1007.1,928.3,1007.1z"/>
	</g>
	<g class="st0">
		<path class="st1" d="M402.7,1098.6l-6.1,21.2l-0.7,2.9c-0.1,0.3-0.1,0.5-0.1,0.7c0,0.3,0.1,0.6,0.3,0.9c0.2,0.2,0.4,0.3,0.6,0.3
			c0.3,0,0.6-0.2,1-0.5c0.8-0.6,1.9-1.8,3.3-3.7l1,0.7c-1.4,2.2-2.9,3.8-4.4,4.9s-2.9,1.7-4.2,1.7c-0.9,0-1.5-0.2-2-0.7
			c-0.5-0.4-0.7-1.1-0.7-1.9c0-1,0.2-2.4,0.7-4l0.7-2.4c-2.7,3.6-5.2,6.1-7.5,7.5c-1.7,1-3.3,1.5-4.8,1.5s-2.8-0.6-3.9-1.9
			s-1.6-3-1.6-5.2c0-3.3,1-6.8,3-10.5s4.5-6.6,7.6-8.8c2.4-1.8,4.6-2.6,6.7-2.6c1.3,0,2.4,0.3,3.2,1c0.8,0.7,1.5,1.8,1.9,3.3
			l1.1-3.6L402.7,1098.6z M391.6,1100.2c-1.3,0-2.7,0.6-4.2,1.9c-2.1,1.8-4,4.4-5.7,7.8c-1.7,3.5-2.5,6.6-2.5,9.4
			c0,1.4,0.4,2.5,1.1,3.3s1.5,1.2,2.5,1.2c2.2,0,4.7-1.7,7.4-5c3.6-4.4,5.3-9,5.3-13.7c0-1.8-0.3-3-1-3.8
			C393.7,1100.6,392.8,1100.2,391.6,1100.2z"/>
		<path class="st1" d="M437.9,1100.5l-0.9,3.3h-5.2c0.4,1.1,0.6,2.2,0.6,3.1c0,2.8-1.2,5.2-3.5,7.4c-2.4,2.1-5.6,3.3-9.6,3.5
			c-2.2,0.7-3.9,1.5-5,2.4c-0.4,0.3-0.6,0.6-0.6,1s0.2,0.8,0.6,1.1c0.4,0.3,1.3,0.7,2.8,1l6.1,1.4c3.3,0.8,5.5,1.7,6.6,2.8
			s1.6,2.4,1.6,3.8c0,1.7-0.6,3.3-1.9,4.7s-3.1,2.5-5.5,3.3s-5.1,1.2-8,1.2c-2.6,0-4.9-0.3-7.1-0.9c-2.1-0.6-3.6-1.4-4.6-2.5
			c-0.9-1-1.4-2.1-1.4-3.2c0-0.9,0.3-1.8,0.9-2.8s1.3-1.8,2.2-2.4c0.6-0.4,2.2-1.4,4.8-2.8c-1-0.7-1.4-1.6-1.4-2.5
			c0-0.8,0.4-1.7,1.3-2.6s2.6-2,5.3-3.1c-2.3-0.4-4.1-1.4-5.4-2.9s-2-3.1-2-4.9c0-2.9,1.3-5.6,3.9-7.9s6-3.5,10.3-3.5
			c1.6,0,2.8,0.2,3.8,0.5s2,0.8,2.9,1.5H437.9L437.9,1100.5z M412.2,1126.8c-1.7,0.8-3,1.8-3.8,3c-0.9,1.2-1.3,2.4-1.3,3.5
			c0,1.4,0.6,2.5,1.9,3.4c1.8,1.3,4.4,1.9,7.9,1.9c3,0,5.5-0.5,7.6-1.5s3.2-2.3,3.2-3.9c0-0.8-0.4-1.6-1.2-2.3
			c-0.8-0.7-2.3-1.3-4.6-1.8C420.6,1128.9,417.4,1128.1,412.2,1126.8z M427.1,1105.4c0-1.7-0.5-3-1.4-4s-2.1-1.4-3.6-1.4
			c-2.4,0-4.3,1.2-5.8,3.5c-1.5,2.4-2.3,4.8-2.3,7.4c0,1.6,0.5,2.9,1.5,3.9s2.2,1.5,3.5,1.5c1.1,0,2.2-0.3,3.2-0.9s1.9-1.4,2.6-2.5
			s1.3-2.4,1.7-4S427.1,1106.1,427.1,1105.4z"/>
		<path class="st1" d="M439.9,1100.3l10.8-1.8l-4.5,15.2c3.6-6.2,6.9-10.6,9.9-13.1c1.7-1.4,3-2.1,4.1-2.1c0.7,0,1.2,0.2,1.6,0.6
			s0.6,1,0.6,1.8c0,1.4-0.3,2.7-1,3.9c-0.5,0.9-1.2,1.4-2.2,1.4c-0.5,0-0.9-0.2-1.2-0.5c-0.3-0.3-0.6-0.8-0.6-1.4
			c0-0.4-0.1-0.6-0.3-0.8c-0.2-0.2-0.4-0.2-0.6-0.2c-0.4,0-0.7,0.1-1,0.2c-0.5,0.3-1.4,1.1-2.5,2.4c-1.7,2-3.6,4.7-5.6,7.9
			c-0.9,1.4-1.6,2.9-2.2,4.7c-0.9,2.4-1.3,3.8-1.5,4.3l-1,3.9h-4.8l5.8-19.4c0.6-2.2,1-3.8,1-4.8c0-0.4-0.2-0.7-0.5-0.9
			c-0.4-0.3-1-0.5-1.6-0.5c-0.4,0-1.2,0.1-2.4,0.3L439.9,1100.3z"/>
		<path class="st1" d="M469.1,1115.1c-0.1,1-0.2,1.9-0.2,2.6c0,1.9,0.7,3.4,2,4.7c1.3,1.3,2.9,2,4.8,2c1.5,0,2.9-0.3,4.3-0.9
			s3.4-2,6.1-4.1l0.7,0.9c-4.9,4.9-9.6,7.3-14.1,7.3c-3,0-5.3-1-6.8-2.9s-2.3-4-2.3-6.3c0-3.1,1-6.3,2.9-9.5s4.3-5.8,7.2-7.6
			c2.9-1.8,5.9-2.7,8.9-2.7c2.2,0,3.8,0.5,4.9,1.4s1.6,2,1.6,3.2c0,1.7-0.7,3.4-2.1,5c-1.8,2.1-4.5,3.7-8,5
			C476.6,1113.9,473.3,1114.6,469.1,1115.1z M469.3,1113.5c3.1-0.4,5.6-1,7.5-1.8c2.6-1.1,4.5-2.5,5.8-4.1s1.9-3.1,1.9-4.6
			c0-0.9-0.3-1.5-0.8-2.1s-1.3-0.8-2.3-0.8c-2.1,0-4.4,1.1-6.7,3.4C472.2,1105.8,470.4,1109.1,469.3,1113.5z"/>
		<path class="st1" d="M523.1,1100.5l-0.9,3.3H517c0.4,1.1,0.6,2.2,0.6,3.1c0,2.8-1.2,5.2-3.5,7.4c-2.4,2.1-5.6,3.3-9.6,3.5
			c-2.2,0.7-3.9,1.5-5,2.4c-0.4,0.3-0.6,0.6-0.6,1s0.2,0.8,0.6,1.1c0.4,0.3,1.3,0.7,2.8,1l6.1,1.4c3.3,0.8,5.5,1.7,6.6,2.8
			s1.6,2.4,1.6,3.8c0,1.7-0.6,3.3-1.9,4.7c-1.3,1.4-3.1,2.5-5.5,3.3s-5.1,1.2-8,1.2c-2.6,0-4.9-0.3-7.1-0.9
			c-2.1-0.6-3.6-1.4-4.6-2.5c-0.9-1-1.4-2.1-1.4-3.2c0-0.9,0.3-1.8,0.9-2.8s1.3-1.8,2.2-2.4c0.6-0.4,2.2-1.4,4.8-2.8
			c-1-0.7-1.4-1.6-1.4-2.5c0-0.8,0.4-1.7,1.3-2.6s2.6-2,5.3-3.1c-2.3-0.4-4.1-1.4-5.4-2.9s-2-3.1-2-4.9c0-2.9,1.3-5.6,3.9-7.9
			s6-3.5,10.3-3.5c1.6,0,2.8,0.2,3.8,0.5c1,0.3,2,0.8,2.9,1.5H523.1L523.1,1100.5z M497.4,1126.8c-1.7,0.8-3,1.8-3.8,3
			c-0.9,1.2-1.3,2.4-1.3,3.5c0,1.4,0.6,2.5,1.9,3.4c1.8,1.3,4.4,1.9,7.9,1.9c3,0,5.5-0.5,7.6-1.5s3.2-2.3,3.2-3.9
			c0-0.8-0.4-1.6-1.2-2.3s-2.3-1.3-4.6-1.8C505.8,1128.9,502.6,1128.1,497.4,1126.8z M512.3,1105.4c0-1.7-0.5-3-1.4-4
			s-2.1-1.4-3.6-1.4c-2.4,0-4.3,1.2-5.8,3.5c-1.5,2.4-2.3,4.8-2.3,7.4c0,1.6,0.5,2.9,1.5,3.9s2.2,1.5,3.5,1.5c1.1,0,2.2-0.3,3.2-0.9
			s1.9-1.4,2.6-2.5s1.3-2.4,1.7-4C512.1,1107.3,512.3,1106.1,512.3,1105.4z"/>
		<path class="st1" d="M551.8,1098.6l-6.1,21.2l-0.7,2.9c-0.1,0.3-0.1,0.5-0.1,0.7c0,0.3,0.1,0.6,0.3,0.9c0.2,0.2,0.4,0.3,0.6,0.3
			c0.3,0,0.6-0.2,1-0.5c0.8-0.6,1.9-1.8,3.3-3.7l1,0.7c-1.4,2.2-2.9,3.8-4.4,4.9s-2.9,1.7-4.2,1.7c-0.9,0-1.5-0.2-2-0.7
			c-0.5-0.4-0.7-1.1-0.7-1.9c0-1,0.2-2.4,0.7-4l0.7-2.4c-2.7,3.6-5.2,6.1-7.5,7.5c-1.7,1-3.3,1.5-4.8,1.5s-2.8-0.6-3.9-1.9
			c-1.1-1.3-1.6-3-1.6-5.2c0-3.3,1-6.8,3-10.5s4.5-6.6,7.6-8.8c2.4-1.8,4.6-2.6,6.7-2.6c1.3,0,2.4,0.3,3.2,1s1.5,1.8,1.9,3.3
			l1.1-3.6L551.8,1098.6z M540.6,1100.2c-1.3,0-2.7,0.6-4.2,1.9c-2.1,1.8-4,4.4-5.7,7.8c-1.7,3.5-2.5,6.6-2.5,9.4
			c0,1.4,0.4,2.5,1.1,3.3c0.7,0.8,1.5,1.2,2.5,1.2c2.2,0,4.7-1.7,7.4-5c3.6-4.4,5.3-9,5.3-13.7c0-1.8-0.3-3-1-3.8
			C542.8,1100.6,541.8,1100.2,540.6,1100.2z"/>
		<path class="st1" d="M557,1100.3l10.8-1.8l-4.5,15.2c3.6-6.2,6.9-10.6,9.9-13.1c1.7-1.4,3-2.1,4.1-2.1c0.7,0,1.2,0.2,1.6,0.6
			c0.4,0.4,0.6,1,0.6,1.8c0,1.4-0.3,2.7-1,3.9c-0.5,0.9-1.2,1.4-2.2,1.4c-0.5,0-0.9-0.2-1.2-0.5s-0.6-0.8-0.6-1.4
			c0-0.4-0.1-0.6-0.3-0.8c-0.2-0.2-0.4-0.2-0.6-0.2c-0.4,0-0.7,0.1-1,0.2c-0.5,0.3-1.4,1.1-2.5,2.4c-1.7,2-3.6,4.7-5.6,7.9
			c-0.9,1.4-1.6,2.9-2.2,4.7c-0.9,2.4-1.3,3.8-1.5,4.3l-1,3.9H555l5.8-19.4c0.6-2.2,1-3.8,1-4.8c0-0.4-0.2-0.7-0.5-0.9
			c-0.4-0.3-1-0.5-1.6-0.5c-0.4,0-1.2,0.1-2.4,0.3L557,1100.3z"/>
		<path class="st1" d="M595.2,1090.9l-2.4,8.5h4.9l-0.5,2h-4.8l-5.4,18.4c-0.6,2-0.9,3.3-0.9,3.8c0,0.4,0.1,0.6,0.2,0.8
			c0.2,0.2,0.3,0.3,0.6,0.3c0.5,0,1.2-0.4,2.1-1.1c0.5-0.4,1.6-1.7,3.4-3.8l1,0.8c-1.9,2.8-3.7,4.7-5.4,5.9
			c-1.2,0.8-2.3,1.2-3.5,1.2c-0.9,0-1.6-0.3-2.2-0.9s-0.9-1.3-0.9-2.2c0-1.1,0.3-2.8,1-5.1l5.2-18.1h-4.7l0.3-1.2
			c2.3-0.6,4.2-1.5,5.7-2.8c1.5-1.2,3.2-3.4,5.1-6.4L595.2,1090.9L595.2,1090.9z"/>
		<path class="st1" d="M603.9,1115.1c-0.1,1-0.2,1.9-0.2,2.6c0,1.9,0.7,3.4,2,4.7c1.3,1.3,2.9,2,4.8,2c1.5,0,2.9-0.3,4.3-0.9
			c1.4-0.6,3.4-2,6.1-4.1l0.7,0.9c-4.9,4.9-9.6,7.3-14.1,7.3c-3,0-5.3-1-6.8-2.9s-2.3-4-2.3-6.3c0-3.1,1-6.3,2.9-9.5
			s4.3-5.8,7.2-7.6c2.9-1.8,5.9-2.7,8.9-2.7c2.2,0,3.8,0.5,4.9,1.4c1.1,0.9,1.6,2,1.6,3.2c0,1.7-0.7,3.4-2.1,5c-1.8,2.1-4.5,3.7-8,5
			C611.4,1113.9,608.2,1114.6,603.9,1115.1z M604.2,1113.5c3.1-0.4,5.6-1,7.5-1.8c2.6-1.1,4.5-2.5,5.8-4.1s1.9-3.1,1.9-4.6
			c0-0.9-0.3-1.5-0.8-2.1s-1.3-0.8-2.3-0.8c-2.1,0-4.4,1.1-6.7,3.4C607.1,1105.8,605.3,1109.1,604.2,1113.5z"/>
		<path class="st1" d="M670.7,1098.6l-6.1,21.2l-0.7,2.9c-0.1,0.3-0.1,0.5-0.1,0.7c0,0.3,0.1,0.6,0.3,0.9c0.2,0.2,0.4,0.3,0.6,0.3
			c0.3,0,0.6-0.2,1-0.5c0.8-0.6,1.9-1.8,3.3-3.7l1,0.7c-1.4,2.2-2.9,3.8-4.4,4.9s-2.9,1.7-4.2,1.7c-0.9,0-1.5-0.2-2-0.7
			c-0.5-0.4-0.7-1.1-0.7-1.9c0-1,0.2-2.4,0.7-4l0.7-2.4c-2.7,3.6-5.2,6.1-7.5,7.5c-1.7,1-3.3,1.5-4.8,1.5s-2.8-0.6-3.9-1.9
			c-1.1-1.3-1.6-3-1.6-5.2c0-3.3,1-6.8,3-10.5s4.5-6.6,7.6-8.8c2.4-1.8,4.6-2.6,6.7-2.6c1.3,0,2.4,0.3,3.2,1s1.5,1.8,1.9,3.3
			l1.1-3.6L670.7,1098.6z M659.5,1100.2c-1.3,0-2.7,0.6-4.2,1.9c-2.1,1.8-4,4.4-5.7,7.8c-1.7,3.5-2.5,6.6-2.5,9.4
			c0,1.4,0.4,2.5,1.1,3.3c0.7,0.8,1.5,1.2,2.5,1.2c2.2,0,4.7-1.7,7.4-5c3.6-4.4,5.3-9,5.3-13.7c0-1.8-0.3-3-1-3.8
			C661.7,1100.6,660.7,1100.2,659.5,1100.2z"/>
		<path class="st1" d="M707.6,1082.4l-10.7,37.1c-0.5,1.9-0.8,3-0.8,3.4c0,0.3,0.1,0.6,0.3,0.8c0.2,0.2,0.4,0.3,0.7,0.3
			c0.4,0,0.8-0.2,1.3-0.5c1.1-0.9,2.2-2.2,3.4-4l0.9,1c-2,2.8-3.8,4.7-5.5,5.9c-1.2,0.8-2.4,1.2-3.5,1.2c-0.8,0-1.4-0.3-2-0.8
			c-0.5-0.5-0.8-1.2-0.8-1.9s0.3-2.3,1-4.6l8.5-29.3c0.7-2.4,1-3.8,1-4.1c0-0.5-0.2-0.9-0.6-1.3c-0.4-0.3-1-0.5-1.8-0.5
			c-0.5,0-1.2,0.1-2.2,0.2v-1.2L707.6,1082.4z"/>
		<path class="st1" d="M736.3,1098.6l-6.1,21.2l-0.7,2.9c-0.1,0.3-0.1,0.5-0.1,0.7c0,0.3,0.1,0.6,0.3,0.9c0.2,0.2,0.4,0.3,0.6,0.3
			c0.3,0,0.6-0.2,1-0.5c0.8-0.6,1.9-1.8,3.3-3.7l1,0.7c-1.4,2.2-2.9,3.8-4.4,4.9s-2.9,1.7-4.2,1.7c-0.9,0-1.5-0.2-2-0.7
			c-0.5-0.4-0.7-1.1-0.7-1.9c0-1,0.2-2.4,0.7-4l0.7-2.4c-2.7,3.6-5.2,6.1-7.5,7.5c-1.7,1-3.3,1.5-4.8,1.5s-2.8-0.6-3.9-1.9
			c-1.1-1.3-1.6-3-1.6-5.2c0-3.3,1-6.8,3-10.5s4.5-6.6,7.6-8.8c2.4-1.8,4.6-2.6,6.7-2.6c1.3,0,2.4,0.3,3.2,1s1.5,1.8,1.9,3.3
			l1.1-3.6L736.3,1098.6z M725.2,1100.2c-1.3,0-2.7,0.6-4.2,1.9c-2.1,1.8-4,4.4-5.7,7.8c-1.7,3.5-2.5,6.6-2.5,9.4
			c0,1.4,0.4,2.5,1.1,3.3c0.7,0.8,1.5,1.2,2.5,1.2c2.2,0,4.7-1.7,7.4-5c3.6-4.4,5.3-9,5.3-13.7c0-1.8-0.3-3-1-3.8
			S726.4,1100.2,725.2,1100.2z"/>
		<path class="st1" d="M773.2,1082.4l-10.7,37.1c-0.5,1.9-0.8,3-0.8,3.4c0,0.3,0.1,0.6,0.3,0.8c0.2,0.2,0.4,0.3,0.7,0.3
			c0.4,0,0.8-0.2,1.3-0.5c1.1-0.9,2.2-2.2,3.4-4l0.9,1c-2,2.8-3.8,4.7-5.5,5.9c-1.2,0.8-2.4,1.2-3.5,1.2c-0.8,0-1.4-0.3-2-0.8
			c-0.5-0.5-0.8-1.2-0.8-1.9s0.3-2.3,1-4.6l8.5-29.3c0.7-2.4,1-3.8,1-4.1c0-0.5-0.2-0.9-0.6-1.3s-1-0.5-1.8-0.5
			c-0.5,0-1.2,0.1-2.2,0.2v-1.2L773.2,1082.4z"/>
		<path class="st1" d="M786.7,1098.6l-6.2,21.9c-0.4,1.5-0.6,2.4-0.6,2.6c0,0.3,0.1,0.6,0.3,0.8c0.2,0.2,0.4,0.3,0.7,0.3
			s0.7-0.2,1.1-0.5c1.2-0.9,2.4-2.3,3.6-4l1.1,0.7c-1.4,2.1-3.1,4-5,5.5c-1.4,1.1-2.7,1.6-4,1.6c-0.9,0-1.5-0.3-2.1-0.8
			c-0.5-0.5-0.8-1.1-0.8-1.9s0.3-2.1,0.8-3.8l4.1-14c0.6-2.3,1-3.7,1-4.3c0-0.4-0.2-0.8-0.5-1.1s-0.8-0.4-1.3-0.4s-1.4,0.1-2.9,0.3
			v-1.2L786.7,1098.6z M786.3,1086.2c0.9,0,1.6,0.3,2.2,0.9c0.6,0.6,0.9,1.3,0.9,2.2s-0.3,1.6-0.9,2.2c-0.6,0.6-1.3,0.9-2.2,0.9
			s-1.6-0.3-2.2-0.9c-0.6-0.6-0.9-1.4-0.9-2.2s0.3-1.6,0.9-2.2C784.6,1086.5,785.4,1086.2,786.3,1086.2z"/>
		<path class="st1" d="M812.9,1098.6l-1.9,9.6h-1.2c-0.1-2.8-0.7-4.8-1.8-6.1s-2.4-1.9-4-1.9c-1.3,0-2.3,0.3-3,1
			c-0.8,0.7-1.1,1.5-1.1,2.6c0,0.7,0.1,1.3,0.4,2c0.3,0.6,1,1.5,2,2.6c2.7,3,4.4,5.2,5.2,6.7s1.2,2.9,1.2,4.2c0,2.2-0.9,4.1-2.7,5.8
			c-1.8,1.7-4.1,2.5-6.8,2.5c-1.5,0-3.2-0.3-5.2-1c-0.7-0.3-1.2-0.4-1.6-0.4c-0.9,0-1.6,0.5-2.1,1.4h-1.1l1.9-10.1h1.2
			c0.1,3.2,0.7,5.4,1.9,6.7s2.8,2,4.9,2c1.6,0,2.8-0.4,3.8-1.3c0.9-0.9,1.4-2,1.4-3.3c0-0.8-0.2-1.6-0.5-2.3c-0.6-1.2-1.8-3-3.7-5.2
			s-3.1-3.9-3.6-5s-0.8-2.2-0.8-3.3c0-2,0.7-3.7,2.2-5.1s3.4-2.1,5.7-2.1c0.7,0,1.3,0.1,1.8,0.2c0.3,0.1,1,0.3,2,0.7
			c1,0.4,1.8,0.6,2.2,0.6c0.9,0,1.6-0.5,2.2-1.5L812.9,1098.6L812.9,1098.6z"/>
		<path class="st1" d="M831.2,1090.9l-2.4,8.5h4.9l-0.5,2h-4.8l-5.4,18.4c-0.6,2-0.9,3.3-0.9,3.8c0,0.4,0.1,0.6,0.2,0.8
			s0.3,0.3,0.6,0.3c0.5,0,1.2-0.4,2.1-1.1c0.5-0.4,1.6-1.7,3.4-3.8l1,0.8c-1.9,2.8-3.7,4.7-5.4,5.9c-1.2,0.8-2.3,1.2-3.5,1.2
			c-0.9,0-1.6-0.3-2.2-0.9c-0.6-0.6-0.9-1.3-0.9-2.2c0-1.1,0.3-2.8,1-5.1l5.2-18.1h-4.7l0.3-1.2c2.3-0.6,4.2-1.5,5.7-2.8
			s3.2-3.4,5.1-6.4L831.2,1090.9L831.2,1090.9z"/>
		<path class="st1" d="M862.3,1098.6l-6.1,21.2l-0.7,2.9c-0.1,0.3-0.1,0.5-0.1,0.7c0,0.3,0.1,0.6,0.3,0.9c0.2,0.2,0.4,0.3,0.6,0.3
			c0.3,0,0.6-0.2,1-0.5c0.8-0.6,1.9-1.8,3.3-3.7l1,0.7c-1.4,2.2-2.9,3.8-4.4,4.9s-2.9,1.7-4.2,1.7c-0.9,0-1.5-0.2-2-0.7
			c-0.5-0.4-0.7-1.1-0.7-1.9c0-1,0.2-2.4,0.7-4l0.7-2.4c-2.7,3.6-5.2,6.1-7.5,7.5c-1.7,1-3.3,1.5-4.8,1.5s-2.8-0.6-3.9-1.9
			c-1.1-1.3-1.6-3-1.6-5.2c0-3.3,1-6.8,3-10.5s4.5-6.6,7.6-8.8c2.4-1.8,4.6-2.6,6.7-2.6c1.3,0,2.4,0.3,3.2,1s1.5,1.8,1.9,3.3
			l1.1-3.6L862.3,1098.6z M851.2,1100.2c-1.3,0-2.7,0.6-4.2,1.9c-2.1,1.8-4,4.4-5.7,7.8c-1.7,3.5-2.5,6.6-2.5,9.4
			c0,1.4,0.4,2.5,1.1,3.3c0.7,0.8,1.5,1.2,2.5,1.2c2.2,0,4.7-1.7,7.4-5c3.6-4.4,5.3-9,5.3-13.7c0-1.8-0.3-3-1-3.8
			S852.4,1100.2,851.2,1100.2z"/>
	</g>
	<g class="st0">
		<path class="st1" d="M497.8,1174.3l-10.7,36.8c-0.6,2-0.9,3.3-0.9,4c0,0.2,0.1,0.4,0.3,0.6c0.2,0.2,0.4,0.3,0.5,0.3
			c0.3,0,0.6-0.1,1-0.4c0.7-0.5,1.9-1.8,3.6-3.8l1.1,0.7c-1.5,2.1-3,3.7-4.6,5c-1.5,1.3-3,1.9-4.3,1.9c-0.7,0-1.3-0.2-1.8-0.7
			s-0.7-1.2-0.7-2.1c0-1.2,0.3-2.8,0.9-4.8l1.2-3.9c-3,4.7-5.7,7.9-8.2,9.7c-1.7,1.2-3.3,1.8-4.9,1.8s-3-0.7-4.2-2.1
			s-1.8-3.3-1.8-5.7c0-3.1,1-6.4,3-9.9s4.6-6.4,7.8-8.6c2.6-1.8,4.9-2.7,7.1-2.7c1.1,0,2.1,0.2,2.9,0.7s1.6,1.2,2.4,2.3l3.1-10.9
			c0.2-0.8,0.4-1.4,0.5-1.9c0.3-0.8,0.4-1.5,0.4-2.1c0-0.4-0.2-0.8-0.5-1.1c-0.4-0.4-1-0.5-1.7-0.5c-0.5,0-1.3,0.1-2.4,0.2v-1.2
			L497.8,1174.3z M486.2,1196.5c0-1.3-0.4-2.4-1.1-3.2c-0.8-0.8-1.7-1.2-2.9-1.2c-2.6,0-5.4,2.2-8.2,6.5s-4.2,8.4-4.2,12.4
			c0,1.6,0.3,2.8,1,3.6s1.5,1.2,2.5,1.2c2.2,0,4.9-2.3,8.1-7C484.6,1204.1,486.2,1200,486.2,1196.5z"/>
		<path class="st1" d="M502.8,1207c-0.1,1-0.2,1.9-0.2,2.6c0,1.9,0.7,3.4,2,4.7c1.3,1.3,2.9,2,4.8,2c1.5,0,2.9-0.3,4.3-0.9
			c1.4-0.6,3.4-2,6.1-4.1l0.7,0.9c-4.9,4.9-9.6,7.3-14.1,7.3c-3,0-5.3-1-6.8-2.9s-2.3-4-2.3-6.3c0-3.1,1-6.3,2.9-9.5
			s4.3-5.8,7.2-7.6c2.9-1.8,5.9-2.7,8.9-2.7c2.2,0,3.8,0.5,4.9,1.4c1.1,0.9,1.6,2,1.6,3.2c0,1.7-0.7,3.4-2.1,5c-1.8,2.1-4.5,3.7-8,5
			C510.3,1205.8,507,1206.5,502.8,1207z M503,1205.4c3.1-0.4,5.6-1,7.5-1.8c2.6-1.1,4.5-2.5,5.8-4.1s1.9-3.1,1.9-4.6
			c0-0.9-0.3-1.5-0.8-2.1s-1.3-0.8-2.3-0.8c-2.1,0-4.4,1.1-6.7,3.4C505.9,1197.7,504.1,1201,503,1205.4z"/>
		<path class="st1" d="M554.2,1190.5l-6.2,21.9c-0.4,1.5-0.6,2.4-0.6,2.6c0,0.3,0.1,0.6,0.3,0.8c0.2,0.2,0.4,0.3,0.7,0.3
			s0.7-0.2,1.1-0.5c1.2-0.9,2.4-2.3,3.6-4l1.1,0.7c-1.4,2.1-3.1,4-5,5.5c-1.4,1.1-2.7,1.6-4,1.6c-0.9,0-1.6-0.3-2.1-0.8
			s-0.8-1.1-0.8-1.9s0.3-2.1,0.8-3.8l4.1-14c0.6-2.3,1-3.7,1-4.3c0-0.4-0.2-0.8-0.5-1.1s-0.8-0.4-1.3-0.4s-1.4,0.1-2.9,0.3v-1.2
			L554.2,1190.5z M553.8,1178.1c0.9,0,1.6,0.3,2.2,0.9c0.6,0.6,0.9,1.3,0.9,2.2c0,0.9-0.3,1.6-0.9,2.2c-0.6,0.6-1.3,0.9-2.2,0.9
			s-1.6-0.3-2.2-0.9c-0.6-0.6-0.9-1.4-0.9-2.2c0-0.8,0.3-1.6,0.9-2.2S552.9,1178.1,553.8,1178.1z"/>
		<path class="st1" d="M571.4,1190.5l-4.1,14.2c3.9-5.8,6.9-9.6,8.9-11.5c2.1-1.8,4.1-2.8,6-2.8c1,0,1.9,0.3,2.6,1
			c0.7,0.7,1,1.6,1,2.7c0,1.3-0.3,2.9-0.9,5l-3.8,13.1c-0.4,1.5-0.7,2.5-0.7,2.8s0.1,0.5,0.3,0.7s0.3,0.3,0.5,0.3s0.5-0.1,0.9-0.4
			c1.1-0.9,2.3-2.2,3.6-4l1,0.6c-1.9,2.8-3.8,4.7-5.5,5.9c-1.2,0.8-2.3,1.2-3.3,1.2c-0.8,0-1.4-0.2-1.8-0.7
			c-0.5-0.5-0.7-1.1-0.7-1.9c0-1,0.3-2.7,1-5.2l3.6-12.6c0.4-1.6,0.7-2.8,0.7-3.6c0-0.4-0.1-0.7-0.4-1c-0.3-0.3-0.6-0.4-1-0.4
			c-0.6,0-1.3,0.2-2.1,0.7c-1.5,0.9-3.1,2.5-4.8,4.6s-3.4,4.9-5.3,8.2c-1,1.8-1.8,3.7-2.4,5.8l-1.6,5.2h-4.7l5.7-19.5
			c0.7-2.4,1-3.8,1-4.2s-0.2-0.9-0.6-1.2c-0.4-0.3-0.8-0.5-1.3-0.5c-0.3,0-0.7,0.1-1.3,0.2l-1.2,0.2l-0.2-1.1L571.4,1190.5z"/>
		<path class="st1" d="M590.6,1192.4l9-1.9c0.6,1.5,1.2,3.1,1.6,4.7c0.6,2.4,1,5.1,1.4,8.4c0.2,1.6,0.4,5.1,0.7,10.3
			c2.6-2.9,4.2-4.6,4.7-5.3c2.8-3.7,4.4-5.9,4.8-6.5c0.7-1.1,1.1-2.1,1.4-2.9c0.2-0.6,0.3-1.2,0.3-1.8c0-0.5-0.5-1.2-1.5-1.9
			s-1.5-1.5-1.5-2.4c0-0.6,0.3-1.2,0.8-1.8c0.5-0.5,1.2-0.8,1.9-0.8c0.9,0,1.6,0.4,2.3,1.1s1,1.6,1,2.7s-0.2,2.1-0.5,3.1
			c-0.5,1.6-1.5,3.5-3,5.8s-3.9,5.3-7.2,9.2c-0.4,0.5-2.7,2.9-6.9,7.2h-1.1c-0.5-13.2-1.6-21.4-3.1-24.6c-0.5-1.1-1.4-1.6-2.6-1.6
			c-0.5,0-1.3,0.1-2.2,0.3L590.6,1192.4z"/>
		<path class="st1" d="M632.3,1190.5l-6.2,21.9c-0.4,1.5-0.6,2.4-0.6,2.6c0,0.3,0.1,0.6,0.3,0.8c0.2,0.2,0.4,0.3,0.7,0.3
			s0.7-0.2,1.1-0.5c1.2-0.9,2.4-2.3,3.6-4l1.1,0.7c-1.4,2.1-3.1,4-5,5.5c-1.4,1.1-2.7,1.6-4,1.6c-0.9,0-1.6-0.3-2.1-0.8
			s-0.8-1.1-0.8-1.9s0.3-2.1,0.8-3.8l4.1-14c0.6-2.3,1-3.7,1-4.3c0-0.4-0.2-0.8-0.5-1.1s-0.8-0.4-1.3-0.4s-1.4,0.1-2.9,0.3v-1.2
			L632.3,1190.5z M631.9,1178.1c0.9,0,1.6,0.3,2.2,0.9c0.6,0.6,0.9,1.3,0.9,2.2c0,0.9-0.3,1.6-0.9,2.2c-0.6,0.6-1.3,0.9-2.2,0.9
			s-1.6-0.3-2.2-0.9c-0.6-0.6-0.9-1.4-0.9-2.2c0-0.8,0.3-1.6,0.9-2.2C630.2,1178.4,631,1178.1,631.9,1178.1z"/>
		<path class="st1" d="M651.9,1182.8l-2.4,8.5h4.9l-0.5,2H649l-5.4,18.4c-0.6,2-0.9,3.3-0.9,3.8c0,0.4,0.1,0.6,0.2,0.8
			c0.2,0.2,0.3,0.3,0.6,0.3c0.5,0,1.2-0.4,2.1-1.1c0.5-0.4,1.6-1.7,3.4-3.8l1,0.8c-1.9,2.8-3.7,4.7-5.4,5.9
			c-1.2,0.8-2.3,1.2-3.5,1.2c-0.9,0-1.6-0.3-2.2-0.9c-0.6-0.6-0.9-1.3-0.9-2.2c0-1.1,0.3-2.8,1-5.1l5.2-18.1h-4.7l0.3-1.2
			c2.3-0.6,4.2-1.5,5.7-2.8c1.5-1.2,3.2-3.4,5.1-6.4L651.9,1182.8L651.9,1182.8z"/>
		<path class="st1" d="M683.1,1190.5l-6.1,21.2l-0.7,2.9c-0.1,0.3-0.1,0.5-0.1,0.7c0,0.3,0.1,0.6,0.3,0.9c0.2,0.2,0.4,0.3,0.6,0.3
			c0.3,0,0.6-0.2,1-0.5c0.8-0.6,1.9-1.8,3.3-3.7l1,0.7c-1.4,2.2-2.9,3.8-4.4,4.9s-2.9,1.7-4.2,1.7c-0.9,0-1.5-0.2-2-0.7
			c-0.5-0.4-0.7-1.1-0.7-1.9c0-1,0.2-2.4,0.7-4l0.7-2.4c-2.7,3.6-5.2,6.1-7.5,7.5c-1.7,1-3.3,1.5-4.8,1.5s-2.8-0.6-3.9-1.9
			c-1.1-1.3-1.6-3-1.6-5.2c0-3.3,1-6.8,3-10.5s4.5-6.6,7.6-8.8c2.4-1.8,4.6-2.6,6.7-2.6c1.3,0,2.4,0.3,3.2,1s1.5,1.8,1.9,3.3
			l1.1-3.6L683.1,1190.5z M671.9,1192.1c-1.3,0-2.7,0.6-4.2,1.9c-2.1,1.8-4,4.4-5.7,7.8c-1.7,3.5-2.5,6.6-2.5,9.4
			c0,1.4,0.4,2.5,1.1,3.3c0.7,0.8,1.5,1.2,2.5,1.2c2.2,0,4.7-1.7,7.4-5c3.6-4.4,5.3-9,5.3-13.7c0-1.8-0.3-3-1-3.8
			C674.1,1192.5,673.1,1192.1,671.9,1192.1z"/>
		<path class="st1" d="M719.6,1174.3l-10.7,36.8c-0.6,2-0.9,3.3-0.9,4c0,0.2,0.1,0.4,0.3,0.6s0.4,0.3,0.5,0.3c0.3,0,0.6-0.1,1-0.4
			c0.7-0.5,1.9-1.8,3.6-3.8l1.1,0.7c-1.5,2.1-3,3.7-4.6,5c-1.5,1.3-3,1.9-4.3,1.9c-0.7,0-1.3-0.2-1.8-0.7s-0.7-1.2-0.7-2.1
			c0-1.2,0.3-2.8,0.9-4.8l1.2-3.9c-3,4.7-5.7,7.9-8.2,9.7c-1.7,1.2-3.3,1.8-4.9,1.8c-1.6,0-3-0.7-4.2-2.1s-1.8-3.3-1.8-5.7
			c0-3.1,1-6.4,3-9.9s4.6-6.4,7.8-8.6c2.6-1.8,4.9-2.7,7.1-2.7c1.1,0,2.1,0.2,2.9,0.7c0.8,0.5,1.6,1.2,2.4,2.3l3.1-10.9
			c0.2-0.8,0.4-1.4,0.5-1.9c0.3-0.8,0.4-1.5,0.4-2.1c0-0.4-0.2-0.8-0.5-1.1c-0.4-0.4-1-0.5-1.7-0.5c-0.5,0-1.3,0.1-2.4,0.2v-1.2
			L719.6,1174.3z M708,1196.5c0-1.3-0.4-2.4-1.1-3.2c-0.8-0.8-1.7-1.2-2.9-1.2c-2.6,0-5.4,2.2-8.2,6.5s-4.2,8.4-4.2,12.4
			c0,1.6,0.3,2.8,1,3.6s1.5,1.2,2.5,1.2c2.2,0,4.9-2.3,8.1-7C706.4,1204.1,708,1200,708,1196.5z"/>
		<path class="st1" d="M746.5,1200.2c0,3.1-0.8,6.2-2.5,9.3s-4,5.5-6.9,7.3s-5.8,2.7-8.6,2.7s-5.2-0.9-7-2.7c-1.8-1.8-2.7-4.2-2.7-7
			c0-3.1,0.9-6.1,2.6-9.2c1.8-3.1,4.1-5.5,7.1-7.3s5.8-2.7,8.5-2.7c2.8,0,5,0.9,6.8,2.7C745.6,1195,746.5,1197.4,746.5,1200.2z
			 M741.3,1198.1c0-1.9-0.5-3.4-1.4-4.5s-2.2-1.6-3.7-1.6c-3,0-5.9,2.2-8.4,6.6c-2.6,4.4-3.9,8.7-3.9,13.1c0,2,0.5,3.5,1.5,4.6
			s2.3,1.6,3.8,1.6c2.9,0,5.7-2.2,8.3-6.5C740,1207,741.3,1202.6,741.3,1198.1z"/>
		<path class="st1" d="M772,1190.5l-1.9,9.6H769c-0.1-2.8-0.7-4.8-1.8-6.1s-2.4-1.9-4-1.9c-1.3,0-2.3,0.3-3,1
			c-0.8,0.7-1.1,1.5-1.1,2.6c0,0.7,0.1,1.3,0.4,2c0.3,0.6,1,1.5,2,2.6c2.7,3,4.4,5.2,5.2,6.7s1.2,2.9,1.2,4.2c0,2.2-0.9,4.1-2.7,5.8
			c-1.8,1.7-4.1,2.5-6.8,2.5c-1.5,0-3.2-0.3-5.2-1c-0.7-0.3-1.2-0.4-1.6-0.4c-0.9,0-1.6,0.5-2.1,1.4h-1.1l1.9-10.1h1.2
			c0.1,3.2,0.7,5.4,1.9,6.7s2.8,2,4.9,2c1.6,0,2.8-0.4,3.8-1.3c0.9-0.9,1.4-2,1.4-3.3c0-0.8-0.2-1.6-0.5-2.3c-0.6-1.2-1.8-3-3.7-5.2
			s-3.1-3.9-3.6-5s-0.8-2.2-0.8-3.3c0-2,0.7-3.7,2.2-5.1s3.4-2.1,5.7-2.1c0.7,0,1.3,0.1,1.8,0.2c0.3,0.1,1,0.3,2,0.7
			c1,0.4,1.8,0.6,2.2,0.6c0.9,0,1.6-0.5,2.2-1.5L772,1190.5L772,1190.5z"/>
	</g>
</g>
<g>
	<g>
		<g>
			<g>
				<g>
					<path class="st1" d="M492.9,888.3c11.2,15.4,32.7,11.9,49.3,8.7c13.4-2.6,26.9-4.3,40.6-3.9c6.8,0.2,13.9,0.5,20.4,2.1
						c3.1,0.8,6.4,1.8,8.7,4.2c3.5,4.2,3.5,8.4-0.1,12.5c-5.6,4.6-7.8,4.1-6.6-1.7c0.2,0.8,1.5,0.6,1.4-0.2
						c-0.4-8.8-15.1-0.6-5.7,5.4c10.4,6.7,19.8-9,13.2-16.9c-4.7-5.6-13.3-6.2-20.3-6.9c-11.9-1.2-23.9-0.8-35.8,0.6
						c-20.9,2.6-47.7,13.4-64.2-4.8C493.4,887.1,492.5,887.8,492.9,888.3L492.9,888.3z"/>
				</g>
				<g>
					<path class="st1" d="M584.3,901.4c1-5.3-7-3.9-5.6,1.1c2.5,9,15.2,1.5,16.8-4.1c2.8-10.2-9-16.8-18.1-16.9
						c-7.9-0.1-15.3,3-22.6,5.4c-4.4,1.4-8.9,2.7-13.6,2.6c-3,0-6.3-0.4-9.1-1.7c-1-0.6-1.9-1.2-2.9-1.8c-3.6-2.5-3.6-4.6-0.1-6.4
						c-0.7-0.9-2.1-0.2-1.6,0.9c2.5,5.6,11,1.5,8.2-4c-3.3-6.5-12.3-1.5-12,4.4c0.4,10.4,15.3,12,23.4,10.5
						c8.4-1.5,15.9-5.6,24.2-7.2c5.9-1.1,12-0.8,17,2.6c2.2,1.5,4.9,4.1,5.2,6.9c-0.4,2.2-0.8,4.3-1.2,6.5c-3.1,4.9-6,5.3-8.7,1.2
						C583.7,901.7,584.2,901.7,584.3,901.4L584.3,901.4z"/>
				</g>
			</g>
		</g>
	</g>
	<g>
		<g>
			<g>
				<g>
					<path class="st1" d="M748.1,887.9c-11.2,15.4-32.7,11.9-49.3,8.7c-13.4-2.6-26.9-4.3-40.6-3.9c-6.8,0.2-13.9,0.5-20.4,2.1
						c-3.1,0.8-6.4,1.8-8.7,4.2c-3.5,4.2-3.5,8.4,0.1,12.5c5.6,4.6,7.8,4.1,6.6-1.7c-0.2,0.8-1.4,0.6-1.4-0.2
						c0.4-8.8,15.1-0.6,5.7,5.4c-10.4,6.7-19.8-9-13.2-16.9c4.7-5.6,13.3-6.2,20.3-6.9c11.9-1.2,23.9-0.8,35.8,0.6
						c20.9,2.6,47.7,13.4,64.2-4.8C747.6,886.7,748.5,887.3,748.1,887.9L748.1,887.9z"/>
				</g>
				<g>
					<path class="st1" d="M656.7,901c-1-5.3,7-3.9,5.6,1.1c-2.5,9-15.2,1.5-16.8-4.1c-2.8-10.2,9-16.8,18.1-16.9
						c7.9-0.1,15.3,3,22.6,5.4c4.4,1.4,8.9,2.7,13.6,2.6c3,0,6.3-0.4,9.1-1.7c1-0.6,1.9-1.2,2.9-1.8c3.6-2.5,3.6-4.6,0.1-6.4
						c0.7-0.9,2.1-0.2,1.6,0.9c-2.5,5.6-11,1.5-8.2-4c3.3-6.5,12.3-1.5,12,4.4c-0.4,10.4-15.3,12-23.4,10.5
						c-8.4-1.5-15.9-5.6-24.2-7.2c-5.9-1.1-12-0.8-17,2.6c-2.2,1.5-4.9,4.1-5.2,6.9c0.4,2.2,0.8,4.3,1.2,6.5c3.1,4.9,6,5.3,8.7,1.2
						C657.2,901.2,656.7,901.3,656.7,901L656.7,901z"/>
				</g>
			</g>
		</g>
	</g>
</g>
<g>
	<path class="st1" d="M334,709.9c-9.4,14.9-39.6,11.2-58.7,11.2c-2.5,2.7-4.8,5.5-7.2,8.7c-19.1,26.7-23.8,58.9-9.7,69.6
		c12.5,9.4,32.4,5,50.2-18.1c14.1-18.2,23.2-24.6,27.6-25.6c-9.8,6.9-17.3,15-27.1,28c-15.7,20.8-38.5,27.6-53.9,17.1
		c-23.2-20.3-6.1-59.4,11.6-79.8c-34.3,1.5-51.2,17.1-60.3,28.9c9.6-17.4,32.2-28.8,61.9-30.7c13.5-14.1,31.2-22.7,48.8-22.9
		C327.6,696.4,340,700.8,334,709.9z M317.5,699.2c-10.4,0.4-25.7,5.6-40.7,20.3c13.1,0.3,31.3,1.8,42.8-1.9
		C336.5,712.4,339,698.3,317.5,699.2z"/>
	<path class="st1" d="M335.4,749c5.8-0.1,10.5,3.2,10.5,12.1c0,2.7-0.7,6.2-1.7,9.7c1.8-0.8,3.7-1.9,5.7-3.3c7.8-6,9.6-12,13.7-11.6
		c-4.3,3.1-8,10.3-15.2,14.5c-1.5,0.9-2.9,1.5-4.7,2c-2.8,8.4-8.5,16.7-14.8,16.4c-9-0.3-9.7-11.7-5.4-19.8c0.5-1,1.1-2,1.6-2.8
		C319.6,756.6,328.3,749.1,335.4,749z M329.3,771c-1.3,2.3-2.4,4.5-2.9,6.7c-1.7,6.1,1.6,12.7,7.2,8c2.8-2.4,5.8-7.2,8.1-12.7
		C337.2,773.7,332.8,773.3,329.3,771z M333.4,755.8c3.5-0.5,3.9,2.8,3.6,4.6c0,0.1-3.7,4-6.9,8.9c2.9,2.3,7.3,3.1,12,2
		c2.8-7.5,3.5-15.5-1.1-19.2c-6.1-5-13.4,0.8-14.6,5c-0.7,2.4-0.7,4.7,0,6.7C329.7,758.9,332.4,756,333.4,755.8z"/>
	<path class="st1" d="M368.1,759.9c0.1,4.1-1.3,6.1-3.6,10.8c5.4-7.5,18.1-19.5,26.6-21.7c4.9-1.3,7.2,3.1,6.8,6.4
		c-0.7,4.8-15,23.8-16.9,30.8c-2.6,10.3,4.1,7,6.2,5.5c6.2-4.5,17.9-24.7,23.2-30.5c6.5-7.3,8.9-4.8,8.9-4.8
		c-10.2,2.4-22.7,34.1-34.1,38.5c-3.3,1.4-8.5,0.5-10.1-4.7c-2.9-10.4,16.7-34.6,17.4-38.2c0.7-4.1-12,3.2-20.7,13
		c-6,6.6-9,11.6-11.7,15.4c-0.5,0.9-3.5,0.9-4.8-1.3c-0.5-0.9-2.1-2.9,2.8-12.3c5.3-10.3,3.1-9.9,3.1-9.9
		C362.3,755,368,755.8,368.1,759.9z"/>
	<path class="st1" d="M440.1,765.8c-6.6,6.1-19.4,7.6-23.5,6.1c8.9,5.7,7.6,35.6-5.2,34.5c-8.5-0.8-8.4-13.5-4.3-28.9
		c4.3-16.3,18.6-45.8,34.8-65.8c5.7-7.1,17.3-14.5,20.6-6.4c4.1,10.2-35.1,46.7-41.3,51.6c-0.9,2.2-1.8,4.1-2.6,6.2
		c-1.1,2.7-2.1,5.1-2.8,7.6c18.2,1.8,24.6-6,30.9-14.7C445.2,760.3,443.7,762.6,440.1,765.8z M410,798.5c-0.1,6.6,2.8,8.4,6.2,4.3
		c5.4-6.5,6.8-22.5-0.8-30.3C411.6,784,410.1,793,410,798.5z M461.3,707.7c0-3.8-6.6-1.9-12.2,5.1c-7.3,8.9-18.5,24.4-26,40.6
		C431.7,746.4,461.3,715.4,461.3,707.7z"/>
	<path class="st1" d="M457.3,770.7c-6,7.6-10.6,12.3-15.7,10.8c-8.1-2.5-1.3-21.8,4.4-25.5c2.6-1.3,3.9,0.1,3.5,2.2
		c-0.5,3.1-4,7.8-5.4,13.2c-1.1,4.1-2.4,8.8,0.9,8.5c4-0.4,11.4-11.3,16.6-17.4c4.3-5.1,5.6-6.6,8.4-6.6
		C466,757.7,462.7,763.9,457.3,770.7z M451,750.9c-1.6-0.5-1.7-1.4-0.5-3.4c1.3-2.4,0.5-2.8,2.6-4c1.5-0.8,6.1-0.3,4.5,2.9
		C456,749.6,452.9,751.4,451,750.9z"/>
	<path class="st1" d="M472.3,757c8.5,5.1,11.3,10.7,4,20.9c-7.7,10.7-8.8,27.9,1.8,19.7c6.2-4.8,10.9-13.2,18.7-25.7
		c7.6-12.2,9.3-14.2,12.7-15.9c-1.1,1.9-6.9,9.4-10.8,16.2c-8.7,15.2-17.8,29.8-25.7,29.2c-8-0.6-11.2-11.2-6-21.1
		c5.6-11,12-15.3,1.8-21.5c-12.9-8-6.1-14.3-2.9-16c3.7-2.2,9.3-1.3,9.3,4.1c0,4-2.8,7.4-5.1,9.2C470.8,756.1,471.5,756.5,472.3,757
		z M468.4,743.6c-3.6,1.5-5.6,6.4,0.9,11.5c2.2-2.5,3.7-5.1,4.1-6.6C474.4,745.2,471.5,742.5,468.4,743.6z"/>
	<path class="st1" d="M514.5,761.3c0.1,2.7-2.9,8.5-3.5,9.7c0.4,0,1.5-1.8,4.3-5.1c3.6-4.3,7.4-7.2,10.2-6.9
		c4.1,1.4,4.4,4.6,2.8,8.5c-1.7,3.8-3.5,11,0.4,6.4c3.1-3.6,16.3-20.3,21.8-22.8c4.4-2,9.4,1.1,6.8,9.2c-0.9,2.9-3.9,8.4-8.9,15.5
		c-7.6,10.7-7.6,21.5,0.7,15.2c12.6-9.6,17.8-35.6,29.8-35.3c-9.7,4.2-13.5,16.3-17.8,23.3c-8.1,13.4-14.8,17.6-19.6,14.3
		c-4.9-3.2-6.1-8.8-0.3-17.9c8.1-12.5,14.6-27.5,8.7-22.7c-8.5,6.9-18.1,20.1-20.5,22.7c-2.2,2.3-4.7,2.3-6.4,0.6
		c-1.5-1.5-2.2-4.6,0.9-12.1c2.9-6.7-0.9-3.4-4-0.9c-5.6,4.8-12.9,18.6-14.5,21.1c-2.8,4.3-6.9-1.1-5.2-5.6
		c0.3-0.8,9.4-20.3,8.5-22.5C509.7,755.5,514.3,755.2,514.5,761.3z"/>
	<path class="st1" d="M593.4,785.4c7.4-10.4,16.5-28.3,22.9-29.7c-6.5,7.1-8.2,10.3-12,16c-7.2,11.1-11,18.6-15.2,17.9
		c-4.7-0.8-8.9-6.6-4.1-19.2c0.1-0.5,0.4-1,0.5-1.5c-5.3,6.2-10.4,12.2-15.3,6.9c-5.1-5.5-0.1-15.3,4.5-19.5c3.3-2.9,9.7-5.6,16.5-4
		c7.6,1.9,1.8,1.9,1.8,1.9s-9.6-2-16.5,8.5c-5.1,7.9-2.2,14.9,1.8,11.3c2.2-2,7-7.9,10.8-12.5c2-2.9,4-6.6,6-6.6
		c2-0.1,6.8,0.5,2.5,5.7C585.9,775.7,585.6,796.5,593.4,785.4z"/>
	<path class="st1" d="M618.9,757c8.5,5.1,11.3,10.7,4,20.9c-7.7,10.7-8.8,27.9,1.8,19.7c6.2-4.8,10.9-13.2,18.7-25.7
		c7.6-12.2,9.3-14.2,12.7-15.9c-1.1,1.9-6.9,9.4-10.8,16.2c-8.7,15.2-17.8,29.8-25.7,29.2c-8-0.6-11.2-11.2-6-21.1
		c5.6-11,12-15.3,1.8-21.5c-12.9-8-6.1-14.3-2.9-16c3.7-2.2,9.3-1.3,9.3,4.1c0,4-2.9,7.4-5.1,9.2C617.5,756.1,618.1,756.5,618.9,757
		z M615.2,743.6c-3.6,1.5-5.6,6.4,0.9,11.5c2.2-2.5,3.7-5.1,4.1-6.6C621.2,745.2,618.1,742.5,615.2,743.6z"/>
	<path class="st1" d="M705,785.4c7.4-10.4,16.5-28.3,22.9-29.7c-6.5,7.1-8.2,10.3-12,16c-7.2,11.1-11,18.6-15.2,17.9
		c-4.7-0.8-8.9-6.6-4.1-19.2c0.1-0.5,0.4-1,0.5-1.5c-5.3,6.2-10.4,12.2-15.3,6.9c-5.1-5.5-0.1-15.3,4.5-19.5c3.3-2.9,9.7-5.6,16.5-4
		c7.6,1.9,1.8,1.9,1.8,1.9s-9.6-2-16.5,8.5c-5.1,7.9-2.2,14.9,1.8,11.3c2.2-2,7-7.9,10.8-12.5c2-2.9,4-6.6,6-6.6
		c2-0.1,6.8,0.5,2.5,5.7C697.4,775.7,697.1,796.5,705,785.4z"/>
	<path class="st1" d="M728.6,756.9c-0.5,1.8-0.5,4.3,1.2,7.1c2.4,3.8,4.8,7.1,5.8,10.1c13-6.1,16.1-9.7,22.7-18.1
		c-2.9,8.5-12,14.5-22.3,19.3c2,5.9,1.7,10.6-2.2,16.4c-6.6,10.1-20.7,13.4-25.4,8c-6.2-7.5,3.6-15.5,18.1-21.8
		c2.1-0.9,3.7-1.8,5.4-2.5c-0.4-2.4-1.5-4.7-3.1-7.4c-6.2-9.3-5.2-10.4-5.1-12.6c0.3-4,5.2-8.1,5.2-8.1c2.8-2,3.6,2,2.9,4.3
		C730.6,753.4,729.2,755.2,728.6,756.9z M730.4,777.4c-12.1,5-22.7,11.6-21.8,17.9c0.7,4.3,4.5,5.7,9.3,3.1
		c4.9-2.7,15.4-10.8,14.4-21.6C731.7,777.1,731,777.1,730.4,777.4z"/>
	<path class="st1" d="M768.4,770.7c-6,7.6-10.6,12.3-15.7,10.8c-8.1-2.5-1.3-21.8,4.4-25.5c2.6-1.3,3.9,0.1,3.5,2.2
		c-0.5,3.1-4,7.8-5.4,13.2c-1.1,4.1-2.4,8.8,0.9,8.5c4-0.4,11.4-11.3,16.6-17.4c4.3-5.1,5.6-6.6,8.4-6.6
		C777.1,757.7,773.8,763.9,768.4,770.7z M762.1,750.9c-1.6-0.5-1.7-1.4-0.5-3.4c1.3-2.4,0.5-2.8,2.6-4c1.5-0.8,6.1-0.3,4.5,2.9
		C767,749.6,764,751.4,762.1,750.9z"/>
	<path class="st1" d="M781.5,756.9c-0.5,1.8-0.5,4.3,1.2,7.1c2.4,3.8,4.8,7.1,5.8,10.1c13-6.1,16.1-9.7,22.7-18.1
		c-2.9,8.5-12,14.5-22.3,19.3c2,5.9,1.7,10.6-2.2,16.4c-6.6,10.1-20.7,13.4-25.4,8c-6.2-7.5,3.6-15.5,18.1-21.8
		c2.1-0.9,3.7-1.8,5.4-2.5c-0.4-2.4-1.5-4.7-3.1-7.4c-6.2-9.3-5.2-10.4-5.1-12.6c0.3-4,5.2-8.1,5.2-8.1c2.8-2,3.6,2,2.9,4.3
		C783.5,753.4,782,755.2,781.5,756.9z M783.2,777.4c-12.1,5-22.7,11.6-21.8,17.9c0.7,4.3,4.5,5.7,9.3,3.1
		c4.9-2.7,15.4-10.8,14.4-21.6C784.4,777.1,783.9,777.1,783.2,777.4z"/>
	<path class="st1" d="M782.3,707.7c-3.2,2.2-6,6.2-2.5,9.6c6.2,6,24.2,5.3,45.4,3.2c5.4-9.7,8.5-12.3,8.5-12.3
		c1.3-2,5.6,2.5,4.3,4.6c-1.5,2.3-2.8,4.5-4.3,6.9c29.6-3.3,63.1-8.5,79.7-3.7c6.2,1.9,8.5,4,8,7c-0.3,1.6-2.1,2.7-2.8,1
		c-0.7-1.4,2.8-4.6-5.8-7c-17.1-4.6-50.4,0.8-79.8,4.1c-8.5,14.1-19.5,31.8-27,57c-5.3,18.1-0.5,26.2,8.1,15.9
		c9.6-11.6,18.9-36.5,29.1-38.1c-8.2,7-11,12.2-18.7,25.9c-10.8,19.5-16.9,20.5-21.1,17.2c-5.4-4.2-8.4-15,5.8-48.6
		c5.4-12.9,12-22,15.5-28.4c-21.4,2.2-39.5,2.5-46-4.1c-3.2-3.3-2-9.2,2.4-12C782.2,704.9,785.7,705.6,782.3,707.7z"/>
	<path class="st1" d="M837,768.4c-2.1,9.6,3.3,13.4,9,11.1c9.6-3.6,18.7-23.8,25.5-23.7c-6.6,5.9-7.2,7.8-11.7,13.4
		c-6,7.4-12.2,13.7-19.6,13c-9.7-1-10.9-12.7-8.5-18.2c2.6-5.7,7.8-12.2,16-12.7c6.8-0.4,9.3,5.7,2.8,11c-3.9,3.1-9.6,4.6-13.4,5.2
		C837.3,767.7,837,768.2,837,768.4z M842.6,764.9c10.5-3.3,12.4-11,6.9-9.7c0,0-8.5,1-11.8,11C839,765.8,840.9,765.5,842.6,764.9z"
		/>
	<path class="st1" d="M876.8,759.9c0.1,4.1-1.3,6.1-3.6,10.8c5.4-7.5,18.1-19.5,26.6-21.7c4.9-1.3,7.2,3.1,6.8,6.4
		c-0.7,4.8-15,23.8-16.9,30.8c-2.6,10.3,4.1,7,6.2,5.5c6.2-4.5,17.9-24.7,23.2-30.5c6.5-7.3,8.9-4.8,8.9-4.8
		c-10.2,2.4-22.7,34.1-34.1,38.5c-3.3,1.4-8.5,0.5-10.1-4.7c-2.9-10.4,16.7-34.6,17.4-38.2c0.7-4.1-12,3.2-20.7,13
		c-6,6.6-9,11.6-11.7,15.4c-0.5,0.9-3.5,0.9-4.8-1.3c-0.5-0.9-2.1-2.9,2.8-12.3c5.3-10.3,3.1-9.9,3.1-9.9
		C870.9,755,876.6,755.8,876.8,759.9z"/>
	<path class="st1" d="M923.8,765.6c-3.3,4.3-5.8,9.7-4.3,15.9c0.7,2.9,5.4,5.1,11,1.6c10.8-6.7,20.5-23.3,28.8-27.3
		c-6,4.7-12.3,14.7-21.7,23.4c-8.5,8-14.9,9.9-20.2,5.7c-6.2-5-4.1-17.2,1.1-23.3c6-7.1,13.3-10.8,19.9-8.9
		c7.2,1.9,4.5,7.6,2.5,10.4c-2.1,2.9-5.1,5.5-8,3.2s1.1-4.6,1.8-4.3s3.3,0,5.2-2c2.5-2.7,0.4-4.7-2.8-4.2
		C935.3,756.1,929.9,757.7,923.8,765.6z"/>
	<path class="st1" d="M967.8,770.7c-6,7.6-10.6,12.3-15.7,10.8c-8.1-2.5-1.3-21.8,4.4-25.5c2.6-1.3,3.9,0.1,3.5,2.2
		c-0.5,3.1-4,7.8-5.4,13.2c-1.1,4.1-2.4,8.8,0.9,8.5c4-0.4,11.4-11.3,16.6-17.4c4.3-5.1,5.6-6.6,8.4-6.6
		C976.5,757.7,973.2,763.9,967.8,770.7z M961.5,750.9c-1.6-0.5-1.7-1.4-0.5-3.4c1.3-2.4,0.5-2.8,2.6-4c1.5-0.8,6.1-0.3,4.5,2.9
		C966.5,749.6,963.4,751.4,961.5,750.9z"/>
	<path class="st1" d="M995.4,785.4c7.4-10.4,16.5-28.3,22.9-29.7c-6.5,7.1-8.2,10.3-12,16c-7.2,11.1-11,18.6-15.2,17.9
		c-4.7-0.8-8.9-6.6-4.1-19.2c0.1-0.5,0.4-1,0.5-1.5c-5.3,6.2-10.4,12.2-15.3,6.9c-5.1-5.5-0.1-15.3,4.5-19.5c3.3-2.9,9.7-5.6,16.5-4
		c7.6,1.9,1.8,1.9,1.8,1.9s-9.6-2-16.5,8.5c-5.1,7.9-2.2,14.9,1.8,11.3c2.2-2,7-7.9,10.8-12.5c2-2.9,4-6.6,6-6.6
		c2-0.1,6.8,0.5,2.5,5.7C987.8,775.7,987.6,796.5,995.4,785.4z"/>
</g>
<g>
	<path class="st1" d="M691,521.4c-1.8-0.3-4.7,1.6-6.2,2.3c-2.2,1.1-4.3,2.4-6.4,3.6c-0.1,0.1-0.2,0.2-0.4,0.2
		c-0.6,0.3-1.2,0.7-1.8,1.1c-0.4,0.3-0.9,0.5-1.3,0.8c-0.6,0.4-1.2,0.8-1.8,1.2c-0.4,0.3-0.8,0.5-1.2,0.8c-0.7,0.4-1.3,0.9-2,1.4
		c-0.3,0.2-0.7,0.4-1,0.7c-1,0.7-2,1.4-2.9,2.1c-19,13.9-34.9,30.6-46.5,51.5c-0.7-0.5-1.3-0.9-1.8-1.3c-0.8-0.6-1.6-1.1-2.4-1.7
		c0,0-0.1,0-0.1-0.1c-6.8-4.8-14.3-9.1-22.4-11.3c-0.3-0.1-0.7-0.2-1-0.3h-0.1c-4-1-8.1-1.5-12.4-0.9c-0.8,0.1-1.6,0.3-2.4,0.5
		c-0.2,0.1-0.4,0.1-0.6,0.2c-0.2,0.1-0.3,0.1-0.5,0.2c-0.4,0.2-0.8,0.4-1.2,0.6c-1,0.6-1.9,1.3-2.7,2.3c-0.3,0.4-0.3,1.1-0.5,1.6
		l0,0c0,0.1,0,0.1,0,0.1c0.2,0,0.4,0,0.6,0c0.3,0.1,0.7,0.1,1,0.1c0.2,0,0.3-0.1,0.5-0.1c3-0.1,5.8-0.4,8.9,0.6c3.1,1,6,2.6,8.6,4.6
		c3.2,2.3,5.9,5.2,8.4,8.3c0.1,0.2,0.2,0.3,0.4,0.5c0.4,0.5,0.7,0.9,1.1,1.4c0.2,0.3,0.5,0.7,0.7,1c0.2,0.4,0.5,0.7,0.7,1.1
		c0.5,0.7,1,1.4,1.4,2.2c7.1,11.1,12.2,23.2,16.1,35.8c0.4,1.2,0.8,2.3,1.2,3.5c0.6-0.5,0.8-0.8,0.9-1.2c1.5-4.6,2.9-9.3,4.5-13.9
		c2.8-7.9,5.9-15.6,9.3-23.1c3.4-7.6,7.2-14.9,11.3-22.2c2.7-4.8,5.7-9.5,8.7-14.2c0.7-1.1,1.5-2.2,2.3-3.3c0.6-0.9,1.3-1.8,1.9-2.8
		c0.6-0.9,1.3-1.8,1.9-2.6c0.7-0.9,1.3-1.8,2-2.7c0.6-0.9,1.3-1.7,2-2.5c0.7-0.9,1.4-1.8,2.1-2.6c0.7-0.8,1.4-1.6,2.1-2.5
		c0.7-0.9,1.4-1.7,2.2-2.5c0.7-0.8,1.5-1.6,2.2-2.4c0.8-0.8,1.5-1.6,2.3-2.4s1.5-1.5,2.3-2.3s1.6-1.5,2.4-2.3
		c0.8-0.7,1.6-1.5,2.5-2.2c0.8-0.7,1.7-1.5,2.5-2.2c0.5-0.4,1-0.8,1.5-1.1c1-0.7,2.3-1.5,3.1-2.4l0.1-0.1c0.2-0.2,0.3-0.5,0.7-1
		C691.5,521.4,691.2,521.4,691,521.4z"/>
	<path class="st1" d="M668.2,552.1c-0.8,0.9-0.7,1.5-0.1,2.4c5.3,8,8.5,16.8,9.4,26.3c1.3,14.1-1.7,27.2-9.9,38.7
		c-13.4,19-32.1,27.6-55.1,25.3c-17-1.7-30.8-10-40.7-23.9c-12.1-17-14.6-35.6-7.1-55.1c7-18.3,20.4-30.2,39.4-35.5
		c13.8-3.9,27.2-2.5,40.1,3.5c3.3,1.5,6.4,3.5,9.6,5.3c2.9-2.3,6-4.6,9-7c-23.6-19.8-64.3-22.5-92.3,4.5
		c-27.8,26.8-28.4,70.9-1.5,98.9c26.3,27.4,70.8,28.5,98.2,2.5c28.7-27.2,27.7-68.7,7.5-93.8C672.5,546.8,670.4,549.5,668.2,552.1z"
		/>
</g>
</svg>
