<?xml version="1.0" encoding="utf-8"?>
<!-- Generator: Adobe Illustrator 25.4.1, SVG Export Plug-In . SVG Version: 6.00 Build 0)  -->
<svg version="1.1" id="ok" xmlns="http://www.w3.org/2000/svg" xmlns:xlink="http://www.w3.org/1999/xlink" x="0px" y="0px"
	 viewBox="0 0 1242 327" style="enable-background:new 0 0 1242 327;" xml:space="preserve">
<style type="text/css">
	.st0{fill:#517C5A;}
</style>
<g>
	<path class="st0" d="M315,77.3c-13.4,1.9-34,9-38.4,27.5c2.2-17.7,21.3-25.8,35.3-28.1c3.3-0.6,6.8-0.9,10.4-1.2
		c10.4-11.7,22.9-16.7,29.1-17.9c19.1-4.1,27.8,6,17.1,13.8c-7.2,5.3-25.1,4.4-41.4,5.1c-9.7,11-13.6,22.2-13.8,33.9
		c-0.2,12,5,20.3,19.1,10.7c17.2-11.6,27.1-38,29.3-41.3c1.4-2,4.8,1.3,4,3.1c-1.7,3.3-6.5,13.1-9.3,22.2c-8,27.2,7.8,39.6,31,33.5
		c8-2.1,18.1-9.9,18.1-9.9c-14.9,14.6-42.9,18.4-52.5-0.2c-4.5-8.9-3.8-19.6,0.4-30.1c-4.8,11.2-16.1,22.7-24.7,26.4
		c-12.8,5.5-17.7-0.8-19.5-9.4c-0.8-3.6-2.8-12.2,5.6-29.6c1.9-3.4,4.2-6.4,6.4-9.2C319.1,76.7,317,77,315,77.3z M331.2,72.2
		c-1,0.9-1.9,1.9-2.7,2.7c14.3-0.7,28.4-0.2,34.2-2.3c14.5-5.5,9.1-13.6-0.2-14.5C352.3,57.2,339,64.7,331.2,72.2z"/>
	<path class="st0" d="M376.3,100.7c-0.4,1.3-0.4,3.2,0.9,5.3c1.7,2.8,3.4,5.3,4.2,7.5c9.3-4.5,11.4-7.2,16.2-13.3
		c-2,6.2-8.5,10.8-15.9,14.3c1.4,4.3,1.2,7.8-1.6,12.2c-4.7,7.5-14.7,9.8-17.9,5.9c-4.4-5.6,2.6-11.5,12.8-16.2
		c1.5-0.7,2.6-1.3,3.9-1.9c-0.3-1.8-1-3.5-2.2-5.5c-4.4-6.9-3.7-7.7-3.6-9.4c0.2-2.9,3.7-6,3.7-6c2-1.5,2.6,1.5,2.1,3.2
		C377.6,98,376.6,99.4,376.3,100.7z M377.5,115.9c-8.6,3.7-16.2,8.6-15.5,13.2c0.5,3.2,3.2,4.3,6.6,2.3c3.5-1.9,11-8,10.2-16.1
		C378.4,115.6,377.9,115.7,377.5,115.9z"/>
	<path class="st0" d="M404.5,110.9c-4.3,5.6-7.6,9.2-11.1,8c-5.7-1.9-0.9-16.2,3.1-18.8c1.9-0.9,2.7,0.1,2.5,1.6
		c-0.4,2.3-2.8,5.7-3.9,9.7c-0.8,3-1.7,6.5,0.7,6.2c2.8-0.3,8.1-8.4,11.8-12.9c3-3.8,4-4.9,5.9-4.9
		C410.6,101.3,408.3,105.8,404.5,110.9z M400,96.2c-1.1-0.4-1.2-1-0.4-2.6c0.9-1.8,0.4-2.1,1.9-2.9c1-0.6,4.3-0.2,3.2,2.1
		C403.5,95.3,401.4,96.6,400,96.2z"/>
	<path class="st0" d="M413.8,100.7c-0.4,1.3-0.4,3.2,0.9,5.3c1.7,2.8,3.4,5.3,4.2,7.5c9.3-4.5,11.4-7.2,16.2-13.3
		c-2,6.2-8.5,10.8-15.9,14.3c1.4,4.3,1.2,7.8-1.6,12.2c-4.7,7.5-14.7,9.8-17.9,5.9c-4.4-5.6,2.6-11.5,12.8-16.2
		c1.5-0.7,2.6-1.3,3.9-1.9c-0.3-1.8-1-3.5-2.2-5.5c-4.4-6.9-3.7-7.7-3.6-9.4c0.2-2.9,3.7-6,3.7-6c2-1.5,2.6,1.5,2.1,3.2
		C415.1,98,414.1,99.4,413.8,100.7z M415,115.9c-8.6,3.7-16.2,8.6-15.5,13.2c0.5,3.2,3.2,4.3,6.6,2.3c3.5-1.9,11-8,10.2-16.1
		C415.9,115.6,415.4,115.7,415,115.9z"/>
	<path class="st0" d="M413,64.3c-2.3,1.6-4.3,4.6-1.8,7.1c4.4,4.4,17.1,4,32.2,2.4c3.9-7.2,6-9.2,6-9.2c0.9-1.5,4,1.9,3,3.4
		c-1,1.7-2,3.3-3,5.1c21-2.5,44.8-6.3,56.6-2.7c4.4,1.4,6,2.9,5.6,5.2c-0.2,1.2-1.5,1.9-2,0.8c-0.5-1,1.9-3.4-4.2-5.2
		c-12.2-3.4-35.7,0.6-56.7,3c-6,10.4-12.5,23.6-17.7,42.2c-3.8,13.3-0.4,19.5,5.7,11.8c6.8-8.6,13.3-27,20.6-28.1
		c-5.8,5.2-7.8,9.1-13.2,19.2c-7.7,14.4-12,15.2-15,12.8c-3.9-3.1-5.9-11.1,4.2-36c3.9-9.4,7.1-16.3,9.5-21c-15.2,1.6-28,1.9-32.6-3
		c-2.3-2.5-1.4-6.8,1.7-8.9C412.9,62.2,415.3,62.7,413,64.3z"/>
	<path class="st0" d="M453.2,109.2c-1.5,7.1,2.4,9.8,6.4,8.2c6.8-2.6,13.2-17.6,18-17.5c-4.7,4.3-5.1,5.7-8.3,9.8
		c-4.3,5.5-8.7,10.1-13.9,9.5c-6.9-0.8-7.7-9.4-6-13.4c1.9-4.3,5.6-9.1,11.3-9.4c4.8-0.3,6.6,4.3,2,8.1c-2.7,2.3-6.8,3.4-9.4,3.9
		C453.4,108.7,453.2,109.1,453.2,109.2z M457.2,106.5c7.5-2.5,8.8-8.1,4.9-7.2c0,0-6,0.8-8.4,8.1C454.6,107.3,455.8,107,457.2,106.5
		z"/>
	<path class="st0" d="M481.3,102.8c0.1,3-0.9,4.5-2.6,8c3.9-5.6,12.8-14.4,18.9-16.1c3.5-0.9,5.1,2.3,4.8,4.7
		c-0.5,3.6-10.7,17.6-12,22.8c-1.9,7.7,2.9,5.2,4.4,4.1c4.4-3.3,12.8-18.2,16.5-22.6c4.6-5.4,6.3-3.6,6.3-3.6
		c-7.3,1.8-16.2,25.2-24.3,28.4c-2.4,1-6,0.4-7.2-3.5c-2.1-7.7,11.9-25.6,12.4-28.2c0.5-3-8.5,2.4-14.7,9.5
		c-4.3,4.9-6.4,8.6-8.3,11.4c-0.4,0.7-2.5,0.7-3.4-0.9c-0.4-0.7-1.5-2.1,1.9-9.2c3.8-7.7,2.2-7.4,2.2-7.4
		C477.2,99.3,481.3,99.9,481.3,102.8z"/>
	<path class="st0" d="M514.7,107.1c-2.4,3.2-4.2,7.2-3,11.8c0.5,2.2,3.9,3.8,7.8,1.2c7.7-5,14.5-17.2,20.5-20.2
		c-4.3,3.5-8.8,10.9-15.4,17.3c-6,5.9-10.6,7.4-14.4,4.3c-4.4-3.7-2.9-12.8,0.8-17.2c4.3-5.3,9.4-8,14.2-6.6
		c5.1,1.4,3.2,5.6,1.8,7.7c-1.5,2.1-3.6,4.1-5.6,2.4s0.8-3.4,1.3-3.2c0.6,0.2,2.4,0,3.7-1.5c1.8-1.9,0.3-3.5-1.9-3.1
		C522.9,100.1,519,101.3,514.7,107.1z"/>
	<path class="st0" d="M545.9,110.9c-4.3,5.6-7.6,9.2-11.1,8c-5.7-1.9-0.9-16.2,3.1-18.8c1.9-0.9,2.7,0.1,2.5,1.6
		c-0.4,2.3-2.8,5.7-3.9,9.7c-0.8,3-1.7,6.5,0.7,6.2c2.8-0.3,8.1-8.4,11.8-12.9c3-3.8,4-4.9,5.9-4.9
		C552.1,101.3,549.8,105.8,545.9,110.9z M541.5,96.2c-1.1-0.4-1.2-1-0.4-2.6c0.9-1.8,0.4-2.1,1.9-2.9c1-0.6,4.3-0.2,3.2,2.1
		C545,95.3,542.8,96.6,541.5,96.2z"/>
	<path class="st0" d="M565.6,121.7c5.3-7.7,11.7-20.9,16.2-21.9c-4.6,5.3-5.8,7.7-8.5,11.9c-5.1,8.2-7.8,13.7-10.8,13.2
		c-3.3-0.6-6.3-4.9-2.9-14.2c0.1-0.4,0.3-0.8,0.4-1.1c-3.8,4.6-7.4,9.1-10.9,5.1c-3.6-4.1-0.1-11.3,3.2-14.4
		c2.4-2.2,6.9-4.2,11.7-2.9c5.4,1.4,1.3,1.4,1.3,1.4s-6.8-1.5-11.7,6.3c-3.6,5.8-1.6,11.1,1.3,8.4c1.6-1.5,5-5.8,7.7-9.3
		c1.4-2.2,2.8-4.9,4.3-4.9c1.4-0.1,4.8,0.4,1.8,4.3C560.1,114.6,559.9,130,565.6,121.7z"/>
	<path class="st0" d="M698.6,65.9c-6.7,11.1-28.1,8.3-41.7,8.3c-1.8,1.9-3.4,4.1-5.1,6.4c-13.5,19.8-15.5,43.5-5.5,51.5
		c8.9,7,23,3.7,35.6-13.3c9.9-13.4,16.5-18.1,19.6-18.9c-7,5.1-12.3,11.1-19.3,20.7c-11.1,15.4-27.4,20.5-38.3,12.7
		c-16.5-15-5.7-43.9,6.8-59c-24.3,1.1-36.3,12.7-42.9,21.3c6.8-12.9,22.9-21.3,43.9-22.7c9.5-10.4,22.1-16.8,34.7-16.9
		C694,55.9,702.8,59.2,698.6,65.9z M686.9,58c-7.4,0.3-18.2,4.2-28.8,15c9.4,0.2,22.2,1.3,30.4-1.4C700.4,67.8,702.2,57.3,686.9,58z
		"/>
	<path class="st0" d="M701,94.8c4.2-0.1,7.5,2.4,7.5,9c0,1.9-0.5,4.6-1.2,7.2c1.3-0.6,2.6-1.4,4.1-2.5c5.6-4.4,6.8-8.9,9.6-8.6
		c-3,2.3-5.6,7.7-10.8,10.8c-1,0.7-2.1,1.1-3.3,1.5c-2,6.1-6,12.4-10.5,12.2c-6.4-0.2-6.9-8.7-3.9-14.6c0.4-0.8,0.8-1.5,1.1-2.1
		C689.9,100.5,695.9,94.9,701,94.8z M696.7,111.1c-0.9,1.7-1.7,3.3-2.1,5c-1.2,4.5,1.1,9.4,5.1,5.9c1.9-1.8,4.2-5.4,5.7-9.4
		C702.3,113,699.1,112.9,696.7,111.1z M699.6,99.9c2.5-0.4,2.7,2,2.6,3.4c0,0.1-2.6,2.9-4.9,6.6c2.1,1.7,5.2,2.3,8.5,1.5
		c1.9-5.6,2.5-11.5-0.8-14.2c-4.3-3.7-9.4,0.6-10.4,3.7c-0.5,1.8-0.5,3.5,0,5C697,102.1,698.9,100,699.6,99.9z"/>
	<path class="st0" d="M724.2,102.8c0.1,3-0.9,4.5-2.6,8c3.9-5.6,12.8-14.4,18.9-16.1c3.5-0.9,5.1,2.3,4.8,4.7
		c-0.5,3.6-10.7,17.6-12,22.8c-1.9,7.7,2.9,5.2,4.4,4.1c4.4-3.3,12.8-18.2,16.5-22.6c4.6-5.4,6.3-3.6,6.3-3.6
		c-7.3,1.8-16.2,25.2-24.3,28.4c-2.4,1-6,0.4-7.2-3.5c-2.1-7.7,11.9-25.6,12.4-28.2c0.5-3-8.5,2.4-14.7,9.5
		c-4.3,4.9-6.4,8.6-8.3,11.4c-0.4,0.7-2.5,0.7-3.4-0.9c-0.4-0.7-1.5-2.1,1.9-9.2c3.8-7.7,2.2-7.4,2.2-7.4
		C720,99.3,724.1,99.9,724.2,102.8z"/>
	<path class="st0" d="M775.4,107.3c-4.7,4.5-13.7,5.6-16.7,4.5c6.3,4.3,5.4,26.4-3.7,25.5c-6-0.6-5.9-9.9-3-21.3
		c3-12.1,11.8-33.9,23.3-48.7c4.1-5.3,12.3-10.8,14.6-4.7c2.9,7.6-23.5,34.6-28,38.2c-0.7,1.6-1.3,3-1.9,4.6c-0.8,1.9-1.5,3.8-2,5.6
		c12.9,1.3,17.4-4.4,21.9-10.9C778.9,103.2,777.8,104.9,775.4,107.3z M753.8,131.5c-0.1,4.9,2,6.1,4.4,3.2
		c3.9-4.8,4.8-16.7-0.6-22.4C755.1,120.7,753.9,127.4,753.8,131.5z M788.9,64.3c0-2.8-4.7-1.4-8.7,3.8c-5.2,6.6-11.7,18-17,30
		C769.3,92.9,788.9,70,788.9,64.3z"/>
	<path class="st0" d="M787.4,110.9c-4.3,5.6-7.6,9.2-11.1,8c-5.7-1.9-0.9-16.2,3.1-18.8c1.9-0.9,2.7,0.1,2.5,1.6
		c-0.4,2.3-2.8,5.7-3.9,9.7c-0.8,3-1.7,6.5,0.7,6.2c2.8-0.3,8.1-8.4,11.8-12.9c3-3.8,4-4.9,5.9-4.9
		C793.7,101.3,791.3,105.8,787.4,110.9z M783.1,96.2c-1.1-0.4-1.2-1-0.4-2.6c0.9-1.8,0.4-2.1,1.9-2.9c1-0.6,4.3-0.2,3.2,2.1
		C786.6,95.3,784.3,96.6,783.1,96.2z"/>
	<path class="st0" d="M798.1,100.8c6,3.8,8,7.9,2.8,15.5c-5.5,7.9-6.2,20.6,1.3,14.5c4.4-3.6,7.7-9.7,13.2-19.1
		c5.4-9.1,6.6-10.5,9.1-11.8c-0.8,1.4-4.9,7-7.7,12c-6.1,11.2-12.7,22-18.2,21.5c-5.6-0.5-7.9-8.3-4.3-15.7c4-8.1,8.5-11.3,1.3-16
		c-9.2-5.9-4.3-10.6-2.1-11.9c2.6-1.6,6.6-0.9,6.6,3c0,2.9-2,5.5-3.6,6.8C797.1,100.1,797.6,100.4,798.1,100.8z M795.4,90.9
		c-2.6,1.1-4,4.7,0.7,8.5c1.6-1.9,2.6-3.8,2.9-4.9C799.6,92,797.6,90,795.4,90.9z"/>
	<path class="st0" d="M828.1,104c0.1,1.9-2.1,6.3-2.5,7.2c0.3,0,1-1.3,3-3.8c2.6-3.2,5.3-5.4,7.3-5.1c2.9,1,3.1,3.4,1.9,6.2
		c-1.2,2.8-2.5,8.1,0.3,4.7c2.2-2.6,11.6-15,15.5-16.8c3.1-1.5,6.7,0.9,4.8,6.8c-0.7,2.2-2.7,6.1-6.3,11.5c-5.4,7.9-5.4,16,0.5,11.2
		c9-7.1,12.7-26.4,21.1-26.1c-6.9,3.1-9.5,12.1-12.7,17.2c-5.7,9.8-10.5,13-13.9,10.6c-3.5-2.4-4.3-6.5-0.2-13.2
		c5.7-9.3,10.4-20.4,6.1-16.8c-6,5.1-12.8,14.9-14.5,16.8c-1.6,1.7-3.3,1.7-4.5,0.5c-1-1.1-1.6-3.4,0.7-9c2-5-0.7-2.6-2.8-0.7
		c-4,3.6-9.2,13.7-10.3,15.7c-2,3.2-4.9-0.9-3.7-4.2c0.2-0.6,6.7-15,6-16.7C824.7,99.6,828,99.4,828.1,104z"/>
	<path class="st0" d="M884.1,121.7c5.3-7.7,11.7-20.9,16.2-21.9c-4.6,5.3-5.8,7.7-8.5,11.9c-5.1,8.2-7.8,13.7-10.8,13.2
		c-3.3-0.6-6.3-4.9-2.9-14.2c0.1-0.4,0.3-0.8,0.4-1.1c-3.8,4.6-7.4,9.1-10.9,5.1c-3.6-4.1-0.1-11.3,3.2-14.4
		c2.4-2.2,6.9-4.2,11.7-2.9c5.4,1.4,1.3,1.4,1.3,1.4s-6.8-1.5-11.7,6.3c-3.6,5.8-1.6,11.1,1.3,8.4c1.6-1.5,5-5.8,7.7-9.3
		c1.4-2.2,2.8-4.9,4.3-4.9c1.4-0.1,4.8,0.4,1.8,4.3C878.7,114.6,878.5,130,884.1,121.7z"/>
	<path class="st0" d="M943.9,56.6c2.3,0.3,4.1,3.7,2.2,7.7c-2.3,5.7-23,28.2-26.6,29.5c-0.1,0-0.2,0.1-0.3,0.1
		c-2.3,5.5-3.7,10.6-5.1,14.8c-1.1,3.7-4.5,27.2-0.1,17.3c2.7-6.1,12.6-24.3,18-25.6c-7.9,7.9-13.7,20.2-15.6,23.7
		c-1.9,3.7-2.8,7.2-4.8,6.7c-3.6-0.8-4.8-11.7-1.7-24.1c0.4-1.5,0.9-3,1.4-4.7c-1.1,1.9-2.6,4.3-4.3,6.3c-4.1,5-8.2,9.8-11.7,5.6
		c-3.8-4.3,0.8-12.7,3.6-15c2.5-2.1,6.6-4.2,11.6-3.2c1.6,0.4,2.5,0.8,2.8,0.9c4.3-10.9,11.1-23.4,17-30.9c6-7.6,10.2-9.2,12.7-9.2
		L943.9,56.6L943.9,56.6z M900.2,103.7c-3.9,6.1-2.1,11.8,1,9.2c4.4-3.9,8.3-9.6,12.2-16c-0.4,0-0.8,0.1-0.8,0.1s-0.6-0.2-1.5-0.2
		C908.8,96.8,903.9,97.7,900.2,103.7z M940.2,62.6c-9.3,8.6-15.8,19.5-20.2,29.5c0.6-0.6,1.1-1.1,1.7-1.6
		c7.2-6.5,20.5-22.1,22.8-26.4c1.5-2.9,1.1-3.9,0.2-3.9C943.5,60.3,941.1,61.8,940.2,62.6z"/>
	<path class="st0" d="M943.6,121.7c5.3-7.7,11.7-20.9,16.2-21.9c-4.6,5.3-5.8,7.7-8.5,11.9c-5.1,8.2-7.8,13.7-10.8,13.2
		c-3.3-0.6-6.3-4.9-2.9-14.2c0.1-0.4,0.3-0.8,0.4-1.1c-3.8,4.6-7.4,9.1-10.9,5.1c-3.6-4.1-0.1-11.3,3.2-14.4
		c2.4-2.2,6.9-4.2,11.7-2.9c5.4,1.4,1.3,1.4,1.3,1.4s-6.8-1.5-11.7,6.3c-3.6,5.8-1.6,11.1,1.3,8.4c1.6-1.5,5-5.8,7.7-9.3
		c1.4-2.2,2.8-4.9,4.3-4.9c1.4-0.1,4.8,0.4,1.8,4.3C938.1,114.6,937.9,130,943.6,121.7z"/>
</g>
<g>
	<path class="st0" d="M436.5,183.5l0.3,6.3h-0.8c-0.1-1.1-0.3-1.9-0.6-2.4c-0.4-0.8-1-1.3-1.6-1.7c-0.7-0.4-1.6-0.5-2.7-0.5h-3.8
		v20.4c0,1.6,0.2,2.7,0.5,3.1c0.5,0.6,1.3,0.8,2.3,0.8h0.9v0.7h-11.3v-0.7h1c1.1,0,1.9-0.3,2.4-1c0.3-0.4,0.4-1.4,0.4-2.9v-20.4
		h-3.2c-1.2,0-2.1,0.1-2.6,0.3c-0.7,0.2-1.3,0.7-1.8,1.4c-0.5,0.7-0.8,1.7-0.9,2.9h-0.8l0.3-6.3H436.5z"/>
	<path class="st0" d="M442.1,199c0,2.7,0.7,4.8,2,6.3c1.3,1.5,2.9,2.3,4.6,2.3c1.2,0,2.2-0.3,3.1-1c0.9-0.6,1.6-1.8,2.2-3.3l0.6,0.4
		c-0.3,1.8-1.1,3.4-2.4,4.9s-3,2.2-5,2.2c-2.2,0-4-0.8-5.6-2.5c-1.5-1.7-2.3-4-2.3-6.8c0-3.1,0.8-5.5,2.4-7.2c1.6-1.7,3.6-2.6,6-2.6
		c2,0,3.7,0.7,5,2c1.3,1.3,1.9,3.1,1.9,5.4H442.1z M442.1,197.9h8.4c-0.1-1.2-0.2-2-0.4-2.4c-0.3-0.7-0.8-1.3-1.5-1.7
		c-0.7-0.4-1.3-0.6-2-0.6c-1.1,0-2.1,0.4-2.9,1.3C442.8,195.2,442.3,196.4,442.1,197.9z"/>
	<path class="st0" d="M470.1,199c0,2.7,0.7,4.8,2,6.3c1.3,1.5,2.9,2.3,4.6,2.3c1.2,0,2.2-0.3,3.1-1c0.9-0.6,1.6-1.8,2.2-3.3l0.6,0.4
		c-0.3,1.8-1.1,3.4-2.4,4.9s-3,2.2-5,2.2c-2.2,0-4-0.8-5.6-2.5c-1.5-1.7-2.3-4-2.3-6.8c0-3.1,0.8-5.5,2.4-7.2c1.6-1.7,3.6-2.6,6-2.6
		c2,0,3.7,0.7,5,2c1.3,1.3,1.9,3.1,1.9,5.4H470.1z M470.1,197.9h8.4c-0.1-1.2-0.2-2-0.4-2.4c-0.3-0.7-0.8-1.3-1.5-1.7
		c-0.7-0.4-1.3-0.6-2-0.6c-1.1,0-2.1,0.4-2.9,1.3C470.8,195.2,470.3,196.4,470.1,197.9z"/>
	<path class="st0" d="M496.7,191.7v6.1h-0.6c-0.5-1.9-1.2-3.2-1.9-3.9c-0.8-0.7-1.8-1.1-3-1.1c-0.9,0-1.7,0.2-2.2,0.7
		c-0.6,0.5-0.9,1-0.9,1.6c0,0.7,0.2,1.4,0.6,1.9c0.4,0.5,1.2,1.1,2.5,1.7l2.9,1.4c2.7,1.3,4,3,4,5.1c0,1.6-0.6,3-1.9,4
		s-2.6,1.5-4.2,1.5c-1.1,0-2.4-0.2-3.8-0.6c-0.4-0.1-0.8-0.2-1.1-0.2c-0.3,0-0.5,0.2-0.7,0.5h-0.6v-6.4h0.6c0.4,1.8,1.1,3.2,2.1,4.2
		s2.2,1.4,3.5,1.4c0.9,0,1.6-0.3,2.2-0.8c0.6-0.5,0.9-1.2,0.9-1.9c0-0.9-0.3-1.7-1-2.3s-1.9-1.4-3.8-2.3c-1.9-0.9-3.1-1.8-3.7-2.6
		c-0.6-0.8-0.9-1.7-0.9-2.8c0-1.5,0.5-2.7,1.5-3.7s2.3-1.5,3.9-1.5c0.7,0,1.6,0.1,2.6,0.4c0.7,0.2,1.1,0.3,1.3,0.3
		c0.2,0,0.4,0,0.5-0.1s0.3-0.3,0.4-0.6H496.7z"/>
	<path class="st0" d="M499.4,194l5.6-2.3h0.8v4.2c0.9-1.6,1.9-2.7,2.8-3.3s1.9-1,3-1c1.8,0,3.3,0.7,4.5,2.1c1.5,1.7,2.2,4,2.2,6.8
		c0,3.1-0.9,5.7-2.7,7.7c-1.5,1.7-3.3,2.5-5.6,2.5c-1,0-1.8-0.1-2.5-0.4c-0.5-0.2-1.1-0.6-1.8-1.2v5.5c0,1.2,0.1,2,0.2,2.4
		s0.4,0.6,0.8,0.8s1,0.3,2,0.3v0.7h-9.5v-0.7h0.5c0.7,0,1.4-0.1,1.9-0.4c0.2-0.1,0.4-0.4,0.6-0.7c0.1-0.3,0.2-1.1,0.2-2.5v-17.1
		c0-1.2-0.1-1.9-0.2-2.2c-0.1-0.3-0.3-0.5-0.5-0.7c-0.2-0.2-0.5-0.2-0.9-0.2c-0.3,0-0.7,0.1-1.2,0.3L499.4,194z M505.8,197.2v6.7
		c0,1.5,0.1,2.4,0.2,2.9c0.2,0.8,0.6,1.4,1.4,2c0.7,0.6,1.6,0.9,2.7,0.9c1.3,0,2.4-0.5,3.2-1.5c1.1-1.3,1.6-3.2,1.6-5.7
		c0-2.8-0.6-4.9-1.8-6.4c-0.8-1-1.9-1.5-3-1.5c-0.6,0-1.2,0.2-1.9,0.5C507.6,195.3,506.8,196,505.8,197.2z"/>
	<path class="st0" d="M523.9,199c0,2.7,0.7,4.8,2,6.3c1.3,1.5,2.9,2.3,4.6,2.3c1.2,0,2.2-0.3,3.1-1c0.9-0.6,1.6-1.8,2.2-3.3l0.6,0.4
		c-0.3,1.8-1.1,3.4-2.4,4.9s-3,2.2-5,2.2c-2.2,0-4-0.8-5.6-2.5c-1.5-1.7-2.3-4-2.3-6.8c0-3.1,0.8-5.5,2.4-7.2c1.6-1.7,3.6-2.6,6-2.6
		c2,0,3.7,0.7,5,2c1.3,1.3,1.9,3.1,1.9,5.4H523.9z M523.9,197.9h8.4c-0.1-1.2-0.2-2-0.4-2.4c-0.3-0.7-0.8-1.3-1.5-1.7
		c-0.7-0.4-1.3-0.6-2-0.6c-1.1,0-2.1,0.4-2.9,1.3C524.6,195.2,524.1,196.4,523.9,197.9z"/>
	<path class="st0" d="M544.1,191.7v4.1c1.5-2.7,3.1-4.1,4.7-4.1c0.7,0,1.3,0.2,1.8,0.7c0.5,0.4,0.7,0.9,0.7,1.5c0,0.5-0.2,1-0.5,1.3
		c-0.3,0.4-0.7,0.5-1.2,0.5c-0.5,0-1-0.2-1.6-0.7c-0.6-0.4-1-0.7-1.2-0.7c-0.2,0-0.5,0.1-0.8,0.4c-0.6,0.5-1.2,1.4-1.8,2.6v8.7
		c0,1,0.1,1.7,0.4,2.3c0.2,0.4,0.5,0.7,0.9,0.9c0.4,0.2,1.1,0.4,1.9,0.4v0.7h-9.2v-0.7c0.9,0,1.6-0.1,2-0.4c0.3-0.2,0.6-0.5,0.7-1
		c0.1-0.2,0.1-0.8,0.1-1.9v-7c0-2.1,0-3.3-0.1-3.7c-0.1-0.4-0.2-0.7-0.5-0.9c-0.2-0.2-0.5-0.3-0.9-0.3c-0.4,0-0.9,0.1-1.4,0.3
		l-0.2-0.7l5.5-2.2H544.1z"/>
	<path class="st0" d="M561.1,191.7c2.7,0,4.9,1,6.6,3.1c1.4,1.8,2.1,3.8,2.1,6.1c0,1.6-0.4,3.2-1.2,4.9c-0.8,1.6-1.8,2.9-3.2,3.7
		s-2.9,1.3-4.6,1.3c-2.7,0-4.9-1.1-6.5-3.3c-1.3-1.8-2-3.9-2-6.1c0-1.7,0.4-3.3,1.2-4.9c0.8-1.6,1.9-2.8,3.2-3.6
		C558.2,192.1,559.6,191.7,561.1,191.7z M560.5,193c-0.7,0-1.4,0.2-2.1,0.6c-0.7,0.4-1.3,1.1-1.7,2.2c-0.4,1-0.6,2.4-0.6,4
		c0,2.6,0.5,4.9,1.6,6.8c1,1.9,2.4,2.9,4.1,2.9c1.3,0,2.3-0.5,3.1-1.6c0.8-1,1.2-2.8,1.2-5.4c0-3.2-0.7-5.7-2.1-7.6
		C563.2,193.6,562,193,560.5,193z"/>
	<path class="st0" d="M581.3,194l5.6-2.3h0.8v4.2c0.9-1.6,1.9-2.7,2.8-3.3s1.9-1,3-1c1.8,0,3.3,0.7,4.5,2.1c1.5,1.7,2.2,4,2.2,6.8
		c0,3.1-0.9,5.7-2.7,7.7c-1.5,1.7-3.3,2.5-5.6,2.5c-1,0-1.8-0.1-2.5-0.4c-0.5-0.2-1.1-0.6-1.8-1.2v5.5c0,1.2,0.1,2,0.2,2.4
		s0.4,0.6,0.8,0.8s1,0.3,2,0.3v0.7h-9.5v-0.7h0.5c0.7,0,1.4-0.1,1.9-0.4c0.2-0.1,0.4-0.4,0.6-0.7c0.1-0.3,0.2-1.1,0.2-2.5v-17.1
		c0-1.2-0.1-1.9-0.2-2.2c-0.1-0.3-0.3-0.5-0.5-0.7c-0.2-0.2-0.5-0.2-0.9-0.2c-0.3,0-0.7,0.1-1.2,0.3L581.3,194z M587.6,197.2v6.7
		c0,1.5,0.1,2.4,0.2,2.9c0.2,0.8,0.6,1.4,1.4,2c0.7,0.6,1.6,0.9,2.7,0.9c1.3,0,2.4-0.5,3.2-1.5c1.1-1.3,1.6-3.2,1.6-5.7
		c0-2.8-0.6-4.9-1.8-6.4c-0.8-1-1.9-1.5-3-1.5c-0.6,0-1.2,0.2-1.9,0.5C589.5,195.3,588.7,196,587.6,197.2z"/>
	<path class="st0" d="M613,207.7c-1.8,1.4-3,2.2-3.5,2.5c-0.7,0.3-1.5,0.5-2.3,0.5c-1.2,0-2.3-0.4-3.1-1.3c-0.8-0.8-1.2-2-1.2-3.4
		c0-0.9,0.2-1.6,0.6-2.3c0.5-0.9,1.5-1.7,2.8-2.5c1.3-0.8,3.5-1.7,6.6-2.9v-0.7c0-1.8-0.3-3-0.9-3.7c-0.6-0.7-1.4-1-2.5-1
		c-0.8,0-1.5,0.2-2,0.7c-0.5,0.5-0.8,1-0.8,1.5l0,1.2c0,0.6-0.2,1.1-0.5,1.4c-0.3,0.3-0.7,0.5-1.2,0.5s-0.9-0.2-1.2-0.5
		s-0.5-0.8-0.5-1.4c0-1.1,0.6-2.2,1.7-3.1c1.2-0.9,2.8-1.4,4.9-1.4c1.6,0,2.9,0.3,3.9,0.8c0.8,0.4,1.3,1,1.7,1.9
		c0.2,0.6,0.3,1.7,0.3,3.5v6.1c0,1.7,0,2.8,0.1,3.2c0.1,0.4,0.2,0.7,0.3,0.8c0.2,0.1,0.3,0.2,0.5,0.2c0.2,0,0.4,0,0.5-0.1
		c0.3-0.2,0.8-0.6,1.6-1.4v1.1c-1.5,2-2.9,2.9-4.2,2.9c-0.6,0-1.1-0.2-1.5-0.7S613,208.8,613,207.7z M613,206.4v-6.9
		c-2,0.8-3.3,1.4-3.8,1.7c-1,0.6-1.8,1.2-2.2,1.8s-0.7,1.3-0.7,2.1c0,0.9,0.3,1.7,0.8,2.4c0.6,0.6,1.2,0.9,1.9,0.9
		C610,208.4,611.3,207.7,613,206.4z"/>
	<path class="st0" d="M625.9,191.7v4.1c1.5-2.7,3.1-4.1,4.7-4.1c0.7,0,1.3,0.2,1.8,0.7c0.5,0.4,0.7,0.9,0.7,1.5c0,0.5-0.2,1-0.5,1.3
		c-0.3,0.4-0.7,0.5-1.2,0.5c-0.5,0-1-0.2-1.6-0.7c-0.6-0.4-1-0.7-1.2-0.7c-0.2,0-0.5,0.1-0.8,0.4c-0.6,0.5-1.2,1.4-1.8,2.6v8.7
		c0,1,0.1,1.7,0.4,2.3c0.2,0.4,0.5,0.7,0.9,0.9c0.4,0.2,1.1,0.4,1.9,0.4v0.7h-9.2v-0.7c0.9,0,1.6-0.1,2-0.4c0.3-0.2,0.6-0.5,0.7-1
		c0.1-0.2,0.1-0.8,0.1-1.9v-7c0-2.1,0-3.3-0.1-3.7c-0.1-0.4-0.2-0.7-0.5-0.9c-0.2-0.2-0.5-0.3-0.9-0.3c-0.4,0-0.9,0.1-1.4,0.3
		l-0.2-0.7l5.5-2.2H625.9z"/>
	<path class="st0" d="M644.3,207.7c-1.8,1.4-3,2.2-3.5,2.5c-0.7,0.3-1.5,0.5-2.3,0.5c-1.2,0-2.3-0.4-3.1-1.3c-0.8-0.8-1.2-2-1.2-3.4
		c0-0.9,0.2-1.6,0.6-2.3c0.5-0.9,1.5-1.7,2.8-2.5c1.3-0.8,3.5-1.7,6.6-2.9v-0.7c0-1.8-0.3-3-0.9-3.7c-0.6-0.7-1.4-1-2.5-1
		c-0.8,0-1.5,0.2-2,0.7c-0.5,0.5-0.8,1-0.8,1.5l0,1.2c0,0.6-0.2,1.1-0.5,1.4c-0.3,0.3-0.7,0.5-1.2,0.5c-0.5,0-0.9-0.2-1.2-0.5
		c-0.3-0.3-0.5-0.8-0.5-1.4c0-1.1,0.6-2.2,1.7-3.1c1.2-0.9,2.8-1.4,4.9-1.4c1.6,0,2.9,0.3,3.9,0.8c0.8,0.4,1.3,1,1.7,1.9
		c0.2,0.6,0.3,1.7,0.3,3.5v6.1c0,1.7,0,2.8,0.1,3.2s0.2,0.7,0.3,0.8c0.2,0.1,0.3,0.2,0.5,0.2c0.2,0,0.4,0,0.5-0.1
		c0.3-0.2,0.8-0.6,1.6-1.4v1.1c-1.5,2-2.9,2.9-4.2,2.9c-0.6,0-1.1-0.2-1.5-0.7S644.4,208.8,644.3,207.7z M644.3,206.4v-6.9
		c-2,0.8-3.3,1.4-3.8,1.7c-1,0.6-1.8,1.2-2.2,1.8s-0.7,1.3-0.7,2.1c0,0.9,0.3,1.7,0.8,2.4c0.6,0.6,1.2,0.9,1.9,0.9
		C641.4,208.4,642.7,207.7,644.3,206.4z"/>
	<path class="st0" d="M667.1,195.3c1.7-2.4,3.6-3.6,5.7-3.6c1.8,0,3.5,0.8,4.8,2.4s2.1,3.7,2.1,6.5c0,3.2-1.1,5.8-3.2,7.7
		c-1.8,1.7-3.9,2.5-6.1,2.5c-1,0-2.1-0.2-3.2-0.6c-1.1-0.4-2.2-1-3.3-1.7v-18.7c0-2,0-3.3-0.1-3.8c-0.1-0.5-0.3-0.8-0.5-1
		c-0.2-0.2-0.5-0.3-0.8-0.3c-0.4,0-0.8,0.1-1.4,0.3l-0.3-0.7l5.4-2.2h0.9V195.3z M667.1,196.6v10.8c0.7,0.7,1.4,1.2,2.1,1.5
		c0.7,0.3,1.4,0.5,2.2,0.5c1.2,0,2.3-0.7,3.4-2c1-1.3,1.5-3.2,1.5-5.7c0-2.3-0.5-4.1-1.5-5.3c-1-1.2-2.2-1.9-3.5-1.9
		c-0.7,0-1.4,0.2-2.1,0.5C668.6,195.3,667.9,195.8,667.1,196.6z"/>
	<path class="st0" d="M692.5,207.7c-1.8,1.4-3,2.2-3.5,2.5c-0.7,0.3-1.5,0.5-2.3,0.5c-1.2,0-2.3-0.4-3.1-1.3c-0.8-0.8-1.2-2-1.2-3.4
		c0-0.9,0.2-1.6,0.6-2.3c0.5-0.9,1.5-1.7,2.8-2.5c1.3-0.8,3.5-1.7,6.6-2.9v-0.7c0-1.8-0.3-3-0.9-3.7c-0.6-0.7-1.4-1-2.5-1
		c-0.8,0-1.5,0.2-2,0.7c-0.5,0.5-0.8,1-0.8,1.5l0,1.2c0,0.6-0.2,1.1-0.5,1.4c-0.3,0.3-0.7,0.5-1.2,0.5c-0.5,0-0.9-0.2-1.2-0.5
		c-0.3-0.3-0.5-0.8-0.5-1.4c0-1.1,0.6-2.2,1.7-3.1c1.2-0.9,2.8-1.4,4.9-1.4c1.6,0,2.9,0.3,3.9,0.8c0.8,0.4,1.3,1,1.7,1.9
		c0.2,0.6,0.3,1.7,0.3,3.5v6.1c0,1.7,0,2.8,0.1,3.2c0.1,0.4,0.2,0.7,0.3,0.8s0.3,0.2,0.5,0.2c0.2,0,0.4,0,0.5-0.1
		c0.3-0.2,0.8-0.6,1.6-1.4v1.1c-1.5,2-2.9,2.9-4.2,2.9c-0.6,0-1.1-0.2-1.5-0.7S692.6,208.8,692.5,207.7z M692.5,206.4v-6.9
		c-2,0.8-3.3,1.4-3.8,1.7c-1,0.6-1.8,1.2-2.2,1.8s-0.7,1.3-0.7,2.1c0,0.9,0.3,1.7,0.8,2.4c0.6,0.6,1.2,0.9,1.9,0.9
		C689.6,208.4,690.9,207.7,692.5,206.4z"/>
	<path class="st0" d="M706.5,191.7v14.5c0,1.1,0.1,1.9,0.2,2.3s0.4,0.6,0.7,0.8c0.3,0.2,0.9,0.3,1.8,0.3v0.7h-8.8v-0.7
		c0.9,0,1.5-0.1,1.8-0.3c0.3-0.2,0.5-0.5,0.7-0.8c0.2-0.4,0.3-1.2,0.3-2.3v-7c0-2-0.1-3.2-0.2-3.8c-0.1-0.4-0.2-0.7-0.4-0.9
		c-0.2-0.2-0.5-0.2-0.8-0.2c-0.4,0-0.8,0.1-1.3,0.3l-0.3-0.7l5.4-2.2H706.5z M704.8,182.2c0.6,0,1,0.2,1.4,0.6s0.6,0.9,0.6,1.4
		c0,0.5-0.2,1-0.6,1.4c-0.4,0.4-0.9,0.6-1.4,0.6s-1-0.2-1.4-0.6c-0.4-0.4-0.6-0.9-0.6-1.4c0-0.6,0.2-1,0.6-1.4
		S704.3,182.2,704.8,182.2z"/>
	<path class="st0" d="M717.7,182.2v24c0,1.1,0.1,1.9,0.2,2.3s0.4,0.6,0.8,0.8c0.3,0.2,1,0.3,1.9,0.3v0.7h-8.8v-0.7
		c0.8,0,1.4-0.1,1.7-0.3c0.3-0.2,0.5-0.5,0.7-0.8c0.2-0.4,0.2-1.2,0.2-2.3v-16.4c0-2,0-3.3-0.1-3.8c-0.1-0.5-0.2-0.8-0.4-1
		c-0.2-0.2-0.5-0.3-0.8-0.3c-0.3,0-0.8,0.1-1.3,0.3l-0.3-0.7l5.4-2.2H717.7z"/>
	<path class="st0" d="M732.9,207.7c-1.8,1.4-3,2.2-3.5,2.5c-0.7,0.3-1.5,0.5-2.3,0.5c-1.2,0-2.3-0.4-3.1-1.3c-0.8-0.8-1.2-2-1.2-3.4
		c0-0.9,0.2-1.6,0.6-2.3c0.5-0.9,1.5-1.7,2.8-2.5c1.3-0.8,3.5-1.7,6.6-2.9v-0.7c0-1.8-0.3-3-0.9-3.7c-0.6-0.7-1.4-1-2.5-1
		c-0.8,0-1.5,0.2-2,0.7c-0.5,0.5-0.8,1-0.8,1.5l0,1.2c0,0.6-0.2,1.1-0.5,1.4c-0.3,0.3-0.7,0.5-1.2,0.5s-0.9-0.2-1.2-0.5
		s-0.5-0.8-0.5-1.4c0-1.1,0.6-2.2,1.7-3.1c1.2-0.9,2.8-1.4,4.9-1.4c1.6,0,2.9,0.3,3.9,0.8c0.8,0.4,1.3,1,1.7,1.9
		c0.2,0.6,0.3,1.7,0.3,3.5v6.1c0,1.7,0,2.8,0.1,3.2s0.2,0.7,0.3,0.8c0.2,0.1,0.3,0.2,0.5,0.2c0.2,0,0.4,0,0.5-0.1
		c0.3-0.2,0.8-0.6,1.6-1.4v1.1c-1.5,2-2.9,2.9-4.2,2.9c-0.6,0-1.1-0.2-1.5-0.7C733.1,209.5,732.9,208.8,732.9,207.7z M732.9,206.4
		v-6.9c-2,0.8-3.3,1.4-3.8,1.7c-1,0.6-1.8,1.2-2.2,1.8c-0.4,0.6-0.7,1.3-0.7,2.1c0,0.9,0.3,1.7,0.8,2.4c0.6,0.6,1.2,0.9,1.9,0.9
		C729.9,208.4,731.3,207.7,732.9,206.4z"/>
	<path class="st0" d="M745.9,191.7v4.1c1.5-2.7,3.1-4.1,4.7-4.1c0.7,0,1.3,0.2,1.8,0.7c0.5,0.4,0.7,0.9,0.7,1.5c0,0.5-0.2,1-0.5,1.3
		c-0.3,0.4-0.7,0.5-1.2,0.5s-1-0.2-1.6-0.7c-0.6-0.4-1-0.7-1.2-0.7c-0.2,0-0.5,0.1-0.8,0.4c-0.6,0.5-1.2,1.4-1.8,2.6v8.7
		c0,1,0.1,1.7,0.4,2.3c0.2,0.4,0.5,0.7,0.9,0.9c0.4,0.2,1.1,0.4,1.9,0.4v0.7h-9.2v-0.7c0.9,0,1.6-0.1,2-0.4c0.3-0.2,0.6-0.5,0.7-1
		c0.1-0.2,0.1-0.8,0.1-1.9v-7c0-2.1,0-3.3-0.1-3.7c-0.1-0.4-0.2-0.7-0.5-0.9c-0.2-0.2-0.5-0.3-0.9-0.3c-0.4,0-0.9,0.1-1.4,0.3
		l-0.2-0.7l5.5-2.2H745.9z"/>
	<path class="st0" d="M763.1,192.2h8.4v0.7h-0.4c-0.6,0-1,0.1-1.3,0.4c-0.3,0.3-0.4,0.6-0.4,1c0,0.5,0.2,1.2,0.7,2.1l4.4,9.1l4-10
		c0.2-0.5,0.3-1.1,0.3-1.6c0-0.2,0-0.4-0.1-0.5c-0.1-0.1-0.3-0.3-0.5-0.4s-0.6-0.1-1.2-0.1v-0.7h5.9v0.7c-0.5,0.1-0.9,0.2-1.1,0.3
		c-0.3,0.2-0.6,0.5-0.9,0.9c-0.1,0.2-0.3,0.7-0.7,1.5l-7.3,18c-0.7,1.7-1.7,3.1-2.8,4c-1.2,0.9-2.3,1.3-3.3,1.3
		c-0.8,0-1.4-0.2-1.9-0.7s-0.8-1-0.8-1.5c0-0.6,0.2-1,0.6-1.3c0.4-0.3,0.9-0.5,1.5-0.5c0.4,0,1,0.1,1.8,0.4c0.5,0.2,0.8,0.3,1,0.3
		c0.4,0,0.8-0.2,1.3-0.6c0.5-0.4,0.9-1.2,1.4-2.4l1.3-3.1l-6.5-13.6c-0.2-0.4-0.5-0.9-1-1.5c-0.3-0.5-0.6-0.8-0.8-0.9
		c-0.3-0.2-0.8-0.4-1.4-0.6V192.2z"/>
	<path class="st0" d="M799.7,191.7v4.1c1.5-2.7,3.1-4.1,4.7-4.1c0.7,0,1.3,0.2,1.8,0.7c0.5,0.4,0.7,0.9,0.7,1.5c0,0.5-0.2,1-0.5,1.3
		c-0.3,0.4-0.7,0.5-1.2,0.5s-1-0.2-1.6-0.7c-0.6-0.4-1-0.7-1.2-0.7c-0.2,0-0.5,0.1-0.8,0.4c-0.6,0.5-1.2,1.4-1.8,2.6v8.7
		c0,1,0.1,1.7,0.4,2.3c0.2,0.4,0.5,0.7,0.9,0.9c0.4,0.2,1.1,0.4,1.9,0.4v0.7h-9.2v-0.7c0.9,0,1.6-0.1,2-0.4c0.3-0.2,0.6-0.5,0.7-1
		c0.1-0.2,0.1-0.8,0.1-1.9v-7c0-2.1,0-3.3-0.1-3.7c-0.1-0.4-0.2-0.7-0.5-0.9c-0.2-0.2-0.5-0.3-0.9-0.3c-0.4,0-0.9,0.1-1.4,0.3
		l-0.2-0.7l5.5-2.2H799.7z"/>
	<path class="st0" d="M810.9,199c0,2.7,0.7,4.8,2,6.3c1.3,1.5,2.9,2.3,4.6,2.3c1.2,0,2.2-0.3,3.1-1c0.9-0.6,1.6-1.8,2.2-3.3l0.6,0.4
		c-0.3,1.8-1.1,3.4-2.4,4.9c-1.3,1.5-3,2.2-5,2.2c-2.2,0-4-0.8-5.6-2.5c-1.5-1.7-2.3-4-2.3-6.8c0-3.1,0.8-5.5,2.4-7.2
		c1.6-1.7,3.6-2.6,6-2.6c2,0,3.7,0.7,5,2c1.3,1.3,1.9,3.1,1.9,5.4H810.9z M810.9,197.9h8.4c-0.1-1.2-0.2-2-0.4-2.4
		c-0.3-0.7-0.8-1.3-1.5-1.7c-0.7-0.4-1.3-0.6-2-0.6c-1.1,0-2.1,0.4-2.9,1.3C811.5,195.2,811,196.4,810.9,197.9z"/>
	<path class="st0" d="M832,191.7v14.5c0,1.1,0.1,1.9,0.2,2.3s0.4,0.6,0.7,0.8c0.3,0.2,0.9,0.3,1.8,0.3v0.7H826v-0.7
		c0.9,0,1.5-0.1,1.8-0.3c0.3-0.2,0.5-0.5,0.7-0.8c0.2-0.4,0.3-1.2,0.3-2.3v-7c0-2-0.1-3.2-0.2-3.8c-0.1-0.4-0.2-0.7-0.4-0.9
		c-0.2-0.2-0.5-0.2-0.8-0.2c-0.4,0-0.8,0.1-1.3,0.3l-0.3-0.7l5.4-2.2H832z M830.4,182.2c0.6,0,1,0.2,1.4,0.6s0.6,0.9,0.6,1.4
		c0,0.5-0.2,1-0.6,1.4c-0.4,0.4-0.9,0.6-1.4,0.6c-0.6,0-1-0.2-1.4-0.6c-0.4-0.4-0.6-0.9-0.6-1.4c0-0.6,0.2-1,0.6-1.4
		S829.8,182.2,830.4,182.2z"/>
	<path class="st0" d="M842.3,191.7v4.1c1.5-2.7,3.1-4.1,4.7-4.1c0.7,0,1.3,0.2,1.8,0.7c0.5,0.4,0.7,0.9,0.7,1.5c0,0.5-0.2,1-0.5,1.3
		c-0.3,0.4-0.7,0.5-1.2,0.5s-1-0.2-1.6-0.7c-0.6-0.4-1-0.7-1.2-0.7c-0.2,0-0.5,0.1-0.8,0.4c-0.6,0.5-1.2,1.4-1.8,2.6v8.7
		c0,1,0.1,1.7,0.4,2.3c0.2,0.4,0.5,0.7,0.9,0.9c0.4,0.2,1.1,0.4,1.9,0.4v0.7h-9.2v-0.7c0.9,0,1.6-0.1,2-0.4c0.3-0.2,0.6-0.5,0.7-1
		c0.1-0.2,0.1-0.8,0.1-1.9v-7c0-2.1,0-3.3-0.1-3.7c-0.1-0.4-0.2-0.7-0.5-0.9c-0.2-0.2-0.5-0.3-0.9-0.3c-0.4,0-0.9,0.1-1.4,0.3
		l-0.2-0.7l5.5-2.2H842.3z"/>
	<path class="st0" d="M485.8,259.2c0,2.7,0.7,4.8,2,6.3c1.3,1.5,2.9,2.3,4.6,2.3c1.2,0,2.2-0.3,3.1-1c0.9-0.6,1.6-1.8,2.2-3.3
		l0.6,0.4c-0.3,1.8-1.1,3.4-2.4,4.9s-3,2.2-5,2.2c-2.2,0-4-0.8-5.6-2.5c-1.5-1.7-2.3-4-2.3-6.8c0-3.1,0.8-5.5,2.4-7.2
		c1.6-1.7,3.6-2.6,6-2.6c2,0,3.7,0.7,5,2c1.3,1.3,1.9,3.1,1.9,5.4H485.8z M485.8,258.1h8.4c-0.1-1.2-0.2-2-0.4-2.4
		c-0.3-0.7-0.8-1.3-1.5-1.7c-0.7-0.4-1.3-0.6-2-0.6c-1.1,0-2.1,0.4-2.9,1.3C486.4,255.4,485.9,256.6,485.8,258.1z"/>
	<path class="st0" d="M505.9,255.7c2.1-2.5,4.1-3.8,6.1-3.8c1,0,1.8,0.2,2.5,0.7c0.7,0.5,1.3,1.3,1.7,2.4c0.3,0.8,0.4,2,0.4,3.6v7.7
		c0,1.1,0.1,1.9,0.3,2.3c0.1,0.3,0.4,0.6,0.7,0.8c0.3,0.2,0.9,0.3,1.8,0.3v0.7h-8.9v-0.7h0.4c0.8,0,1.4-0.1,1.8-0.4
		c0.3-0.3,0.6-0.6,0.7-1.1c0.1-0.2,0.1-0.8,0.1-1.9V259c0-1.6-0.2-2.8-0.6-3.6c-0.4-0.7-1.2-1.1-2.2-1.1c-1.6,0-3.1,0.9-4.7,2.6v9.5
		c0,1.2,0.1,2,0.2,2.3c0.2,0.4,0.5,0.7,0.8,0.8c0.3,0.2,1,0.3,1.9,0.3v0.7H500v-0.7h0.4c0.9,0,1.5-0.2,1.9-0.7
		c0.3-0.5,0.5-1.4,0.5-2.7v-6.7c0-2.2,0-3.5-0.1-4c-0.1-0.5-0.2-0.8-0.5-1c-0.2-0.2-0.5-0.3-0.8-0.3c-0.4,0-0.8,0.1-1.3,0.3
		l-0.3-0.7l5.4-2.2h0.8V255.7z"/>
	<path class="st0" d="M534,259.2c0,2.7,0.7,4.8,2,6.3c1.3,1.5,2.9,2.3,4.6,2.3c1.2,0,2.2-0.3,3.1-1c0.9-0.6,1.6-1.8,2.2-3.3l0.6,0.4
		c-0.3,1.8-1.1,3.4-2.4,4.9s-3,2.2-5,2.2c-2.2,0-4-0.8-5.6-2.5c-1.5-1.7-2.3-4-2.3-6.8c0-3.1,0.8-5.5,2.4-7.2c1.6-1.7,3.6-2.6,6-2.6
		c2,0,3.7,0.7,5,2c1.3,1.3,1.9,3.1,1.9,5.4H534z M534,258.1h8.4c-0.1-1.2-0.2-2-0.4-2.4c-0.3-0.7-0.8-1.3-1.5-1.7
		c-0.7-0.4-1.3-0.6-2-0.6c-1.1,0-2.1,0.4-2.9,1.3C534.6,255.4,534.1,256.6,534,258.1z"/>
	<path class="st0" d="M560.6,251.9v6.1h-0.6c-0.5-1.9-1.2-3.2-1.9-3.9c-0.8-0.7-1.8-1.1-3-1.1c-0.9,0-1.7,0.2-2.2,0.7
		c-0.6,0.5-0.9,1-0.9,1.6c0,0.7,0.2,1.4,0.6,1.9c0.4,0.5,1.2,1.1,2.5,1.7l2.9,1.4c2.7,1.3,4,3,4,5.1c0,1.6-0.6,3-1.9,4
		s-2.6,1.5-4.2,1.5c-1.1,0-2.4-0.2-3.8-0.6c-0.4-0.1-0.8-0.2-1.1-0.2c-0.3,0-0.5,0.2-0.7,0.5h-0.6v-6.4h0.6c0.4,1.8,1.1,3.2,2.1,4.2
		s2.2,1.4,3.5,1.4c0.9,0,1.6-0.3,2.2-0.8c0.6-0.5,0.9-1.2,0.9-1.9c0-0.9-0.3-1.7-1-2.3s-1.9-1.4-3.8-2.3c-1.9-0.9-3.1-1.8-3.7-2.6
		c-0.6-0.8-0.9-1.7-0.9-2.8c0-1.5,0.5-2.7,1.5-3.7s2.3-1.5,3.9-1.5c0.7,0,1.6,0.1,2.6,0.4c0.7,0.2,1.1,0.3,1.3,0.3
		c0.2,0,0.4,0,0.5-0.1s0.3-0.3,0.4-0.6H560.6z"/>
	<path class="st0" d="M569.9,246.5v6h4.2v1.4h-4.2v11.7c0,1.2,0.2,2,0.5,2.4s0.8,0.6,1.3,0.6c0.4,0,0.8-0.1,1.2-0.4s0.7-0.7,1-1.2
		h0.8c-0.5,1.3-1.1,2.3-1.9,2.9c-0.8,0.7-1.7,1-2.6,1c-0.6,0-1.2-0.2-1.8-0.5c-0.6-0.3-1-0.8-1.3-1.4c-0.3-0.6-0.4-1.6-0.4-2.9
		v-12.1h-2.9v-0.7c0.7-0.3,1.5-0.8,2.2-1.5c0.8-0.7,1.4-1.5,2-2.5c0.3-0.5,0.7-1.4,1.3-2.7H569.9z"/>
	<path class="st0" d="M578.9,259.2c0,2.7,0.7,4.8,2,6.3c1.3,1.5,2.9,2.3,4.6,2.3c1.2,0,2.2-0.3,3.1-1c0.9-0.6,1.6-1.8,2.2-3.3
		l0.6,0.4c-0.3,1.8-1.1,3.4-2.4,4.9s-3,2.2-5,2.2c-2.2,0-4-0.8-5.6-2.5c-1.5-1.7-2.3-4-2.3-6.8c0-3.1,0.8-5.5,2.4-7.2
		c1.6-1.7,3.6-2.6,6-2.6c2,0,3.7,0.7,5,2c1.3,1.3,1.9,3.1,1.9,5.4H578.9z M578.9,258.1h8.4c-0.1-1.2-0.2-2-0.4-2.4
		c-0.3-0.7-0.8-1.3-1.5-1.7c-0.7-0.4-1.3-0.6-2-0.6c-1.1,0-2.1,0.4-2.9,1.3C579.5,255.4,579,256.6,578.9,258.1z"/>
	<path class="st0" d="M616.6,268.4c-0.9,0.9-1.7,1.6-2.6,2s-1.7,0.6-2.7,0.6c-2,0-3.7-0.8-5.2-2.5c-1.5-1.7-2.2-3.8-2.2-6.4
		c0-2.6,0.8-5,2.4-7.1c1.6-2.1,3.7-3.2,6.3-3.2c1.6,0,2.9,0.5,3.9,1.5V250c0-2.1,0-3.3-0.1-3.8c-0.1-0.5-0.2-0.8-0.5-1
		c-0.2-0.2-0.5-0.3-0.8-0.3c-0.3,0-0.8,0.1-1.3,0.3l-0.3-0.7l5.4-2.2h0.9v20.9c0,2.1,0,3.4,0.1,3.9c0.1,0.5,0.3,0.8,0.5,1
		c0.2,0.2,0.5,0.3,0.8,0.3c0.3,0,0.8-0.1,1.4-0.3l0.2,0.7l-5.4,2.2h-0.9V268.4z M616.6,267.1v-9.3c-0.1-0.9-0.3-1.7-0.7-2.4
		s-0.9-1.3-1.6-1.7s-1.3-0.6-1.9-0.6c-1.2,0-2.2,0.5-3.1,1.6c-1.2,1.4-1.8,3.3-1.8,6c0,2.7,0.6,4.7,1.7,6.1s2.4,2.1,3.9,2.1
		C614.3,268.9,615.5,268.3,616.6,267.1z"/>
	<path class="st0" d="M630.2,251.9v14.5c0,1.1,0.1,1.9,0.3,2.3c0.2,0.4,0.4,0.6,0.7,0.8c0.3,0.2,0.9,0.3,1.8,0.3v0.7h-8.8v-0.7
		c0.9,0,1.5-0.1,1.8-0.3c0.3-0.2,0.5-0.5,0.7-0.8c0.2-0.4,0.3-1.2,0.3-2.3v-7c0-2-0.1-3.2-0.2-3.8c-0.1-0.4-0.2-0.7-0.4-0.9
		c-0.2-0.2-0.5-0.2-0.8-0.2c-0.4,0-0.8,0.1-1.3,0.3l-0.3-0.7l5.4-2.2H630.2z M632.6,243.1l-5.8,6.8h-0.7l2.1-6.8H632.6z"/>
	<path class="st0" d="M645.5,267.9c-1.8,1.4-3,2.2-3.5,2.5c-0.7,0.3-1.5,0.5-2.3,0.5c-1.2,0-2.3-0.4-3.1-1.3c-0.8-0.8-1.2-2-1.2-3.4
		c0-0.9,0.2-1.6,0.6-2.3c0.5-0.9,1.5-1.7,2.8-2.5c1.3-0.8,3.5-1.7,6.6-2.9v-0.7c0-1.8-0.3-3-0.9-3.7c-0.6-0.7-1.4-1-2.5-1
		c-0.8,0-1.5,0.2-2,0.7c-0.5,0.5-0.8,1-0.8,1.5l0,1.2c0,0.6-0.2,1.1-0.5,1.4c-0.3,0.3-0.7,0.5-1.2,0.5c-0.5,0-0.9-0.2-1.2-0.5
		c-0.3-0.3-0.5-0.8-0.5-1.4c0-1.1,0.6-2.2,1.7-3.1c1.2-0.9,2.8-1.4,4.9-1.4c1.6,0,2.9,0.3,3.9,0.8c0.8,0.4,1.3,1,1.7,1.9
		c0.2,0.6,0.3,1.7,0.3,3.5v6.1c0,1.7,0,2.8,0.1,3.2c0.1,0.4,0.2,0.7,0.3,0.8s0.3,0.2,0.5,0.2c0.2,0,0.4,0,0.5-0.1
		c0.3-0.2,0.8-0.6,1.6-1.4v1.1c-1.5,2-2.9,2.9-4.2,2.9c-0.6,0-1.1-0.2-1.5-0.7S645.5,269,645.5,267.9z M645.5,266.6v-6.9
		c-2,0.8-3.3,1.4-3.8,1.7c-1,0.6-1.8,1.2-2.2,1.8s-0.7,1.3-0.7,2.1c0,0.9,0.3,1.7,0.8,2.4c0.6,0.6,1.2,0.9,1.9,0.9
		C642.5,268.6,643.8,267.9,645.5,266.6z"/>
	<path class="st0" d="M668.6,255.7c1.3-1.3,2.1-2.1,2.3-2.3c0.6-0.5,1.2-0.9,1.9-1.2c0.7-0.3,1.4-0.4,2-0.4c1.1,0,2.1,0.3,2.9,1
		c0.8,0.7,1.4,1.6,1.6,2.9c1.4-1.6,2.5-2.6,3.4-3.1c0.9-0.5,1.9-0.7,2.9-0.7c1,0,1.8,0.2,2.6,0.7c0.7,0.5,1.3,1.3,1.8,2.4
		c0.3,0.8,0.4,1.9,0.4,3.6v7.8c0,1.1,0.1,1.9,0.2,2.3c0.1,0.3,0.4,0.5,0.7,0.7c0.4,0.2,0.9,0.3,1.7,0.3v0.7h-8.9v-0.7h0.4
		c0.8,0,1.4-0.1,1.8-0.4c0.3-0.2,0.5-0.6,0.6-1c0-0.2,0.1-0.8,0.1-1.9v-7.8c0-1.5-0.2-2.5-0.5-3.1c-0.5-0.8-1.3-1.3-2.5-1.3
		c-0.7,0-1.4,0.2-2.1,0.5c-0.7,0.4-1.6,1-2.5,1.9l0,0.2l0,0.9v8.6c0,1.2,0.1,2,0.2,2.3s0.4,0.6,0.8,0.8c0.4,0.2,1,0.3,1.9,0.3v0.7
		h-9.1v-0.7c1,0,1.7-0.1,2.1-0.4c0.4-0.2,0.6-0.6,0.8-1.1c0.1-0.2,0.1-0.9,0.1-2v-7.8c0-1.5-0.2-2.5-0.6-3.2
		c-0.6-0.8-1.4-1.3-2.4-1.3c-0.7,0-1.4,0.2-2.1,0.6c-1.1,0.6-1.9,1.2-2.5,2v9.7c0,1.2,0.1,2,0.3,2.3c0.2,0.4,0.4,0.6,0.7,0.8
		s1,0.3,1.9,0.3v0.7h-8.9v-0.7c0.8,0,1.4-0.1,1.7-0.3s0.6-0.5,0.8-0.8c0.2-0.4,0.3-1.1,0.3-2.3v-6.9c0-2-0.1-3.3-0.2-3.8
		c-0.1-0.4-0.2-0.7-0.4-0.9c-0.2-0.2-0.5-0.2-0.8-0.2c-0.4,0-0.8,0.1-1.3,0.3l-0.3-0.7l5.4-2.2h0.8V255.7z"/>
	<path class="st0" d="M704.9,267.9c-1.8,1.4-3,2.2-3.5,2.5c-0.7,0.3-1.5,0.5-2.3,0.5c-1.2,0-2.3-0.4-3.1-1.3c-0.8-0.8-1.2-2-1.2-3.4
		c0-0.9,0.2-1.6,0.6-2.3c0.5-0.9,1.5-1.7,2.8-2.5c1.3-0.8,3.5-1.7,6.6-2.9v-0.7c0-1.8-0.3-3-0.9-3.7c-0.6-0.7-1.4-1-2.5-1
		c-0.8,0-1.5,0.2-2,0.7c-0.5,0.5-0.8,1-0.8,1.5l0,1.2c0,0.6-0.2,1.1-0.5,1.4c-0.3,0.3-0.7,0.5-1.2,0.5c-0.5,0-0.9-0.2-1.2-0.5
		c-0.3-0.3-0.5-0.8-0.5-1.4c0-1.1,0.6-2.2,1.7-3.1c1.2-0.9,2.8-1.4,4.9-1.4c1.6,0,2.9,0.3,3.9,0.8c0.8,0.4,1.3,1,1.7,1.9
		c0.2,0.6,0.3,1.7,0.3,3.5v6.1c0,1.7,0,2.8,0.1,3.2c0.1,0.4,0.2,0.7,0.3,0.8s0.3,0.2,0.5,0.2c0.2,0,0.4,0,0.5-0.1
		c0.3-0.2,0.8-0.6,1.6-1.4v1.1c-1.5,2-2.9,2.9-4.2,2.9c-0.6,0-1.1-0.2-1.5-0.7S704.9,269,704.9,267.9z M704.9,266.6v-6.9
		c-2,0.8-3.3,1.4-3.8,1.7c-1,0.6-1.8,1.2-2.2,1.8s-0.7,1.3-0.7,2.1c0,0.9,0.3,1.7,0.8,2.4c0.6,0.6,1.2,0.9,1.9,0.9
		C701.9,268.6,703.2,267.9,704.9,266.6z M706.8,243.1l-5.8,6.8h-0.7l2.1-6.8H706.8z"/>
	<path class="st0" d="M717.4,263.9c-1.1-0.5-2-1.3-2.5-2.3c-0.6-1-0.9-2-0.9-3.2c0-1.8,0.7-3.3,2-4.6c1.3-1.3,3.1-1.9,5.2-1.9
		c1.7,0,3.2,0.4,4.5,1.2h3.8c0.6,0,0.9,0,1,0c0.1,0,0.2,0.1,0.2,0.2c0.1,0.1,0.1,0.3,0.1,0.6c0,0.3,0,0.6-0.1,0.7
		c0,0.1-0.1,0.1-0.2,0.2c-0.1,0-0.4,0.1-1,0.1h-2.3c0.7,0.9,1.1,2.2,1.1,3.6c0,1.7-0.6,3.1-1.9,4.3c-1.3,1.2-3,1.8-5.2,1.8
		c-0.9,0-1.8-0.1-2.7-0.4c-0.6,0.5-1,0.9-1.2,1.3c-0.2,0.4-0.3,0.7-0.3,1c0,0.2,0.1,0.4,0.3,0.6s0.6,0.4,1.3,0.5
		c0.4,0,1.3,0.1,2.8,0.1c2.7,0.1,4.5,0.2,5.3,0.3c1.2,0.2,2.2,0.6,2.9,1.4c0.7,0.7,1.1,1.7,1.1,2.7c0,1.5-0.7,2.9-2.1,4.2
		c-2.1,1.9-4.7,2.9-8,2.9c-2.5,0-4.7-0.6-6.4-1.7c-1-0.7-1.5-1.3-1.5-2.1c0-0.3,0.1-0.6,0.2-1c0.2-0.5,0.7-1.1,1.4-2
		c0.1-0.1,0.8-0.8,2-2.1c-0.7-0.4-1.1-0.8-1.4-1.1c-0.3-0.3-0.4-0.7-0.4-1.1c0-0.5,0.2-1,0.6-1.6C715.2,265.9,716.1,265,717.4,263.9
		z M717.2,270.5c-0.6,0.7-1.1,1.3-1.4,1.9c-0.3,0.6-0.5,1.1-0.5,1.6c0,0.6,0.4,1.2,1.2,1.6c1.3,0.8,3.2,1.2,5.7,1.2
		c2.4,0,4.1-0.4,5.2-1.2s1.7-1.7,1.7-2.7c0-0.7-0.3-1.2-1-1.5c-0.7-0.3-2-0.4-4.1-0.5C721.1,270.9,718.8,270.7,717.2,270.5z
		 M720.8,252.8c-1,0-1.8,0.4-2.4,1.2c-0.7,0.8-1,2-1,3.6c0,2.1,0.4,3.7,1.3,4.8c0.7,0.9,1.6,1.3,2.6,1.3c1,0,1.8-0.4,2.5-1.1
		s1-1.9,1-3.5c0-2.1-0.5-3.7-1.4-4.9C722.7,253.3,721.9,252.8,720.8,252.8z"/>
	<path class="st0" d="M739,251.9v14.5c0,1.1,0.1,1.9,0.2,2.3s0.4,0.6,0.7,0.8c0.3,0.2,0.9,0.3,1.8,0.3v0.7H733v-0.7
		c0.9,0,1.5-0.1,1.8-0.3c0.3-0.2,0.5-0.5,0.7-0.8c0.2-0.4,0.3-1.2,0.3-2.3v-7c0-2-0.1-3.2-0.2-3.8c-0.1-0.4-0.2-0.7-0.4-0.9
		c-0.2-0.2-0.5-0.2-0.8-0.2c-0.4,0-0.8,0.1-1.3,0.3l-0.3-0.7l5.4-2.2H739z M737.4,242.4c0.6,0,1,0.2,1.4,0.6s0.6,0.9,0.6,1.4
		c0,0.5-0.2,1-0.6,1.4c-0.4,0.4-0.9,0.6-1.4,0.6c-0.6,0-1-0.2-1.4-0.6c-0.4-0.4-0.6-0.9-0.6-1.4c0-0.6,0.2-1,0.6-1.4
		S736.8,242.4,737.4,242.4z"/>
	<path class="st0" d="M759.3,263.6c-0.5,2.4-1.4,4.2-2.9,5.5c-1.4,1.3-3,1.9-4.7,1.9c-2.1,0-3.8-0.9-5.4-2.6s-2.3-4.1-2.3-7
		c0-2.8,0.8-5.1,2.5-6.9s3.7-2.7,6.1-2.7c1.8,0,3.2,0.5,4.4,1.4c1.1,0.9,1.7,1.9,1.7,2.9c0,0.5-0.2,0.9-0.5,1.2
		c-0.3,0.3-0.8,0.5-1.3,0.5c-0.8,0-1.4-0.2-1.8-0.7c-0.2-0.3-0.4-0.8-0.4-1.6c-0.1-0.8-0.3-1.4-0.8-1.8c-0.5-0.4-1.1-0.6-1.9-0.6
		c-1.3,0-2.4,0.5-3.2,1.4c-1.1,1.3-1.6,3-1.6,5.1c0,2.2,0.5,4.1,1.6,5.7c1.1,1.6,2.5,2.5,4.3,2.5c1.3,0,2.4-0.4,3.5-1.3
		c0.7-0.6,1.4-1.7,2.1-3.3L759.3,263.6z"/>
	<path class="st0" d="M770.7,251.9c2.7,0,4.9,1,6.6,3.1c1.4,1.8,2.1,3.8,2.1,6.1c0,1.6-0.4,3.2-1.2,4.9s-1.8,2.9-3.2,3.7
		c-1.4,0.8-2.9,1.3-4.6,1.3c-2.7,0-4.9-1.1-6.5-3.3c-1.3-1.8-2-3.9-2-6.1c0-1.7,0.4-3.3,1.2-4.9c0.8-1.6,1.9-2.8,3.2-3.6
		C767.8,252.3,769.2,251.9,770.7,251.9z M770.1,253.2c-0.7,0-1.4,0.2-2.1,0.6c-0.7,0.4-1.3,1.1-1.7,2.2c-0.4,1-0.6,2.4-0.6,4
		c0,2.6,0.5,4.9,1.6,6.8s2.4,2.9,4.1,2.9c1.3,0,2.3-0.5,3.1-1.6c0.8-1,1.2-2.8,1.2-5.4c0-3.2-0.7-5.7-2.1-7.6
		C772.8,253.8,771.6,253.2,770.1,253.2z"/>
</g>
</svg>
