<?xml version="1.0" encoding="utf-8"?>
<!-- Generator: Adobe Illustrator 25.4.1, SVG Export Plug-In . SVG Version: 6.00 Build 0)  -->
<svg version="1.1" id="Texto3" xmlns="http://www.w3.org/2000/svg" xmlns:xlink="http://www.w3.org/1999/xlink" x="0px" y="0px"
	 viewBox="0 0 1242 1866" style="enable-background:new 0 0 1242 1866;" xml:space="preserve">
<style type="text/css">
	.st0{fill:#4D4D4D;}
</style>
<g>
	<path class="st0" d="M446.8,1757.3h-2.4c-0.2-2.1-0.7-3.6-1.4-4.6c-0.7-1-1.5-1.6-2.3-1.8c-0.8-0.2-1.8-0.3-2.8-0.3h-4.3v24.7
		c0,1,0.1,1.7,0.3,2.3c0.2,0.5,0.7,1,1.4,1.3c0.7,0.3,1.8,0.4,3.2,0.4v2.3h-16.9v-2.3c2.1,0,3.4-0.3,4-0.9s0.9-1.6,0.9-3.1v-24.7
		h-3.6c-1.4,0-2.6,0.1-3.5,0.3c-0.9,0.2-1.7,0.8-2.5,1.8s-1.1,2.6-1.2,4.6h-2.4v-9.6h33.4V1757.3z"/>
	<path class="st0" d="M475.4,1770.6H460c0,0.3,0.1,1,0.1,2c0.1,1,0.3,2.1,0.7,3.2s1.1,2,2,2.7s2.2,1.1,3.8,1.1
		c0.9,0,1.9-0.2,3.2-0.7s2.3-1.3,3.2-2.6l1.9,1.3c-2,3.1-5.1,4.7-9.3,4.7c-1.9,0-3.6-0.3-5.2-0.8c-1.6-0.5-2.9-1.3-4-2.3
		c-1.1-1-1.9-2.1-2.5-3.5c-0.6-1.3-0.9-2.8-0.9-4.3c0-2,0.5-3.9,1.5-5.6c1-1.7,2.4-3.1,4.2-4.1s3.9-1.5,6.2-1.5
		c2.3,0,4.2,0.5,5.8,1.5c1.6,1,2.7,2.2,3.5,3.8C475,1767.1,475.4,1768.8,475.4,1770.6z M469.2,1768.3c0-3.8-1.5-5.7-4.5-5.7
		c-1.4,0-2.6,0.5-3.3,1.6c-0.8,1-1.2,2.4-1.3,4.1H469.2z"/>
	<path class="st0" d="M530.4,1770.6h-15.3c0,0.3,0.1,1,0.1,2c0.1,1,0.3,2.1,0.7,3.2s1.1,2,2,2.7s2.2,1.1,3.8,1.1
		c0.9,0,1.9-0.2,3.2-0.7s2.3-1.3,3.2-2.6l1.9,1.3c-2,3.1-5.1,4.7-9.3,4.7c-1.9,0-3.6-0.3-5.2-0.8c-1.6-0.5-2.9-1.3-4-2.3
		c-1.1-1-1.9-2.1-2.5-3.5c-0.6-1.3-0.9-2.8-0.9-4.3c0-2,0.5-3.9,1.5-5.6c1-1.7,2.4-3.1,4.2-4.1s3.9-1.5,6.2-1.5
		c2.3,0,4.2,0.5,5.8,1.5c1.6,1,2.7,2.2,3.5,3.8C530.1,1767.1,530.4,1768.8,530.4,1770.6z M524.3,1768.3c0-3.8-1.5-5.7-4.5-5.7
		c-1.4,0-2.6,0.5-3.3,1.6c-0.8,1-1.2,2.4-1.3,4.1H524.3z"/>
	<path class="st0" d="M563.2,1775.6c0,1.4-0.4,2.6-1.3,3.7c-0.9,1-2,1.8-3.5,2.3c-1.5,0.5-3.2,0.8-5.1,0.8c-1.3,0-2.6-0.1-4-0.4
		s-2.5-0.6-3.5-1.2l-1,1.4h-1.9l-0.2-6.5h2.1c0.4,1.1,1.2,2.1,2.5,3c1.3,0.9,3.2,1.3,5.7,1.3c0.6,0,1.3,0,2-0.1
		c0.7-0.1,1.4-0.3,2.1-0.8c0.7-0.4,1-1.1,1-1.9c0-0.7-0.3-1.3-1-1.6c-0.7-0.3-2-0.8-3.9-1.2c-2.3-0.6-4.2-1.1-5.6-1.7
		c-1.5-0.5-2.7-1.3-3.7-2.3c-1-1-1.5-2.2-1.5-3.8c0-2,0.9-3.5,2.7-4.7c1.8-1.1,4.2-1.7,7.1-1.7c1.8,0,3.3,0.1,4.4,0.4
		c1.1,0.3,2,0.6,2.8,1l0.6-1.3h2v5.8h-2c-0.2-0.7-0.6-1.3-1.2-1.9c-0.6-0.6-1.5-1-2.6-1.3c-1.1-0.3-2.3-0.5-3.7-0.5
		c-1.2,0-2.3,0.1-3.5,0.4c-1.2,0.2-1.7,0.8-1.7,1.8c0,0.4,0.1,0.7,0.3,0.9c0.2,0.2,0.6,0.5,1.2,0.7c0.5,0.2,1.5,0.5,2.9,0.8
		c1.4,0.3,2.2,0.6,2.5,0.6c2.7,0.7,4.9,1.5,6.7,2.5S563.2,1773.1,563.2,1775.6z"/>
	<path class="st0" d="M601.7,1771c0,2-0.5,3.9-1.4,5.7s-2.3,3.1-4,4.2s-3.6,1.5-5.7,1.5c-2.6,0-4.9-0.9-6.9-2.8v8
		c0,0.9,0.1,1.7,0.2,2.1s0.4,0.8,0.8,1.1c0.4,0.2,1.1,0.4,2,0.4h1.4v2.3h-14.5v-2.3c1.1,0,1.9-0.1,2.4-0.3c0.5-0.2,0.8-0.5,1-1
		c0.1-0.5,0.2-1.2,0.2-2.3v-19.5c0-1-0.1-1.7-0.2-2.1s-0.5-0.7-0.9-0.9s-1.3-0.3-2.5-0.3v-2.3l9.7-2.1c0.2,0.7,0.3,1.7,0.3,3.2
		c1.1-1.1,2.2-1.9,3.4-2.4c1.2-0.5,2.5-0.8,4-0.8c1.7,0,3.1,0.3,4.5,0.9s2.4,1.4,3.3,2.4s1.6,2.2,2,3.4
		C601.5,1768.3,601.7,1769.6,601.7,1771z M594.9,1770.7c0-5.1-1.8-7.6-5.4-7.6c-1.2,0-2.2,0.3-3.2,1c-1,0.7-1.8,1.5-2.5,2.5v9.8
		c0.6,1,1.5,1.8,2.5,2.3c1,0.6,2.1,0.9,3.2,0.9C593.1,1779.6,594.9,1776.6,594.9,1770.7z"/>
	<path class="st0" d="M636.2,1770.6h-15.3c0,0.3,0.1,1,0.1,2c0.1,1,0.3,2.1,0.7,3.2c0.4,1.1,1.1,2,2,2.7s2.2,1.1,3.8,1.1
		c0.9,0,1.9-0.2,3.2-0.7c1.2-0.4,2.3-1.3,3.2-2.6l1.9,1.3c-2,3.1-5.1,4.7-9.3,4.7c-1.9,0-3.6-0.3-5.2-0.8c-1.6-0.5-2.9-1.3-4-2.3
		c-1.1-1-1.9-2.1-2.5-3.5c-0.6-1.3-0.9-2.8-0.9-4.3c0-2,0.5-3.9,1.5-5.6c1-1.7,2.4-3.1,4.2-4.1s3.9-1.5,6.2-1.5
		c2.3,0,4.2,0.5,5.8,1.5c1.6,1,2.7,2.2,3.5,3.8S636.2,1768.8,636.2,1770.6z M630,1768.3c0-3.8-1.5-5.7-4.5-5.7
		c-1.4,0-2.6,0.5-3.3,1.6c-0.8,1-1.2,2.4-1.3,4.1H630z"/>
	<path class="st0" d="M668.6,1764.2c0,1-0.3,1.7-0.9,2.3c-0.6,0.6-1.3,0.8-2.1,0.8c-0.9,0-1.8-0.5-2.5-1.4c-0.3-0.4-0.6-0.7-0.8-0.9
		s-0.5-0.3-0.9-0.3c-1.3,0-2.3,0.7-3,2.1c-0.7,1.4-1.1,2.9-1.1,4.4v4.3c0,1.4,0.2,2.3,0.5,2.9c0.4,0.5,1.3,0.8,2.8,0.8h1.3v2.3
		h-15.5v-2.3h1.3c1.4,0,2.3-0.3,2.6-0.8c0.3-0.5,0.5-1.5,0.5-2.8v-7.3c0-1.1-0.1-1.9-0.3-2.4c-0.2-0.5-0.6-0.8-1.2-1
		c-0.6-0.2-1.5-0.2-2.8-0.2v-2.3l9.7-2.1c0.2,0.8,0.5,2.6,0.7,5.4c0.5-1,1.1-1.9,1.8-2.7c0.8-0.8,1.6-1.5,2.5-2
		c0.9-0.5,1.9-0.7,2.9-0.7c1.4,0,2.4,0.4,3.2,1.1C668.2,1762.2,668.6,1763.1,668.6,1764.2z"/>
	<path class="st0" d="M704.3,1776.3c0,1.3-0.3,2.3-0.8,3.2c-0.5,0.9-1.2,1.5-2.1,2c-0.9,0.4-1.9,0.6-3,0.6c-1.4,0-2.6-0.3-3.5-1
		c-0.9-0.7-1.5-1.4-1.7-2.4c-2.8,2.2-5.6,3.3-8.4,3.3c-1.8,0-3.3-0.4-4.4-1.3c-1.1-0.9-1.7-2-1.7-3.5c0-1.2,0.3-2.2,0.9-3.2
		c0.6-1,1.5-1.8,2.7-2.6c1.2-0.7,2.6-1.4,4.2-2c1.6-0.6,3.7-1.2,6.2-1.8v-1.4c0-1.2-0.3-2.1-0.8-2.8c-0.6-0.7-1.6-1-3.1-1
		c-1.3,0-2.2,0.3-2.8,0.8s-0.9,1.3-1.1,2.4c-0.1,0.8-0.4,1.4-0.7,1.9c-0.4,0.5-1.1,0.7-2.2,0.7c-0.7,0-1.3-0.2-1.8-0.6
		c-0.5-0.4-0.8-1-0.8-1.8c0-1.5,0.8-2.9,2.5-4c1.7-1.1,4.3-1.7,7.7-1.7c3.7,0,6.2,0.6,7.5,1.8s2.1,2.9,2.1,4.9v7.9
		c0,1,0,1.7,0.1,2.2s0.2,0.8,0.4,1.1c0.2,0.2,0.6,0.4,1.1,0.4c0.4,0,0.8-0.2,1.1-0.7c0.3-0.4,0.5-1,0.5-1.6H704.3z M692.8,1776.5
		v-6.2c-3.2,1-5.2,2-6,2.9s-1.3,1.9-1.3,2.8c0,0.8,0.2,1.4,0.7,1.8s1.1,0.7,2,0.7c0.9,0,1.7-0.2,2.4-0.6
		C691.3,1777.6,692.1,1777.1,692.8,1776.5z"/>
	<path class="st0" d="M760.5,1781.5h-13.8v-2.3c1.1,0,2-0.1,2.4-0.4c0.5-0.3,0.8-0.6,0.9-1.1c0.1-0.5,0.2-1.2,0.2-2.2v-7.5
		c0-1.1-0.2-2.1-0.7-3c-0.5-0.9-1.6-1.4-3.4-1.4c-1.2,0-2.3,0.3-3.2,0.9s-1.6,1.5-2.1,2.6c-0.5,1.1-0.7,2.3-0.7,3.6v4.8
		c0,1,0.1,1.8,0.2,2.2c0.1,0.5,0.4,0.8,1,1s1.4,0.4,2.5,0.4v2.3h-13.6v-2.3c1.1,0,1.9-0.1,2.4-0.4c0.5-0.2,0.8-0.6,0.9-1.1
		c0.1-0.5,0.2-1.2,0.2-2.2v-7.8c0-1.7-0.5-2.9-1.4-3.4c-0.9-0.5-1.8-0.8-2.6-0.8c-1.1,0-2.1,0.3-3.1,0.8c-1,0.5-1.8,1.2-2.3,2
		c-0.4,0.6-0.6,1.2-0.7,1.8c-0.1,0.6-0.2,1.3-0.2,2.2v5.3c0,1,0.1,1.8,0.2,2.2c0.1,0.5,0.5,0.8,1,1s1.4,0.4,2.5,0.4v2.3h-13.6v-2.3
		c1.1,0,1.9-0.1,2.4-0.4c0.5-0.2,0.8-0.6,0.9-1.1s0.2-1.2,0.2-2.2v-8.5c0-1.6-1-2.3-3-2.3h-1.3v-2.3l10.5-2.1
		c0.1,0.9,0.2,2.1,0.2,3.8c1.2-1.2,2.4-2.1,3.7-2.8c1.3-0.7,2.8-1,4.6-1c1.6,0,3.2,0.3,4.6,0.9c1.5,0.6,2.6,1.8,3.3,3.5
		c1.5-1.8,3-3,4.4-3.6c1.4-0.6,2.8-0.9,4.3-0.9c2.6,0,4.6,0.6,6.1,1.9c1.4,1.2,2.1,3.2,2.1,5.7v7.7c0,0.9,0,1.6,0.1,2.1
		c0.1,0.5,0.4,0.8,0.8,1.1c0.4,0.3,1.1,0.4,2.1,0.4h0.9V1781.5z"/>
	<path class="st0" d="M795.6,1771.3c0,2.3-0.5,4.2-1.6,5.9c-1.1,1.7-2.6,3-4.4,3.8c-1.9,0.9-3.9,1.3-6.1,1.3c-2.1,0-4.1-0.4-5.9-1.2
		c-1.9-0.8-3.4-2.1-4.6-3.7s-1.8-3.7-1.8-6.1c0-3.6,1.2-6.3,3.7-8.2c2.5-1.9,5.4-2.8,8.8-2.8c2.5,0,4.7,0.5,6.5,1.5s3.2,2.3,4.1,4
		C795.1,1767.5,795.6,1769.3,795.6,1771.3z M788.7,1771.1c0-2.8-0.4-4.9-1.1-6.4c-0.7-1.4-2.2-2.1-4.4-2.1c-1.4,0-2.5,0.3-3.2,0.9
		c-0.8,0.6-1.3,1.6-1.6,2.9c-0.3,1.3-0.5,3-0.5,5.1c0,2.6,0.3,4.6,1,6.2c0.7,1.6,2.2,2.4,4.5,2.4c1.5,0,2.7-0.4,3.5-1.3
		c0.8-0.9,1.3-2,1.5-3.2C788.6,1774.2,788.7,1772.8,788.7,1771.1z"/>
	<path class="st0" d="M828.6,1775.6c0,1.4-0.4,2.6-1.3,3.7c-0.9,1-2,1.8-3.5,2.3s-3.2,0.8-5.1,0.8c-1.3,0-2.6-0.1-4-0.4
		c-1.3-0.3-2.5-0.6-3.5-1.2l-1,1.4h-1.9l-0.2-6.5h2.1c0.4,1.1,1.2,2.1,2.5,3c1.3,0.9,3.2,1.3,5.7,1.3c0.6,0,1.3,0,2-0.1
		c0.7-0.1,1.4-0.3,2.1-0.8c0.7-0.4,1-1.1,1-1.9c0-0.7-0.3-1.3-1-1.6c-0.7-0.3-2-0.8-3.9-1.2c-2.3-0.6-4.2-1.1-5.6-1.7
		c-1.5-0.5-2.7-1.3-3.7-2.3c-1-1-1.5-2.2-1.5-3.8c0-2,0.9-3.5,2.7-4.7c1.8-1.1,4.2-1.7,7.1-1.7c1.8,0,3.3,0.1,4.4,0.4
		c1.1,0.3,2,0.6,2.8,1l0.6-1.3h2v5.8h-2c-0.2-0.7-0.6-1.3-1.2-1.9c-0.6-0.6-1.5-1-2.6-1.3c-1.1-0.3-2.3-0.5-3.7-0.5
		c-1.2,0-2.3,0.1-3.5,0.4c-1.2,0.2-1.7,0.8-1.7,1.8c0,0.4,0.1,0.7,0.3,0.9c0.2,0.2,0.6,0.5,1.2,0.7c0.5,0.2,1.5,0.5,2.9,0.8
		c1.4,0.3,2.2,0.6,2.5,0.6c2.7,0.7,4.9,1.5,6.7,2.5C827.8,1771.4,828.6,1773.1,828.6,1775.6z"/>
</g>
<g>
	
		<text transform="matrix(1 0 0 1 1918.4238 1781.5288)" class="st0" style="font-family:'Baskerville-SemiBold'; font-size:51.0146px; letter-spacing:8;">Te esperamos</text>
</g>
</svg>
