<?xml version="1.0" encoding="utf-8"?>
<!-- Generator: Adobe Illustrator 25.4.1, SVG Export Plug-In . SVG Version: 6.00 Build 0)  -->
<svg version="1.1" id="Capa_1" xmlns="http://www.w3.org/2000/svg" xmlns:xlink="http://www.w3.org/1999/xlink" x="0px" y="0px"
	 viewBox="0 0 1242 2208" style="enable-background:new 0 0 1242 2208;" xml:space="preserve">
<style type="text/css">
	.st0{display:none;}
	.st1{display:inline;opacity:0.3;fill:#FCF8F0;enable-background:new    ;}
	.st2{fill:#4D4D4D;}
	.st3{fill:none;}
	.st4{fill:none;stroke:#4D4D4D;stroke-width:2;stroke-miterlimit:10;}
</style>
<g id="fondo" class="st0">
	<rect x="-16.9" y="-29.6" class="st1" width="1275.5" height="2267.5"/>
</g>
<g id="Capa_2_00000086679546629099905610000014225892356357704576_" class="st0">
</g>
<g id="Capa_4" class="st0">
</g>
<g>
	<g>
		<path class="st2" d="M377.4,1373.3c3.2-18.3,22.6-27.2,38.4-29.1c1.4-0.2,3-0.4,4.6-0.4c9-10.9,20.9-14.6,26.4-15.5
			c13.9-2.1,21.3,5.8,13.7,11.3c-5.5,3.8-22.5,4.3-35.5,5c-7.1,8.9-10.1,18.2-8.9,24.3c1.7,8.2,7.1,10.5,20.8,5
			c10.5-4.2,20.5-19,23.9-25c0.5-1.1,0.8-1.7,0.8-1.7c1.5-1,2.9,0.4,2.4,5.4c0,0-8.2,22.2-16.9,40.6c4.5,0.7,9,1.5,16.2,2.1
			c14.3,1.2,21.7-1.1,30.1-4.3c-8.3,3.8-17.2,7.9-45.1,3.1c-0.5-0.1-1.1-0.2-1.7-0.4c-3.7,7.9-7.6,14.9-10.9,19.2
			c-7.7,9.6-17.2,12-24.4,11.4c-12.3-1-12.6-11.9-9-17.8c5.2-9,18.9-14,31.4-14.4c3.4-0.1,6.4,0,9,0.4c1.3-3,2.4-6.1,3.7-9.3
			c4.4-11.4,8.3-20.3,10.9-26.3c-5,7.7-13.2,16.1-23.2,19.4c-23.3,7.7-25.5-13.2-17.8-26.5c1-1.7,2-3.2,3.2-4.8
			C397.1,1346.8,382.7,1356.9,377.4,1373.3z M410.3,1400.2c-12,7.7-11.2,22,0.5,23.2c15.1,1.4,23.6-11.5,31.4-30
			C427.8,1392.1,417.9,1395.4,410.3,1400.2z M429.6,1339.6c-1.3,1.2-2.4,2.5-3.6,3.8c11.1-0.7,24.5-1.2,29.6-2.9
			c11.8-3.7,5.4-10.9-1.7-11.2C444.1,1328.9,435.8,1333.6,429.6,1339.6z"/>
		<path class="st2" d="M472.8,1361.6c3.8-0.1,7,2.3,7,8.4c0,1.8-0.4,4.4-1.1,6.8c1.2-0.5,2.5-1.3,3.8-2.4c5.1-4.2,6.4-8.4,9-8.1
			c-2.9,2.1-5.2,7.3-10.2,10.2c-1,0.6-2,1-3.1,1.4c-1.9,5.7-5.6,11.7-9.9,11.4c-6.1-0.2-6.5-8.2-3.7-13.8c0.4-0.7,0.7-1.4,1-2
			C462.3,1367,468,1361.8,472.8,1361.6z M468.7,1376.9c-1,1.5-1.5,3.1-2,4.6c-1.1,4.3,1,8.9,4.8,5.6c1.8-1.7,3.8-5,5.4-8.9
			C474.1,1378.9,471.1,1378.5,468.7,1376.9z M471.5,1366.5c2.4-0.4,2.6,1.9,2.4,3.2c0,0.1-2.5,2.7-4.5,6.3c2,1.5,4.9,2.1,8,1.4
			c1.8-5.1,2.4-10.9-0.7-13.3c-4-3.5-9,0.5-9.8,3.4c-0.4,1.7-0.4,3.2,0,4.6C469,1368.5,470.8,1366.5,471.5,1366.5z"/>
		<path class="st2" d="M491.7,1361.6c3.8-0.1,7,2.3,7,8.4c0,1.8-0.4,4.4-1.1,6.8c1.2-0.5,2.5-1.3,3.8-2.4c5.1-4.2,6.4-8.4,9-8.1
			c-2.9,2.1-5.2,7.3-10.2,10.2c-1,0.6-2,1-3.1,1.4c-1.9,5.7-5.6,11.7-9.9,11.4c-6.1-0.2-6.5-8.2-3.7-13.8c0.4-0.7,0.7-1.4,1-2
			C481.2,1367,486.9,1361.8,491.7,1361.6z M487.6,1376.9c-1,1.5-1.5,3.1-2,4.6c-1.1,4.3,1,8.9,4.8,5.6c1.8-1.7,3.8-5,5.4-8.9
			C492.9,1378.9,489.9,1378.5,487.6,1376.9z M490.4,1366.5c2.4-0.4,2.6,1.9,2.4,3.2c0,0.1-2.5,2.7-4.5,6.3c2,1.5,4.9,2.1,8,1.4
			c1.8-5.1,2.4-10.9-0.7-13.3c-4-3.5-9,0.5-9.8,3.4c-0.4,1.7-0.4,3.2,0,4.6C487.9,1368.5,489.7,1366.5,490.4,1366.5z"/>
		<path class="st2" d="M511.8,1382c3.3-1,6.1-0.8,8.1,0.2c8.3-5.2,13.1-8.9,16.9-15.8c-0.8,5.6-7.5,11.1-15.8,16.4
			c3.7,2.5,4.5,8.1,3.7,12.5c-1.7,8.2-6.5,15.1-15.5,20.8c-6.8,4.3-15.8,5.2-19.4,2.9c-9-6.3,3.8-20.2,13.6-26.4
			c5.9-3.8,10.9-7,15-9.5c-1.5-0.6-3.3-0.8-5.8-0.4c-4,1-6.9,2.1-6.9,2.1S508.1,1382.9,511.8,1382z M504.1,1393.5
			c-20.8,13.8-20.5,30.7-3.4,23c19.3-9,21.9-22.5,21.1-28.3c-0.4-1.5-1-3.2-2.4-4.3C514.5,1387,509.2,1390.1,504.1,1393.5z
			 M520.1,1365.2c0.4,0.4,1,0.7,1.2,1.4c1.5,4.4-3.7,11.2-9.9,14.5c-5.6,3.1-9.4,1.8-10.2-3c-1.4-7.7,7.7-13.8,11.8-14.9
			c1.8-0.5,3.2-0.6,4.4-0.6C520.1,1363.1,520.8,1364.5,520.1,1365.2z M508.2,1370.8c-4.4,4.8-5.5,10.6-1.9,10.3
			c3.7-0.4,7.6-3,11.1-7.3c2.7-3.5,2.6-7,1.8-8.4C517.6,1365.4,512.7,1366.4,508.2,1370.8z"/>
		<path class="st2" d="M531.7,1390.7c-0.4,2.5,0.1,4.4,2.4,1.3c6.8-9.5,15-22.5,22-25.5c-4.8,4.4-10.9,11.4-15.8,18.7
			c-6.8,10-7.7,10.6-9.6,9.6c-3.6-1.8-1.8-12.1,0.4-19.2c2.6-8.4,9.5-25.2,17.1-36.4c3.7-5.4,7-9.6,10.3-11.8
			c2.6-1.8,5.8-2.5,7.7,0.1c3.8,5.7-17.6,30.2-24,36c-1.2,1.1-2,1.9-2.7,2.4C533.6,1378.8,532.1,1386,531.7,1390.7z M542.8,1357.7
			c-1,2.1-2,4.3-2.9,6.2c3.3-3.4,9.6-10.1,13.2-14.8c8.4-10.7,10.9-16.1,11.5-18.4c1.5-6.1-4.6,0.4-6.4,2.1
			C555.6,1336.1,550,1343.1,542.8,1357.7z"/>
		<path class="st2" d="M551.8,1375.2c-1.4,6.8,2.3,9.3,6.1,7.7c6.4-2.5,12.5-16.5,17-16.4c-4.4,4-4.8,5.4-7.9,9.3
			c-3.9,5-8.2,9.6-13.1,9c-6.5-0.7-7.3-8.9-5.6-12.6c1.7-3.9,5.1-8.4,10.7-8.9c4.4-0.4,6.3,3.9,1.9,7.7c-2.6,2.1-6.4,3.2-9,3.7
			C551.9,1374.6,551.8,1375,551.8,1375.2z M555.5,1372.6c7-2.4,8.3-7.7,4.5-6.8c0,0-5.7,0.7-7.9,7.7
			C553.1,1373.3,554.3,1373.1,555.5,1372.6z"/>
		<path class="st2" d="M608.4,1370.2c0.1,1.8-2,5.9-2.4,6.8c0.4,0,1-1.2,2.9-3.6c2.4-3,5-5,6.9-4.8c2.7,1,3,3.2,1.8,5.8
			c-1.1,2.6-2.4,7.7,0.4,4.4c2-2.5,10.9-14.2,14.5-15.8c3-1.4,6.4,0.8,4.4,6.4c-0.6,2.1-2.6,5.7-5.9,10.9c-5,7.5-5,15,0.4,10.6
			c8.4-6.8,11.9-24.9,19.9-24.5c-6.5,3-9,11.4-11.9,16.2c-5.4,9.3-9.9,12.3-13.1,10c-3.2-2.3-4-6.2-0.2-12.5
			c5.4-8.7,9.8-19.2,5.7-15.8c-5.6,4.8-12,14-13.8,15.8c-1.5,1.5-3.1,1.5-4.3,0.4c-1-1-1.5-3.2,0.6-8.4c1.9-4.6-0.6-2.4-2.6-0.6
			c-3.7,3.3-8.6,13-9.8,14.8c-1.9,3-4.5-0.8-3.5-3.8c0.2-0.5,6.4-14.2,5.6-15.7C605.2,1366,608.3,1365.9,608.4,1370.2z"/>
		<path class="st2" d="M661.3,1387c5-7.3,11.1-19.7,15.2-20.7c-4.4,5-5.5,7.3-8,11.2c-4.8,7.7-7.4,13-10.2,12.5
			c-3.1-0.5-5.9-4.5-2.7-13.3c0.1-0.4,0.4-0.7,0.4-1c-3.6,4.4-7,8.4-10.3,4.8c-3.3-3.8-0.1-10.7,3-13.6c2.3-2.1,6.5-3.8,11.1-2.7
			c5,1.3,1.2,1.3,1.2,1.3s-6.4-1.4-11.1,5.9c-3.3,5.5-1.5,10.5,1.2,7.9c1.5-1.4,4.6-5.5,7.3-8.7c1.3-2.1,2.6-4.5,3.9-4.5
			c1.3-0.1,4.4,0.4,1.7,3.9C656.1,1380.2,656,1394.7,661.3,1387z"/>
		<path class="st2" d="M640.7,1421.1c-0.8-11.4,20.2-30.2,23.7-33.3c1.3-1.2,2.4-2.1,3.2-2.6c1.5-5,2.5-8.7,3-9.8
			c2.7-8.1,4.4-9.2,5.6-8.8c1.5,0.7,1.4,2.4,0.5,5c2.7-3.3,6.4-6.8,11.3-6.8c5.9-0.2,7.7,5.6,5.7,12.4c4.5-1.5,9-4.2,13.1-10.5
			c-2.1,6.9-7.6,9.5-13.4,11.4c-0.7,2-1.8,4.3-3.2,6.3c-6.4,9-14.5,7.9-15.5,5c-0.8-2.5,0.8-4.8,3.5-6.5c3.7-2.4,7.6-3.2,11.4-4.4
			c2-5.4,2.5-11.8-1.3-12.1c-5-0.5-9.4,3.9-12.5,8.1c-1.4,3.6-3.4,8.3-5,13.8c-3,10.2-7.3,22.5-12.5,30.6
			C651.2,1429.3,641.3,1429.1,640.7,1421.1z M661.9,1392c-7.3,6.8-12.1,12.4-16.4,19.6c-4.6,7.9-3.8,14.4,0.4,13.9
			c9-0.8,17-24.1,21.4-38.8C666.1,1387.8,664.4,1389.5,661.9,1392z M678.8,1383.3c-3.1,2-3.8,4.5-3.1,5.7c1.8,3,7.4-0.6,11.1-5.9
			c0.8-1,1.5-2.3,2-3.7C685.5,1380.6,681.9,1381.5,678.8,1383.3z"/>
		<path class="st2" d="M708.6,1367.2c-0.4,1.2-0.4,3,0.8,5c1.5,2.6,3.2,5,3.8,7c8.7-4.3,10.8-6.8,15.1-12.5c-1.9,5.8-8,10.2-15,13.4
			c1.3,4,1.1,7.4-1.5,11.4c-4.4,7-13.8,9.3-16.9,5.6c-4.2-5.1,2.4-10.9,12-15.1c1.4-0.6,2.5-1.2,3.7-1.7c-0.4-1.7-1-3.2-2-5
			c-4.2-6.5-3.4-7.3-3.3-8.8c0.2-2.7,3.5-5.6,3.5-5.6c1.9-1.4,2.4,1.4,2,3C709.9,1364.6,708.9,1365.9,708.6,1367.2z M709.7,1381.4
			c-8.1,3.4-15.1,8.1-14.5,12.5c0.4,3,3,3.9,6.3,2.1c3.2-1.8,10.3-7.6,9.6-15.1C710.6,1381.3,710.1,1381.3,709.7,1381.4z"/>
		<path class="st2" d="M754.1,1390.7c-0.4,2.5,0.1,4.4,2.4,1.3c6.8-9.5,15-22.5,22-25.5c-4.8,4.4-10.9,11.4-15.8,18.7
			c-6.8,10-7.7,10.6-9.6,9.6c-3.6-1.8-1.8-12.1,0.4-19.2c2.6-8.4,9.5-25.2,17.1-36.4c3.7-5.4,7-9.6,10.3-11.8
			c2.6-1.8,5.8-2.5,7.7,0.1c3.8,5.7-17.6,30.2-24,36c-1.2,1.1-2,1.9-2.7,2.4C756.3,1378.8,754.7,1386,754.1,1390.7z M765.5,1357.7
			c-1,2.1-2,4.3-2.9,6.2c3.3-3.4,9.6-10.1,13.2-14.8c8.4-10.7,10.9-16.1,11.5-18.4c1.5-6.1-4.6,0.4-6.4,2.1
			C778.2,1336.1,772.7,1343.1,765.5,1357.7z"/>
		<path class="st2" d="M784.3,1376.6c-3.9,5.2-7.1,8.6-10.5,7.6c-5.4-1.7-0.8-15.1,3-17.7c1.7-0.8,2.6,0.1,2.4,1.4
			c-0.4,2.1-2.6,5.4-3.7,9.2c-0.7,2.9-1.5,6.2,0.6,5.8c2.6-0.4,7.7-7.9,11.1-12.1c2.9-3.6,3.7-4.5,5.6-4.5
			C790,1367.8,787.9,1371.9,784.3,1376.6z M780.1,1362.9c-1-0.4-1.1-1-0.4-2.4c0.8-1.7,0.4-2,1.7-2.7c1-0.5,4-0.2,3,2
			C783.4,1362,781.2,1363.2,780.1,1362.9z"/>
		<path class="st2" d="M795.6,1369.2c0.1,2.9-0.8,4.3-2.4,7.6c3.7-5.1,12-13.6,17.8-15.1c3.2-0.8,4.8,2.1,4.4,4.4
			c-0.4,3.3-10.1,16.5-11.3,21.4c-1.7,7.3,2.7,4.9,4.2,3.8c4.2-3.1,12-17.1,15.5-21.3c4.4-5,5.9-3.3,5.9-3.3
			c-6.9,1.7-15.1,23.8-22.8,26.8c-2.3,1-5.7,0.4-6.8-3.2c-2-7.3,11.2-24.1,11.7-26.6c0.4-2.9-8,2.3-13.8,9
			c-3.9,4.5-6.1,8.1-7.9,10.8c-0.4,0.6-2.4,0.6-3.2-0.8c-0.4-0.6-1.4-2,1.8-8.6c3.6-7.3,2-7,2-7
			C791.7,1365.8,795.6,1366.5,795.6,1369.2z"/>
		<path class="st2" d="M861.4,1329.8c-0.8,10.3-23.2,31.5-30.6,37.4c-1.8,3.2-2,5-3.3,8.6c1.3-2.4,9.3-12.1,15.7-10.9
			c5.9,1.2,3.7,7.9-1,10.5c-3.2,1.8-9.2,3.9-9.4,4.6c6.5,2.9,1.5,10.7,4.4,13.8c5,3.2,13.1-21.8,23.2-27.2c-1.1,1-2,2.6-3.6,4.4
			c-7.3,8.1-10.9,18.2-15.1,22.5c-2,2-4.4,1.8-5.5,1.1c-6.8-3.8-0.5-12.8-5-13.8c-1-0.2-1.8-1.8-0.7-3c1.7-1.8,7.5-3.4,11.4-6.4
			c6.5-4.6,1.4-7.9-5-3.3c-8.2,5.7-9.6,10.9-12.4,19.2c-3.7,0-3.6-3.1-3-6.4c0.2-0.8,8.4-25.9,16.4-37.8
			c7.7-12.5,14.6-16.1,16.2-16.7C858.5,1324.8,861.7,1326.8,861.4,1329.8z M855.7,1329.3c-10.5,6.8-19.9,24.7-24.4,35.8
			c11.2-9.3,27.6-28,28.6-34.1C860.5,1328.2,858.3,1327.6,855.7,1329.3z"/>
	</g>
</g>
<g>
	<g>
		<g>
			<path class="st2" d="M589.3,1642.1v0.7c-1.8-0.9-3.3-1.9-4.4-3.2c-1.7-1.7-3-3.7-3.9-6.1s-1.4-4.7-1.4-7.2c0-3.6,0.9-7,2.7-10
				s4.2-5.2,7-6.4v0.8c-1.5,0.8-2.6,1.9-3.5,3.3s-1.7,3.2-2,5.3c-0.5,2.1-0.7,4.3-0.7,6.6c0,2.6,0.2,4.8,0.6,6.9
				c0.3,1.7,0.7,2.9,1.1,3.9c0.3,1,1,1.9,1.8,2.8C587.2,1640.4,588.2,1641.3,589.3,1642.1z"/>
			<path class="st2" d="M605.4,1628.9c-0.3,2.1-1.2,3.8-2.6,4.8c-1.2,1.1-2.6,1.8-4.2,1.8c-1.9,0-3.4-0.8-4.8-2.4
				c-1.4-1.6-2-3.6-2-6.3c0-2.6,0.8-4.6,2.3-6.2s3.4-2.4,5.5-2.4c1.6,0,2.9,0.3,3.9,1.2c1,0.9,1.6,1.8,1.6,2.6
				c0,0.5-0.1,0.8-0.3,1.1c-0.3,0.3-0.7,0.3-1.1,0.3c-0.7,0-1.1-0.2-1.6-0.7c-0.2-0.3-0.3-0.7-0.3-1.4c-0.1-0.7-0.3-1.2-0.7-1.6
				c-0.3-0.3-1-0.5-1.7-0.5c-1.1,0-2.1,0.3-2.8,1.2c-1,1.1-1.5,2.6-1.5,4.6c0,1.9,0.5,3.6,1.4,5.1c1,1.5,2.3,2.3,3.8,2.3
				c1.1,0,2.1-0.3,3.2-1.1c0.7-0.6,1.2-1.6,1.9-2.9L605.4,1628.9z"/>
			<path class="st2" d="M613.7,1610v21.4c0,1,0.1,1.7,0.2,2c0.1,0.3,0.3,0.6,0.7,0.8s0.9,0.3,1.7,0.3v0.6h-7.9v-0.6
				c0.8,0,1.2-0.1,1.6-0.2c0.3-0.2,0.5-0.3,0.6-0.8s0.2-1.1,0.2-2v-14.6c0-1.9,0-2.9-0.1-3.3c-0.1-0.3-0.2-0.7-0.3-0.9
				c-0.2-0.2-0.3-0.2-0.7-0.2s-0.7,0.1-1.1,0.3l-0.3-0.6l4.8-1.9h0.9L613.7,1610L613.7,1610z"/>
			<path class="st2" d="M624.2,1618.4v13.1c0,1,0.1,1.7,0.2,2c0.1,0.3,0.3,0.6,0.7,0.8s0.8,0.3,1.6,0.3v0.6h-7.9v-0.6
				c0.8,0,1.2-0.1,1.6-0.2c0.3-0.2,0.5-0.3,0.6-0.8c0.2-0.3,0.2-1.1,0.2-2v-6.3c0-1.8-0.1-2.8-0.2-3.4c-0.1-0.3-0.2-0.7-0.3-0.8
				c-0.2-0.1-0.3-0.2-0.7-0.2s-0.7,0.1-1.1,0.3l-0.3-0.6l4.8-1.9h0.9L624.2,1618.4L624.2,1618.4z M622.7,1610c0.5,0,0.9,0.2,1.2,0.5
				s0.5,0.8,0.5,1.2s-0.2,0.9-0.5,1.2c-0.3,0.3-0.8,0.5-1.2,0.5s-0.9-0.2-1.2-0.5s-0.5-0.8-0.5-1.2s0.2-0.9,0.5-1.2
				C621.7,1610.2,622.3,1610,622.7,1610z"/>
			<path class="st2" d="M642.8,1628.9c-0.3,2.1-1.2,3.8-2.6,4.8c-1.2,1.1-2.6,1.8-4.2,1.8c-1.9,0-3.4-0.8-4.8-2.4
				c-1.4-1.6-2-3.6-2-6.3c0-2.6,0.8-4.6,2.3-6.2s3.4-2.4,5.5-2.4c1.6,0,2.9,0.3,3.9,1.2c1,0.9,1.6,1.8,1.6,2.6
				c0,0.5-0.1,0.8-0.3,1.1c-0.3,0.3-0.7,0.3-1.1,0.3c-0.7,0-1.1-0.2-1.6-0.7c-0.2-0.3-0.3-0.7-0.3-1.4c-0.1-0.7-0.3-1.2-0.7-1.6
				c-0.3-0.3-1-0.5-1.7-0.5c-1.1,0-2.1,0.3-2.8,1.2c-1,1.1-1.5,2.6-1.5,4.6c0,1.9,0.5,3.6,1.4,5.1c1,1.5,2.3,2.3,3.8,2.3
				c1.1,0,2.1-0.3,3.2-1.1c0.7-0.6,1.2-1.6,1.9-2.9L642.8,1628.9z"/>
			<path class="st2" d="M644.7,1610.7v-0.8c1.8,0.9,3.3,1.9,4.5,3.2c1.7,1.7,2.9,3.7,3.9,6.1c0.9,2.4,1.4,4.7,1.4,7.2
				c0,3.6-0.9,7-2.6,10c-1.8,3-4.2,5.2-7,6.4v-0.7c1.5-0.8,2.6-1.9,3.5-3.3c1-1.4,1.7-3.2,2-5.3c0.5-2.1,0.7-4.4,0.7-6.6
				c0-2.6-0.2-4.8-0.6-6.9c-0.3-1.7-0.7-2.9-1.1-3.9c-0.3-1-1-1.9-1.8-2.8C646.8,1612.5,645.9,1611.6,644.7,1610.7z"/>
		</g>
	</g>
	<a xlink:href="https://goo.gl/maps/81jHpymw7XjCokPF7"  pointer-events="all" target="_blank">
		<rect x="538" y="1449.8" class="st3" width="163" height="202.5"/>
		<path class="st2" d="M687.9,1483.5c-10.2-23.2-41.2-29-59.2-11.3c-0.8,0.7-1.5,1-2.5,1c-18,0-36,0-54,0c-9.8,0-17.3,7.5-17.3,17.3
			c0,30.2,0,60.1,0,90.2c0,1.1,0.1,2.5,0.3,3.6c1.9,8.4,8.6,13.7,17.2,13.7c15,0,29.8,0,44.8,0s29.8,0,44.8,0c1.9,0,4.1-0.3,5.9-0.9
			c7.3-2.5,11.8-8.8,11.8-16.5c0-17.3,0-34.7,0-51.9c0-0.8,0.3-1.6,0.7-2.3c1.8-2.8,3.6-5.5,5.3-8.6
			C692.1,1506.9,693.1,1495.3,687.9,1483.5z M631.3,1527.6c8.4,11.5,15.6,23.9,19,38.3c-9.7-9.7-19.2-19.2-28.7-28.6
			C624.7,1534.2,628,1530.9,631.3,1527.6z M564,1585.6c-0.3,0.3-0.6,0.7-1.1,1c-0.1-0.7-0.1-0.9-0.1-1.4c0-32.5,0-65,0-97.8
			c0-4.1,2.6-6.6,6.5-6.6c17.7,0,35.6,0,53.2,0c0.3,0,0.6,0,0.7,0c-0.8,3.2-1.8,6.2-2.3,9.3c-1.7,9.7,0.5,18.9,5.1,27.3
			c0.5,0.8,0.7,1.7,1.4,2.3c1,1.2,0.6,2-0.5,3.2C605.7,1543.8,584.9,1564.8,564,1585.6z M568.5,1591.3
			c16.1-16.1,32.3-32.3,48.5-48.4c15.9,15.9,32.1,32.1,48.4,48.4C632.8,1591.3,600.4,1591.3,568.5,1591.3z M672.3,1582.7
			c0,1.4-0.5,2.7-0.8,3.9c-6.6-6.6-13.1-13.1-19.5-19.5c0.7-0.1,1.4-0.1,2.1-0.2c5-0.9,7.4-4.2,8.4-8.8c1.8-7.9,4.6-15.4,8.3-22.6
			c0.2-0.6,0.6-1.1,1-1.8c0.1,0.7,0.2,1,0.2,1.4C672.4,1550.8,672.4,1566.8,672.3,1582.7z M678.5,1510.1c-2.5,4.5-5.3,8.7-8.1,12.9
			c-6.2,9-11.5,18.5-15.5,28.6c-0.1,0.3-0.3,0.6-0.5,1c-1.4-3-2.6-5.9-3.8-8.7c-4.2-9.1-9.7-17.3-15.3-25.5c-3-4.4-5.7-9-7.3-14.2
			c-4.6-15.3,5.6-32.1,21.5-34.8c14.6-2.6,28,6,31.8,20.4C683,1496.9,682,1503.7,678.5,1510.1z"/>
		<path class="st2" d="M601,1495.1c-1.4,1.4-2.6,2.6-4.1,3.9c-6-3.9-10.6-4.2-14.9-0.8c-3.9,3-5.4,8.1-3.7,12.8
			c1.6,4.5,6.1,7.5,10.8,7.4c3.9-0.1,8.4-2.6,9.2-5.6c-3.2,0-6.2,0-9.3,0c0-1.9,0-3.7,0-5.6c5.6,0,11.1,0,16.8,0
			c1.5,4.7-3.8,12.9-10,15.5c-8,3.5-17.4,0.3-21.7-7.3c-4.3-7.7-2-17.2,5.2-22.3C586.7,1488.3,596.2,1490.1,601,1495.1z"/>
		<path class="st2" d="M645.9,1498.7c0-4.7,3.8-8.6,8.6-8.4c4.7,0,8.4,3.8,8.4,8.6s-3.8,8.6-8.6,8.6
			C649.6,1507.3,645.8,1503.4,645.9,1498.7z"/>
	</a>
</g>
<g>
	<g>
		<path class="st4" d="M571.3,786.3l-12.9,43.8c-5.5,18.8,0.2,30.9,10.7,34s21.9-3.9,27.5-22.8l12.9-43.8L571.3,786.3z"/>
		<path class="st4" d="M567.1,863.5c0,0-5.6,18.4-10.3,34.4c-4.7,16.1-10.2,29.2-32.3,22.7l-0.8,2.7l51.3,15.1l0.8-2.7
			c-22.2-6.5-19.6-20.5-14.9-36.6c4.7-16.1,10.3-34.4,10.3-34.4"/>
		<line class="st4" x1="560.5" y1="823" x2="602" y2="823"/>
		<path class="st4" d="M584.4,754.7c0,6.9-5.6,12.4-12.4,12.4c6.9,0,12.4,5.6,12.4,12.4c0-6.9,5.6-12.4,12.4-12.4
			C590,767.1,584.4,761.5,584.4,754.7z"/>
		<circle class="st4" cx="536.8" cy="798.7" r="12.4"/>
		<path class="st4" d="M558.2,779.6c0,1-0.8,1.9-1.9,1.9s-1.9-0.8-1.9-1.9c0-1,0.8-1.9,1.9-1.9S558.2,778.5,558.2,779.6z"/>
		<path class="st4" d="M542.2,765.2c0,1-0.8,1.9-1.9,1.9s-1.9-0.8-1.9-1.9s0.8-1.9,1.9-1.9S542.2,764.2,542.2,765.2z"/>
		<path class="st4" d="M530.1,827.5c0,1-0.8,1.9-1.9,1.9s-1.9-0.8-1.9-1.9s0.8-1.9,1.9-1.9S530.1,826.4,530.1,827.5z"/>
		<path class="st4" d="M627.3,810.2c0,1-0.8,1.9-1.9,1.9c-1,0-1.9-0.8-1.9-1.9s0.8-1.9,1.9-1.9C626.4,808.3,627.3,809.1,627.3,810.2
			z"/>
		<path class="st4" d="M635.9,825.6c0,1-0.8,1.9-1.9,1.9c-1,0-1.9-0.8-1.9-1.9s0.8-1.9,1.9-1.9C635.1,823.7,635.9,824.5,635.9,825.6
			z"/>
		<path class="st4" d="M570.6,851.7c0,1-0.8,1.9-1.9,1.9c-1,0-1.9-0.8-1.9-1.9s0.8-1.9,1.9-1.9S570.6,850.7,570.6,851.7z"/>
		<path class="st4" d="M583.1,853.6c0,1-0.8,1.9-1.9,1.9s-1.9-0.8-1.9-1.9s0.8-1.9,1.9-1.9S583.1,852.6,583.1,853.6z"/>
		<path class="st4" d="M637.8,816.6c0,1-0.8,1.9-1.9,1.9s-1.9-0.8-1.9-1.9s0.8-1.9,1.9-1.9S637.8,815.5,637.8,816.6z"/>
		<path class="st4" d="M581.2,840.7c0,1-0.8,1.9-1.9,1.9s-1.9-0.8-1.9-1.9s0.8-1.9,1.9-1.9S581.2,839.7,581.2,840.7z"/>
		<g>
			<path class="st4" d="M601.4,774.3l17,42.3c7.3,18.2,19.3,24.1,29.5,20s14.8-16.7,7.4-34.9l-17-42.3L601.4,774.3z"/>
			<path class="st4" d="M646,837.5c0,0,7,17.9,13.3,33.4c6.2,15.5,10.2,29.2-11.3,37.9l1,2.6l49.6-20l-1-2.6
				c-21.4,8.6-28.1-4-34.4-19.5c-6.2-15.5-13.3-33.4-13.3-33.4"/>
			<line class="st4" x1="612.7" y1="802.2" x2="655.4" y2="802.2"/>
		</g>
	</g>
</g>
<g>
	<g>
		<g>
			<g>
				<g>
					<g>
						<path class="st2" d="M491.5,672.7c10.8,15,31.8,11.6,48,8.5c13-2.6,26.1-4.2,39.4-3.8c6.5,0.2,13.5,0.4,19.8,2
							c3.1,0.8,6.2,1.7,8.4,4.1c3.4,4.1,3.4,8.2-0.1,12.1c-5.4,4.5-7.6,4-6.3-1.6c0.2,0.7,1.4,0.6,1.4-0.2
							c-0.4-8.6-14.7-0.6-5.5,5.3c10.1,6.5,19.3-8.7,12.8-16.4c-4.6-5.4-13-6-19.7-6.7c-11.5-1.1-23.3-0.8-34.8,0.6
							c-20.3,2.6-46.3,13.1-62.4-4.6C491.9,671.6,491.1,672.2,491.5,672.7L491.5,672.7z"/>
					</g>
					<g>
						<path class="st2" d="M580.3,685.4c1-5.2-6.7-3.8-5.4,1c2.4,8.7,14.8,1.4,16.2-4c2.8-9.9-8.8-16.3-17.6-16.4
							c-7.8-0.1-14.8,3-21.9,5.2c-4.3,1.3-8.7,2.6-13.3,2.6c-3,0-6.1-0.4-8.9-1.7c-0.9-0.6-1.8-1.1-2.8-1.7c-3.5-2.4-3.5-4.5,0-6.2
							c-0.7-0.9-2-0.2-1.6,0.9c2.4,5.4,10.7,1.5,8-3.9c-3.3-6.3-11.9-1.4-11.6,4.3c0.4,10.1,14.9,11.6,22.8,10.2
							c8.2-1.4,15.4-5.5,23.6-6.9c5.7-1,11.7-0.8,16.5,2.4c2.1,1.4,4.8,4,5.1,6.7c-0.4,2.1-0.7,4.2-1.1,6.3c-3,4.8-5.8,5.2-8.4,1.1
							C579.7,685.6,580.2,685.7,580.3,685.4L580.3,685.4z"/>
					</g>
				</g>
			</g>
		</g>
		<g>
			<g>
				<g>
					<g>
						<path class="st2" d="M739.3,672.3c-10.8,15-31.8,11.6-47.9,8.5c-13-2.6-26.1-4.2-39.4-3.8c-6.5,0.2-13.5,0.4-19.8,2
							c-3.1,0.8-6.2,1.7-8.4,4.1c-3.4,4.1-3.4,8.2,0.1,12.1c5.4,4.5,7.6,4,6.3-1.6c-0.2,0.7-1.4,0.6-1.3-0.2
							c0.4-8.6,14.7-0.6,5.5,5.3c-10.1,6.5-19.3-8.7-12.8-16.4c4.6-5.4,13-6,19.7-6.7c11.5-1.1,23.3-0.8,34.8,0.6
							c20.3,2.6,46.3,13.1,62.4-4.6C738.8,671.2,739.7,671.8,739.3,672.3L739.3,672.3z"/>
					</g>
					<g>
						<path class="st2" d="M650.5,685c-1-5.2,6.7-3.8,5.4,1c-2.4,8.7-14.8,1.4-16.2-4c-2.8-9.9,8.8-16.3,17.6-16.4
							c7.8-0.1,14.8,3,21.9,5.2c4.3,1.3,8.7,2.6,13.3,2.6c3,0,6.1-0.4,8.9-1.7c0.9-0.6,1.8-1.1,2.9-1.7c3.5-2.4,3.5-4.5,0-6.2
							c0.7-0.9,2-0.2,1.6,0.9c-2.4,5.4-10.7,1.5-8-3.9c3.3-6.3,11.9-1.4,11.7,4.3c-0.4,10.1-14.9,11.6-22.8,10.2
							c-8.1-1.4-15.4-5.5-23.6-6.9c-5.7-1-11.7-0.8-16.5,2.4c-2.1,1.5-4.8,4-5.1,6.7c0.4,2.1,0.7,4.2,1.1,6.3c3,4.8,5.8,5.2,8.4,1.1
							C651.1,685.2,650.6,685.3,650.5,685L650.5,685z"/>
					</g>
				</g>
			</g>
		</g>
	</g>
</g>
<g>
	<g>
		<path class="st2" d="M476.3,514.6c-10,16.4-41.7,12.3-61.9,12.3c-2.6,2.9-5.1,6-7.5,9.6c-20.1,29.4-23,64.7-8.1,76.5
			c13.1,10.4,34.2,5.5,53-19.8c14.8-20,24.5-27,29.2-28.1c-10.4,7.5-18.2,16.6-28.6,30.8c-16.6,22.9-40.7,30.4-56.8,18.8
			c-24.5-22.3-8.5-65.3,10.1-87.7c-36.1,1.6-53.9,18.8-63.6,31.8c10.1-19.2,33.9-31.6,65.3-33.7c14.2-15.5,32.8-24.9,51.5-25.2
			C469.6,499.7,482.6,504.6,476.3,514.6z M458.9,502.8c-10.9,0.4-27.1,6.2-42.8,22.3c13.8,0.3,33,1.9,45.2-2.1
			C478.9,517.4,481.6,501.9,458.9,502.8z"/>
		<path class="st2" d="M473.4,578.9c-2.2,10.5,3.6,14.6,9.6,12.2c10.1-4,19.7-26.1,26.8-26c-7,6.4-7.5,8.5-12.3,14.6
			c-6.3,8.1-12.9,15.1-20.7,14.2c-10.3-1.1-11.5-14-8.9-20c2.7-6.3,8.2-13.4,16.8-14c7.1-0.4,9.9,6.3,3,12
			c-4.1,3.4-10.1,5.1-14.1,5.7C473.7,578.1,473.4,578.7,473.4,578.9z M479.3,575c11.1-3.7,13-12,7.3-10.7c0,0-9,1.1-12.5,12
			C475.5,576.1,477.4,575.7,479.3,575z"/>
		<path class="st2" d="M501.2,603.4c-0.4,4,0.1,7.1,3.7,2.1c10.7-14.9,23.7-35.4,34.6-40.2c-7.5,7-17.1,17.9-24.9,29.4
			c-10.7,15.7-12.2,16.7-15.2,15.1c-5.6-2.9-2.9-19.2,0.5-30.2c4.1-13.3,14.9-39.8,27.1-57.3c5.9-8.5,10.9-15.1,16.2-18.5
			c4.1-2.9,9.3-4,12,0.1c6,9-27.8,47.8-37.9,56.9c-1.9,1.8-3.3,3-4.4,3.8C504.5,584.6,502,596.2,501.2,603.4z M519,551.4
			c-1.6,3.4-3.1,6.7-4.5,9.7c5.3-5.5,15.2-15.9,20.9-23.3c13.1-16.8,17.2-25.3,18.2-29.2c2.3-9.6-7.4,0.4-10.1,3.4
			C539,517.2,530.2,528.3,519,551.4z"/>
		<path class="st2" d="M532.9,578.9c-2.2,10.5,3.6,14.6,9.6,12.2c10.1-4,19.7-26.1,26.8-26c-7,6.4-7.5,8.5-12.3,14.6
			c-6.3,8.1-12.9,15.1-20.7,14.2c-10.3-1.1-11.5-14-8.9-20c2.7-6.3,8.2-13.4,16.8-14c7.1-0.4,9.9,6.3,3,12
			c-4.1,3.4-10.1,5.1-14.1,5.7C533.2,578.1,532.9,578.7,532.9,578.9z M538.8,575c11.1-3.7,13-12,7.3-10.7c0,0-9,1.1-12.5,12
			C535,576.1,536.9,575.7,538.8,575z"/>
		<path class="st2" d="M591.2,572.6c-0.3-6-5.7-10.4-13.3-5.3c-7.1,4.8-9.4,11.1-11.5,16.7c0,0-8.3,2.6-4.8-8.3
			c5.1-15.2,12.6-31.2,22.6-45.4c11.2-15.9,26.6-31.6,36-25.9c6.6,4-6.4,27.8-29.7,46.7c-10.1,8.2-15.1,11.4-17.4,12.5
			c-1.1,2.6-2.3,5.7-3.6,9.3c1.1-1.6,2.3-3.3,4-4.8c11.2-10.4,22.4-3.7,22.6,6.4c0,2.7-0.4,5.6-1.5,8.6
			c15.1-6.2,19.6-15.7,19.6-15.3c0.1,3.3-7.1,12.2-20.3,17.2c-5.6,14-20.4,28.3-30,27.1c-7.4-1-10.1-9-4.1-15.5
			c3-3.3,8.1-7.3,22-9.9c2.2-0.4,4.2-0.8,6.2-1.4C590.3,580.9,591.4,576.5,591.2,572.6z M579.7,588.8c-25.9,5.1-24,21.9-16.2,20.4
			c7.7-1.4,17.9-11.5,23.5-22C584.8,587.7,582.5,588.3,579.7,588.8z M578,558.4c14-9.6,30-24.9,38.5-39.8c5.7-10.3,4.5-14.6-3.3-9.9
			c-8.5,5.3-22.2,20.8-30.2,35.9c-4.5,8.5-6.7,12.7-8.5,16.4C575.4,560.3,576.5,559.5,578,558.4z"/>
		<path class="st2" d="M619.4,566.4c8.9,5.6,11.9,11.8,4.2,23c-8.1,11.8-9.3,30.7,1.9,21.6c6.6-5.3,11.5-14.5,19.7-28.3
			c7.9-13.4,9.9-15.6,13.4-17.5c-1.1,2.1-7.3,10.4-11.4,17.8c-9.2,16.7-18.8,32.7-27.1,32c-8.3-0.7-11.8-12.3-6.3-23.3
			c5.9-12,12.6-16.8,1.9-23.7c-13.6-8.8-6.4-15.7-3.1-17.7c4-2.3,9.9-1.4,9.9,4.5c0,4.4-3,8.1-5.3,10.1
			C617.9,565.4,618.6,565.8,619.4,566.4z M615.5,551.7c-3.8,1.6-5.9,7,1,12.6c2.3-2.7,4-5.6,4.4-7.3
			C621.8,553.3,618.6,550.3,615.5,551.7z"/>
		<path class="st2" d="M676.4,597.6c7.8-11.5,17.4-31.1,24.1-32.6c-6.8,7.8-8.6,11.4-12.6,17.7c-7.5,12.2-11.6,20.4-16,19.7
			c-4.9-0.8-9.4-7.3-4.4-21.1c0.1-0.5,0.4-1.1,0.5-1.6c-5.6,6.8-11,13.4-16.2,7.5c-5.3-6-0.1-16.8,4.8-21.4
			c3.6-3.3,10.3-6.2,17.4-4.4c7.9,2.1,1.9,2.1,1.9,2.1s-10.1-2.2-17.4,9.4c-5.3,8.6-2.3,16.4,1.9,12.5c2.3-2.2,7.4-8.6,11.4-13.7
			c2.1-3.3,4.2-7.3,6.3-7.3c2.1-0.1,7.1,0.5,2.6,6.3C668.3,586.9,668,609.7,676.4,597.6z"/>
		<path class="st2" d="M696.6,575.8c-3.6,4.8-6.2,10.7-4.5,17.5c0.7,3.3,5.7,5.6,11.6,1.8c11.4-7.4,21.6-25.6,30.4-30
			c-6.3,5.2-13,16.2-22.9,25.7c-9,8.8-15.7,10.9-21.4,6.3c-6.6-5.5-4.4-18.9,1.1-25.6c6.3-7.8,14-11.9,21.1-9.9
			c7.5,2.1,4.8,8.3,2.6,11.5c-2.2,3.1-5.3,6-8.3,3.6c-3-2.5,1.1-5.1,1.9-4.8c0.8,0.3,3.6,0,5.5-2.2c2.6-2.9,0.4-5.2-2.9-4.7
			C708.8,565.4,703.1,567.2,696.6,575.8z"/>
		<path class="st2" d="M743,581.4c-6.3,8.3-11.2,13.5-16.6,11.9c-8.5-2.7-1.4-24,4.7-27.9c2.7-1.4,4.1,0.1,3.7,2.3
			c-0.5,3.4-4.2,8.5-5.7,14.5c-1.1,4.5-2.5,9.7,1,9.3c4.2-0.4,12-12.5,17.5-19.2c4.5-5.6,5.9-7.3,8.8-7.3
			C752.2,567.2,748.8,573.9,743,581.4z M736.5,559.6c-1.6-0.5-1.8-1.5-0.5-3.8c1.4-2.6,0.5-3.1,2.7-4.4c1.5-0.8,6.4-0.3,4.8,3.1
			C741.7,558.3,738.4,560.2,736.5,559.6z"/>
		<path class="st2" d="M756.2,557.6c6.2-0.1,11.1,3.6,11.1,13.3c0,2.9-0.7,6.8-1.8,10.7c1.9-0.8,4-2.1,6-3.7
			c8.2-6.6,10.1-13.1,14.4-12.7c-4.5,3.4-8.3,11.4-16,16c-1.5,1-3.1,1.6-4.9,2.2c-3,9.2-8.9,18.3-15.6,18.1
			c-9.6-0.3-10.3-12.9-5.7-21.8c0.5-1.1,1.1-2.2,1.6-3.1C739.6,565.9,748.6,557.7,756.2,557.6z M749.7,581.7
			c-1.4,2.5-2.5,4.9-3.1,7.4c-1.8,6.7,1.6,14,7.5,8.8c2.9-2.6,6.2-7.9,8.5-14C758.1,584.7,753.4,584.3,749.7,581.7z M754.1,565.1
			c3.7-0.5,4.1,3,3.8,5.1c0,0.1-4,4.4-7.3,9.9c3.1,2.5,7.7,3.4,12.6,2.2c2.9-8.2,3.7-17.1-1.1-21.1c-6.4-5.5-14.1,0.8-15.5,5.5
			c-0.7,2.6-0.7,5.2,0,7.4C750.2,568.4,753,565.3,754.1,565.1z"/>
		<path class="st2" d="M790.7,569.5c0.1,4.5-1.4,6.7-3.8,11.9c5.7-8.2,19-21.4,28.1-23.8c5.2-1.4,7.5,3.4,7.1,7
			c-0.7,5.3-15.9,26.1-17.8,33.8c-2.7,11.4,4.4,7.7,6.6,6c6.6-4.9,18.9-27.1,24.5-33.5c6.8-7.9,9.4-5.3,9.4-5.3
			c-10.8,2.6-24,37.5-36,42.3c-3.6,1.5-9,0.5-10.7-5.2c-3.1-11.5,17.7-38.1,18.3-42c0.7-4.5-12.6,3.6-21.9,14.2
			c-6.3,7.3-9.6,12.7-12.3,17c-0.5,1-3.7,1-5.1-1.4c-0.5-1-2.2-3.1,2.9-13.6c5.6-11.4,3.3-10.9,3.3-10.9
			C784.5,564.2,790.5,565.1,790.7,569.5z"/>
	</g>
	<g>
		<path class="st2" d="M777.5,540.8l-8.4,9.8h-4.3l6-9.8H777.5z"/>
	</g>
</g>
<g>
	<path class="st2" d="M235.5,1040.8l-8.2-24.9c-1.9,0-3.9-0.2-5.9-0.6l-4.4,15.5c-0.6,2-0.9,3.7-0.9,5.1c0,1.1,0.4,1.9,1.1,2.5
		c0.6,0.5,2.1,0.8,4.6,1l-0.3,1.4h-19.9l0.4-1.4c1.9-0.1,3.1-0.3,3.8-0.6c1-0.4,1.8-1,2.3-1.7c0.8-1.2,1.7-3.3,2.5-6.3l9-31
		c0.6-2.1,0.9-3.7,0.9-4.8c0-1.2-0.5-2.1-1.4-3c-1-0.8-2.3-1.2-4.1-1.2l0.5-1.4h16.7c5.6,0,9.6,1.1,12.1,3.2
		c2.5,2.1,3.7,4.9,3.7,8.4c0,3.3-1.3,6.3-3.8,9c-2.5,2.7-6,4.5-10.4,5.2l5,15c1.2,3.7,2.4,6.1,3.6,7.2c1.2,1.1,3.2,1.7,5.9,1.9
		l-0.4,1.4H235.5z M222,1013.1c1.6,0.2,3.1,0.3,4.3,0.3c4.4,0,7.8-1.2,10.3-3.6c2.5-2.4,3.8-5.4,3.8-9c0-2.8-0.8-5-2.4-6.5
		c-1.6-1.5-4-2.2-7.1-2.2c-0.8,0-1.7,0.1-2.9,0.3L222,1013.1z"/>
	<path class="st2" d="M259.9,1026.5c-0.2,1.3-0.2,2.3-0.2,3.1c0,2.3,0.8,4.2,2.4,5.8c1.6,1.6,3.5,2.4,5.8,2.4c1.8,0,3.6-0.4,5.2-1.1
		c1.7-0.8,4.2-2.4,7.5-4.9l0.8,1.1c-6,5.9-11.7,8.9-17.1,8.9c-3.7,0-6.4-1.2-8.3-3.5c-1.9-2.3-2.8-4.9-2.8-7.7
		c0-3.8,1.2-7.6,3.5-11.5c2.3-3.9,5.2-7,8.7-9.2c3.5-2.2,7.1-3.3,10.8-3.3c2.7,0,4.6,0.5,5.9,1.6c1.3,1.1,1.9,2.4,1.9,3.9
		c0,2.1-0.8,4.1-2.5,6c-2.2,2.5-5.4,4.5-9.7,6.1C269,1025.1,265,1025.9,259.9,1026.5z M260.2,1024.6c3.7-0.4,6.8-1.2,9.1-2.2
		c3.1-1.4,5.4-3,7-5c1.6-1.9,2.3-3.8,2.3-5.5c0-1-0.3-1.9-1-2.5c-0.7-0.7-1.6-1-2.8-1c-2.6,0-5.3,1.4-8.2,4.1
		C263.7,1015.2,261.5,1019.3,260.2,1024.6z"/>
	<path class="st2" d="M313.2,1006.5l-2.3,11.7h-1.4c-0.1-3.4-0.8-5.8-2.2-7.4c-1.3-1.5-2.9-2.3-4.9-2.3c-1.5,0-2.8,0.4-3.7,1.3
		c-0.9,0.8-1.4,1.9-1.4,3.1c0,0.8,0.2,1.6,0.5,2.4c0.4,0.8,1.2,1.8,2.4,3.2c3.3,3.6,5.4,6.3,6.3,8.1c1,1.8,1.4,3.5,1.4,5.1
		c0,2.6-1.1,5-3.3,7c-2.2,2-4.9,3-8.3,3c-1.8,0-3.9-0.4-6.3-1.3c-0.8-0.3-1.5-0.5-1.9-0.5c-1.1,0-2,0.6-2.6,1.7h-1.4l2.3-12.3h1.4
		c0.1,3.9,0.9,6.6,2.4,8.2c1.4,1.6,3.4,2.4,5.9,2.4c1.9,0,3.4-0.5,4.6-1.6c1.1-1.1,1.7-2.4,1.7-3.9c0-1-0.2-1.9-0.6-2.8
		c-0.7-1.5-2.2-3.6-4.5-6.3c-2.3-2.7-3.7-4.7-4.3-6c-0.6-1.3-1-2.7-1-4c0-2.4,0.9-4.5,2.7-6.2c1.8-1.7,4.1-2.5,6.9-2.5
		c0.8,0,1.6,0.1,2.2,0.2c0.3,0.1,1.2,0.4,2.5,0.9c1.3,0.5,2.2,0.7,2.6,0.7c1.1,0,2-0.6,2.7-1.8H313.2z"/>
	<path class="st2" d="M335.4,997.1l-3,10.3h6l-0.7,2.4h-5.9l-6.5,22.3c-0.7,2.4-1,4-1,4.7c0,0.4,0.1,0.8,0.3,1
		c0.2,0.2,0.4,0.4,0.7,0.4c0.6,0,1.5-0.5,2.5-1.4c0.6-0.5,2-2.1,4.1-4.7l1.2,1c-2.3,3.4-4.5,5.7-6.6,7.1c-1.4,0.9-2.8,1.4-4.3,1.4
		c-1.1,0-2-0.3-2.7-1c-0.7-0.7-1.1-1.6-1.1-2.7c0-1.3,0.4-3.4,1.2-6.2l6.3-21.9h-5.7l0.4-1.5c2.8-0.8,5.1-1.9,6.9-3.4
		c1.8-1.5,3.9-4.1,6.2-7.8H335.4z"/>
	<path class="st2" d="M373.2,1006.5l-7.4,25.7l-0.8,3.5c-0.1,0.3-0.1,0.6-0.1,0.8c0,0.4,0.1,0.8,0.4,1.1c0.2,0.2,0.4,0.3,0.8,0.3
		c0.3,0,0.7-0.2,1.3-0.6c1-0.7,2.3-2.2,3.9-4.5l1.3,0.9c-1.7,2.6-3.5,4.6-5.4,6c-1.8,1.4-3.6,2-5.1,2c-1.1,0-1.9-0.3-2.4-0.8
		c-0.5-0.5-0.8-1.3-0.8-2.4c0-1.3,0.3-2.9,0.8-4.9l0.8-2.9c-3.3,4.3-6.4,7.3-9.1,9.1c-2,1.2-4,1.8-5.9,1.8c-1.8,0-3.4-0.8-4.8-2.3
		c-1.3-1.5-2-3.6-2-6.3c0-4,1.2-8.3,3.6-12.7c2.4-4.5,5.5-8,9.2-10.7c2.9-2.1,5.6-3.2,8.2-3.2c1.6,0,2.9,0.4,3.9,1.2
		c1,0.8,1.8,2.2,2.3,4l1.4-4.3L373.2,1006.5z M359.7,1008.5c-1.6,0-3.3,0.8-5.1,2.3c-2.6,2.1-4.9,5.3-6.9,9.5c-2,4.2-3,8-3,11.4
		c0,1.7,0.4,3,1.3,4c0.9,1,1.9,1.5,3,1.5c2.7,0,5.7-2,8.9-6.1c4.3-5.4,6.5-10.9,6.5-16.6c0-2.1-0.4-3.7-1.2-4.7
		C362.3,1009,361.1,1008.5,359.7,1008.5z"/>
	<path class="st2" d="M412,1007.4l-6.6,22.6c-1,3.4-1.5,5.5-1.5,6.3c0,0.4,0.1,0.8,0.2,1c0.2,0.2,0.4,0.3,0.7,0.3
		c0.4,0,0.9-0.2,1.4-0.6c0.5-0.4,1.8-2,3.9-4.7l1.2,0.9c-2,3.1-4.1,5.5-6.2,7c-1.4,0.9-2.7,1.4-4,1.4c-1,0-1.8-0.3-2.3-0.8
		c-0.5-0.5-0.8-1.3-0.8-2.1c0-0.9,0.2-2,0.5-3.4c0.4-1.8,1.6-5.9,3.5-12.2c-4.3,7.1-7.9,11.9-10.8,14.6c-2.9,2.7-5.6,4-8,4
		c-1.2,0-2.1-0.4-3-1.2c-0.8-0.8-1.2-1.8-1.2-3.1c0-1.9,0.5-4.8,1.6-8.7l3.3-11.7c0.8-2.8,1.2-4.5,1.2-5.2c0-0.3-0.1-0.5-0.3-0.8
		c-0.2-0.2-0.4-0.3-0.7-0.3c-0.5,0-1.1,0.2-1.6,0.6c-0.5,0.4-1.7,1.8-3.6,4.2l-1.2-0.8c1.9-2.9,3.9-5.1,6-6.5
		c1.6-1.1,3.1-1.6,4.5-1.6c0.9,0,1.7,0.3,2.3,0.9c0.6,0.6,0.9,1.4,0.9,2.3c0,1.4-0.5,3.8-1.5,7.3l-3.6,12.2c-1,3.4-1.5,5.5-1.5,6.3
		c0,0.5,0.2,0.9,0.5,1.2c0.3,0.3,0.7,0.4,1.3,0.4c0.8,0,1.9-0.4,3.2-1.2c1.3-0.8,3.1-2.7,5.4-5.5c2.2-2.9,4.1-5.6,5.5-8.1
		c1.5-2.5,3-6.5,4.6-12l0.8-2.9H412z"/>
	<path class="st2" d="M418.3,1008.7l13.1-2.2l-5.5,18.4c4.4-7.6,8.4-12.8,12-15.8c2-1.7,3.7-2.6,5-2.6c0.8,0,1.5,0.3,2,0.8
		c0.5,0.5,0.7,1.2,0.7,2.2c0,1.7-0.4,3.2-1.3,4.7c-0.6,1.1-1.5,1.7-2.6,1.7c-0.6,0-1.1-0.2-1.5-0.6c-0.4-0.4-0.7-1-0.8-1.7
		c0-0.5-0.1-0.8-0.3-0.9c-0.2-0.2-0.5-0.3-0.7-0.3c-0.4,0-0.8,0.1-1.2,0.3c-0.7,0.3-1.7,1.3-3,3c-2.1,2.5-4.4,5.7-6.8,9.6
		c-1,1.7-1.9,3.5-2.7,5.6c-1,2.9-1.6,4.6-1.8,5.2l-1.2,4.7h-5.8l7-23.5c0.8-2.7,1.2-4.7,1.2-5.8c0-0.4-0.2-0.8-0.6-1.1
		c-0.5-0.4-1.2-0.6-2-0.6c-0.5,0-1.5,0.1-2.9,0.3L418.3,1008.7z"/>
	<path class="st2" d="M480.8,1006.5l-7.4,25.7l-0.8,3.5c-0.1,0.3-0.1,0.6-0.1,0.8c0,0.4,0.1,0.8,0.4,1.1c0.2,0.2,0.4,0.3,0.8,0.3
		c0.3,0,0.7-0.2,1.3-0.6c1-0.7,2.3-2.2,3.9-4.5l1.3,0.9c-1.7,2.6-3.5,4.6-5.4,6c-1.8,1.4-3.6,2-5.1,2c-1.1,0-1.9-0.3-2.4-0.8
		c-0.5-0.5-0.8-1.3-0.8-2.4c0-1.3,0.3-2.9,0.8-4.9l0.8-2.9c-3.3,4.3-6.4,7.3-9.1,9.1c-2,1.2-4,1.8-5.9,1.8c-1.8,0-3.4-0.8-4.8-2.3
		c-1.3-1.5-2-3.6-2-6.3c0-4,1.2-8.3,3.6-12.7c2.4-4.5,5.5-8,9.2-10.7c2.9-2.1,5.6-3.2,8.2-3.2c1.6,0,2.9,0.4,3.9,1.2
		c1,0.8,1.8,2.2,2.3,4l1.4-4.3L480.8,1006.5z M467.3,1008.5c-1.6,0-3.3,0.8-5.1,2.3c-2.6,2.1-4.9,5.3-6.9,9.5c-2,4.2-3,8-3,11.4
		c0,1.7,0.4,3,1.3,4c0.9,1,1.9,1.5,3,1.5c2.7,0,5.7-2,8.9-6.1c4.3-5.4,6.5-10.9,6.5-16.6c0-2.1-0.4-3.7-1.2-4.7
		C469.9,1009,468.8,1008.5,467.3,1008.5z"/>
	<path class="st2" d="M500.3,1006.5l-5,17.3c4.7-7.1,8.3-11.7,10.8-13.9c2.5-2.2,4.9-3.3,7.3-3.3c1.3,0,2.3,0.4,3.1,1.3
		c0.8,0.8,1.2,1.9,1.2,3.2c0,1.5-0.4,3.6-1.1,6.1L512,1033c-0.5,1.8-0.8,3-0.8,3.4c0,0.3,0.1,0.6,0.3,0.9c0.2,0.2,0.4,0.4,0.6,0.4
		c0.3,0,0.6-0.2,1.1-0.5c1.3-1.1,2.8-2.7,4.4-4.8l1.2,0.7c-2.4,3.4-4.6,5.8-6.7,7.2c-1.5,1-2.8,1.5-3.9,1.5c-0.9,0-1.7-0.3-2.2-0.8
		c-0.5-0.6-0.8-1.3-0.8-2.3c0-1.2,0.4-3.3,1.3-6.3l4.4-15.2c0.5-1.9,0.8-3.4,0.8-4.4c0-0.5-0.2-0.9-0.5-1.2
		c-0.3-0.3-0.7-0.5-1.2-0.5c-0.7,0-1.5,0.3-2.5,0.9c-1.8,1.1-3.8,3-5.8,5.6c-2,2.6-4.2,5.9-6.4,10c-1.2,2.2-2.2,4.5-3,7.1l-1.9,6.3
		h-5.7l6.9-23.7c0.8-2.9,1.2-4.6,1.2-5.1c0-0.6-0.2-1.1-0.7-1.5c-0.5-0.4-1-0.6-1.6-0.6c-0.3,0-0.8,0.1-1.6,0.2l-1.5,0.2l-0.2-1.4
		L500.3,1006.5z"/>
	<path class="st2" d="M542,997.1l-3,10.3h6l-0.7,2.4h-5.9l-6.5,22.3c-0.7,2.4-1,4-1,4.7c0,0.4,0.1,0.8,0.3,1
		c0.2,0.2,0.4,0.4,0.7,0.4c0.6,0,1.5-0.5,2.5-1.4c0.6-0.5,2-2.1,4.1-4.7l1.2,1c-2.3,3.4-4.5,5.7-6.6,7.1c-1.4,0.9-2.8,1.4-4.3,1.4
		c-1.1,0-2-0.3-2.7-1c-0.7-0.7-1.1-1.6-1.1-2.7c0-1.3,0.4-3.4,1.2-6.2l6.3-21.9h-5.7l0.4-1.5c2.8-0.8,5.1-1.9,6.9-3.4
		c1.8-1.5,3.9-4.1,6.2-7.8H542z"/>
	<path class="st2" d="M617.3,988.3l-3.8,16.6h-1.4l-0.1-4.2c-0.2-1.5-0.5-2.9-0.9-4c-0.5-1.2-1.1-2.2-2-3.1c-0.9-0.9-2-1.5-3.4-2
		c-1.4-0.5-2.9-0.8-4.6-0.8c-4.5,0-8.5,1.2-11.8,3.7c-4.3,3.2-7.7,7.6-10.2,13.4c-2,4.8-3,9.6-3,14.4c0,5,1.4,9,4.3,11.9
		c2.9,3,6.7,4.4,11.3,4.4c3.5,0,6.6-0.8,9.4-2.4c2.7-1.6,5.3-4,7.6-7.2h1.7c-2.8,4.4-5.8,7.7-9.2,9.8s-7.4,3.1-12.1,3.1
		c-4.2,0-7.9-0.9-11.1-2.6c-3.2-1.8-5.7-4.2-7.4-7.4c-1.7-3.2-2.5-6.6-2.5-10.3c0-5.6,1.5-11,4.5-16.3c3-5.3,7.1-9.5,12.4-12.5
		c5.2-3,10.5-4.6,15.8-4.6c2.5,0,5.3,0.6,8.4,1.8c1.4,0.5,2.4,0.8,3,0.8c0.6,0,1.1-0.1,1.6-0.4c0.5-0.3,1.2-1,2.3-2.2H617.3z"/>
	<path class="st2" d="M650.9,1006.5l-7.4,25.7l-0.8,3.5c-0.1,0.3-0.1,0.6-0.1,0.8c0,0.4,0.1,0.8,0.4,1.1c0.2,0.2,0.4,0.3,0.8,0.3
		c0.3,0,0.7-0.2,1.3-0.6c1-0.7,2.3-2.2,3.9-4.5l1.3,0.9c-1.7,2.6-3.5,4.6-5.4,6c-1.8,1.4-3.6,2-5.1,2c-1.1,0-1.9-0.3-2.4-0.8
		c-0.5-0.5-0.8-1.3-0.8-2.4c0-1.3,0.3-2.9,0.8-4.9l0.8-2.9c-3.3,4.3-6.4,7.3-9.1,9.1c-2,1.2-4,1.8-5.9,1.8c-1.8,0-3.4-0.8-4.8-2.3
		c-1.3-1.5-2-3.6-2-6.3c0-4,1.2-8.3,3.6-12.7c2.4-4.5,5.5-8,9.2-10.7c2.9-2.1,5.6-3.2,8.2-3.2c1.6,0,2.9,0.4,3.9,1.2
		c1,0.8,1.8,2.2,2.3,4l1.4-4.3L650.9,1006.5z M637.4,1008.5c-1.6,0-3.3,0.8-5.1,2.3c-2.6,2.1-4.9,5.3-6.9,9.5c-2,4.2-3,8-3,11.4
		c0,1.7,0.4,3,1.3,4c0.9,1,1.9,1.5,3,1.5c2.7,0,5.7-2,8.9-6.1c4.3-5.4,6.5-10.9,6.5-16.6c0-2.1-0.4-3.7-1.2-4.7
		C640,1009,638.8,1008.5,637.4,1008.5z"/>
	<path class="st2" d="M670.4,1006.5l-5,17.3c4.7-7.1,8.3-11.7,10.8-13.9c2.5-2.2,4.9-3.3,7.3-3.3c1.3,0,2.3,0.4,3.1,1.3
		c0.8,0.8,1.2,1.9,1.2,3.2c0,1.5-0.4,3.6-1.1,6.1l-4.6,15.9c-0.5,1.8-0.8,3-0.8,3.4c0,0.3,0.1,0.6,0.3,0.9c0.2,0.2,0.4,0.4,0.6,0.4
		c0.3,0,0.6-0.2,1.1-0.5c1.3-1.1,2.8-2.7,4.4-4.8l1.2,0.7c-2.4,3.4-4.6,5.8-6.7,7.2c-1.5,1-2.8,1.5-3.9,1.5c-0.9,0-1.7-0.3-2.2-0.8
		c-0.5-0.6-0.8-1.3-0.8-2.3c0-1.2,0.4-3.3,1.3-6.3l4.4-15.2c0.5-1.9,0.8-3.4,0.8-4.4c0-0.5-0.2-0.9-0.5-1.2
		c-0.3-0.3-0.7-0.5-1.2-0.5c-0.7,0-1.5,0.3-2.5,0.9c-1.8,1.1-3.8,3-5.8,5.6c-2,2.6-4.2,5.9-6.4,10c-1.2,2.2-2.2,4.5-3,7.1l-1.9,6.3
		h-5.7l6.9-23.7c0.8-2.9,1.2-4.6,1.2-5.1c0-0.6-0.2-1.1-0.7-1.5c-0.5-0.4-1-0.6-1.6-0.6c-0.3,0-0.8,0.1-1.6,0.2l-1.5,0.2l-0.2-1.4
		L670.4,1006.5z"/>
	<path class="st2" d="M735.9,989.4l4.7,41.3l29.8-41.3h12.5v1.4c-2.7,0.2-4.3,0.4-4.8,0.5c-0.8,0.3-1.6,1-2.3,2
		c-0.7,1-1.4,2.9-2.3,5.7l-9.5,32.5c-0.6,1.9-0.8,3.4-0.8,4.5c0,1,0.3,1.8,1,2.3c1,0.7,2.5,1.1,4.6,1.1h0.9l-0.3,1.4h-21.6l0.4-1.4
		h1c1.9,0,3.4-0.3,4.4-0.8c0.8-0.4,1.5-1.2,2.1-2.3c0.6-1.1,1.5-3.6,2.6-7.5l8.5-29.8l-29.9,41.7h-1.5l-4.8-41.7l-9.1,31.7
		c-0.8,2.7-1.2,4.5-1.2,5.5c0,0.9,0.3,1.7,1,2.2c0.7,0.5,2.3,0.8,5,1l-0.4,1.4h-16.9l0.4-1.4h1c2.5,0,4.3-0.6,5.4-1.9
		c0.8-0.9,1.7-2.9,2.5-5.9l11.1-38.2c-0.8-0.9-1.6-1.5-2.4-1.8c-0.8-0.3-2.2-0.5-4.2-0.7l0.4-1.4H735.9z"/>
	<path class="st2" d="M811.7,1018.3c0,3.8-1,7.5-3,11.3c-2,3.7-4.8,6.7-8.4,8.8c-3.6,2.2-7.1,3.2-10.4,3.2c-3.4,0-6.3-1.1-8.5-3.3
		c-2.2-2.2-3.3-5.1-3.3-8.5c0-3.7,1.1-7.5,3.2-11.2c2.1-3.7,5-6.7,8.6-8.9c3.6-2.2,7-3.3,10.3-3.3c3.4,0,6.1,1.1,8.3,3.3
		C810.6,1012,811.7,1014.9,811.7,1018.3z M805.5,1015.8c0-2.4-0.6-4.2-1.7-5.4c-1.2-1.3-2.6-1.9-4.5-1.9c-3.7,0-7.1,2.7-10.2,8
		c-3.1,5.3-4.7,10.6-4.7,15.9c0,2.4,0.6,4.2,1.8,5.5c1.2,1.3,2.7,2,4.6,2c3.6,0,6.9-2.6,10-7.9
		C803.9,1026.6,805.5,1021.2,805.5,1015.8z"/>
	<path class="st2" d="M831.7,1006.5l-5,17.3c4.7-7.1,8.3-11.7,10.8-13.9c2.5-2.2,4.9-3.3,7.3-3.3c1.3,0,2.3,0.4,3.1,1.3
		c0.8,0.8,1.2,1.9,1.2,3.2c0,1.5-0.4,3.6-1.1,6.1l-4.6,15.9c-0.5,1.8-0.8,3-0.8,3.4c0,0.3,0.1,0.6,0.3,0.9c0.2,0.2,0.4,0.4,0.6,0.4
		c0.3,0,0.6-0.2,1.1-0.5c1.3-1.1,2.8-2.7,4.4-4.8l1.2,0.7c-2.4,3.4-4.6,5.8-6.7,7.2c-1.5,1-2.8,1.5-3.9,1.5c-0.9,0-1.7-0.3-2.2-0.8
		c-0.5-0.6-0.8-1.3-0.8-2.3c0-1.2,0.4-3.3,1.3-6.3l4.4-15.2c0.5-1.9,0.8-3.4,0.8-4.4c0-0.5-0.2-0.9-0.5-1.2
		c-0.3-0.3-0.7-0.5-1.2-0.5c-0.7,0-1.5,0.3-2.5,0.9c-1.8,1.1-3.8,3-5.8,5.6c-2,2.6-4.2,5.9-6.4,10c-1.2,2.2-2.2,4.5-3,7.1l-1.9,6.3
		h-5.7l6.9-23.7c0.8-2.9,1.2-4.6,1.2-5.1c0-0.6-0.2-1.1-0.7-1.5c-0.5-0.4-1-0.6-1.6-0.6c-0.3,0-0.8,0.1-1.6,0.2l-1.5,0.2l-0.2-1.4
		L831.7,1006.5z"/>
	<path class="st2" d="M873.5,997.1l-3,10.3h6l-0.7,2.4H870l-6.5,22.3c-0.7,2.4-1,4-1,4.7c0,0.4,0.1,0.8,0.3,1
		c0.2,0.2,0.4,0.4,0.7,0.4c0.6,0,1.5-0.5,2.5-1.4c0.6-0.5,2-2.1,4.1-4.7l1.2,1c-2.3,3.4-4.5,5.7-6.6,7.1c-1.4,0.9-2.8,1.4-4.3,1.4
		c-1.1,0-2-0.3-2.7-1c-0.7-0.7-1.1-1.6-1.1-2.7c0-1.3,0.4-3.4,1.2-6.2l6.3-21.9h-5.7l0.4-1.5c2.8-0.8,5.1-1.9,6.9-3.4
		c1.8-1.5,3.9-4.1,6.2-7.8H873.5z"/>
	<path class="st2" d="M948.8,988.3l-3.8,16.6h-1.4l-0.1-4.2c-0.2-1.5-0.5-2.9-0.9-4c-0.5-1.2-1.1-2.2-2-3.1c-0.9-0.9-2-1.5-3.4-2
		c-1.4-0.5-2.9-0.8-4.6-0.8c-4.5,0-8.5,1.2-11.8,3.7c-4.3,3.2-7.7,7.6-10.2,13.4c-2,4.8-3,9.6-3,14.4c0,5,1.4,9,4.3,11.9
		c2.9,3,6.7,4.4,11.3,4.4c3.5,0,6.6-0.8,9.4-2.4c2.7-1.6,5.3-4,7.6-7.2h1.7c-2.8,4.4-5.8,7.7-9.2,9.8s-7.4,3.1-12.1,3.1
		c-4.2,0-7.9-0.9-11.1-2.6c-3.2-1.8-5.7-4.2-7.4-7.4c-1.7-3.2-2.5-6.6-2.5-10.3c0-5.6,1.5-11,4.5-16.3c3-5.3,7.1-9.5,12.4-12.5
		c5.2-3,10.5-4.6,15.8-4.6c2.5,0,5.3,0.6,8.4,1.8c1.4,0.5,2.4,0.8,3,0.8c0.6,0,1.1-0.1,1.6-0.4c0.5-0.3,1.2-1,2.3-2.2H948.8z"/>
	<path class="st2" d="M982.4,1006.5l-7.4,25.7l-0.8,3.5c-0.1,0.3-0.1,0.6-0.1,0.8c0,0.4,0.1,0.8,0.4,1.1c0.2,0.2,0.4,0.3,0.8,0.3
		c0.3,0,0.7-0.2,1.3-0.6c1-0.7,2.3-2.2,3.9-4.5l1.3,0.9c-1.7,2.6-3.5,4.6-5.4,6c-1.8,1.4-3.6,2-5.1,2c-1.1,0-1.9-0.3-2.4-0.8
		c-0.5-0.5-0.8-1.3-0.8-2.4c0-1.3,0.3-2.9,0.8-4.9l0.8-2.9c-3.3,4.3-6.4,7.3-9.1,9.1c-2,1.2-4,1.8-5.9,1.8c-1.8,0-3.4-0.8-4.8-2.3
		c-1.3-1.5-2-3.6-2-6.3c0-4,1.2-8.3,3.6-12.7c2.4-4.5,5.5-8,9.2-10.7c2.9-2.1,5.6-3.2,8.2-3.2c1.6,0,2.9,0.4,3.9,1.2
		c1,0.8,1.8,2.2,2.3,4l1.4-4.3L982.4,1006.5z M968.9,1008.5c-1.6,0-3.3,0.8-5.1,2.3c-2.6,2.1-4.9,5.3-6.9,9.5c-2,4.2-3,8-3,11.4
		c0,1.7,0.4,3,1.3,4c0.9,1,1.9,1.5,3,1.5c2.7,0,5.7-2,8.9-6.1c4.3-5.4,6.5-10.9,6.5-16.6c0-2.1-0.4-3.7-1.2-4.7
		C971.4,1009,970.3,1008.5,968.9,1008.5z"/>
	<path class="st2" d="M1026.6,986.9l-13,44.7c-0.7,2.4-1.1,4-1.1,4.8c0,0.3,0.1,0.5,0.3,0.7c0.2,0.2,0.4,0.3,0.7,0.3
		c0.3,0,0.7-0.2,1.2-0.5c0.9-0.6,2.3-2.1,4.3-4.6l1.3,0.8c-1.8,2.5-3.7,4.5-5.5,6.1c-1.9,1.6-3.6,2.4-5.2,2.4
		c-0.9,0-1.6-0.3-2.1-0.9c-0.5-0.6-0.8-1.5-0.8-2.6c0-1.4,0.4-3.4,1.1-5.8l1.5-4.7c-3.6,5.7-7,9.6-10,11.8c-2.1,1.5-4,2.2-5.9,2.2
		c-1.9,0-3.6-0.8-5.1-2.5c-1.4-1.7-2.1-4-2.1-7c0-3.8,1.2-7.8,3.6-12c2.4-4.3,5.6-7.7,9.5-10.4c3.1-2.2,6-3.2,8.6-3.2
		c1.3,0,2.5,0.3,3.5,0.8c1,0.6,2,1.5,2.9,2.8l3.7-13.2c0.3-0.9,0.5-1.7,0.7-2.3c0.3-1,0.5-1.8,0.5-2.5c0-0.5-0.2-1-0.6-1.3
		c-0.5-0.4-1.2-0.7-2.1-0.7c-0.6,0-1.5,0.1-2.9,0.3v-1.4L1026.6,986.9z M1012.6,1013.8c0-1.6-0.5-2.9-1.4-3.9
		c-0.9-1-2.1-1.5-3.5-1.5c-3.2,0-6.5,2.6-9.9,7.9c-3.4,5.2-5.1,10.2-5.1,15c0,1.9,0.4,3.4,1.2,4.3c0.8,1,1.8,1.5,3,1.5
		c2.6,0,5.9-2.8,9.9-8.5C1010.6,1023,1012.6,1018.1,1012.6,1013.8z"/>
</g>
<g>
	<path class="st2" d="M392.2,1140.2h-14.5l-2.5,5.9c-0.6,1.4-1,2.5-1,3.3c0,0.6,0.3,1.1,0.8,1.5c0.5,0.4,1.7,0.7,3.5,0.8v1h-11.8v-1
		c1.6-0.3,2.6-0.6,3-1.1c0.9-0.9,2-2.7,3.1-5.4l13.2-30.8h1l13,31.2c1,2.5,2,4.1,2.8,4.9c0.9,0.7,2.1,1.2,3.6,1.3v1h-14.8v-1
		c1.5-0.1,2.5-0.3,3-0.7c0.5-0.4,0.8-0.9,0.8-1.6c0-0.8-0.4-2.1-1.1-3.8L392.2,1140.2z M391.4,1138.1l-6.3-15.1l-6.5,15.1H391.4z"/>
	<path class="st2" d="M407.6,1127.4h11.9v1h-0.8c-0.7,0-1.3,0.2-1.6,0.5c-0.4,0.4-0.6,0.8-0.6,1.4c0,0.6,0.2,1.4,0.6,2.3l5.9,14
		l5.9-14.5c0.4-1,0.7-1.8,0.7-2.3c0-0.3-0.1-0.5-0.2-0.7c-0.2-0.3-0.4-0.5-0.8-0.6c-0.3-0.1-1-0.2-1.9-0.2v-1h8.3v1
		c-1,0.1-1.6,0.3-2,0.6c-0.6,0.5-1.2,1.5-1.7,2.8l-9,21.7h-1.1l-9.1-21.4c-0.4-1-0.8-1.7-1.1-2.1c-0.4-0.4-0.8-0.8-1.4-1.1
		c-0.3-0.2-0.9-0.3-1.9-0.5V1127.4z"/>
	<path class="st2" d="M445.9,1126.7v20.3c0,1.6,0.1,2.7,0.3,3.2c0.2,0.5,0.6,0.9,1,1.2c0.4,0.3,1.3,0.4,2.5,0.4v1h-12.3v-1
		c1.2,0,2.1-0.1,2.5-0.4s0.8-0.6,1-1.2c0.2-0.5,0.4-1.6,0.4-3.2v-9.7c0-2.7-0.1-4.5-0.2-5.3c-0.1-0.6-0.3-1-0.6-1.2
		c-0.3-0.2-0.7-0.3-1.1-0.3c-0.5,0-1.1,0.1-1.9,0.4l-0.4-1l7.6-3.1H445.9z M443.6,1113.4c0.8,0,1.4,0.3,2,0.8c0.5,0.5,0.8,1.2,0.8,2
		c0,0.8-0.3,1.4-0.8,2c-0.5,0.6-1.2,0.8-2,0.8c-0.8,0-1.4-0.3-2-0.8c-0.5-0.6-0.8-1.2-0.8-2c0-0.8,0.3-1.4,0.8-2
		C442.1,1113.7,442.8,1113.4,443.6,1113.4z"/>
	<path class="st2" d="M460.2,1132c3-3.6,5.8-5.4,8.5-5.4c1.4,0,2.6,0.3,3.6,1c1,0.7,1.8,1.8,2.4,3.4c0.4,1.1,0.6,2.8,0.6,5.1v10.8
		c0,1.6,0.1,2.7,0.4,3.3c0.2,0.5,0.5,0.8,1,1.1c0.4,0.3,1.3,0.4,2.5,0.4v1h-12.5v-1h0.5c1.2,0,2-0.2,2.5-0.5c0.5-0.4,0.8-0.9,1-1.6
		c0.1-0.3,0.1-1.1,0.1-2.6v-10.4c0-2.3-0.3-3.9-0.9-5c-0.6-1-1.6-1.6-3-1.6c-2.2,0-4.4,1.2-6.6,3.6v13.3c0,1.7,0.1,2.8,0.3,3.2
		c0.3,0.5,0.6,0.9,1.1,1.2c0.4,0.3,1.4,0.4,2.7,0.4v1h-12.5v-1h0.5c1.3,0,2.1-0.3,2.6-1c0.5-0.7,0.7-1.9,0.7-3.8v-9.4
		c0-3-0.1-4.9-0.2-5.6c-0.1-0.7-0.3-1.1-0.6-1.4c-0.3-0.2-0.7-0.4-1.1-0.4c-0.5,0-1.1,0.1-1.9,0.4l-0.4-1l7.6-3.1h1.2V1132z"/>
	<path class="st2" d="M487.9,1143.5c-1.6-0.8-2.7-1.8-3.6-3.2s-1.2-2.8-1.2-4.5c0-2.5,0.9-4.6,2.8-6.4c1.9-1.8,4.3-2.7,7.3-2.7
		c2.4,0,4.5,0.6,6.2,1.7h5.4c0.8,0,1.3,0,1.4,0.1c0.1,0,0.2,0.1,0.3,0.2c0.1,0.2,0.2,0.5,0.2,0.9c0,0.5,0,0.8-0.1,1
		c-0.1,0.1-0.2,0.2-0.3,0.2c-0.1,0.1-0.6,0.1-1.4,0.1h-3.3c1,1.3,1.5,3,1.5,5.1c0,2.4-0.9,4.4-2.7,6.1c-1.8,1.7-4.2,2.5-7.3,2.5
		c-1.3,0-2.5-0.2-3.8-0.6c-0.8,0.7-1.3,1.3-1.6,1.9c-0.3,0.5-0.4,1-0.4,1.3c0,0.3,0.1,0.6,0.4,0.9c0.3,0.3,0.9,0.5,1.8,0.6
		c0.5,0.1,1.8,0.1,3.9,0.2c3.8,0.1,6.3,0.2,7.4,0.4c1.7,0.2,3.1,0.9,4.1,1.9c1,1,1.5,2.3,1.5,3.8c0,2.1-1,4-2.9,5.8
		c-2.9,2.7-6.6,4-11.3,4c-3.5,0-6.6-0.8-9-2.4c-1.4-0.9-2.1-1.9-2.1-2.9c0-0.4,0.1-0.9,0.3-1.3c0.3-0.7,1-1.6,1.9-2.8
		c0.1-0.2,1.1-1.2,2.8-3c-0.9-0.6-1.6-1.1-2-1.5c-0.4-0.5-0.6-1-0.6-1.5c0-0.6,0.3-1.4,0.8-2.3
		C484.8,1146.3,486,1145.1,487.9,1143.5z M487.7,1152.7c-0.9,0.9-1.5,1.8-2,2.6c-0.4,0.8-0.7,1.6-0.7,2.2c0,0.9,0.5,1.6,1.6,2.3
		c1.8,1.1,4.5,1.7,8,1.7c3.3,0,5.7-0.6,7.3-1.7c1.6-1.2,2.4-2.4,2.4-3.7c0-1-0.5-1.6-1.4-2.1c-1-0.4-2.9-0.6-5.7-0.7
		C493.1,1153.2,489.9,1153,487.7,1152.7z M492.7,1128c-1.4,0-2.5,0.5-3.4,1.6c-0.9,1.1-1.4,2.8-1.4,5c0,2.9,0.6,5.2,1.9,6.8
		c1,1.2,2.2,1.8,3.7,1.8c1.4,0,2.5-0.5,3.4-1.6c0.9-1.1,1.4-2.7,1.4-4.9c0-2.9-0.6-5.2-1.9-6.9C495.4,1128.6,494.2,1128,492.7,1128z
		"/>
	<path class="st2" d="M531.6,1127.4v15.3c0,2.9,0.1,4.7,0.2,5.4c0.1,0.7,0.4,1.1,0.7,1.4c0.3,0.3,0.7,0.4,1,0.4c0.6,0,1.2-0.2,2-0.5
		l0.4,1l-7.6,3.1H527v-5.4c-2.2,2.4-3.8,3.8-5,4.5c-1.1,0.6-2.3,0.9-3.6,0.9c-1.4,0-2.6-0.4-3.7-1.2c-1-0.8-1.8-1.9-2.2-3.2
		c-0.4-1.3-0.6-3.1-0.6-5.5v-11.3c0-1.2-0.1-2-0.4-2.5c-0.3-0.5-0.6-0.8-1.1-1.1c-0.5-0.2-1.4-0.4-2.7-0.4v-1h8.8v16.9
		c0,2.4,0.4,3.9,1.2,4.6c0.8,0.7,1.8,1.1,2.9,1.1c0.8,0,1.7-0.3,2.7-0.8c1-0.5,2.2-1.5,3.6-2.8v-14.3c0-1.4-0.3-2.4-0.8-2.9
		c-0.5-0.5-1.6-0.8-3.3-0.8v-1H531.6z"/>
	<path class="st2" d="M555.5,1149.9c-1.2,1.3-2.4,2.2-3.6,2.8c-1.2,0.6-2.4,0.9-3.8,0.9c-2.8,0-5.2-1.2-7.2-3.5
		c-2.1-2.3-3.1-5.3-3.1-8.9c0-3.6,1.1-7,3.4-10c2.3-3,5.2-4.5,8.8-4.5c2.2,0,4.1,0.7,5.5,2.1v-4.7c0-2.9-0.1-4.7-0.2-5.3
		c-0.1-0.7-0.3-1.1-0.6-1.4c-0.3-0.2-0.7-0.4-1.1-0.4c-0.5,0-1.1,0.1-1.9,0.4l-0.4-1l7.5-3.1h1.2v29.3c0,3,0.1,4.8,0.2,5.4
		c0.1,0.7,0.4,1.1,0.7,1.4s0.7,0.4,1.1,0.4c0.5,0,1.1-0.2,2-0.5l0.3,1l-7.5,3.1h-1.3V1149.9z M555.5,1147.9v-13
		c-0.1-1.3-0.4-2.4-1-3.4c-0.6-1-1.3-1.8-2.2-2.3s-1.8-0.8-2.7-0.8c-1.6,0-3.1,0.7-4.4,2.2c-1.7,1.9-2.5,4.7-2.5,8.4
		c0,3.7,0.8,6.6,2.4,8.6c1.6,2,3.4,3,5.4,3C552.4,1150.4,554,1149.6,555.5,1147.9z"/>
	<path class="st2" d="M580.3,1149.1c-2.6,2-4.2,3.1-4.9,3.5c-1,0.5-2.1,0.7-3.2,0.7c-1.7,0-3.2-0.6-4.3-1.8
		c-1.1-1.2-1.7-2.8-1.7-4.7c0-1.2,0.3-2.3,0.8-3.2c0.8-1.3,2.1-2.4,3.9-3.5c1.9-1.1,5-2.4,9.3-4v-1c0-2.5-0.4-4.2-1.2-5.2
		c-0.8-0.9-2-1.4-3.5-1.4c-1.1,0-2.1,0.3-2.7,0.9c-0.7,0.6-1.1,1.4-1.1,2.2l0.1,1.6c0,0.8-0.2,1.5-0.7,2c-0.4,0.5-1,0.7-1.7,0.7
		c-0.7,0-1.2-0.2-1.7-0.7c-0.4-0.5-0.7-1.1-0.7-2c0-1.6,0.8-3,2.4-4.4c1.6-1.3,3.9-2,6.8-2c2.2,0,4.1,0.4,5.5,1.1
		c1.1,0.6,1.9,1.5,2.4,2.7c0.3,0.8,0.5,2.4,0.5,4.9v8.6c0,2.4,0,3.9,0.1,4.4c0.1,0.5,0.2,0.9,0.5,1.1c0.2,0.2,0.5,0.3,0.7,0.3
		c0.3,0,0.5-0.1,0.8-0.2c0.4-0.2,1.1-0.9,2.3-2v1.5c-2.1,2.7-4.1,4.1-5.9,4.1c-0.9,0-1.6-0.3-2.1-0.9
		C580.6,1151.6,580.3,1150.6,580.3,1149.1z M580.3,1147.3v-9.6c-2.8,1.1-4.6,1.9-5.4,2.4c-1.4,0.8-2.5,1.6-3.1,2.5
		c-0.6,0.9-0.9,1.9-0.9,2.9c0,1.3,0.4,2.4,1.2,3.3c0.8,0.9,1.7,1.3,2.7,1.3C576.1,1150,578,1149.1,580.3,1147.3z"/>
	<path class="st2" d="M615,1135.2v10.9c0,2.4,0.3,3.8,0.8,4.4c0.7,0.8,1.7,1.2,3.2,1.2h1.4v1h-16.1v-1h1.4c1.6,0,2.7-0.5,3.4-1.5
		c0.4-0.6,0.6-1.9,0.6-4v-24.2c0-2.4-0.3-3.8-0.8-4.4c-0.7-0.8-1.8-1.2-3.2-1.2h-1.4v-1h13.7c3.4,0,6,0.3,7.9,1
		c1.9,0.7,3.6,1.9,4.9,3.5c1.3,1.6,2,3.6,2,5.8c0,3.1-1,5.6-3,7.5c-2,1.9-4.9,2.9-8.5,2.9c-0.9,0-1.9-0.1-2.9-0.2
		C617.3,1135.6,616.2,1135.4,615,1135.2z M615,1133.6c1,0.2,1.9,0.3,2.6,0.4s1.4,0.1,1.9,0.1c1.9,0,3.6-0.7,5-2.2
		c1.4-1.5,2.1-3.4,2.1-5.8c0-1.6-0.3-3.1-1-4.5c-0.7-1.4-1.6-2.4-2.8-3.1c-1.2-0.7-2.6-1-4.1-1c-0.9,0-2.1,0.2-3.6,0.5V1133.6z"/>
	<path class="st2" d="M651,1149.1c-2.6,2-4.2,3.1-4.9,3.5c-1,0.5-2.1,0.7-3.2,0.7c-1.7,0-3.2-0.6-4.3-1.8c-1.1-1.2-1.7-2.8-1.7-4.7
		c0-1.2,0.3-2.3,0.8-3.2c0.8-1.3,2.1-2.4,3.9-3.5c1.9-1.1,5-2.4,9.3-4v-1c0-2.5-0.4-4.2-1.2-5.2c-0.8-0.9-2-1.4-3.5-1.4
		c-1.1,0-2.1,0.3-2.7,0.9c-0.7,0.6-1.1,1.4-1.1,2.2l0.1,1.6c0,0.8-0.2,1.5-0.7,2c-0.4,0.5-1,0.7-1.7,0.7c-0.7,0-1.2-0.2-1.7-0.7
		c-0.4-0.5-0.7-1.1-0.7-2c0-1.6,0.8-3,2.4-4.4c1.6-1.3,3.9-2,6.8-2c2.2,0,4.1,0.4,5.5,1.1c1.1,0.6,1.9,1.5,2.4,2.7
		c0.3,0.8,0.5,2.4,0.5,4.9v8.6c0,2.4,0,3.9,0.1,4.4c0.1,0.5,0.2,0.9,0.5,1.1c0.2,0.2,0.5,0.3,0.7,0.3c0.3,0,0.5-0.1,0.8-0.2
		c0.4-0.2,1.1-0.9,2.3-2v1.5c-2.1,2.7-4.1,4.1-5.9,4.1c-0.9,0-1.6-0.3-2.1-0.9S651,1150.6,651,1149.1z M651,1147.3v-9.6
		c-2.8,1.1-4.6,1.9-5.4,2.4c-1.4,0.8-2.5,1.6-3.1,2.5c-0.6,0.9-0.9,1.9-0.9,2.9c0,1.3,0.4,2.4,1.2,3.3c0.8,0.9,1.7,1.3,2.7,1.3
		C646.8,1150,648.7,1149.1,651,1147.3z"/>
	<path class="st2" d="M683.9,1127.4v15.3c0,2.9,0.1,4.7,0.2,5.4c0.1,0.7,0.4,1.1,0.7,1.4c0.3,0.3,0.7,0.4,1,0.4c0.6,0,1.2-0.2,2-0.5
		l0.4,1l-7.6,3.1h-1.2v-5.4c-2.2,2.4-3.8,3.8-5,4.5c-1.1,0.6-2.3,0.9-3.6,0.9c-1.4,0-2.6-0.4-3.7-1.2c-1-0.8-1.8-1.9-2.2-3.2
		c-0.4-1.3-0.6-3.1-0.6-5.5v-11.3c0-1.2-0.1-2-0.4-2.5c-0.3-0.5-0.6-0.8-1.1-1.1c-0.5-0.2-1.4-0.4-2.7-0.4v-1h8.8v16.9
		c0,2.4,0.4,3.9,1.2,4.6c0.8,0.7,1.8,1.1,3,1.1c0.8,0,1.7-0.3,2.7-0.8c1-0.5,2.2-1.5,3.6-2.8v-14.3c0-1.4-0.3-2.4-0.8-2.9
		c-0.5-0.5-1.6-0.8-3.3-0.8v-1H683.9z"/>
	<path class="st2" d="M742.5,1115.3v1c-1.3,0.3-2.3,0.7-3,1.3c-1,0.9-1.9,2.3-2.6,4.2l-13.1,31.9h-1l-14-32.3
		c-0.7-1.7-1.2-2.7-1.5-3.1c-0.5-0.6-1-1-1.7-1.3c-0.7-0.3-1.6-0.5-2.7-0.6v-1h15.3v1c-1.7,0.2-2.8,0.5-3.3,0.9
		c-0.5,0.4-0.8,1-0.8,1.6c0,0.9,0.4,2.4,1.3,4.3l9.5,22l8.8-21.7c0.9-2.1,1.3-3.6,1.3-4.5c0-0.5-0.3-1-0.8-1.5
		c-0.5-0.5-1.4-0.8-2.7-1c-0.1,0-0.3-0.1-0.5-0.1v-1H742.5z"/>
	<path class="st2" d="M753.7,1126.7v20.3c0,1.6,0.1,2.7,0.3,3.2c0.2,0.5,0.6,0.9,1,1.2c0.4,0.3,1.3,0.4,2.5,0.4v1h-12.3v-1
		c1.2,0,2.1-0.1,2.5-0.4c0.4-0.2,0.8-0.6,1-1.2c0.2-0.5,0.4-1.6,0.4-3.2v-9.7c0-2.7-0.1-4.5-0.2-5.3c-0.1-0.6-0.3-1-0.6-1.2
		c-0.3-0.2-0.7-0.3-1.1-0.3c-0.5,0-1.1,0.1-1.9,0.4l-0.4-1l7.6-3.1H753.7z M751.4,1113.4c0.8,0,1.4,0.3,2,0.8c0.5,0.5,0.8,1.2,0.8,2
		c0,0.8-0.3,1.4-0.8,2c-0.5,0.6-1.2,0.8-2,0.8s-1.4-0.3-2-0.8c-0.5-0.6-0.8-1.2-0.8-2c0-0.8,0.3-1.4,0.8-2
		C749.9,1113.7,750.6,1113.4,751.4,1113.4z"/>
	<path class="st2" d="M769.4,1113.4v33.5c0,1.6,0.1,2.7,0.3,3.2c0.2,0.5,0.6,0.9,1.1,1.2c0.5,0.3,1.4,0.4,2.7,0.4v1h-12.4v-1
		c1.2,0,2-0.1,2.4-0.4s0.7-0.6,1-1.2c0.2-0.5,0.3-1.6,0.3-3.2V1124c0-2.9-0.1-4.6-0.2-5.3c-0.1-0.7-0.3-1.1-0.6-1.3
		s-0.6-0.4-1.1-0.4c-0.5,0-1.1,0.1-1.8,0.4l-0.5-1l7.5-3.1H769.4z"/>
	<path class="st2" d="M790.7,1149.1c-2.6,2-4.2,3.1-4.9,3.5c-1,0.5-2.1,0.7-3.2,0.7c-1.7,0-3.2-0.6-4.3-1.8
		c-1.1-1.2-1.7-2.8-1.7-4.7c0-1.2,0.3-2.3,0.8-3.2c0.8-1.3,2.1-2.4,3.9-3.5c1.9-1.1,5-2.4,9.3-4v-1c0-2.5-0.4-4.2-1.2-5.2
		c-0.8-0.9-2-1.4-3.5-1.4c-1.1,0-2.1,0.3-2.7,0.9c-0.7,0.6-1.1,1.4-1.1,2.2l0.1,1.6c0,0.8-0.2,1.5-0.7,2c-0.4,0.5-1,0.7-1.7,0.7
		s-1.2-0.2-1.7-0.7c-0.4-0.5-0.7-1.1-0.7-2c0-1.6,0.8-3,2.4-4.4c1.6-1.3,3.9-2,6.8-2c2.2,0,4.1,0.4,5.5,1.1c1.1,0.6,1.9,1.5,2.4,2.7
		c0.3,0.8,0.5,2.4,0.5,4.9v8.6c0,2.4,0,3.9,0.1,4.4c0.1,0.5,0.2,0.9,0.5,1.1c0.2,0.2,0.5,0.3,0.7,0.3c0.3,0,0.5-0.1,0.8-0.2
		c0.4-0.2,1.1-0.9,2.3-2v1.5c-2.1,2.7-4.1,4.1-5.9,4.1c-0.9,0-1.6-0.3-2.1-0.9C791,1151.6,790.7,1150.6,790.7,1149.1z M790.7,1147.3
		v-9.6c-2.8,1.1-4.6,1.9-5.4,2.4c-1.4,0.8-2.5,1.6-3.1,2.5c-0.6,0.9-0.9,1.9-0.9,2.9c0,1.3,0.4,2.4,1.2,3.3c0.8,0.9,1.7,1.3,2.7,1.3
		C786.6,1150,788.4,1149.1,790.7,1147.3z"/>
	<path class="st2" d="M802.8,1162.1v-1.2c1.9-0.6,3.3-1.6,4.4-2.9c1-1.3,1.6-2.7,1.6-4.2c0-0.3-0.1-0.6-0.2-0.9
		c-0.1-0.2-0.2-0.2-0.4-0.2c-0.2,0-0.7,0.2-1.3,0.5c-0.3,0.2-0.7,0.3-1,0.3c-0.9,0-1.6-0.3-2.2-0.8c-0.5-0.5-0.8-1.3-0.8-2.2
		c0-0.9,0.3-1.7,1-2.3c0.7-0.6,1.5-1,2.5-1c1.2,0,2.3,0.5,3.3,1.6c0.9,1.1,1.4,2.5,1.4,4.2c0,1.9-0.7,3.7-2,5.3
		C807.7,1159.9,805.6,1161.2,802.8,1162.1z"/>
	<path class="st2" d="M834.6,1118.9l9.1-4.4h0.9v31.6c0,2.1,0.1,3.4,0.3,3.9c0.2,0.5,0.5,0.9,1.1,1.2c0.5,0.3,1.7,0.4,3.4,0.5v1
		h-14.1v-1c1.8,0,2.9-0.2,3.4-0.4s0.9-0.6,1.1-1.1c0.2-0.4,0.3-1.8,0.3-4v-20.2c0-2.7-0.1-4.5-0.3-5.2c-0.1-0.6-0.4-1-0.7-1.3
		c-0.3-0.3-0.8-0.4-1.2-0.4c-0.7,0-1.6,0.3-2.8,0.9L834.6,1118.9z"/>
	<path class="st2" d="M859.3,1162.1v-1.2c1.9-0.6,3.3-1.6,4.4-2.9c1-1.3,1.6-2.7,1.6-4.2c0-0.3-0.1-0.6-0.2-0.9
		c-0.1-0.2-0.2-0.2-0.4-0.2c-0.2,0-0.7,0.2-1.3,0.5c-0.3,0.2-0.7,0.3-1,0.3c-0.9,0-1.6-0.3-2.2-0.8c-0.5-0.5-0.8-1.3-0.8-2.2
		c0-0.9,0.3-1.7,1-2.3c0.7-0.6,1.5-1,2.5-1c1.2,0,2.3,0.5,3.3,1.6c0.9,1.1,1.4,2.5,1.4,4.2c0,1.9-0.7,3.7-2,5.3
		C864.2,1159.9,862.2,1161.2,859.3,1162.1z"/>
	<path class="st2" d="M277.3,1218.5c0-4.3,0.6-8,1.9-11c1.3-3.1,3-5.4,5.1-6.9c1.6-1.2,3.3-1.8,5.1-1.8c2.9,0,5.5,1.5,7.8,4.4
		c2.9,3.6,4.3,8.5,4.3,14.7c0,4.3-0.6,8-1.9,11.1c-1.3,3-2.9,5.2-4.8,6.6c-1.9,1.4-3.8,2.1-5.6,2.1c-3.6,0-6.5-2.1-8.9-6.3
		C278.3,1227.8,277.3,1223.5,277.3,1218.5z M282.7,1219.2c0,5.1,0.6,9.4,1.9,12.6c1.1,2.7,2.6,4.1,4.7,4.1c1,0,2-0.4,3.1-1.3
		c1.1-0.9,1.9-2.4,2.4-4.5c0.8-3.2,1.3-7.6,1.3-13.4c0-4.3-0.4-7.8-1.3-10.7c-0.7-2.1-1.5-3.6-2.6-4.5c-0.8-0.6-1.7-0.9-2.7-0.9
		c-1.3,0-2.4,0.6-3.4,1.7c-1.3,1.5-2.2,3.9-2.7,7.2C283,1212.8,282.7,1216,282.7,1219.2z"/>
	<path class="st2" d="M314.4,1218.1c-3-2.4-4.9-4.4-5.7-5.8c-0.9-1.5-1.3-3-1.3-4.6c0-2.4,0.9-4.5,2.8-6.3c1.9-1.8,4.4-2.6,7.5-2.6
		c3,0,5.4,0.8,7.3,2.5c1.8,1.6,2.8,3.5,2.8,5.6c0,1.4-0.5,2.8-1.5,4.3s-3.1,3.2-6.2,5.1c3.2,2.5,5.4,4.5,6.4,5.9
		c1.4,1.9,2.1,3.9,2.1,5.9c0,2.6-1,4.9-3,6.7c-2,1.9-4.6,2.8-7.9,2.8c-3.5,0-6.3-1.1-8.3-3.3c-1.6-1.8-2.4-3.7-2.4-5.9
		c0-1.6,0.6-3.3,1.7-4.9C309.7,1221.9,311.7,1220.1,314.4,1218.1z M315.7,1219.2c-1.5,1.3-2.7,2.7-3.4,4.2c-0.7,1.5-1.1,3.2-1.1,4.9
		c0,2.4,0.6,4.3,1.9,5.7c1.3,1.4,2.9,2.1,5,2.1c2,0,3.6-0.6,4.8-1.7c1.2-1.1,1.8-2.5,1.8-4.1c0-1.3-0.4-2.5-1.1-3.6
		C322.3,1224.9,319.7,1222.3,315.7,1219.2z M318.7,1215.2c2.2-2,3.6-3.6,4.2-4.7s0.9-2.5,0.9-3.9c0-1.9-0.5-3.5-1.6-4.5
		c-1.1-1.1-2.6-1.6-4.4-1.6s-3.4,0.5-4.6,1.6c-1.2,1.1-1.8,2.3-1.8,3.8c0,1,0.2,1.9,0.7,2.9c0.5,1,1.2,1.9,2.1,2.7L318.7,1215.2z"/>
	<path class="st2" d="M338.4,1203.2l9.1-4.4h0.9v31.6c0,2.1,0.1,3.4,0.3,3.9c0.2,0.5,0.5,0.9,1.1,1.2c0.5,0.3,1.7,0.4,3.4,0.5v1
		h-14.1v-1c1.8,0,2.9-0.2,3.4-0.4c0.5-0.3,0.9-0.6,1.1-1.1c0.2-0.4,0.3-1.8,0.3-4v-20.2c0-2.7-0.1-4.5-0.3-5.2
		c-0.1-0.6-0.4-1-0.7-1.3c-0.3-0.3-0.8-0.4-1.2-0.4c-0.7,0-1.6,0.3-2.8,0.9L338.4,1203.2z"/>
	<path class="st2" d="M370.9,1218.1c-2.9-2.4-4.9-4.4-5.7-5.8c-0.9-1.5-1.3-3-1.3-4.6c0-2.4,0.9-4.5,2.8-6.3
		c1.9-1.8,4.4-2.6,7.5-2.6c3,0,5.4,0.8,7.3,2.5c1.8,1.6,2.8,3.5,2.8,5.6c0,1.4-0.5,2.8-1.5,4.3s-3.1,3.2-6.2,5.1
		c3.2,2.5,5.4,4.5,6.4,5.9c1.4,1.9,2.1,3.9,2.1,5.9c0,2.6-1,4.9-3,6.7c-2,1.9-4.6,2.8-7.9,2.8c-3.5,0-6.3-1.1-8.3-3.3
		c-1.6-1.8-2.4-3.7-2.4-5.9c0-1.6,0.6-3.3,1.7-4.9C366.3,1221.9,368.2,1220.1,370.9,1218.1z M372.2,1219.2c-1.5,1.3-2.7,2.7-3.4,4.2
		c-0.7,1.5-1.1,3.2-1.1,4.9c0,2.4,0.6,4.3,1.9,5.7c1.3,1.4,2.9,2.1,5,2.1c2,0,3.6-0.6,4.8-1.7c1.2-1.1,1.8-2.5,1.8-4.1
		c0-1.3-0.4-2.5-1.1-3.6C378.8,1224.9,376.2,1222.3,372.2,1219.2z M375.3,1215.2c2.2-2,3.6-3.6,4.2-4.7s0.9-2.5,0.9-3.9
		c0-1.9-0.5-3.5-1.6-4.5c-1.1-1.1-2.6-1.6-4.4-1.6c-1.9,0-3.4,0.5-4.6,1.6c-1.2,1.1-1.8,2.3-1.8,3.8c0,1,0.2,1.9,0.7,2.9
		c0.5,1,1.2,1.9,2.1,2.7L375.3,1215.2z"/>
	<path class="st2" d="M394.9,1203.2l9.1-4.4h0.9v31.6c0,2.1,0.1,3.4,0.3,3.9c0.2,0.5,0.5,0.9,1.1,1.2c0.5,0.3,1.7,0.4,3.4,0.5v1
		h-14.1v-1c1.8,0,2.9-0.2,3.4-0.4c0.5-0.3,0.9-0.6,1.1-1.1c0.2-0.4,0.3-1.8,0.3-4v-20.2c0-2.7-0.1-4.5-0.3-5.2
		c-0.1-0.6-0.4-1-0.7-1.3c-0.3-0.3-0.8-0.4-1.2-0.4c-0.7,0-1.6,0.3-2.8,0.9L394.9,1203.2z"/>
	<path class="st2" d="M442.3,1219.5v10.9c0,2.4,0.3,3.8,0.8,4.4c0.7,0.8,1.7,1.2,3.2,1.2h1.4v1h-16.1v-1h1.4c1.6,0,2.7-0.5,3.4-1.5
		c0.4-0.6,0.6-1.9,0.6-4v-24.2c0-2.4-0.3-3.8-0.8-4.4c-0.7-0.8-1.8-1.2-3.2-1.2h-1.4v-1h13.7c3.4,0,6,0.3,7.9,1
		c1.9,0.7,3.6,1.9,4.9,3.5c1.3,1.6,2,3.6,2,5.8c0,3.1-1,5.6-3,7.5c-2,1.9-4.9,2.9-8.5,2.9c-0.9,0-1.9-0.1-3-0.2
		C444.6,1219.9,443.5,1219.7,442.3,1219.5z M442.3,1217.9c1,0.2,1.9,0.3,2.6,0.4c0.8,0.1,1.4,0.1,1.9,0.1c1.9,0,3.6-0.7,5-2.2
		c1.4-1.5,2.1-3.4,2.1-5.8c0-1.6-0.3-3.1-1-4.5c-0.7-1.4-1.6-2.4-2.8-3.1c-1.2-0.7-2.6-1-4.1-1c-0.9,0-2.1,0.2-3.6,0.5V1217.9z"/>
	<path class="st2" d="M468.2,1221.2c0,3.8,0.9,6.7,2.7,8.8c1.9,2.1,4,3.2,6.5,3.2c1.7,0,3.1-0.5,4.3-1.4c1.2-0.9,2.2-2.5,3.1-4.7
		l0.9,0.6c-0.4,2.5-1.5,4.8-3.4,6.9c-1.9,2.1-4.2,3.1-7,3.1c-3,0-5.6-1.2-7.8-3.6c-2.2-2.4-3.2-5.6-3.2-9.6c0-4.3,1.1-7.7,3.3-10.1
		c2.2-2.4,5-3.6,8.4-3.6c2.8,0,5.2,0.9,7,2.8c1.8,1.9,2.7,4.4,2.7,7.5H468.2z M468.2,1219.7h11.7c-0.1-1.6-0.3-2.8-0.6-3.4
		c-0.5-1-1.1-1.8-2.1-2.4c-0.9-0.6-1.9-0.9-2.8-0.9c-1.5,0-2.9,0.6-4.1,1.8C469.1,1215.9,468.4,1217.5,468.2,1219.7z"/>
	<path class="st2" d="M506.9,1234.2c-1.2,1.3-2.4,2.2-3.6,2.8c-1.2,0.6-2.4,0.9-3.8,0.9c-2.8,0-5.2-1.2-7.2-3.5
		c-2.1-2.3-3.1-5.3-3.1-8.9c0-3.6,1.1-7,3.4-10c2.3-3,5.2-4.5,8.8-4.5c2.2,0,4.1,0.7,5.5,2.1v-4.7c0-2.9-0.1-4.7-0.2-5.3
		c-0.1-0.7-0.3-1.1-0.6-1.4c-0.3-0.2-0.7-0.4-1.1-0.4c-0.5,0-1.1,0.1-1.9,0.4l-0.4-1l7.5-3.1h1.2v29.3c0,3,0.1,4.8,0.2,5.4
		c0.1,0.7,0.4,1.1,0.7,1.4c0.3,0.3,0.7,0.4,1.1,0.4c0.5,0,1.1-0.2,2-0.5l0.3,1l-7.5,3.1h-1.3V1234.2z M506.9,1232.2v-13
		c-0.1-1.3-0.4-2.4-1-3.4c-0.6-1-1.3-1.8-2.2-2.3c-0.9-0.5-1.8-0.8-2.7-0.8c-1.6,0-3.1,0.7-4.4,2.2c-1.7,1.9-2.5,4.7-2.5,8.4
		c0,3.7,0.8,6.6,2.4,8.6c1.6,2,3.4,3,5.4,3C503.7,1234.7,505.3,1233.9,506.9,1232.2z"/>
	<path class="st2" d="M524.7,1211v5.7c2.1-3.8,4.3-5.7,6.5-5.7c1,0,1.9,0.3,2.5,0.9c0.7,0.6,1,1.3,1,2.1c0,0.7-0.2,1.3-0.7,1.8
		c-0.5,0.5-1,0.7-1.7,0.7c-0.7,0-1.4-0.3-2.2-0.9c-0.8-0.6-1.4-0.9-1.7-0.9c-0.3,0-0.7,0.2-1.1,0.5c-0.8,0.8-1.7,2-2.6,3.7v12.1
		c0,1.4,0.2,2.4,0.5,3.2c0.2,0.5,0.6,0.9,1.3,1.3c0.6,0.3,1.5,0.5,2.6,0.5v1h-12.9v-1c1.3,0,2.2-0.2,2.8-0.6c0.5-0.3,0.8-0.8,1-1.4
		c0.1-0.3,0.1-1.2,0.1-2.7v-9.8c0-2.9-0.1-4.7-0.2-5.2c-0.1-0.6-0.3-1-0.7-1.2c-0.3-0.3-0.7-0.4-1.2-0.4c-0.6,0-1.2,0.1-1.9,0.4
		l-0.3-1l7.6-3.1H524.7z"/>
	<path class="st2" d="M550.5,1233.4c-2.6,2-4.2,3.1-4.9,3.5c-1,0.5-2.1,0.7-3.2,0.7c-1.7,0-3.2-0.6-4.3-1.8
		c-1.1-1.2-1.7-2.8-1.7-4.7c0-1.2,0.3-2.3,0.8-3.2c0.8-1.3,2.1-2.4,3.9-3.5c1.9-1.1,5-2.4,9.3-4v-1c0-2.5-0.4-4.2-1.2-5.2
		c-0.8-0.9-2-1.4-3.5-1.4c-1.1,0-2.1,0.3-2.7,0.9c-0.7,0.6-1.1,1.4-1.1,2.2l0.1,1.6c0,0.8-0.2,1.5-0.7,2c-0.4,0.5-1,0.7-1.7,0.7
		c-0.7,0-1.2-0.2-1.7-0.7c-0.4-0.5-0.7-1.1-0.7-2c0-1.6,0.8-3,2.4-4.4c1.6-1.3,3.9-2,6.8-2c2.2,0,4.1,0.4,5.5,1.1
		c1.1,0.6,1.9,1.5,2.4,2.7c0.3,0.8,0.5,2.4,0.5,4.9v8.6c0,2.4,0,3.9,0.1,4.4c0.1,0.5,0.2,0.9,0.5,1.1c0.2,0.2,0.5,0.3,0.7,0.3
		c0.3,0,0.5-0.1,0.8-0.2c0.4-0.2,1.1-0.9,2.3-2v1.5c-2.1,2.7-4.1,4.1-5.9,4.1c-0.9,0-1.6-0.3-2.1-0.9
		C550.8,1235.9,550.5,1234.9,550.5,1233.4z M550.5,1231.6v-9.6c-2.8,1.1-4.6,1.9-5.4,2.4c-1.4,0.8-2.5,1.6-3.1,2.5
		c-0.6,0.9-0.9,1.9-0.9,2.9c0,1.3,0.4,2.4,1.2,3.3c0.8,0.9,1.7,1.3,2.7,1.3C546.3,1234.3,548.2,1233.4,550.5,1231.6z"/>
	<path class="st2" d="M561.8,1222.2H576v4.2h-14.3V1222.2z"/>
	<path class="st2" d="M604.2,1198.7v13h-1c-0.3-2.5-0.9-4.5-1.8-5.9c-0.9-1.5-2.1-2.6-3.7-3.5c-1.6-0.9-3.2-1.3-4.9-1.3
		c-1.9,0-3.5,0.6-4.7,1.7c-1.3,1.2-1.9,2.5-1.9,4c0,1.1,0.4,2.2,1.2,3.1c1.1,1.4,3.9,3.2,8.1,5.5c3.5,1.9,5.9,3.3,7.2,4.3
		c1.3,1,2.3,2.2,2.9,3.5c0.7,1.4,1,2.8,1,4.3c0,2.8-1.1,5.3-3.3,7.3c-2.2,2.1-5,3.1-8.5,3.1c-1.1,0-2.1-0.1-3.1-0.2
		c-0.6-0.1-1.8-0.4-3.5-1c-1.8-0.6-2.9-0.9-3.4-0.9c-0.5,0-0.8,0.1-1.1,0.4c-0.3,0.3-0.5,0.8-0.6,1.7h-1V1225h1
		c0.5,2.7,1.1,4.7,1.9,6c0.8,1.3,2.1,2.4,3.7,3.3c1.7,0.9,3.5,1.3,5.5,1.3c2.3,0,4.1-0.6,5.4-1.8c1.3-1.2,2-2.7,2-4.3
		c0-0.9-0.3-1.8-0.8-2.8c-0.5-0.9-1.3-1.8-2.4-2.6c-0.7-0.5-2.7-1.7-5.9-3.5c-3.2-1.8-5.5-3.2-6.8-4.3c-1.4-1.1-2.4-2.3-3.1-3.5
		c-0.7-1.3-1-2.7-1-4.2c0-2.7,1-5,3.1-7c2.1-1.9,4.7-2.9,7.9-2.9c2,0,4.1,0.5,6.3,1.5c1,0.5,1.8,0.7,2.2,0.7c0.5,0,0.8-0.1,1.1-0.4
		c0.3-0.3,0.6-0.9,0.7-1.7H604.2z"/>
	<path class="st2" d="M625.8,1233.4c-2.6,2-4.2,3.1-4.9,3.5c-1,0.5-2.1,0.7-3.2,0.7c-1.7,0-3.2-0.6-4.3-1.8
		c-1.1-1.2-1.7-2.8-1.7-4.7c0-1.2,0.3-2.3,0.8-3.2c0.8-1.3,2.1-2.4,3.9-3.5c1.9-1.1,5-2.4,9.3-4v-1c0-2.5-0.4-4.2-1.2-5.2
		c-0.8-0.9-2-1.4-3.5-1.4c-1.1,0-2.1,0.3-2.7,0.9c-0.7,0.6-1.1,1.4-1.1,2.2l0.1,1.6c0,0.8-0.2,1.5-0.7,2c-0.4,0.5-1,0.7-1.7,0.7
		s-1.2-0.2-1.7-0.7c-0.4-0.5-0.7-1.1-0.7-2c0-1.6,0.8-3,2.4-4.4c1.6-1.3,3.9-2,6.8-2c2.2,0,4.1,0.4,5.5,1.1c1.1,0.6,1.9,1.5,2.4,2.7
		c0.3,0.8,0.5,2.4,0.5,4.9v8.6c0,2.4,0,3.9,0.1,4.4c0.1,0.5,0.2,0.9,0.5,1.1c0.2,0.2,0.5,0.3,0.7,0.3c0.3,0,0.5-0.1,0.8-0.2
		c0.4-0.2,1.1-0.9,2.3-2v1.5c-2.1,2.7-4.1,4.1-5.9,4.1c-0.9,0-1.6-0.3-2.1-0.9C626.2,1235.9,625.9,1234.9,625.8,1233.4z
		 M625.8,1231.6v-9.6c-2.8,1.1-4.6,1.9-5.4,2.4c-1.4,0.8-2.5,1.6-3.1,2.5c-0.6,0.9-0.9,1.9-0.9,2.9c0,1.3,0.4,2.4,1.2,3.3
		c0.8,0.9,1.7,1.3,2.7,1.3C621.7,1234.3,623.6,1233.4,625.8,1231.6z"/>
	<path class="st2" d="M644,1216.3c3-3.6,5.8-5.4,8.5-5.4c1.4,0,2.6,0.3,3.6,1c1,0.7,1.8,1.8,2.4,3.4c0.4,1.1,0.6,2.8,0.6,5.1v10.8
		c0,1.6,0.1,2.7,0.4,3.3c0.2,0.5,0.5,0.8,1,1.1s1.3,0.4,2.5,0.4v1h-12.5v-1h0.5c1.2,0,2-0.2,2.5-0.5c0.5-0.4,0.8-0.9,1-1.6
		c0.1-0.3,0.1-1.1,0.1-2.6v-10.4c0-2.3-0.3-3.9-0.9-5c-0.6-1-1.6-1.6-3-1.6c-2.2,0-4.4,1.2-6.6,3.6v13.3c0,1.7,0.1,2.8,0.3,3.2
		c0.3,0.5,0.6,0.9,1.1,1.2c0.4,0.3,1.4,0.4,2.7,0.4v1h-12.5v-1h0.5c1.3,0,2.2-0.3,2.6-1c0.5-0.7,0.7-1.9,0.7-3.8v-9.4
		c0-3-0.1-4.9-0.2-5.6c-0.1-0.7-0.3-1.1-0.6-1.4c-0.3-0.2-0.7-0.4-1.1-0.4c-0.5,0-1.1,0.1-1.9,0.4l-0.4-1l7.6-3.1h1.2V1216.3z"/>
	<path class="st2" d="M672.3,1203.4v8.3h5.9v1.9h-5.9v16.4c0,1.6,0.2,2.8,0.7,3.3c0.5,0.6,1.1,0.9,1.8,0.9c0.6,0,1.2-0.2,1.7-0.6
		c0.6-0.4,1-0.9,1.3-1.7h1.1c-0.6,1.8-1.6,3.2-2.7,4.1c-1.2,0.9-2.4,1.4-3.6,1.4c-0.9,0-1.7-0.2-2.5-0.7c-0.8-0.5-1.4-1.1-1.8-2
		c-0.4-0.9-0.6-2.2-0.6-4v-17h-4v-0.9c1-0.4,2-1.1,3.1-2c1.1-1,2-2.1,2.8-3.4c0.4-0.7,1-2,1.8-3.8H672.3z"/>
	<path class="st2" d="M694.9,1233.4c-2.6,2-4.2,3.1-4.9,3.5c-1,0.5-2.1,0.7-3.2,0.7c-1.7,0-3.2-0.6-4.3-1.8
		c-1.1-1.2-1.7-2.8-1.7-4.7c0-1.2,0.3-2.3,0.8-3.2c0.8-1.3,2.1-2.4,3.9-3.5c1.9-1.1,5-2.4,9.3-4v-1c0-2.5-0.4-4.2-1.2-5.2
		c-0.8-0.9-2-1.4-3.5-1.4c-1.1,0-2.1,0.3-2.7,0.9c-0.7,0.6-1.1,1.4-1.1,2.2l0.1,1.6c0,0.8-0.2,1.5-0.7,2c-0.4,0.5-1,0.7-1.7,0.7
		s-1.2-0.2-1.7-0.7c-0.4-0.5-0.7-1.1-0.7-2c0-1.6,0.8-3,2.4-4.4c1.6-1.3,3.9-2,6.8-2c2.2,0,4.1,0.4,5.5,1.1c1.1,0.6,1.9,1.5,2.4,2.7
		c0.3,0.8,0.5,2.4,0.5,4.9v8.6c0,2.4,0,3.9,0.1,4.4c0.1,0.5,0.2,0.9,0.5,1.1c0.2,0.2,0.5,0.3,0.7,0.3c0.3,0,0.5-0.1,0.8-0.2
		c0.4-0.2,1.1-0.9,2.3-2v1.5c-2.1,2.7-4.1,4.1-5.9,4.1c-0.9,0-1.6-0.3-2.1-0.9C695.2,1235.9,694.9,1234.9,694.9,1233.4z
		 M694.9,1231.6v-9.6c-2.8,1.1-4.6,1.9-5.4,2.4c-1.4,0.8-2.5,1.6-3.1,2.5c-0.6,0.9-0.9,1.9-0.9,2.9c0,1.3,0.4,2.4,1.2,3.3
		c0.8,0.9,1.7,1.3,2.7,1.3C690.8,1234.3,692.6,1233.4,694.9,1231.6z"/>
	<path class="st2" d="M707,1246.4v-1.2c1.9-0.6,3.3-1.6,4.4-2.9c1-1.3,1.6-2.7,1.6-4.2c0-0.3-0.1-0.6-0.2-0.9
		c-0.1-0.2-0.2-0.2-0.4-0.2c-0.2,0-0.7,0.2-1.3,0.5c-0.3,0.2-0.7,0.3-1,0.3c-0.9,0-1.6-0.3-2.2-0.8c-0.5-0.5-0.8-1.3-0.8-2.2
		c0-0.9,0.3-1.7,1-2.3c0.7-0.6,1.5-1,2.5-1c1.2,0,2.3,0.5,3.3,1.6c0.9,1.1,1.4,2.5,1.4,4.2c0,1.9-0.7,3.7-2,5.3
		C711.9,1244.2,709.8,1245.5,707,1246.4z"/>
	<path class="st2" d="M758.3,1217.9c2.6,0.5,4.5,1.4,5.8,2.6c1.8,1.7,2.7,3.8,2.7,6.2c0,1.9-0.6,3.7-1.8,5.4
		c-1.2,1.7-2.8,2.9-4.8,3.7c-2,0.8-5.2,1.2-9.4,1.2h-17.7v-1h1.4c1.6,0,2.7-0.5,3.4-1.5c0.4-0.6,0.6-2,0.6-4.1v-24.2
		c0-2.3-0.3-3.8-0.8-4.4c-0.7-0.8-1.8-1.2-3.2-1.2h-1.4v-1h16.2c3,0,5.4,0.2,7.3,0.7c2.8,0.7,4.9,1.8,6.3,3.5
		c1.5,1.7,2.2,3.6,2.2,5.8c0,1.9-0.6,3.6-1.7,5C762.2,1216.1,760.6,1217.2,758.3,1217.9z M743.9,1216.4c0.7,0.1,1.4,0.2,2.3,0.3
		c0.9,0.1,1.8,0.1,2.9,0.1c2.7,0,4.7-0.3,6.1-0.9c1.4-0.6,2.4-1.5,3.1-2.7c0.7-1.2,1.1-2.5,1.1-3.9c0-2.2-0.9-4-2.7-5.6
		c-1.8-1.6-4.4-2.3-7.8-2.3c-1.9,0-3.5,0.2-5,0.6V1216.4z M743.9,1234.3c2.1,0.5,4.2,0.8,6.3,0.8c3.3,0,5.9-0.7,7.6-2.2
		c1.7-1.5,2.6-3.4,2.6-5.6c0-1.5-0.4-2.9-1.2-4.2c-0.8-1.3-2.1-2.4-3.9-3.2c-1.8-0.8-4-1.2-6.6-1.2c-1.1,0-2.1,0-2.9,0.1
		c-0.8,0-1.5,0.1-1.9,0.2V1234.3z"/>
	<path class="st2" d="M786,1233.4c-2.6,2-4.2,3.1-4.9,3.5c-1,0.5-2.1,0.7-3.2,0.7c-1.7,0-3.2-0.6-4.3-1.8c-1.1-1.2-1.7-2.8-1.7-4.7
		c0-1.2,0.3-2.3,0.8-3.2c0.8-1.3,2.1-2.4,3.9-3.5c1.9-1.1,5-2.4,9.3-4v-1c0-2.5-0.4-4.2-1.2-5.2c-0.8-0.9-2-1.4-3.5-1.4
		c-1.1,0-2.1,0.3-2.7,0.9c-0.7,0.6-1.1,1.4-1.1,2.2l0.1,1.6c0,0.8-0.2,1.5-0.7,2c-0.4,0.5-1,0.7-1.7,0.7s-1.2-0.2-1.7-0.7
		c-0.4-0.5-0.7-1.1-0.7-2c0-1.6,0.8-3,2.4-4.4c1.6-1.3,3.9-2,6.8-2c2.2,0,4.1,0.4,5.5,1.1c1.1,0.6,1.9,1.5,2.4,2.7
		c0.3,0.8,0.5,2.4,0.5,4.9v8.6c0,2.4,0,3.9,0.1,4.4c0.1,0.5,0.2,0.9,0.5,1.1c0.2,0.2,0.5,0.3,0.7,0.3c0.3,0,0.5-0.1,0.8-0.2
		c0.4-0.2,1.1-0.9,2.3-2v1.5c-2.1,2.7-4.1,4.1-5.9,4.1c-0.9,0-1.6-0.3-2.1-0.9C786.3,1235.9,786,1234.9,786,1233.4z M786,1231.6
		v-9.6c-2.8,1.1-4.6,1.9-5.4,2.4c-1.4,0.8-2.5,1.6-3.1,2.5c-0.6,0.9-0.9,1.9-0.9,2.9c0,1.3,0.4,2.4,1.2,3.3c0.8,0.9,1.7,1.3,2.7,1.3
		C781.9,1234.3,783.7,1233.4,786,1231.6z"/>
	<path class="st2" d="M804.2,1211v5.7c2.1-3.8,4.3-5.7,6.5-5.7c1,0,1.9,0.3,2.5,0.9s1,1.3,1,2.1c0,0.7-0.2,1.3-0.7,1.8
		c-0.5,0.5-1,0.7-1.7,0.7s-1.4-0.3-2.2-0.9c-0.8-0.6-1.4-0.9-1.7-0.9c-0.3,0-0.7,0.2-1.1,0.5c-0.8,0.8-1.7,2-2.6,3.7v12.1
		c0,1.4,0.2,2.4,0.5,3.2c0.2,0.5,0.6,0.9,1.3,1.3c0.6,0.3,1.5,0.5,2.6,0.5v1h-12.9v-1c1.3,0,2.2-0.2,2.8-0.6c0.5-0.3,0.8-0.8,1-1.4
		c0.1-0.3,0.1-1.2,0.1-2.7v-9.8c0-2.9-0.1-4.7-0.2-5.2c-0.1-0.6-0.3-1-0.7-1.2c-0.3-0.3-0.7-0.4-1.2-0.4c-0.6,0-1.2,0.1-1.9,0.4
		l-0.3-1l7.6-3.1H804.2z"/>
	<path class="st2" d="M837.1,1227.4c-0.7,3.3-2,5.9-4,7.7c-2,1.8-4.2,2.7-6.6,2.7c-2.9,0-5.4-1.2-7.5-3.6c-2.1-2.4-3.2-5.7-3.2-9.8
		c0-4,1.2-7.2,3.5-9.7c2.4-2.5,5.2-3.7,8.5-3.7c2.5,0,4.5,0.7,6.1,2c1.6,1.3,2.4,2.7,2.4,4.1c0,0.7-0.2,1.3-0.7,1.7
		c-0.5,0.4-1.1,0.6-1.9,0.6c-1.1,0-1.9-0.3-2.5-1c-0.3-0.4-0.5-1.1-0.6-2.2c-0.1-1.1-0.5-1.9-1.1-2.5c-0.7-0.5-1.6-0.8-2.7-0.8
		c-1.9,0-3.3,0.7-4.5,2c-1.5,1.8-2.2,4.2-2.2,7.2c0,3,0.7,5.7,2.2,8c1.5,2.3,3.5,3.5,6,3.5c1.8,0,3.4-0.6,4.8-1.9c1-0.8,2-2.4,3-4.6
		L837.1,1227.4z"/>
	<path class="st2" d="M845,1221.2c0,3.8,0.9,6.7,2.7,8.8c1.9,2.1,4,3.2,6.5,3.2c1.7,0,3.1-0.5,4.3-1.4c1.2-0.9,2.2-2.5,3.1-4.7
		l0.9,0.6c-0.4,2.5-1.5,4.8-3.4,6.9c-1.9,2.1-4.2,3.1-7,3.1c-3,0-5.6-1.2-7.8-3.6c-2.2-2.4-3.2-5.6-3.2-9.6c0-4.3,1.1-7.7,3.3-10.1
		c2.2-2.4,5-3.6,8.4-3.6c2.8,0,5.2,0.9,7,2.8c1.8,1.9,2.7,4.4,2.7,7.5H845z M845,1219.7h11.7c-0.1-1.6-0.3-2.8-0.6-3.4
		c-0.5-1-1.1-1.8-2.1-2.4c-0.9-0.6-1.9-0.9-2.8-0.9c-1.5,0-2.9,0.6-4.1,1.8C845.9,1215.9,845.2,1217.5,845,1219.7z"/>
	<path class="st2" d="M874.6,1197.7v33.5c0,1.6,0.1,2.7,0.3,3.2c0.2,0.5,0.6,0.9,1.1,1.2c0.5,0.3,1.4,0.4,2.7,0.4v1h-12.4v-1
		c1.2,0,2-0.1,2.4-0.4c0.4-0.2,0.7-0.6,1-1.2c0.2-0.5,0.3-1.6,0.3-3.2v-22.9c0-2.9-0.1-4.6-0.2-5.3c-0.1-0.7-0.3-1.1-0.6-1.3
		c-0.3-0.2-0.6-0.4-1.1-0.4c-0.5,0-1.1,0.1-1.8,0.4l-0.5-1l7.5-3.1H874.6z"/>
	<path class="st2" d="M893.9,1211c3.8,0,6.9,1.5,9.2,4.4c2,2.5,3,5.4,3,8.6c0,2.3-0.5,4.5-1.6,6.9c-1.1,2.3-2.6,4.1-4.5,5.2
		c-1.9,1.2-4,1.8-6.4,1.8c-3.8,0-6.8-1.5-9.1-4.6c-1.9-2.6-2.8-5.4-2.8-8.6c0-2.3,0.6-4.6,1.7-6.9c1.1-2.3,2.7-4,4.5-5.1
		C889.8,1211.5,891.8,1211,893.9,1211z M893.1,1212.8c-1,0-1.9,0.3-2.9,0.9c-1,0.6-1.8,1.6-2.4,3.1c-0.6,1.5-0.9,3.3-0.9,5.6
		c0,3.7,0.7,6.9,2.2,9.5c1.5,2.7,3.4,4,5.8,4c1.8,0,3.3-0.7,4.4-2.2c1.2-1.5,1.7-4,1.7-7.6c0-4.5-1-8-2.9-10.6
		C896.8,1213.6,895.1,1212.8,893.1,1212.8z"/>
	<path class="st2" d="M917.2,1216.3c3-3.6,5.8-5.4,8.5-5.4c1.4,0,2.6,0.3,3.5,1c1,0.7,1.8,1.8,2.4,3.4c0.4,1.1,0.6,2.8,0.6,5.1v10.8
		c0,1.6,0.1,2.7,0.4,3.3c0.2,0.5,0.5,0.8,1,1.1c0.4,0.3,1.3,0.4,2.5,0.4v1h-12.5v-1h0.5c1.2,0,2-0.2,2.5-0.5c0.5-0.4,0.8-0.9,1-1.6
		c0.1-0.3,0.1-1.1,0.1-2.6v-10.4c0-2.3-0.3-3.9-0.9-5s-1.6-1.6-3-1.6c-2.2,0-4.4,1.2-6.6,3.6v13.3c0,1.7,0.1,2.8,0.3,3.2
		c0.3,0.5,0.6,0.9,1.1,1.2c0.4,0.3,1.4,0.4,2.7,0.4v1h-12.5v-1h0.5c1.3,0,2.1-0.3,2.6-1c0.5-0.7,0.7-1.9,0.7-3.8v-9.4
		c0-3-0.1-4.9-0.2-5.6c-0.1-0.7-0.3-1.1-0.6-1.4c-0.3-0.2-0.7-0.4-1.1-0.4c-0.5,0-1.1,0.1-1.9,0.4l-0.4-1l7.6-3.1h1.2V1216.3z"/>
	<path class="st2" d="M952.4,1233.4c-2.6,2-4.2,3.1-4.9,3.5c-1,0.5-2.1,0.7-3.2,0.7c-1.7,0-3.2-0.6-4.3-1.8
		c-1.1-1.2-1.7-2.8-1.7-4.7c0-1.2,0.3-2.3,0.8-3.2c0.8-1.3,2.1-2.4,3.9-3.5c1.9-1.1,5-2.4,9.3-4v-1c0-2.5-0.4-4.2-1.2-5.2
		c-0.8-0.9-2-1.4-3.5-1.4c-1.1,0-2.1,0.3-2.7,0.9c-0.7,0.6-1.1,1.4-1.1,2.2l0.1,1.6c0,0.8-0.2,1.5-0.7,2c-0.4,0.5-1,0.7-1.7,0.7
		c-0.7,0-1.2-0.2-1.7-0.7c-0.4-0.5-0.7-1.1-0.7-2c0-1.6,0.8-3,2.4-4.4c1.6-1.3,3.9-2,6.8-2c2.2,0,4.1,0.4,5.5,1.1
		c1.1,0.6,1.9,1.5,2.4,2.7c0.3,0.8,0.5,2.4,0.5,4.9v8.6c0,2.4,0,3.9,0.1,4.4c0.1,0.5,0.2,0.9,0.5,1.1c0.2,0.2,0.5,0.3,0.7,0.3
		c0.3,0,0.5-0.1,0.8-0.2c0.4-0.2,1.1-0.9,2.3-2v1.5c-2.1,2.7-4.1,4.1-5.9,4.1c-0.9,0-1.6-0.3-2.1-0.9
		C952.7,1235.9,952.4,1234.9,952.4,1233.4z M952.4,1231.6v-9.6c-2.8,1.1-4.6,1.9-5.4,2.4c-1.4,0.8-2.5,1.6-3.1,2.5
		c-0.6,0.9-0.9,1.9-0.9,2.9c0,1.3,0.4,2.4,1.2,3.3c0.8,0.9,1.7,1.3,2.7,1.3C948.3,1234.3,950.1,1233.4,952.4,1231.6z"/>
</g>
</svg>
