<?xml version="1.0" encoding="utf-8"?>
<!-- Generator: Adobe Illustrator 25.4.1, SVG Export Plug-In . SVG Version: 6.00 Build 0)  -->
<svg version="1.1" id="Capa_1" xmlns="http://www.w3.org/2000/svg" xmlns:xlink="http://www.w3.org/1999/xlink" x="0px" y="0px"
	 viewBox="0 0 1242 2208" style="enable-background:new 0 0 1242 2208;" xml:space="preserve">
<style type="text/css">
	.st0{display:none;}
	.st1{display:inline;}
	.st2{fill:#FFFFFF;}
	.st3{display:inline;enable-background:new    ;}
	.st4{enable-background:new    ;}
</style>
<g id="_x31_5_años" class="st0">
	<g class="st1">
		<path class="st2" d="M516.5,1090c69.7,0,139.3,0,209,0c0,95,0,190,0,285.1c-69.7,0-139.3,0-209,0
			C516.5,1280,516.5,1185,516.5,1090z M611.7,1205.4c0-0.8,0-1.5,0-2.2c0-13.4,0-26.8,0-40.2c0-4.2-1.2-7.9-3.8-11.2
			c-4.4-5.3-10-7.8-16.8-6.4c-9,1.8-14.3,8.7-14.3,17.9c0,21.2,0,42.4,0,63.6c0,1.2-0.3,1.9-1.3,2.6c-3.7,2.3-7.3,4.8-10.9,7.2
			c-11,7.6-16.3,18-15,31.3c0.7,7.2,3.2,13.9,5.8,20.6c6.7,17.3,16.5,32.6,29.6,45.9c0.5,0.6,0.9,1.5,0.9,2.3c0.1,5.7,0,11.3,0,17
			c0,3.4,1.4,4.8,4.8,4.8c8,0,16,0,24,0c18.8,0,37.6,0,56.4,0c3.5,0,4.8-1.3,4.8-4.7c0-5.8,0-11.6,0-17.3c0-0.9,0.3-2,0.8-2.8
			c11-17.5,16.9-36.5,17.4-57.2c0.3-11.6,0.1-23.2,0.1-34.8c0-2.3,0.1-4.6-0.3-6.9c-1.7-9.4-10.4-15.5-19.8-13.8
			c-2.7,0.5-5.3,1.7-8.1,2.6c-1.8-5.2-5.4-9.3-11.1-11.2c-5.7-1.9-11.2-0.9-16.1,2.4C632.2,1202.6,625.1,1200,611.7,1205.4z
			 M549.3,1109.5c-1.7,0.2-2.9,1-3.5,2.4c-0.7,1.5-0.5,3,0.7,4.2c6.8,6.9,13.7,13.7,20.6,20.5c1.7,1.7,3.9,1.6,5.4,0
			c1.5-1.5,1.4-3.8-0.3-5.4c-6.7-6.7-13.5-13.5-20.2-20.1C551.2,1110.3,550.2,1110,549.3,1109.5z M640.1,1109.5
			c-0.9,0.4-1.9,0.7-2.6,1.4c-6.9,6.8-13.8,13.6-20.6,20.5c-1,1.1-1.5,2.3-0.9,3.8c1.1,2.8,4.1,3.3,6.4,1.1c4.3-4.3,8.7-8.6,13-12.9
			c2.5-2.4,4.9-4.9,7.4-7.4c1.2-1.2,1.4-2.7,0.8-4.2C643,1110.5,641.8,1109.8,640.1,1109.5z M598.3,1115.2c0-2.9,0-5.8,0-8.7
			c0-2.4-1.5-4-3.6-4c-2.1-0.1-3.8,1.7-3.8,4c0,5.8,0,11.7,0,17.5c0,2.4,1.7,4,3.8,4s3.6-1.6,3.6-4
			C598.3,1121.1,598.3,1118.2,598.3,1115.2z M548.8,1162.4c2.9,0,5.8,0,8.7,0c2.4,0,4-1.4,4.1-3.5c0.1-2.2-1.5-3.9-3.9-3.9
			c-5.9-0.1-11.8-0.1-17.6,0c-2.4,0-4.1,1.8-4,3.9s1.7,3.5,4.1,3.5C543,1162.5,545.9,1162.4,548.8,1162.4z M640.3,1162.4
			c3,0,6.1,0,9.1,0c2.2,0,3.7-1.4,3.8-3.4c0.1-2.1-1.3-3.9-3.5-3.9c-6.1-0.1-12.2-0.1-18.3,0c-2.2,0-3.8,1.9-3.7,3.8
			c0.1,2.1,1.6,3.5,3.9,3.5C634.5,1162.5,637.4,1162.4,640.3,1162.4z"/>
		<path d="M611.7,1205.4c13.4-5.4,20.4-2.9,27,9.7c5-3.4,10.4-4.4,16.1-2.4c5.7,1.9,9.3,6,11.1,11.2c2.8-0.9,5.4-2.1,8.1-2.6
			c9.3-1.7,18,4.4,19.8,13.8c0.4,2.2,0.3,4.6,0.3,6.9c0,11.6,0.2,23.2-0.1,34.8c-0.5,20.6-6.4,39.7-17.4,57.2
			c-0.5,0.8-0.8,1.9-0.8,2.8c-0.1,5.8,0,11.6,0,17.3c0,3.4-1.4,4.7-4.8,4.7c-18.8,0-37.6,0-56.4,0c-8,0-16,0-24,0
			c-3.4,0-4.8-1.4-4.8-4.8c0-5.7,0-11.3,0-17c0-0.8-0.4-1.8-0.9-2.3c-13-13.2-22.9-28.5-29.6-45.9c-2.6-6.7-5.1-13.5-5.8-20.6
			c-1.3-13.3,3.9-23.8,15-31.3c3.6-2.5,7.2-4.9,10.9-7.2c1-0.7,1.3-1.4,1.3-2.6c0-21.2,0-42.4,0-63.6c0-9.2,5.3-16.1,14.3-17.9
			c6.8-1.4,12.4,1.1,16.8,6.4c2.7,3.2,3.8,7,3.8,11.2c0,13.4,0,26.8,0,40.2C611.7,1203.9,611.7,1204.6,611.7,1205.4z M576.7,1237.6
			c-3.4,2.3-6.7,4.3-9.7,6.5c-6.4,4.8-9.8,11.2-10.3,19.2c-0.3,5,1.2,9.6,2.7,14.3c6.2,20.5,17,38.2,32.3,53.2
			c1.2,1.2,1.7,2.4,1.7,4c0,4.8,0.1,9.7-0.1,14.5c0,1.7,0.4,2.2,2.1,2.2c21.7-0.1,43.4,0,65.1,0c2.6,0,5.1,0,7.8,0
			c0-5.6-0.1-10.9,0.1-16.2c0-1.4,0.5-2.9,1.2-4.1c10.3-15.9,16.2-33.3,16.8-52.2c0.5-13.6,0.3-27.1,0.2-40.7c0-6-4.9-9.6-8.8-9.8
			c-6.9-0.4-11.2,3.9-11.2,10.8c0,4.2,0,8.4,0,12.6c0,2.5-1.7,4-4.1,3.8c-2-0.2-3.3-1.7-3.3-4.1c0-7.3,0-14.6,0-21.9
			c0-1.1-0.1-2.1-0.4-3.1c-1.2-4.7-5.7-7.7-10.7-7.3c-4.6,0.4-8.4,4.3-8.8,9c-0.1,1.6-0.1,3.2-0.1,4.9c0,6.1,0,12.1,0,18.2
			c0,2.9-1.6,4.5-4.1,4.4c-2.1-0.2-3.4-1.7-3.4-4.4c0-10.2,0-20.3,0-30.4c0-2.2-0.4-4.3-1.6-6.2c-2.6-3.9-7-5.3-11.7-3.9
			c-3.8,1.2-6.6,5.1-6.7,9.5c0,9.7,0,19.3,0,28.9c0,1.1,0.1,2.2-0.1,3.4c-0.2,1.9-1.8,3.2-3.7,3.2c-2,0-3.5-1.4-3.7-3.4
			c0-0.5,0-1,0-1.5c0-20.8,0-41.5,0-62.2c0-8.5-0.1-17.1,0-25.6c0.1-6.5-5.3-10.9-10.8-10.3c-5.4,0.5-9.3,4.8-9.3,10.5
			c0,23.8,0,47.7,0,71.5c0,11.7,0,23.3,0,35c0,1-0.2,2-0.7,2.8c-0.8,1.3-2.6,1.8-4.2,1.3c-1.5-0.5-2.5-1.9-2.5-3.8
			c0-6.7,0-13.5,0-20.2C576.7,1245.8,576.7,1241.9,576.7,1237.6z"/>
		<path d="M549.3,1109.5c0.9,0.5,1.9,0.8,2.6,1.5c6.8,6.7,13.5,13.4,20.2,20.1c1.6,1.6,1.7,3.9,0.3,5.4c-1.5,1.6-3.7,1.6-5.4,0
			c-6.9-6.8-13.7-13.7-20.6-20.5c-1.2-1.2-1.4-2.6-0.7-4.2C546.4,1110.4,547.5,1109.7,549.3,1109.5z"/>
		<path d="M640.1,1109.5c1.7,0.2,2.9,0.9,3.5,2.4s0.5,3-0.8,4.2c-2.5,2.5-4.9,4.9-7.4,7.4c-4.3,4.3-8.6,8.6-13,12.9
			c-2.2,2.2-5.3,1.7-6.4-1.1c-0.6-1.5-0.2-2.8,0.9-3.8c6.8-6.9,13.7-13.7,20.6-20.5C638.2,1110.2,639.2,1110,640.1,1109.5z"/>
		<path d="M598.3,1115.2c0,2.9,0,5.8,0,8.7c0,2.4-1.5,4-3.6,4c-2.2,0-3.8-1.6-3.8-4c0-5.8,0-11.7,0-17.5c0-2.4,1.7-4.1,3.8-4
			s3.6,1.6,3.6,4C598.3,1109.4,598.3,1112.3,598.3,1115.2z"/>
		<path d="M548.8,1162.4c-2.9,0-5.8,0-8.7,0c-2.4,0-4-1.4-4.1-3.5s1.6-3.8,4-3.9c5.9-0.1,11.8-0.1,17.6,0c2.4,0,4,1.7,3.9,3.9
			c-0.1,2.1-1.6,3.5-4.1,3.5C554.7,1162.5,551.8,1162.4,548.8,1162.4z"/>
		<path d="M640.3,1162.4c-2.9,0-5.8,0-8.8,0c-2.3,0-3.8-1.4-3.9-3.5c-0.1-2,1.5-3.8,3.7-3.8c6.1-0.1,12.2-0.1,18.3,0
			c2.2,0,3.6,1.8,3.5,3.9s-1.5,3.4-3.8,3.4C646.4,1162.5,643.3,1162.4,640.3,1162.4z"/>
		<path class="st2" d="M576.7,1237.6c0,4.3,0,8.2,0,12.1c0,6.7,0,13.5,0,20.2c0,1.9,1,3.3,2.5,3.8c1.6,0.5,3.4,0.1,4.2-1.3
			c0.5-0.8,0.7-1.9,0.7-2.8c0-11.7,0-23.3,0-35c0-23.8,0-47.7,0-71.5c0-5.7,3.9-10,9.3-10.5c5.5-0.5,10.9,3.8,10.8,10.3
			c-0.1,8.5,0,17.1,0,25.6c0,20.8,0,41.5,0,62.2c0,0.5,0,1,0,1.5c0.2,2,1.7,3.4,3.7,3.4c1.9,0,3.5-1.3,3.7-3.2
			c0.1-1.1,0.1-2.2,0.1-3.4c0-9.7,0-19.3,0-28.9c0-4.4,2.8-8.3,6.7-9.5c4.7-1.4,9.1,0.1,11.7,3.9c1.3,1.9,1.7,4,1.6,6.2
			c0,10.2,0,20.3,0,30.4c0,2.7,1.3,4.2,3.4,4.4c2.5,0.2,4.1-1.5,4.1-4.4c0-6.1,0-12.1,0-18.2c0-1.6,0-3.3,0.1-4.9
			c0.3-4.7,4.1-8.5,8.8-9c5-0.5,9.5,2.6,10.7,7.3c0.3,1,0.4,2.1,0.4,3.1c0,7.3,0,14.6,0,21.9c0,2.4,1.3,3.9,3.3,4.1
			c2.4,0.2,4.1-1.4,4.1-3.8c0-4.2,0-8.4,0-12.6c0-6.9,4.3-11.2,11.2-10.8c4,0.2,8.8,3.9,8.8,9.8c0.1,13.6,0.2,27.2-0.2,40.7
			c-0.6,18.9-6.6,36.3-16.8,52.2c-0.7,1.2-1.2,2.7-1.2,4.1c-0.1,5.3-0.1,10.6-0.1,16.2c-2.7,0-5.3,0-7.8,0c-21.7,0-43.4,0-65.1,0
			c-1.7,0-2.2-0.5-2.1-2.2c0.1-4.8,0-9.7,0.1-14.5c0-1.6-0.5-2.9-1.7-4c-15.2-15-26-32.7-32.3-53.2c-1.4-4.7-3-9.3-2.7-14.3
			c0.5-7.9,3.9-14.4,10.3-19.2C570.1,1241.9,573.3,1239.9,576.7,1237.6z"/>
	</g>
	<g class="st3">
		<path d="M286,1498.3v-35.8h4.7v14.7h18.6v-14.7h4.7v35.8h-4.7v-16.9h-18.6v16.9H286z"/>
		<path d="M338.3,1495.2c-1.6,1.4-3.2,2.4-4.7,2.9c-1.5,0.6-3.1,0.8-4.9,0.8c-2.9,0-5-0.7-6.6-2.1s-2.3-3.2-2.3-5.3
			c0-1.3,0.3-2.4,0.9-3.5s1.3-1.9,2.3-2.5c0.9-0.6,2-1.1,3.2-1.4c0.9-0.2,2.2-0.4,3.9-0.7c3.5-0.4,6.2-0.9,7.8-1.5c0-0.6,0-1,0-1.2
			c0-1.8-0.4-3.1-1.2-3.8c-1.1-1-2.8-1.5-5-1.5c-2.1,0-3.6,0.4-4.6,1.1s-1.7,2-2.2,3.8l-4.3-0.6c0.4-1.8,1-3.3,1.9-4.5
			c0.9-1.1,2.2-2,3.9-2.6s3.6-0.9,5.9-0.9c2.2,0,4,0.3,5.4,0.8s2.4,1.2,3,2s1.1,1.8,1.4,3c0.1,0.8,0.2,2.1,0.2,4.1v5.9
			c0,4.1,0.1,6.7,0.3,7.8s0.6,2.1,1.1,3.1h-4.6C338.7,1497.4,338.4,1496.4,338.3,1495.2z M337.9,1485.3c-1.6,0.7-4,1.2-7.2,1.7
			c-1.8,0.3-3.1,0.6-3.8,0.9s-1.3,0.8-1.7,1.4c-0.4,0.6-0.6,1.3-0.6,2.1c0,1.2,0.4,2.2,1.3,2.9c0.9,0.8,2.2,1.2,3.9,1.2
			c1.7,0,3.2-0.4,4.5-1.1s2.3-1.8,2.9-3c0.5-1,0.7-2.5,0.7-4.4L337.9,1485.3L337.9,1485.3z"/>
		<path d="M346.9,1498.3v-3.6l16.5-18.9c-1.9,0.1-3.5,0.2-5,0.2h-10.6v-3.6H369v2.9l-14,16.5l-2.7,3c2-0.2,3.8-0.2,5.5-0.2h12v3.8
			L346.9,1498.3L346.9,1498.3z"/>
		<path d="M405,1488.8l4.3,0.6c-0.5,3-1.7,5.3-3.6,7c-2,1.7-4.3,2.5-7.2,2.5c-3.5,0-6.4-1.2-8.6-3.5s-3.2-5.6-3.2-10
			c0-2.8,0.5-5.2,1.4-7.3s2.3-3.7,4.2-4.7c1.9-1.1,4-1.6,6.2-1.6c2.8,0,5.1,0.7,6.9,2.1s2.9,3.4,3.4,6.1l-4.3,0.7
			c-0.4-1.7-1.1-3.1-2.2-3.9s-2.3-1.3-3.8-1.3c-2.2,0-4,0.8-5.4,2.4s-2.1,4.1-2.1,7.5c0,3.5,0.7,6,2,7.6s3.1,2.4,5.2,2.4
			c1.7,0,3.2-0.5,4.3-1.6C403.9,1492.7,404.7,1491.1,405,1488.8z"/>
		<path d="M413,1498.3v-35.8h4.4v35.8H413z"/>
		<path d="M424.2,1467.6v-5.1h4.4v5.1H424.2z M424.2,1498.3v-25.9h4.4v25.9H424.2z"/>
		<path d="M452.2,1488.8l4.3,0.6c-0.5,3-1.7,5.3-3.6,7c-2,1.7-4.3,2.5-7.2,2.5c-3.5,0-6.4-1.2-8.6-3.5s-3.2-5.6-3.2-10
			c0-2.8,0.5-5.2,1.4-7.3s2.3-3.7,4.2-4.7c1.9-1.1,4-1.6,6.2-1.6c2.8,0,5.1,0.7,6.9,2.1s2.9,3.4,3.4,6.1l-4.3,0.7
			c-0.4-1.7-1.1-3.1-2.2-3.9s-2.3-1.3-3.8-1.3c-2.2,0-4,0.8-5.4,2.4s-2.1,4.1-2.1,7.5c0,3.5,0.7,6,2,7.6s3.1,2.4,5.2,2.4
			c1.7,0,3.2-0.5,4.3-1.6C451.2,1492.7,451.9,1491.1,452.2,1488.8z"/>
		<path d="M460.3,1498.3v-35.8h4.4v20.4l10.4-10.6h5.7l-9.9,9.6l10.9,16.3h-5.4l-8.6-13.3l-3.1,3v10.3L460.3,1498.3L460.3,1498.3z"
			/>
		<path d="M499,1508.3l-0.5-4.1c1,0.3,1.8,0.4,2.5,0.4c1,0,1.8-0.2,2.3-0.5c0.6-0.3,1.1-0.8,1.4-1.4c0.3-0.4,0.7-1.5,1.3-3.3
			c0.1-0.2,0.2-0.6,0.4-1.1l-9.8-26h4.7l5.4,15c0.7,1.9,1.3,3.9,1.9,6c0.5-2,1.1-4,1.8-5.9l5.5-15.1h4.4l-9.9,26.4
			c-1.1,2.8-1.9,4.8-2.5,5.9c-0.8,1.4-1.7,2.5-2.7,3.2s-2.2,1-3.6,1C501,1508.9,500,1508.7,499,1508.3z"/>
		<path d="M554.9,1498.3v-3.3c-1.6,2.6-4.1,3.9-7.2,3.9c-2.1,0-4-0.6-5.7-1.7s-3.1-2.7-4-4.8s-1.4-4.4-1.4-7s0.4-4.9,1.3-7
			c0.9-2.1,2.2-3.7,3.9-4.8c1.7-1.1,3.7-1.7,5.8-1.7c1.6,0,3,0.3,4.2,1s2.2,1.5,3,2.6v-12.8h4.4v35.8L554.9,1498.3L554.9,1498.3z
			 M541,1485.4c0,3.3,0.7,5.8,2.1,7.4c1.4,1.6,3,2.5,5,2.5c1.9,0,3.5-0.8,4.9-2.4c1.3-1.6,2-4,2-7.2c0-3.6-0.7-6.2-2-7.8
			s-3-2.5-5-2.5s-3.6,0.8-4.9,2.4C541.7,1479.5,541,1482,541,1485.4z"/>
		<path d="M583.6,1490l4.5,0.6c-0.7,2.7-2,4.7-4,6.2c-1.9,1.5-4.4,2.2-7.4,2.2c-3.8,0-6.8-1.2-9-3.5s-3.3-5.6-3.3-9.8
			c0-4.4,1.1-7.8,3.4-10.2s5.2-3.6,8.7-3.6s6.3,1.2,8.5,3.5s3.3,5.7,3.3,10c0,0.3,0,0.7,0,1.2H569c0.2,2.8,1,5,2.4,6.5
			s3.2,2.3,5.4,2.3c1.6,0,3-0.4,4.1-1.3C582,1493.2,583,1491.9,583.6,1490z M569.2,1482.9h14.5c-0.2-2.2-0.8-3.8-1.7-4.9
			c-1.4-1.7-3.2-2.5-5.4-2.5c-2,0-3.7,0.7-5.1,2C570.1,1478.8,569.3,1480.6,569.2,1482.9z"/>
		<path d="M591.9,1490.6l4.3-0.7c0.2,1.7,0.9,3.1,2,4s2.7,1.4,4.7,1.4s3.5-0.4,4.5-1.2c1-0.8,1.5-1.8,1.5-2.9c0-1-0.4-1.8-1.3-2.3
			c-0.6-0.4-2.1-0.9-4.5-1.5c-3.2-0.8-5.5-1.5-6.7-2.1s-2.2-1.4-2.8-2.5s-1-2.2-1-3.5c0-1.2,0.3-2.2,0.8-3.2s1.2-1.8,2.2-2.4
			c0.7-0.5,1.6-0.9,2.8-1.3s2.5-0.5,3.8-0.5c2,0,3.8,0.3,5.4,0.9s2.7,1.4,3.4,2.4s1.2,2.3,1.5,4l-4.3,0.6c-0.2-1.3-0.8-2.4-1.7-3.1
			c-0.9-0.8-2.3-1.1-4-1.1c-2,0-3.5,0.3-4.3,1s-1.3,1.4-1.3,2.3c0,0.6,0.2,1.1,0.5,1.5c0.4,0.5,0.9,0.9,1.7,1.2
			c0.4,0.2,1.7,0.5,3.9,1.1c3.1,0.8,5.3,1.5,6.5,2s2.2,1.3,2.9,2.3s1,2.3,1,3.8s-0.4,2.8-1.3,4.1c-0.8,1.3-2.1,2.3-3.7,3
			s-3.4,1.1-5.5,1.1c-3.4,0-5.9-0.7-7.7-2.1C593.5,1495.4,592.4,1493.4,591.9,1490.6z"/>
		<path d="M618.6,1498.3v-35.8h4.4v35.8H618.6z"/>
		<path d="M629.8,1467.6v-5.1h4.4v5.1H629.8z M629.8,1498.3v-25.9h4.4v25.9H629.8z"/>
		<path d="M638.6,1498.3v-3.6l16.5-18.9c-1.9,0.1-3.5,0.2-5,0.2h-10.6v-3.6h21.2v2.9l-14,16.5l-2.7,3c2-0.2,3.8-0.2,5.5-0.2h12v3.8
			L638.6,1498.3L638.6,1498.3z"/>
		<path d="M682.8,1495.2c-1.6,1.4-3.2,2.4-4.7,2.9s-3.1,0.8-4.8,0.8c-2.8,0-5-0.7-6.6-2.1s-2.3-3.2-2.3-5.3c0-1.3,0.3-2.4,0.9-3.5
			c0.6-1.1,1.3-1.9,2.3-2.5c0.9-0.6,2-1.1,3.2-1.4c0.9-0.2,2.2-0.4,3.9-0.7c3.5-0.4,6.2-0.9,7.8-1.5c0-0.6,0-1,0-1.2
			c0-1.8-0.4-3.1-1.2-3.8c-1.1-1-2.8-1.5-5-1.5c-2.1,0-3.6,0.4-4.6,1.1s-1.7,2-2.2,3.8l-4.3-0.6c0.4-1.8,1-3.3,1.9-4.5
			c0.9-1.1,2.2-2,3.9-2.6s3.7-0.9,5.9-0.9s4,0.3,5.4,0.8s2.4,1.2,3,2c0.7,0.8,1.1,1.8,1.4,3c0.2,0.8,0.2,2.1,0.2,4.1v5.9
			c0,4.1,0.1,6.7,0.3,7.8s0.6,2.1,1.1,3.1h-4.6C683.2,1497.4,682.9,1496.4,682.8,1495.2z M682.5,1485.3c-1.6,0.7-4,1.2-7.2,1.7
			c-1.8,0.3-3.1,0.6-3.8,0.9s-1.3,0.8-1.7,1.4s-0.6,1.3-0.6,2.1c0,1.2,0.4,2.2,1.3,2.9s2.2,1.2,3.9,1.2s3.2-0.4,4.5-1.1
			s2.3-1.8,2.9-3c0.5-1,0.7-2.5,0.7-4.4L682.5,1485.3L682.5,1485.3z"/>
		<path d="M707.6,1498.3v-35.8h4.4v12.8c2-2.4,4.6-3.6,7.8-3.6c1.9,0,3.6,0.4,5,1.1c1.4,0.8,2.4,1.8,3,3.1c0.6,1.3,0.9,3.3,0.9,5.8
			v16.4h-4.4v-16.4c0-2.2-0.5-3.8-1.4-4.8s-2.3-1.5-4-1.5c-1.3,0-2.5,0.3-3.7,1s-2,1.6-2.5,2.8s-0.7,2.8-0.7,4.8v14.2L707.6,1498.3
			L707.6,1498.3z"/>
		<path d="M752.3,1495.2c-1.6,1.4-3.2,2.4-4.7,2.9c-1.5,0.6-3.1,0.8-4.8,0.8c-2.8,0-5-0.7-6.6-2.1s-2.3-3.2-2.3-5.3
			c0-1.3,0.3-2.4,0.9-3.5c0.6-1.1,1.3-1.9,2.3-2.5s2-1.1,3.2-1.4c0.9-0.2,2.2-0.4,3.9-0.7c3.5-0.4,6.2-0.9,7.8-1.5c0-0.6,0-1,0-1.2
			c0-1.8-0.4-3.1-1.2-3.8c-1.1-1-2.8-1.5-5-1.5c-2.1,0-3.6,0.4-4.6,1.1s-1.7,2-2.2,3.8l-4.3-0.6c0.4-1.8,1-3.3,1.9-4.5
			c0.9-1.1,2.2-2,3.9-2.6s3.7-0.9,5.9-0.9s4,0.3,5.4,0.8s2.4,1.2,3,2c0.7,0.8,1.1,1.8,1.4,3c0.2,0.8,0.2,2.1,0.2,4.1v5.9
			c0,4.1,0.1,6.7,0.3,7.8s0.6,2.1,1.1,3.1h-4.6C752.7,1497.4,752.5,1496.4,752.3,1495.2z M752,1485.3c-1.6,0.7-4,1.2-7.2,1.7
			c-1.8,0.3-3.1,0.6-3.8,0.9s-1.3,0.8-1.7,1.4s-0.6,1.3-0.6,2.1c0,1.2,0.4,2.2,1.3,2.9s2.2,1.2,3.9,1.2s3.2-0.4,4.5-1.1
			s2.3-1.8,2.9-3c0.5-1,0.7-2.5,0.7-4.4L752,1485.3L752,1485.3z"/>
		<path d="M780.1,1488.8l4.3,0.6c-0.5,3-1.7,5.3-3.6,7c-2,1.7-4.3,2.5-7.2,2.5c-3.5,0-6.4-1.2-8.6-3.5s-3.2-5.6-3.2-10
			c0-2.8,0.5-5.2,1.4-7.3s2.3-3.7,4.2-4.7c1.9-1.1,4-1.6,6.2-1.6c2.8,0,5.1,0.7,6.9,2.1c1.8,1.4,2.9,3.4,3.4,6.1l-4.3,0.7
			c-0.4-1.7-1.1-3.1-2.2-3.9c-1-0.9-2.3-1.3-3.8-1.3c-2.2,0-4,0.8-5.4,2.4s-2.1,4.1-2.1,7.5c0,3.5,0.7,6,2,7.6s3.1,2.4,5.2,2.4
			c1.7,0,3.2-0.5,4.3-1.6C779.1,1492.7,779.8,1491.1,780.1,1488.8z"/>
		<path d="M788.2,1467.6v-5.1h4.4v5.1H788.2z M788.2,1498.3v-25.9h4.4v25.9H788.2z"/>
		<path d="M816.2,1495.2c-1.6,1.4-3.2,2.4-4.7,2.9c-1.5,0.6-3.1,0.8-4.8,0.8c-2.8,0-5-0.7-6.6-2.1s-2.3-3.2-2.3-5.3
			c0-1.3,0.3-2.4,0.9-3.5c0.6-1.1,1.3-1.9,2.3-2.5s2-1.1,3.2-1.4c0.9-0.2,2.2-0.4,3.9-0.7c3.5-0.4,6.2-0.9,7.8-1.5c0-0.6,0-1,0-1.2
			c0-1.8-0.4-3.1-1.2-3.8c-1.1-1-2.8-1.5-5-1.5c-2.1,0-3.6,0.4-4.6,1.1s-1.7,2-2.2,3.8l-4.3-0.6c0.4-1.8,1-3.3,1.9-4.5
			c0.9-1.1,2.2-2,3.9-2.6s3.7-0.9,5.9-0.9s4,0.3,5.4,0.8s2.4,1.2,3,2c0.7,0.8,1.1,1.8,1.4,3c0.2,0.8,0.2,2.1,0.2,4.1v5.9
			c0,4.1,0.1,6.7,0.3,7.8s0.6,2.1,1.1,3.1h-4.6C816.7,1497.4,816.4,1496.4,816.2,1495.2z M815.9,1485.3c-1.6,0.7-4,1.2-7.2,1.7
			c-1.8,0.3-3.1,0.6-3.8,0.9s-1.3,0.8-1.7,1.4s-0.6,1.3-0.6,2.1c0,1.2,0.4,2.2,1.3,2.9s2.2,1.2,3.9,1.2s3.2-0.4,4.5-1.1
			s2.3-1.8,2.9-3c0.5-1,0.7-2.5,0.7-4.4L815.9,1485.3L815.9,1485.3z"/>
		<path d="M857.9,1495.2c-1.6,1.4-3.2,2.4-4.7,2.9c-1.5,0.6-3.1,0.8-4.8,0.8c-2.8,0-5-0.7-6.6-2.1s-2.3-3.2-2.3-5.3
			c0-1.3,0.3-2.4,0.9-3.5c0.6-1.1,1.3-1.9,2.3-2.5s2-1.1,3.2-1.4c0.9-0.2,2.2-0.4,3.9-0.7c3.5-0.4,6.2-0.9,7.8-1.5c0-0.6,0-1,0-1.2
			c0-1.8-0.4-3.1-1.2-3.8c-1.1-1-2.8-1.5-5-1.5c-2.1,0-3.6,0.4-4.6,1.1s-1.7,2-2.2,3.8l-4.3-0.6c0.4-1.8,1-3.3,1.9-4.5
			c0.9-1.1,2.2-2,3.9-2.6s3.7-0.9,5.9-0.9s4,0.3,5.4,0.8s2.4,1.2,3,2c0.7,0.8,1.1,1.8,1.4,3c0.2,0.8,0.2,2.1,0.2,4.1v5.9
			c0,4.1,0.1,6.7,0.3,7.8s0.6,2.1,1.1,3.1h-4.6C858.4,1497.4,858.1,1496.4,857.9,1495.2z M857.6,1485.3c-1.6,0.7-4,1.2-7.2,1.7
			c-1.8,0.3-3.1,0.6-3.8,0.9s-1.3,0.8-1.7,1.4s-0.6,1.3-0.6,2.1c0,1.2,0.4,2.2,1.3,2.9s2.2,1.2,3.9,1.2s3.2-0.4,4.5-1.1
			s2.3-1.8,2.9-3c0.5-1,0.7-2.5,0.7-4.4L857.6,1485.3L857.6,1485.3z"/>
		<path d="M872.9,1498.3h-4.1v-35.8h4.4v12.8c1.9-2.3,4.2-3.5,7.1-3.5c1.6,0,3.1,0.3,4.5,1c1.4,0.6,2.6,1.6,3.5,2.7
			c0.9,1.2,1.6,2.6,2.2,4.2c0.5,1.6,0.8,3.4,0.8,5.3c0,4.4-1.1,7.9-3.3,10.3s-4.8,3.6-7.9,3.6c-3.1,0-5.5-1.3-7.2-3.8V1498.3
			L872.9,1498.3z M872.8,1485.2c0,3.1,0.4,5.4,1.3,6.7c1.4,2.3,3.2,3.4,5.6,3.4c1.9,0,3.6-0.8,5-2.5s2.1-4.2,2.1-7.5
			c0-3.4-0.7-5.9-2-7.5s-3-2.4-4.9-2.4s-3.6,0.8-5,2.5C873.5,1479.6,872.8,1482,872.8,1485.2z"/>
		<path d="M913.5,1495.2c-1.6,1.4-3.2,2.4-4.7,2.9c-1.5,0.6-3.1,0.8-4.8,0.8c-2.8,0-5-0.7-6.6-2.1s-2.3-3.2-2.3-5.3
			c0-1.3,0.3-2.4,0.9-3.5c0.6-1.1,1.3-1.9,2.3-2.5s2-1.1,3.2-1.4c0.9-0.2,2.2-0.4,3.9-0.7c3.5-0.4,6.2-0.9,7.8-1.5c0-0.6,0-1,0-1.2
			c0-1.8-0.4-3.1-1.2-3.8c-1.1-1-2.8-1.5-5-1.5c-2.1,0-3.6,0.4-4.6,1.1s-1.7,2-2.2,3.8l-4.3-0.6c0.4-1.8,1-3.3,1.9-4.5
			c0.9-1.1,2.2-2,3.9-2.6s3.7-0.9,5.9-0.9s4,0.3,5.4,0.8s2.4,1.2,3,2c0.7,0.8,1.1,1.8,1.4,3c0.2,0.8,0.2,2.1,0.2,4.1v5.9
			c0,4.1,0.1,6.7,0.3,7.8s0.6,2.1,1.1,3.1h-4.6C914,1497.4,913.7,1496.4,913.5,1495.2z M913.2,1485.3c-1.6,0.7-4,1.2-7.2,1.7
			c-1.8,0.3-3.1,0.6-3.8,0.9s-1.3,0.8-1.7,1.4s-0.6,1.3-0.6,2.1c0,1.2,0.4,2.2,1.3,2.9s2.2,1.2,3.9,1.2s3.2-0.4,4.5-1.1
			s2.3-1.8,2.9-3c0.5-1,0.7-2.5,0.7-4.4L913.2,1485.3L913.2,1485.3z"/>
		<path d="M918.8,1508.4l0.8-3.7c0.9,0.2,1.6,0.3,2.1,0.3c0.9,0,1.6-0.3,2-0.9s0.7-2.1,0.7-4.5v-27.2h4.4v27.3
			c0,3.2-0.4,5.4-1.2,6.7c-1.1,1.6-2.8,2.4-5.3,2.4C921.1,1508.9,920,1508.7,918.8,1508.4z M924.4,1467.7v-5.1h4.4v5.1H924.4z"/>
		<path d="M933.9,1485.4c0-4.8,1.3-8.4,4-10.7c2.2-1.9,5-2.9,8.2-2.9c3.6,0,6.5,1.2,8.7,3.5s3.4,5.6,3.4,9.7c0,3.3-0.5,6-1.5,7.9
			s-2.5,3.4-4.4,4.5s-4,1.6-6.3,1.6c-3.6,0-6.6-1.2-8.8-3.5C935,1493.1,933.9,1489.8,933.9,1485.4z M938.4,1485.4
			c0,3.3,0.7,5.8,2.2,7.5s3.3,2.5,5.5,2.5s4-0.8,5.4-2.5c1.5-1.7,2.2-4.2,2.2-7.6c0-3.2-0.7-5.6-2.2-7.3s-3.3-2.5-5.4-2.5
			c-2.2,0-4,0.8-5.5,2.5C939.2,1479.6,938.4,1482.1,938.4,1485.4z"/>
	</g>
	<g class="st1">
		<path d="M227,907.4c17.5,14.1,43.1-11.6,44.6-26.8c0.3-0.1,0.8,18.2-12.8,27.3c-28.7,19.6-51.2-7.9-35.7-31.1
			c5.8-8.8,29.6-27.2,74.5-21.5c42.3,5.4,53.6,3,63.6,0.1c18.5-5.4,25.1-15.6,25.1-15.6c-14.7,26.2-60.9,24.6-84.7,20.4
			C226.1,846.8,209.1,892.8,227,907.4z M280.7,930.5c-10.3,27-23.5,44.6-32.5,50.3s-14.7,2-14.7,2s14.7-2.9,28.1-27.7
			c15.5-28.5,31.9-77.5,37.2-87c4.3-7.9,5.7-4.1,5.7-4.1C309.3,866.9,293.8,896.4,280.7,930.5z"/>
		<path d="M306,937.1c-2.2,10.5,3.5,14.5,9.5,12.1c10.1-3.9,19.6-26,26.6-25.8c-6.9,6.4-7.5,8.4-12.2,14.5c-6.3,8-12.8,15-20.5,14.1
			c-10.2-1.1-11.4-13.9-8.8-19.8c2.7-6.3,8.2-13.3,16.7-13.9c7.1-0.4,9.8,6.3,3,12c-4.1,3.4-10.1,5-14,5.7
			C306.3,936.3,306,936.9,306,937.1z M311.9,933.2c11-3.7,12.9-12,7.2-10.6c0,0-9,1.1-12.4,12C308,934.3,309.9,933.9,311.9,933.2z"
			/>
		<path d="M347.6,927.8c0.1,4.5-1.4,6.7-3.8,11.8c5.7-8.2,18.9-21.2,27.9-23.7c5.2-1.4,7.5,3.4,7.1,6.9c-0.7,5.3-15.8,26-17.7,33.6
			c-2.7,11.3,4.3,7.6,6.5,6c6.5-4.9,18.8-26.9,24.3-33.3c6.8-7.9,9.4-5.3,9.4-5.3c-10.7,2.6-23.8,37.2-35.7,42
			c-3.5,1.5-9,0.5-10.6-5.2c-3.1-11.4,17.5-37.8,18.2-41.7c0.7-4.5-12.5,3.5-21.7,14.1c-6.3,7.2-9.5,12.6-12.2,16.9
			c-0.5,1-3.7,1-5-1.4c-0.5-1-2.2-3.1,2.9-13.5c5.6-11.3,3.3-10.9,3.3-10.9C341.5,922.5,347.5,923.4,347.6,927.8z"/>
		<path d="M402.6,947.9c5.3-1.5,9.5-1.2,12.6,0.3c12.9-8.3,20.4-13.9,26.5-24.7c-1.4,8.7-11.7,17.3-24.9,25.8
			c5.8,3.9,7.2,12.6,5.8,19.7c-2.6,12.8-10.2,23.7-24.3,32.5c-10.6,6.7-24.9,8.3-30.3,4.5c-14.1-9.8,6.1-31.5,21.2-41.3
			c9.4-6.1,17-10.9,23.4-14.8c-2.3-1-5.3-1.4-9.2-0.4c-6.4,1.5-10.7,3.3-10.7,3.3S397.1,949.2,402.6,947.9z M390.8,965.8
			c-32.6,21.5-32.1,48.1-5.4,35.9c30.2-14,34.4-35.2,32.9-44.3c-0.4-2.4-1.5-5-3.8-6.7C407,955.6,398.7,960.5,390.8,965.8z
			 M415.8,921.7c0.7,0.4,1.5,1.1,1.9,2.3c2.3,6.9-5.8,17.5-15.5,22.8c-8.8,4.9-14.7,2.9-16-4.6c-2.2-12.1,12-21.5,18.5-23.2
			c2.9-0.8,5-1,6.8-1C415.8,918.1,417.1,920.4,415.8,921.7z M397.3,930.3c-7.1,7.5-8.6,16.6-3,16.2c5.7-0.4,11.8-4.6,17.3-11.3
			c4.3-5.4,4.1-11,2.9-13.2C412,922.1,404.1,923.3,397.3,930.3z"/>
		<path d="M443,915.9c6.1-0.1,11,3.5,11,13.2c0,2.9-0.7,6.8-1.8,10.6c1.9-0.8,3.9-2,6-3.7c8.2-6.5,10.1-13,14.3-12.6
			c-4.5,3.4-8.3,11.3-15.9,15.9c-1.5,1-3.1,1.6-4.9,2.2c-3,9.1-8.8,18.2-15.5,17.9c-9.5-0.3-10.2-12.8-5.7-21.6
			c0.5-1.1,1.1-2.2,1.6-3.1C426.6,924.2,435.5,916.1,443,915.9z M436.6,939.9c-1.4,2.4-2.4,4.9-3.1,7.3c-1.8,6.7,1.6,13.9,7.5,8.7
			c2.9-2.6,6.1-7.9,8.4-13.9C444.9,942.9,440.3,942.4,436.6,939.9z M441,923.4c3.7-0.5,4.1,3,3.8,5c0,0.1-3.9,4.3-7.2,9.8
			c3.1,2.4,7.6,3.4,12.5,2.2c2.9-8.2,3.7-17-1.1-20.9c-6.4-5.4-14,0.8-15.4,5.4c-0.7,2.6-0.7,5.2,0,7.3
			C437,926.7,439.9,923.6,441,923.4z"/>
		<path d="M518.2,923.6c4.9-1.1,7.6,1.8,2.4,11.6c-4.8,9.1,0.1,12.5,5.4,8.3c6.1-4.9,12.6-16,14.8-18.5c3.7-4.2,5.8-2.2,6.5,1.4
			c1.1,4.9-2.2,7.1-8.4,20.9c-5.7,12.5,1.6,14.3,9.1,5.6c12-14,15.1-27.9,23.8-29.2c-7.3,3.5-7.2,10.6-20.1,27.6
			c-3.5,4.6-10.2,12.6-17.3,6.8c-9-7.5,3.8-24.9,3.4-26.2c0,0-2.3,5.6-9.1,11.6c-7.2,6.4-13.6,3-15.5-1.2
			C511,937,516.5,931.4,518.2,923.6z"/>
		<path d="M576.5,927.8c0.1,4.5-1.4,6.7-3.8,11.8c5.7-8.2,18.9-21.2,27.9-23.7c5.2-1.4,7.5,3.4,7.1,6.9c-0.7,5.3-15.8,26-17.7,33.6
			c-2.7,11.3,4.3,7.6,6.5,6c6.5-4.9,18.8-26.9,24.3-33.3c6.8-7.9,9.4-5.3,9.4-5.3c-10.7,2.6-23.8,37.2-35.7,42
			c-3.5,1.5-9,0.5-10.6-5.2c-3.1-11.4,17.5-37.8,18.2-41.7c0.7-4.5-12.5,3.5-21.7,14.1c-6.3,7.2-9.5,12.6-12.2,16.9
			c-0.5,1-3.7,1-5-1.4c-0.5-1-2.2-3.1,2.9-13.5c5.6-11.3,3.3-10.9,3.3-10.9C570.4,922.5,576.4,923.4,576.5,927.8z"/>
		<path d="M645.5,955.6c7.7-11.4,17.3-30.9,23.9-32.4c-6.8,7.7-8.6,11.3-12.5,17.5c-7.5,12.1-11.6,20.3-15.9,19.6
			c-4.9-0.8-9.4-7.2-4.3-20.9c0.1-0.5,0.4-1.1,0.5-1.6c-5.6,6.8-10.9,13.3-16,7.5c-5.3-6-0.1-16.7,4.8-21.2
			c3.5-3.3,10.2-6.1,17.3-4.3c7.9,2,1.9,2,1.9,2s-10.1-2.2-17.3,9.4c-5.3,8.6-2.3,16.3,1.9,12.4c2.3-2.2,7.3-8.6,11.3-13.6
			c2-3.3,4.2-7.2,6.3-7.2c2-0.1,7.1,0.5,2.6,6.3C637.5,945,637.2,967.7,645.5,955.6z"/>
		<path d="M722.6,927.8c0.1,4.5-1.4,6.7-3.8,11.8c5.7-8.2,18.9-21.2,27.9-23.7c5.2-1.4,7.5,3.4,7.1,6.9c-0.7,5.3-15.8,26-17.7,33.6
			c-2.7,11.3,4.3,7.6,6.5,6c6.5-4.9,18.8-26.9,24.3-33.3c6.8-7.9,9.4-5.3,9.4-5.3c-10.7,2.6-23.8,37.2-35.7,42
			c-3.5,1.5-9,0.5-10.6-5.2c-3.1-11.4,17.5-37.8,18.2-41.7c0.7-4.5-12.5,3.5-21.7,14.1c-6.3,7.2-9.5,12.6-12.2,16.9
			c-0.5,1-3.7,1-5-1.4c-0.5-1-2.2-3.1,2.9-13.5c5.6-11.3,3.3-10.9,3.3-10.9C716.5,922.5,722.5,923.4,722.6,927.8z"/>
		<path d="M775.8,915.9c6.1-0.1,11,3.5,11,13.2c0,2.9-0.7,6.8-1.8,10.6c1.9-0.8,3.9-2,6-3.7c8.2-6.5,10.1-13,14.3-12.6
			c-4.5,3.4-8.3,11.3-15.9,15.9c-1.5,1-3.1,1.6-4.9,2.2c-3,9.1-8.8,18.2-15.5,17.9c-9.5-0.3-10.2-12.8-5.7-21.6
			c0.5-1.1,1.1-2.2,1.6-3.1C759.3,924.2,768.3,916.1,775.8,915.9z M769.4,939.9c-1.4,2.4-2.4,4.9-3.1,7.3c-1.8,6.7,1.6,13.9,7.5,8.7
			c2.9-2.6,6.1-7.9,8.4-13.9C777.7,942.9,773,942.4,769.4,939.9z M773.7,923.4c3.7-0.5,4.1,3,3.8,5c0,0.1-3.9,4.3-7.2,9.8
			c3.1,2.4,7.6,3.4,12.5,2.2c2.9-8.2,3.7-17-1.1-20.9c-6.4-5.4-14,0.8-15.4,5.4c-0.7,2.6-0.7,5.2,0,7.3
			C769.8,926.7,772.6,923.6,773.7,923.4z"/>
		<path d="M771.5,870.8c-3.4,2.3-6.3,6.8-2.6,10.5c6.5,6.5,25.3,5.8,47.6,3.5c5.7-10.6,8.8-13.5,8.8-13.5c1.4-2.2,5.8,2.7,4.5,5
			c-1.5,2.4-3,4.9-4.5,7.5c31-3.7,66.1-9.4,83.5-4.1c6.5,2,9,4.3,8.3,7.6c-0.3,1.8-2.2,2.9-3,1.1c-0.7-1.5,2.9-5-6.1-7.6
			c-17.9-5-52.7,0.8-83.6,4.5c-9,15.4-18.3,34.8-26.1,62.3c-5.6,19.7-0.5,28.7,8.4,17.4c10.1-12.6,19.7-39.8,30.4-41.6
			c-8.6,7.6-11.6,13.3-19.6,28.3c-11.3,21.2-17.7,22.4-22.2,18.8c-5.7-4.6-8.7-16.4,6.1-53.1c5.7-14,10.5-24.1,14.1-31
			c-22.4,2.3-41.3,2.7-48.1-4.5c-3.4-3.7-2-10.1,2.4-13C771.4,867.8,775.1,868.5,771.5,870.8z"/>
		<path d="M846.4,939.6c-6.3,8.3-11.1,13.5-16.4,11.8c-8.4-2.7-1.4-23.8,4.6-27.7c2.7-1.4,4.1,0.1,3.7,2.3
			c-0.5,3.4-4.2,8.4-5.7,14.4c-1.1,4.5-2.4,9.7,1,9.2c4.2-0.4,12-12.4,17.4-19c4.5-5.6,5.8-7.2,8.7-7.2
			C855.5,925.5,852.1,932.1,846.4,939.6z M839.9,918c-1.6-0.5-1.8-1.5-0.5-3.8c1.4-2.6,0.5-3.1,2.7-4.3c1.5-0.8,6.4-0.3,4.8,3.1
			C845.1,916.6,841.8,918.5,839.9,918z"/>
		<path d="M855.5,934c-3.5,4.8-6.1,10.6-4.5,17.4c0.7,3.3,5.7,5.6,11.6,1.8c11.3-7.3,21.5-25.4,30.2-29.8
			c-6.3,5.2-12.9,16-22.7,25.6c-9,8.7-15.6,10.9-21.2,6.3c-6.5-5.4-4.3-18.8,1.1-25.4c6.3-7.7,13.9-11.8,20.9-9.8
			c7.5,2,4.8,8.3,2.6,11.4c-2.2,3.1-5.3,6-8.3,3.5s1.1-5,1.9-4.8c0.8,0.3,3.5,0,5.4-2.2c2.6-2.9,0.4-5.2-2.9-4.6
			C867.6,923.7,861.9,925.5,855.5,934z"/>
		<path d="M901.6,939.6c-6.3,8.3-11.1,13.5-16.4,11.8c-8.4-2.7-1.4-23.8,4.6-27.7c2.7-1.4,4.1,0.1,3.7,2.3
			c-0.5,3.4-4.2,8.4-5.7,14.4c-1.1,4.5-2.4,9.7,1,9.2c4.2-0.4,12-12.4,17.4-19c4.5-5.6,5.8-7.2,8.7-7.2
			C910.7,925.5,907.3,932.1,901.6,939.6z M895.1,918c-1.6-0.5-1.8-1.5-0.5-3.8c1.4-2.6,0.5-3.1,2.7-4.3c1.5-0.8,6.4-0.3,4.8,3.1
			C900.3,916.6,897,918.5,895.1,918z"/>
		<path d="M930.6,955.6c7.7-11.4,17.3-30.9,23.9-32.4c-6.8,7.7-8.6,11.3-12.5,17.5c-7.5,12.1-11.6,20.3-15.9,19.6
			c-4.9-0.8-9.4-7.2-4.3-20.9c0.1-0.5,0.4-1.1,0.5-1.6c-5.6,6.8-10.9,13.3-16,7.5c-5.3-6-0.1-16.7,4.8-21.2
			c3.5-3.3,10.2-6.1,17.3-4.3c7.9,2,1.9,2,1.9,2s-10.1-2.2-17.3,9.4c-5.3,8.6-2.3,16.3,1.9,12.4c2.3-2.2,7.3-8.6,11.3-13.6
			c2-3.3,4.2-7.2,6.3-7.2c2-0.1,7.1,0.5,2.6,6.3C922.5,945,922.3,967.7,930.6,955.6z"/>
		<path d="M962.8,950.1c-1.8,1.8-4.3,1.2-4.8-1c-0.4-2.3,0.1-4.3,2.7-4.3C963.9,944.8,964.5,948.3,962.8,950.1z"/>
		<path d="M984.8,950.1c-1.8,1.8-4.3,1.2-4.8-1c-0.4-2.3,0.1-4.3,2.7-4.3C985.9,944.8,986.6,948.3,984.8,950.1z"/>
		<path d="M1006.8,950.1c-1.8,1.8-4.3,1.2-4.8-1c-0.4-2.3,0.1-4.3,2.7-4.3C1007.9,944.8,1008.6,948.3,1006.8,950.1z"/>
		<path d="M1028.8,950.1c-1.8,1.8-4.3,1.2-4.8-1c-0.4-2.3,0.1-4.3,2.7-4.3C1029.9,944.8,1030.6,948.3,1028.8,950.1z"/>
	</g>
</g>
<g>
	<path class="st2" d="M516.5,1090c69.7,0,139.3,0,209,0c0,95,0,190,0,285.1c-69.7,0-139.3,0-209,0C516.5,1280,516.5,1185,516.5,1090
		z M611.7,1205.4c0-0.8,0-1.5,0-2.2c0-13.4,0-26.8,0-40.2c0-4.2-1.2-7.9-3.8-11.2c-4.4-5.3-10-7.8-16.8-6.4
		c-9,1.8-14.3,8.7-14.3,17.9c0,21.2,0,42.4,0,63.6c0,1.2-0.3,1.9-1.3,2.6c-3.7,2.3-7.3,4.8-10.9,7.2c-11,7.6-16.3,18-15,31.3
		c0.7,7.2,3.2,13.9,5.8,20.6c6.7,17.3,16.5,32.6,29.6,45.9c0.5,0.6,0.9,1.5,0.9,2.3c0.1,5.7,0,11.3,0,17c0,3.4,1.4,4.8,4.8,4.8
		c8,0,16,0,24,0c18.8,0,37.6,0,56.4,0c3.5,0,4.8-1.3,4.8-4.7c0-5.8,0-11.6,0-17.3c0-0.9,0.3-2,0.8-2.8c11-17.5,16.9-36.5,17.4-57.2
		c0.3-11.6,0.1-23.2,0.1-34.8c0-2.3,0.1-4.6-0.3-6.9c-1.7-9.4-10.4-15.5-19.8-13.8c-2.7,0.5-5.3,1.7-8.1,2.6
		c-1.8-5.2-5.4-9.3-11.1-11.2c-5.7-1.9-11.2-0.9-16.1,2.4C632.2,1202.6,625.1,1200,611.7,1205.4z M549.3,1109.5
		c-1.7,0.2-2.9,1-3.5,2.4c-0.7,1.5-0.5,3,0.7,4.2c6.8,6.9,13.7,13.7,20.6,20.5c1.7,1.7,3.9,1.6,5.4,0c1.5-1.5,1.4-3.8-0.3-5.4
		c-6.7-6.7-13.5-13.5-20.2-20.1C551.2,1110.3,550.2,1110,549.3,1109.5z M640.1,1109.5c-0.9,0.4-1.9,0.7-2.6,1.4
		c-6.9,6.8-13.8,13.6-20.6,20.5c-1,1.1-1.5,2.3-0.9,3.8c1.1,2.8,4.1,3.3,6.4,1.1c4.3-4.3,8.7-8.6,13-12.9c2.5-2.4,4.9-4.9,7.4-7.4
		c1.2-1.2,1.4-2.7,0.8-4.2C643,1110.5,641.8,1109.8,640.1,1109.5z M598.3,1115.2c0-2.9,0-5.8,0-8.7c0-2.4-1.5-4-3.6-4
		c-2.1-0.1-3.8,1.7-3.8,4c0,5.8,0,11.7,0,17.5c0,2.4,1.7,4,3.8,4s3.6-1.6,3.6-4C598.3,1121.1,598.3,1118.2,598.3,1115.2z
		 M548.8,1162.4c2.9,0,5.8,0,8.7,0c2.4,0,4-1.4,4.1-3.5c0.1-2.2-1.5-3.9-3.9-3.9c-5.9-0.1-11.8-0.1-17.6,0c-2.4,0-4.1,1.8-4,3.9
		s1.7,3.5,4.1,3.5C543,1162.5,545.9,1162.4,548.8,1162.4z M640.3,1162.4c3,0,6.1,0,9.1,0c2.2,0,3.7-1.4,3.8-3.4
		c0.1-2.1-1.3-3.9-3.5-3.9c-6.1-0.1-12.2-0.1-18.3,0c-2.2,0-3.8,1.9-3.7,3.8c0.1,2.1,1.6,3.5,3.9,3.5
		C634.5,1162.5,637.4,1162.4,640.3,1162.4z"/>
	<path d="M611.7,1205.4c13.4-5.4,20.4-2.9,27,9.7c5-3.4,10.4-4.4,16.1-2.4c5.7,1.9,9.3,6,11.1,11.2c2.8-0.9,5.4-2.1,8.1-2.6
		c9.3-1.7,18,4.4,19.8,13.8c0.4,2.2,0.3,4.6,0.3,6.9c0,11.6,0.2,23.2-0.1,34.8c-0.5,20.6-6.4,39.7-17.4,57.2
		c-0.5,0.8-0.8,1.9-0.8,2.8c-0.1,5.8,0,11.6,0,17.3c0,3.4-1.4,4.7-4.8,4.7c-18.8,0-37.6,0-56.4,0c-8,0-16,0-24,0
		c-3.4,0-4.8-1.4-4.8-4.8c0-5.7,0-11.3,0-17c0-0.8-0.4-1.8-0.9-2.3c-13-13.2-22.9-28.5-29.6-45.9c-2.6-6.7-5.1-13.5-5.8-20.6
		c-1.3-13.3,3.9-23.8,15-31.3c3.6-2.5,7.2-4.9,10.9-7.2c1-0.7,1.3-1.4,1.3-2.6c0-21.2,0-42.4,0-63.6c0-9.2,5.3-16.1,14.3-17.9
		c6.8-1.4,12.4,1.1,16.8,6.4c2.7,3.2,3.8,7,3.8,11.2c0,13.4,0,26.8,0,40.2C611.7,1203.9,611.7,1204.6,611.7,1205.4z M576.7,1237.6
		c-3.4,2.3-6.7,4.3-9.7,6.5c-6.4,4.8-9.8,11.2-10.3,19.2c-0.3,5,1.2,9.6,2.7,14.3c6.2,20.5,17,38.2,32.3,53.2c1.2,1.2,1.7,2.4,1.7,4
		c0,4.8,0.1,9.7-0.1,14.5c0,1.7,0.4,2.2,2.1,2.2c21.7-0.1,43.4,0,65.1,0c2.6,0,5.1,0,7.8,0c0-5.6-0.1-10.9,0.1-16.2
		c0-1.4,0.5-2.9,1.2-4.1c10.3-15.9,16.2-33.3,16.8-52.2c0.5-13.6,0.3-27.1,0.2-40.7c0-6-4.9-9.6-8.8-9.8
		c-6.9-0.4-11.2,3.9-11.2,10.8c0,4.2,0,8.4,0,12.6c0,2.5-1.7,4-4.1,3.8c-2-0.2-3.3-1.7-3.3-4.1c0-7.3,0-14.6,0-21.9
		c0-1.1-0.1-2.1-0.4-3.1c-1.2-4.7-5.7-7.7-10.7-7.3c-4.6,0.4-8.4,4.3-8.8,9c-0.1,1.6-0.1,3.2-0.1,4.9c0,6.1,0,12.1,0,18.2
		c0,2.9-1.6,4.5-4.1,4.4c-2.1-0.2-3.4-1.7-3.4-4.4c0-10.2,0-20.3,0-30.4c0-2.2-0.4-4.3-1.6-6.2c-2.6-3.9-7-5.3-11.7-3.9
		c-3.8,1.2-6.6,5.1-6.7,9.5c0,9.7,0,19.3,0,28.9c0,1.1,0.1,2.2-0.1,3.4c-0.2,1.9-1.8,3.2-3.7,3.2c-2,0-3.5-1.4-3.7-3.4
		c0-0.5,0-1,0-1.5c0-20.8,0-41.5,0-62.2c0-8.5-0.1-17.1,0-25.6c0.1-6.5-5.3-10.9-10.8-10.3c-5.4,0.5-9.3,4.8-9.3,10.5
		c0,23.8,0,47.7,0,71.5c0,11.7,0,23.3,0,35c0,1-0.2,2-0.7,2.8c-0.8,1.3-2.6,1.8-4.2,1.3c-1.5-0.5-2.5-1.9-2.5-3.8
		c0-6.7,0-13.5,0-20.2C576.7,1245.8,576.7,1241.9,576.7,1237.6z"/>
	<path d="M549.3,1109.5c0.9,0.5,1.9,0.8,2.6,1.5c6.8,6.7,13.5,13.4,20.2,20.1c1.6,1.6,1.7,3.9,0.3,5.4c-1.5,1.6-3.7,1.6-5.4,0
		c-6.9-6.8-13.7-13.7-20.6-20.5c-1.2-1.2-1.4-2.6-0.7-4.2C546.4,1110.4,547.5,1109.7,549.3,1109.5z"/>
	<path d="M640.1,1109.5c1.7,0.2,2.9,0.9,3.5,2.4s0.5,3-0.8,4.2c-2.5,2.5-4.9,4.9-7.4,7.4c-4.3,4.3-8.6,8.6-13,12.9
		c-2.2,2.2-5.3,1.7-6.4-1.1c-0.6-1.5-0.2-2.8,0.9-3.8c6.8-6.9,13.7-13.7,20.6-20.5C638.2,1110.2,639.2,1110,640.1,1109.5z"/>
	<path d="M598.3,1115.2c0,2.9,0,5.8,0,8.7c0,2.4-1.5,4-3.6,4c-2.2,0-3.8-1.6-3.8-4c0-5.8,0-11.7,0-17.5c0-2.4,1.7-4.1,3.8-4
		s3.6,1.6,3.6,4C598.3,1109.4,598.3,1112.3,598.3,1115.2z"/>
	<path d="M548.8,1162.4c-2.9,0-5.8,0-8.7,0c-2.4,0-4-1.4-4.1-3.5s1.6-3.8,4-3.9c5.9-0.1,11.8-0.1,17.6,0c2.4,0,4,1.7,3.9,3.9
		c-0.1,2.1-1.6,3.5-4.1,3.5C554.7,1162.5,551.8,1162.4,548.8,1162.4z"/>
	<path d="M640.3,1162.4c-2.9,0-5.8,0-8.8,0c-2.3,0-3.8-1.4-3.9-3.5c-0.1-2,1.5-3.8,3.7-3.8c6.1-0.1,12.2-0.1,18.3,0
		c2.2,0,3.6,1.8,3.5,3.9s-1.5,3.4-3.8,3.4C646.4,1162.5,643.3,1162.4,640.3,1162.4z"/>
	<path class="st2" d="M576.7,1237.6c0,4.3,0,8.2,0,12.1c0,6.7,0,13.5,0,20.2c0,1.9,1,3.3,2.5,3.8c1.6,0.5,3.4,0.1,4.2-1.3
		c0.5-0.8,0.7-1.9,0.7-2.8c0-11.7,0-23.3,0-35c0-23.8,0-47.7,0-71.5c0-5.7,3.9-10,9.3-10.5c5.5-0.5,10.9,3.8,10.8,10.3
		c-0.1,8.5,0,17.1,0,25.6c0,20.8,0,41.5,0,62.2c0,0.5,0,1,0,1.5c0.2,2,1.7,3.4,3.7,3.4c1.9,0,3.5-1.3,3.7-3.2
		c0.1-1.1,0.1-2.2,0.1-3.4c0-9.7,0-19.3,0-28.9c0-4.4,2.8-8.3,6.7-9.5c4.7-1.4,9.1,0.1,11.7,3.9c1.3,1.9,1.7,4,1.6,6.2
		c0,10.2,0,20.3,0,30.4c0,2.7,1.3,4.2,3.4,4.4c2.5,0.2,4.1-1.5,4.1-4.4c0-6.1,0-12.1,0-18.2c0-1.6,0-3.3,0.1-4.9
		c0.3-4.7,4.1-8.5,8.8-9c5-0.5,9.5,2.6,10.7,7.3c0.3,1,0.4,2.1,0.4,3.1c0,7.3,0,14.6,0,21.9c0,2.4,1.3,3.9,3.3,4.1
		c2.4,0.2,4.1-1.4,4.1-3.8c0-4.2,0-8.4,0-12.6c0-6.9,4.3-11.2,11.2-10.8c4,0.2,8.8,3.9,8.8,9.8c0.1,13.6,0.2,27.2-0.2,40.7
		c-0.6,18.9-6.6,36.3-16.8,52.2c-0.7,1.2-1.2,2.7-1.2,4.1c-0.1,5.3-0.1,10.6-0.1,16.2c-2.7,0-5.3,0-7.8,0c-21.7,0-43.4,0-65.1,0
		c-1.7,0-2.2-0.5-2.1-2.2c0.1-4.8,0-9.7,0.1-14.5c0-1.6-0.5-2.9-1.7-4c-15.2-15-26-32.7-32.3-53.2c-1.4-4.7-3-9.3-2.7-14.3
		c0.5-7.9,3.9-14.4,10.3-19.2C570.1,1241.9,573.3,1239.9,576.7,1237.6z"/>
</g>
<g class="st4">
	<path d="M286,1498.3v-35.8h4.7v14.7h18.6v-14.7h4.7v35.8h-4.7v-16.9h-18.6v16.9H286z"/>
	<path d="M338.3,1495.2c-1.6,1.4-3.2,2.4-4.7,2.9c-1.5,0.6-3.1,0.8-4.9,0.8c-2.9,0-5-0.7-6.6-2.1s-2.3-3.2-2.3-5.3
		c0-1.3,0.3-2.4,0.9-3.5s1.3-1.9,2.3-2.5c0.9-0.6,2-1.1,3.2-1.4c0.9-0.2,2.2-0.4,3.9-0.7c3.5-0.4,6.2-0.9,7.8-1.5c0-0.6,0-1,0-1.2
		c0-1.8-0.4-3.1-1.2-3.8c-1.1-1-2.8-1.5-5-1.5c-2.1,0-3.6,0.4-4.6,1.1s-1.7,2-2.2,3.8l-4.3-0.6c0.4-1.8,1-3.3,1.9-4.5
		c0.9-1.1,2.2-2,3.9-2.6s3.6-0.9,5.9-0.9c2.2,0,4,0.3,5.4,0.8s2.4,1.2,3,2s1.1,1.8,1.4,3c0.1,0.8,0.2,2.1,0.2,4.1v5.9
		c0,4.1,0.1,6.7,0.3,7.8s0.6,2.1,1.1,3.1h-4.6C338.7,1497.4,338.4,1496.4,338.3,1495.2z M337.9,1485.3c-1.6,0.7-4,1.2-7.2,1.7
		c-1.8,0.3-3.1,0.6-3.8,0.9s-1.3,0.8-1.7,1.4c-0.4,0.6-0.6,1.3-0.6,2.1c0,1.2,0.4,2.2,1.3,2.9c0.9,0.8,2.2,1.2,3.9,1.2
		c1.7,0,3.2-0.4,4.5-1.1s2.3-1.8,2.9-3c0.5-1,0.7-2.5,0.7-4.4L337.9,1485.3L337.9,1485.3z"/>
	<path d="M346.9,1498.3v-3.6l16.5-18.9c-1.9,0.1-3.5,0.2-5,0.2h-10.6v-3.6H369v2.9l-14,16.5l-2.7,3c2-0.2,3.8-0.2,5.5-0.2h12v3.8
		L346.9,1498.3L346.9,1498.3z"/>
	<path d="M405,1488.8l4.3,0.6c-0.5,3-1.7,5.3-3.6,7c-2,1.7-4.3,2.5-7.2,2.5c-3.5,0-6.4-1.2-8.6-3.5s-3.2-5.6-3.2-10
		c0-2.8,0.5-5.2,1.4-7.3s2.3-3.7,4.2-4.7c1.9-1.1,4-1.6,6.2-1.6c2.8,0,5.1,0.7,6.9,2.1s2.9,3.4,3.4,6.1l-4.3,0.7
		c-0.4-1.7-1.1-3.1-2.2-3.9s-2.3-1.3-3.8-1.3c-2.2,0-4,0.8-5.4,2.4s-2.1,4.1-2.1,7.5c0,3.5,0.7,6,2,7.6s3.1,2.4,5.2,2.4
		c1.7,0,3.2-0.5,4.3-1.6C403.9,1492.7,404.7,1491.1,405,1488.8z"/>
	<path d="M413,1498.3v-35.8h4.4v35.8H413z"/>
	<path d="M424.2,1467.6v-5.1h4.4v5.1H424.2z M424.2,1498.3v-25.9h4.4v25.9H424.2z"/>
	<path d="M452.2,1488.8l4.3,0.6c-0.5,3-1.7,5.3-3.6,7c-2,1.7-4.3,2.5-7.2,2.5c-3.5,0-6.4-1.2-8.6-3.5s-3.2-5.6-3.2-10
		c0-2.8,0.5-5.2,1.4-7.3s2.3-3.7,4.2-4.7c1.9-1.1,4-1.6,6.2-1.6c2.8,0,5.1,0.7,6.9,2.1s2.9,3.4,3.4,6.1l-4.3,0.7
		c-0.4-1.7-1.1-3.1-2.2-3.9s-2.3-1.3-3.8-1.3c-2.2,0-4,0.8-5.4,2.4s-2.1,4.1-2.1,7.5c0,3.5,0.7,6,2,7.6s3.1,2.4,5.2,2.4
		c1.7,0,3.2-0.5,4.3-1.6C451.2,1492.7,451.9,1491.1,452.2,1488.8z"/>
	<path d="M460.3,1498.3v-35.8h4.4v20.4l10.4-10.6h5.7l-9.9,9.6l10.9,16.3h-5.4l-8.6-13.3l-3.1,3v10.3L460.3,1498.3L460.3,1498.3z"/>
	<path d="M499,1508.3l-0.5-4.1c1,0.3,1.8,0.4,2.5,0.4c1,0,1.8-0.2,2.3-0.5c0.6-0.3,1.1-0.8,1.4-1.4c0.3-0.4,0.7-1.5,1.3-3.3
		c0.1-0.2,0.2-0.6,0.4-1.1l-9.8-26h4.7l5.4,15c0.7,1.9,1.3,3.9,1.9,6c0.5-2,1.1-4,1.8-5.9l5.5-15.1h4.4l-9.9,26.4
		c-1.1,2.8-1.9,4.8-2.5,5.9c-0.8,1.4-1.7,2.5-2.7,3.2s-2.2,1-3.6,1C501,1508.9,500,1508.7,499,1508.3z"/>
	<path d="M554.9,1498.3v-3.3c-1.6,2.6-4.1,3.9-7.2,3.9c-2.1,0-4-0.6-5.7-1.7s-3.1-2.7-4-4.8s-1.4-4.4-1.4-7s0.4-4.9,1.3-7
		c0.9-2.1,2.2-3.7,3.9-4.8c1.7-1.1,3.7-1.7,5.8-1.7c1.6,0,3,0.3,4.2,1s2.2,1.5,3,2.6v-12.8h4.4v35.8L554.9,1498.3L554.9,1498.3z
		 M541,1485.4c0,3.3,0.7,5.8,2.1,7.4c1.4,1.6,3,2.5,5,2.5c1.9,0,3.5-0.8,4.9-2.4c1.3-1.6,2-4,2-7.2c0-3.6-0.7-6.2-2-7.8
		s-3-2.5-5-2.5s-3.6,0.8-4.9,2.4C541.7,1479.5,541,1482,541,1485.4z"/>
	<path d="M583.6,1490l4.5,0.6c-0.7,2.7-2,4.7-4,6.2c-1.9,1.5-4.4,2.2-7.4,2.2c-3.8,0-6.8-1.2-9-3.5s-3.3-5.6-3.3-9.8
		c0-4.4,1.1-7.8,3.4-10.2s5.2-3.6,8.7-3.6s6.3,1.2,8.5,3.5s3.3,5.7,3.3,10c0,0.3,0,0.7,0,1.2H569c0.2,2.8,1,5,2.4,6.5
		s3.2,2.3,5.4,2.3c1.6,0,3-0.4,4.1-1.3C582,1493.2,583,1491.9,583.6,1490z M569.2,1482.9h14.5c-0.2-2.2-0.8-3.8-1.7-4.9
		c-1.4-1.7-3.2-2.5-5.4-2.5c-2,0-3.7,0.7-5.1,2C570.1,1478.8,569.3,1480.6,569.2,1482.9z"/>
	<path d="M591.9,1490.6l4.3-0.7c0.2,1.7,0.9,3.1,2,4s2.7,1.4,4.7,1.4s3.5-0.4,4.5-1.2c1-0.8,1.5-1.8,1.5-2.9c0-1-0.4-1.8-1.3-2.3
		c-0.6-0.4-2.1-0.9-4.5-1.5c-3.2-0.8-5.5-1.5-6.7-2.1s-2.2-1.4-2.8-2.5s-1-2.2-1-3.5c0-1.2,0.3-2.2,0.8-3.2s1.2-1.8,2.2-2.4
		c0.7-0.5,1.6-0.9,2.8-1.3s2.5-0.5,3.8-0.5c2,0,3.8,0.3,5.4,0.9s2.7,1.4,3.4,2.4s1.2,2.3,1.5,4l-4.3,0.6c-0.2-1.3-0.8-2.4-1.7-3.1
		c-0.9-0.8-2.3-1.1-4-1.1c-2,0-3.5,0.3-4.3,1s-1.3,1.4-1.3,2.3c0,0.6,0.2,1.1,0.5,1.5c0.4,0.5,0.9,0.9,1.7,1.2
		c0.4,0.2,1.7,0.5,3.9,1.1c3.1,0.8,5.3,1.5,6.5,2s2.2,1.3,2.9,2.3s1,2.3,1,3.8s-0.4,2.8-1.3,4.1c-0.8,1.3-2.1,2.3-3.7,3
		s-3.4,1.1-5.5,1.1c-3.4,0-5.9-0.7-7.7-2.1C593.5,1495.4,592.4,1493.4,591.9,1490.6z"/>
	<path d="M618.6,1498.3v-35.8h4.4v35.8H618.6z"/>
	<path d="M629.8,1467.6v-5.1h4.4v5.1H629.8z M629.8,1498.3v-25.9h4.4v25.9H629.8z"/>
	<path d="M638.6,1498.3v-3.6l16.5-18.9c-1.9,0.1-3.5,0.2-5,0.2h-10.6v-3.6h21.2v2.9l-14,16.5l-2.7,3c2-0.2,3.8-0.2,5.5-0.2h12v3.8
		L638.6,1498.3L638.6,1498.3z"/>
	<path d="M682.8,1495.2c-1.6,1.4-3.2,2.4-4.7,2.9s-3.1,0.8-4.8,0.8c-2.8,0-5-0.7-6.6-2.1s-2.3-3.2-2.3-5.3c0-1.3,0.3-2.4,0.9-3.5
		c0.6-1.1,1.3-1.9,2.3-2.5c0.9-0.6,2-1.1,3.2-1.4c0.9-0.2,2.2-0.4,3.9-0.7c3.5-0.4,6.2-0.9,7.8-1.5c0-0.6,0-1,0-1.2
		c0-1.8-0.4-3.1-1.2-3.8c-1.1-1-2.8-1.5-5-1.5c-2.1,0-3.6,0.4-4.6,1.1s-1.7,2-2.2,3.8l-4.3-0.6c0.4-1.8,1-3.3,1.9-4.5
		c0.9-1.1,2.2-2,3.9-2.6s3.7-0.9,5.9-0.9s4,0.3,5.4,0.8s2.4,1.2,3,2c0.7,0.8,1.1,1.8,1.4,3c0.2,0.8,0.2,2.1,0.2,4.1v5.9
		c0,4.1,0.1,6.7,0.3,7.8s0.6,2.1,1.1,3.1h-4.6C683.2,1497.4,682.9,1496.4,682.8,1495.2z M682.5,1485.3c-1.6,0.7-4,1.2-7.2,1.7
		c-1.8,0.3-3.1,0.6-3.8,0.9s-1.3,0.8-1.7,1.4s-0.6,1.3-0.6,2.1c0,1.2,0.4,2.2,1.3,2.9s2.2,1.2,3.9,1.2s3.2-0.4,4.5-1.1
		s2.3-1.8,2.9-3c0.5-1,0.7-2.5,0.7-4.4L682.5,1485.3L682.5,1485.3z"/>
	<path d="M707.6,1498.3v-35.8h4.4v12.8c2-2.4,4.6-3.6,7.8-3.6c1.9,0,3.6,0.4,5,1.1c1.4,0.8,2.4,1.8,3,3.1c0.6,1.3,0.9,3.3,0.9,5.8
		v16.4h-4.4v-16.4c0-2.2-0.5-3.8-1.4-4.8s-2.3-1.5-4-1.5c-1.3,0-2.5,0.3-3.7,1s-2,1.6-2.5,2.8s-0.7,2.8-0.7,4.8v14.2L707.6,1498.3
		L707.6,1498.3z"/>
	<path d="M752.3,1495.2c-1.6,1.4-3.2,2.4-4.7,2.9c-1.5,0.6-3.1,0.8-4.8,0.8c-2.8,0-5-0.7-6.6-2.1s-2.3-3.2-2.3-5.3
		c0-1.3,0.3-2.4,0.9-3.5c0.6-1.1,1.3-1.9,2.3-2.5s2-1.1,3.2-1.4c0.9-0.2,2.2-0.4,3.9-0.7c3.5-0.4,6.2-0.9,7.8-1.5c0-0.6,0-1,0-1.2
		c0-1.8-0.4-3.1-1.2-3.8c-1.1-1-2.8-1.5-5-1.5c-2.1,0-3.6,0.4-4.6,1.1s-1.7,2-2.2,3.8l-4.3-0.6c0.4-1.8,1-3.3,1.9-4.5
		c0.9-1.1,2.2-2,3.9-2.6s3.7-0.9,5.9-0.9s4,0.3,5.4,0.8s2.4,1.2,3,2c0.7,0.8,1.1,1.8,1.4,3c0.2,0.8,0.2,2.1,0.2,4.1v5.9
		c0,4.1,0.1,6.7,0.3,7.8s0.6,2.1,1.1,3.1h-4.6C752.7,1497.4,752.5,1496.4,752.3,1495.2z M752,1485.3c-1.6,0.7-4,1.2-7.2,1.7
		c-1.8,0.3-3.1,0.6-3.8,0.9s-1.3,0.8-1.7,1.4s-0.6,1.3-0.6,2.1c0,1.2,0.4,2.2,1.3,2.9s2.2,1.2,3.9,1.2s3.2-0.4,4.5-1.1
		s2.3-1.8,2.9-3c0.5-1,0.7-2.5,0.7-4.4L752,1485.3L752,1485.3z"/>
	<path d="M780.1,1488.8l4.3,0.6c-0.5,3-1.7,5.3-3.6,7c-2,1.7-4.3,2.5-7.2,2.5c-3.5,0-6.4-1.2-8.6-3.5s-3.2-5.6-3.2-10
		c0-2.8,0.5-5.2,1.4-7.3s2.3-3.7,4.2-4.7c1.9-1.1,4-1.6,6.2-1.6c2.8,0,5.1,0.7,6.9,2.1c1.8,1.4,2.9,3.4,3.4,6.1l-4.3,0.7
		c-0.4-1.7-1.1-3.1-2.2-3.9c-1-0.9-2.3-1.3-3.8-1.3c-2.2,0-4,0.8-5.4,2.4s-2.1,4.1-2.1,7.5c0,3.5,0.7,6,2,7.6s3.1,2.4,5.2,2.4
		c1.7,0,3.2-0.5,4.3-1.6C779.1,1492.7,779.8,1491.1,780.1,1488.8z"/>
	<path d="M788.2,1467.6v-5.1h4.4v5.1H788.2z M788.2,1498.3v-25.9h4.4v25.9H788.2z"/>
	<path d="M816.2,1495.2c-1.6,1.4-3.2,2.4-4.7,2.9c-1.5,0.6-3.1,0.8-4.8,0.8c-2.8,0-5-0.7-6.6-2.1s-2.3-3.2-2.3-5.3
		c0-1.3,0.3-2.4,0.9-3.5c0.6-1.1,1.3-1.9,2.3-2.5s2-1.1,3.2-1.4c0.9-0.2,2.2-0.4,3.9-0.7c3.5-0.4,6.2-0.9,7.8-1.5c0-0.6,0-1,0-1.2
		c0-1.8-0.4-3.1-1.2-3.8c-1.1-1-2.8-1.5-5-1.5c-2.1,0-3.6,0.4-4.6,1.1s-1.7,2-2.2,3.8l-4.3-0.6c0.4-1.8,1-3.3,1.9-4.5
		c0.9-1.1,2.2-2,3.9-2.6s3.7-0.9,5.9-0.9s4,0.3,5.4,0.8s2.4,1.2,3,2c0.7,0.8,1.1,1.8,1.4,3c0.2,0.8,0.2,2.1,0.2,4.1v5.9
		c0,4.1,0.1,6.7,0.3,7.8s0.6,2.1,1.1,3.1h-4.6C816.7,1497.4,816.4,1496.4,816.2,1495.2z M815.9,1485.3c-1.6,0.7-4,1.2-7.2,1.7
		c-1.8,0.3-3.1,0.6-3.8,0.9s-1.3,0.8-1.7,1.4s-0.6,1.3-0.6,2.1c0,1.2,0.4,2.2,1.3,2.9s2.2,1.2,3.9,1.2s3.2-0.4,4.5-1.1
		s2.3-1.8,2.9-3c0.5-1,0.7-2.5,0.7-4.4L815.9,1485.3L815.9,1485.3z"/>
	<path d="M857.9,1495.2c-1.6,1.4-3.2,2.4-4.7,2.9c-1.5,0.6-3.1,0.8-4.8,0.8c-2.8,0-5-0.7-6.6-2.1s-2.3-3.2-2.3-5.3
		c0-1.3,0.3-2.4,0.9-3.5c0.6-1.1,1.3-1.9,2.3-2.5s2-1.1,3.2-1.4c0.9-0.2,2.2-0.4,3.9-0.7c3.5-0.4,6.2-0.9,7.8-1.5c0-0.6,0-1,0-1.2
		c0-1.8-0.4-3.1-1.2-3.8c-1.1-1-2.8-1.5-5-1.5c-2.1,0-3.6,0.4-4.6,1.1s-1.7,2-2.2,3.8l-4.3-0.6c0.4-1.8,1-3.3,1.9-4.5
		c0.9-1.1,2.2-2,3.9-2.6s3.7-0.9,5.9-0.9s4,0.3,5.4,0.8s2.4,1.2,3,2c0.7,0.8,1.1,1.8,1.4,3c0.2,0.8,0.2,2.1,0.2,4.1v5.9
		c0,4.1,0.1,6.7,0.3,7.8s0.6,2.1,1.1,3.1h-4.6C858.4,1497.4,858.1,1496.4,857.9,1495.2z M857.6,1485.3c-1.6,0.7-4,1.2-7.2,1.7
		c-1.8,0.3-3.1,0.6-3.8,0.9s-1.3,0.8-1.7,1.4s-0.6,1.3-0.6,2.1c0,1.2,0.4,2.2,1.3,2.9s2.2,1.2,3.9,1.2s3.2-0.4,4.5-1.1
		s2.3-1.8,2.9-3c0.5-1,0.7-2.5,0.7-4.4L857.6,1485.3L857.6,1485.3z"/>
	<path d="M872.9,1498.3h-4.1v-35.8h4.4v12.8c1.9-2.3,4.2-3.5,7.1-3.5c1.6,0,3.1,0.3,4.5,1c1.4,0.6,2.6,1.6,3.5,2.7
		c0.9,1.2,1.6,2.6,2.2,4.2c0.5,1.6,0.8,3.4,0.8,5.3c0,4.4-1.1,7.9-3.3,10.3s-4.8,3.6-7.9,3.6c-3.1,0-5.5-1.3-7.2-3.8V1498.3
		L872.9,1498.3z M872.8,1485.2c0,3.1,0.4,5.4,1.3,6.7c1.4,2.3,3.2,3.4,5.6,3.4c1.9,0,3.6-0.8,5-2.5s2.1-4.2,2.1-7.5
		c0-3.4-0.7-5.9-2-7.5s-3-2.4-4.9-2.4s-3.6,0.8-5,2.5C873.5,1479.6,872.8,1482,872.8,1485.2z"/>
	<path d="M913.5,1495.2c-1.6,1.4-3.2,2.4-4.7,2.9c-1.5,0.6-3.1,0.8-4.8,0.8c-2.8,0-5-0.7-6.6-2.1s-2.3-3.2-2.3-5.3
		c0-1.3,0.3-2.4,0.9-3.5c0.6-1.1,1.3-1.9,2.3-2.5s2-1.1,3.2-1.4c0.9-0.2,2.2-0.4,3.9-0.7c3.5-0.4,6.2-0.9,7.8-1.5c0-0.6,0-1,0-1.2
		c0-1.8-0.4-3.1-1.2-3.8c-1.1-1-2.8-1.5-5-1.5c-2.1,0-3.6,0.4-4.6,1.1s-1.7,2-2.2,3.8l-4.3-0.6c0.4-1.8,1-3.3,1.9-4.5
		c0.9-1.1,2.2-2,3.9-2.6s3.7-0.9,5.9-0.9s4,0.3,5.4,0.8s2.4,1.2,3,2c0.7,0.8,1.1,1.8,1.4,3c0.2,0.8,0.2,2.1,0.2,4.1v5.9
		c0,4.1,0.1,6.7,0.3,7.8s0.6,2.1,1.1,3.1h-4.6C914,1497.4,913.7,1496.4,913.5,1495.2z M913.2,1485.3c-1.6,0.7-4,1.2-7.2,1.7
		c-1.8,0.3-3.1,0.6-3.8,0.9s-1.3,0.8-1.7,1.4s-0.6,1.3-0.6,2.1c0,1.2,0.4,2.2,1.3,2.9s2.2,1.2,3.9,1.2s3.2-0.4,4.5-1.1
		s2.3-1.8,2.9-3c0.5-1,0.7-2.5,0.7-4.4L913.2,1485.3L913.2,1485.3z"/>
	<path d="M918.8,1508.4l0.8-3.7c0.9,0.2,1.6,0.3,2.1,0.3c0.9,0,1.6-0.3,2-0.9s0.7-2.1,0.7-4.5v-27.2h4.4v27.3c0,3.2-0.4,5.4-1.2,6.7
		c-1.1,1.6-2.8,2.4-5.3,2.4C921.1,1508.9,920,1508.7,918.8,1508.4z M924.4,1467.7v-5.1h4.4v5.1H924.4z"/>
	<path d="M933.9,1485.4c0-4.8,1.3-8.4,4-10.7c2.2-1.9,5-2.9,8.2-2.9c3.6,0,6.5,1.2,8.7,3.5s3.4,5.6,3.4,9.7c0,3.3-0.5,6-1.5,7.9
		s-2.5,3.4-4.4,4.5s-4,1.6-6.3,1.6c-3.6,0-6.6-1.2-8.8-3.5C935,1493.1,933.9,1489.8,933.9,1485.4z M938.4,1485.4
		c0,3.3,0.7,5.8,2.2,7.5s3.3,2.5,5.5,2.5s4-0.8,5.4-2.5c1.5-1.7,2.2-4.2,2.2-7.6c0-3.2-0.7-5.6-2.2-7.3s-3.3-2.5-5.4-2.5
		c-2.2,0-4,0.8-5.5,2.5C939.2,1479.6,938.4,1482.1,938.4,1485.4z"/>
</g>
<g>
	<path d="M378.3,936.5c19.2,15.4,47.1-12.6,48.7-29.3c0.3-0.1,0.9,19.9-14,29.8c-31.3,21.4-56-8.6-39.1-34
		c6.4-9.7,32.4-29.7,81.4-23.5c46.2,5.9,58.5,3.3,69.5,0.1c20.2-5.9,27.5-17.1,27.5-17.1c-16,28.7-66.5,26.9-92.5,22.3
		C377.2,870.3,358.7,920.6,378.3,936.5z M436.9,961.8c-11.3,29.5-25.7,48.7-35.5,54.9s-16,2.2-16,2.2s16-3.1,30.7-30.3
		c16.9-31.2,34.9-84.6,40.7-95c4.8-8.6,6.2-4.5,6.2-4.5C468.1,892.3,451.2,924.5,436.9,961.8z"/>
	<path d="M473,945.9c6.7-0.1,12,3.9,12,14.4c0,3.1-0.7,7.4-1.9,11.6c2.1-0.9,4.3-2.2,6.5-4c8.9-7.1,11-14.3,15.6-13.8
		c-4.9,3.7-9.1,12.3-17.4,17.4c-1.6,1-3.4,1.8-5.3,2.4c-3.3,9.9-9.7,19.9-16.9,19.6c-10.4-0.3-11.1-14-6.2-23.6
		c0.6-1.2,1.2-2.4,1.8-3.4C455,954.9,464.8,946,473,945.9z M466,972c-1.5,2.7-2.7,5.3-3.4,8c-1.9,7.3,1.8,15.1,8.2,9.5
		c3.1-2.8,6.7-8.6,9.2-15.1C475.1,975.3,470,974.8,466,972z M470.8,954c4-0.6,4.5,3.3,4.2,5.5c0,0.1-4.3,4.8-7.9,10.7
		c3.4,2.7,8.3,3.7,13.7,2.4c3.1-8.9,4-18.6-1.2-22.9c-7-5.9-15.3,0.9-16.8,5.9c-0.7,2.8-0.7,5.6,0,8
		C466.5,957.6,469.6,954.2,470.8,954z"/>
	<path d="M576.9,884.1c3.7,0.4,6.5,5.9,3.6,12.3c-3.7,9.2-37.1,45.6-42.9,47.5c-0.1,0-0.3,0.1-0.4,0.1c-3.7,8.8-5.9,17.1-8.2,23.9
		c-1.8,5.9-7.3,43.8-0.1,27.9c4.5-9.9,20.2-39.1,29.1-41.3c-12.8,12.8-22.1,32.5-25.1,38.2c-3.1,5.9-4.6,11.6-7.7,10.8
		c-5.8-1.2-7.7-18.9-2.7-38.8c0.6-2.4,1.3-4.9,2.2-7.6c-1.8,3.1-4.2,6.8-7,10.2c-6.5,8-13.2,15.9-18.9,8.9c-6.1-7,1.2-20.3,5.8-24.2
		c4-3.4,10.7-6.7,18.7-5.2c2.5,0.6,4,1.2,4.6,1.5c7-17.5,18-37.7,27.5-49.7c9.8-12.2,16.5-14.7,20.3-14.7H576.9z M506.4,960.1
		c-6.2,9.9-3.4,19,1.6,14.7c7.1-6.2,13.4-15.6,19.6-25.7c-0.6,0-1.2,0.1-1.2,0.1s-0.9-0.3-2.4-0.3
		C520.2,949,512.4,950.5,506.4,960.1z M570.9,893.9c-14.8,13.8-25.4,31.3-32.5,47.5c0.9-0.9,1.8-1.8,2.7-2.5
		c11.6-10.5,33.1-35.6,36.7-42.6c2.4-4.8,1.8-6.2,0.3-6.2C576.1,890,572.3,892.6,570.9,893.9z"/>
	<path d="M560.3,945.9c6.7-0.1,12,3.9,12,14.4c0,3.1-0.7,7.4-1.9,11.6c2.1-0.9,4.3-2.2,6.5-4c8.9-7.1,11-14.3,15.6-13.8
		c-4.9,3.7-9.1,12.3-17.4,17.4c-1.6,1-3.4,1.8-5.3,2.4c-3.3,9.9-9.7,19.9-16.9,19.6c-10.4-0.3-11.1-14-6.2-23.6
		c0.6-1.2,1.2-2.4,1.8-3.4C542.4,954.9,552.2,946,560.3,945.9z M553.3,972c-1.5,2.7-2.7,5.3-3.4,8c-1.9,7.3,1.8,15.1,8.2,9.5
		c3.1-2.8,6.7-8.6,9.2-15.1C562.4,975.3,557.3,974.8,553.3,972z M558.1,954c4-0.6,4.5,3.3,4.2,5.5c0,0.1-4.3,4.8-7.9,10.7
		c3.4,2.7,8.3,3.7,13.7,2.4c3.1-8.9,4-18.6-1.2-22.9c-7-5.9-15.3,0.9-16.8,5.9c-0.7,2.8-0.7,5.6,0,8
		C553.8,957.6,556.9,954.2,558.1,954z"/>
	<path d="M638.1,995.6c-0.4,4.3,0.1,7.7,4,2.2c11.6-16.2,25.7-38.5,37.6-43.7c-8.2,7.6-18.6,19.5-27,31.9
		c-11.6,17.1-13.2,18.1-16.5,16.3c-6.1-3.1-3.1-20.8,0.6-32.8c4.5-14.4,16.2-43.2,29.4-62.2c6.4-9.2,11.9-16.3,17.5-20
		c4.5-3.1,10.1-4.3,13.1,0.1c6.5,9.8-30.1,51.8-41.1,61.8c-2.1,1.9-3.6,3.3-4.8,4.2C641.7,975.1,639,987.7,638.1,995.6z
		 M657.4,939.2c-1.8,3.7-3.4,7.3-4.9,10.5c5.8-5.9,16.5-17.2,22.7-25.2c14.3-18.3,18.7-27.5,19.7-31.6c2.5-10.4-8,0.4-11,3.7
		C679.1,902.1,669.6,914.1,657.4,939.2z"/>
	<path d="M670.9,995.6c-0.4,4.3,0.1,7.7,4,2.2c11.6-16.2,25.7-38.5,37.6-43.7c-8.2,7.6-18.6,19.5-27,31.9
		c-11.6,17.1-13.2,18.1-16.5,16.3c-6.1-3.1-3.1-20.8,0.6-32.8c4.5-14.4,16.2-43.2,29.4-62.2c6.4-9.2,11.9-16.3,17.5-20
		c4.5-3.1,10.1-4.3,13.1,0.1c6.5,9.8-30.1,51.8-41.1,61.8c-2.1,1.9-3.6,3.3-4.8,4.2C674.5,975.1,671.8,987.7,670.9,995.6z
		 M690.2,939.2c-1.8,3.7-3.4,7.3-4.9,10.5c5.8-5.9,16.5-17.2,22.7-25.2c14.3-18.3,18.7-27.5,19.7-31.6c2.5-10.4-8,0.4-11,3.7
		C711.9,902.1,702.4,914.1,690.2,939.2z"/>
	<path d="M706.9,969c-2.4,11.4,3.9,15.9,10.4,13.2c11-4.3,21.4-28.4,29.1-28.2c-7.6,7-8.2,9.2-13.4,15.9c-6.8,8.8-14,16.3-22.4,15.4
		c-11.1-1.2-12.5-15.1-9.7-21.7c3-6.8,8.9-14.6,18.3-15.1c7.7-0.4,10.7,6.8,3.3,13.1c-4.5,3.7-11,5.5-15.3,6.2
		C707.2,968.1,706.9,968.7,706.9,969z M713.3,964.7c12-4,14.1-13.1,7.9-11.6c0,0-9.8,1.2-13.5,13.1
		C709.1,965.9,711.2,965.5,713.3,964.7z"/>
	<path d="M750.7,980.8c5.8-1.6,10.4-1.3,13.8,0.3c14.1-9.1,22.3-15.1,29-27c-1.5,9.5-12.8,18.9-27.2,28.2c6.4,4.3,7.9,13.8,6.4,21.5
		c-2.8,14-11.1,25.8-26.6,35.5c-11.6,7.3-27.2,9.1-33.1,4.9c-15.4-10.7,6.7-34.4,23.2-45.1c10.2-6.7,18.6-11.9,25.5-16.2
		c-2.5-1-5.8-1.5-10.1-0.4c-7,1.6-11.7,3.6-11.7,3.6S744.6,982.2,750.7,980.8z M737.8,1000.4c-35.6,23.5-35,52.6-5.9,39.2
		c33-15.3,37.6-38.5,35.9-48.4c-0.4-2.7-1.6-5.5-4.2-7.3C755.4,989.2,746.4,994.6,737.8,1000.4z M765.1,952.1
		c0.7,0.4,1.6,1.2,2.1,2.5c2.5,7.6-6.4,19.2-16.9,24.9c-9.7,5.3-16,3.1-17.5-5c-2.4-13.2,13.1-23.5,20.2-25.4c3.1-0.9,5.5-1,7.4-1
		C765.1,948.2,766.4,950.8,765.1,952.1z M744.9,961.6c-7.7,8.2-9.4,18.1-3.3,17.7c6.2-0.4,12.9-5,18.9-12.3c4.8-5.9,4.5-12,3.1-14.4
		C760.9,952.5,752.3,953.9,744.9,961.6z"/>
	<path d="M813.6,989.2c8.5-12.5,18.9-33.7,26.1-35.3c-7.4,8.5-9.4,12.3-13.7,19.2c-8.2,13.2-12.6,22.1-17.4,21.4
		c-5.3-0.9-10.2-7.9-4.8-22.9c0.1-0.6,0.4-1.2,0.6-1.8c-6.1,7.4-11.9,14.6-17.5,8.2c-5.8-6.5-0.1-18.3,5.2-23.2
		c3.9-3.6,11.1-6.7,18.9-4.8c8.6,2.2,2.1,2.2,2.1,2.2s-11-2.4-18.9,10.2c-5.8,9.4-2.5,17.8,2.1,13.5c2.5-2.4,8-9.4,12.3-14.8
		c2.2-3.6,4.6-7.9,6.8-7.9c2.2-0.1,7.7,0.6,2.8,6.8C804.9,977.6,804.6,1002.4,813.6,989.2z"/>
	<path d="M850.3,983.1c-1.9,1.9-4.8,1.3-5.2-1c-0.4-2.5,0.1-4.8,3-4.8C851.5,977.3,852.2,981.2,850.3,983.1z"/>
	<path d="M875.9,983.1c-1.9,1.9-4.8,1.3-5.2-1c-0.4-2.5,0.1-4.8,3-4.8C877,977.3,877.8,981.2,875.9,983.1z"/>
	<path d="M901.4,983.1c-1.9,1.9-4.8,1.3-5.2-1c-0.4-2.5,0.1-4.8,3-4.8C902.6,977.3,903.3,981.2,901.4,983.1z"/>
</g>
</svg>
