<?xml version="1.0" encoding="utf-8"?>
<!-- Generator: Adobe Illustrator 25.4.1, SVG Export Plug-In . SVG Version: 6.00 Build 0)  -->
<svg version="1.1" id="regalo" xmlns="http://www.w3.org/2000/svg" xmlns:xlink="http://www.w3.org/1999/xlink" x="0px" y="0px"
	 viewBox="0 0 1242 2208" style="enable-background:new 0 0 1242 2208;" xml:space="preserve">
<style type="text/css">
	.st0{enable-background:new    ;}
	.st1{fill:#4D4D4D;}
	.st2{fill:none;}
</style>
<script  type="text/ecmascript">
	<![CDATA[
      function changerect(evt) {
        console.log("aaaaa")
		navigator.clipboard.writeText("ES7521000340600101215665").then(function() {
          /* Alert the copied text */
          alert("Cuenta: ES75 2100 0340 6001 0121 5665");
        });
      }
    
		
		
		
		
		
		
		
		
		]]>
</script>
<g class="st0">
	<path class="st1" d="M488.1,586.1c24.4-12.7,25.7-18.9,28.3-22.6c0.7-1.7,2.2-3.7,4.6-1.3c2.8,2.8,1.4,7.4,1.4,7.4
		s-8.9,17.9-16.8,35.1c5.9-7.2,18.2-21.4,31.1-28c9.5-4.9,22.6-6.9,28.8,0.3c7.8,9.4,2.9,25-8.9,38.4
		c-16.6,18.9-35.2,23.8-39.5,26.4c9.2,0.3,19.2,8.2,18.8,20.9c-0.4,12.8-7.2,18.5-7.5,32c-0.3,13.4,14.3,9.8,27.9-20
		c11.1-24.4,14.7-31.1,19.2-31.9c-8.8,5.2-22.1,61.3-42.7,61.2c-13.4,0-11.4-19.7-4.6-37.2c6.5-16.5-5.2-26.8-18.9-21.8
		c-13.7,5.1-10.7-3.9-10.7-3.9s2.8-0.6,7.4-2c4.6-1.4,14.4-3.7,26.1-11c20-12.4,29-24.4,32-38.7c3.6-16.6-10.5-18-23.1-12.4
		c-18.6,8.2-38.5,35.8-38.5,35.8l-0.9,0.9c-1.4,3.2-2.8,6.3-3.9,9.1c-7.7,18.6-24.5,64.1-36.8,74.4c-11,9.2-17.9-0.4-16-12.3
		c3.3-22.8,21.5-46.2,46.9-67.5c5.5-13.1,12-27.4,19.5-43.1c-24.1,24.5-79.8,25.5-81.1,66.5C427.7,608.9,458.1,601.7,488.1,586.1z
		 M447.3,690.5c0.1,9.2,6.3,9.2,12.8-0.6s13.6-25.1,22.1-48.3c2.5-6.5,5.2-13.4,8.4-20.8C468.7,641.1,447,666.7,447.3,690.5z"/>
	<path class="st1" d="M569,658.3c-2.5,11.8,4,16.5,10.8,13.7c11.4-4.5,22.2-29.4,30.2-29.3c-7.8,7.2-8.5,9.5-13.9,16.5
		c-7.1,9.1-14.4,16.9-23.2,16c-11.5-1.3-13-15.7-10-22.5c3-7.1,9.2-15.1,18.9-15.7c8.1-0.4,11.1,7.1,3.3,13.6
		c-4.6,3.9-11.4,5.6-15.9,6.5C569.3,657.4,569,658.1,569,658.3z M575.6,653.9c12.4-4.2,14.6-13.6,8.2-12c0,0-10.1,1.3-14,13.6
		C571.3,655.1,573.5,654.6,575.6,653.9z"/>
</g>
<g class="st0">
	<path class="st1" d="M613.1,670.2c6.1-1.7,11-1.4,14.5,0.3c14.9-9.5,23.5-16,30.5-28.6c-1.6,10-13.5,19.9-28.7,29.8
		c6.7,4.5,8.3,14.5,6.7,22.7c-2.9,14.7-11.7,27.3-28,37.4c-12.2,7.6-28.7,9.5-34.9,5.1c-16.3-11.3,7-36.4,24.5-47.6
		c10.8-7,19.6-12.6,27-17c-2.6-1-6.1-1.6-10.7-0.4c-7.3,1.7-12.3,3.8-12.3,3.8S606.6,671.8,613.1,670.2z M599.4,690.9
		c-37.7,24.8-37,55.4-6.3,41.4c34.8-16.1,39.6-40.6,38-51c-0.4-2.8-1.7-5.8-4.4-7.6C618.1,679.2,608.5,684.8,599.4,690.9z
		 M628.3,640c0.7,0.4,1.7,1.3,2.2,2.6c2.6,7.9-6.7,20.2-17.9,26.4c-10.1,5.6-16.9,3.2-18.5-5.3c-2.5-13.9,13.8-24.8,21.3-26.8
		c3.2-0.9,5.8-1,7.8-1C628.3,635.9,629.7,638.6,628.3,640z M606.9,650c-8.2,8.6-9.8,19.1-3.5,18.6c6.6-0.4,13.6-5.3,19.9-13
		c5-6.3,4.7-12.7,3.2-15.2C623.9,640.5,614.8,641.9,606.9,650z"/>
</g>
<g class="st0">
	<path class="st1" d="M677.4,679.3c8.8-13,19.6-34.9,27.1-36.6c-7.7,8.8-9.7,12.8-14.1,19.9c-8.5,13.7-13.1,22.9-18,22.2
		c-5.5-0.9-10.7-8.2-4.9-23.7c0.1-0.6,0.4-1.3,0.6-1.9c-6.3,7.7-12.3,15.1-18.2,8.5c-6-6.8-0.1-18.9,5.4-24.1
		c4-3.7,11.5-6.9,19.6-4.9c8.9,2.3,2.2,2.3,2.2,2.3s-11.4-2.5-19.6,10.7c-6,9.7-2.6,18.5,2.2,14c2.6-2.5,8.4-9.7,12.8-15.4
		c2.3-3.7,4.8-8.2,7.1-8.2c2.3-0.1,8.1,0.6,2.9,7.1C668.3,667.3,668,693,677.4,679.3z"/>
	<path class="st1" d="M694.1,685.9c-0.4,4.5,0.1,8.1,4.2,2.3c12-16.8,26.7-39.8,39-45.3c-8.5,7.8-19.2,20.2-28,33.2
		c-12,17.7-13.7,18.8-17,16.9c-6.3-3.2-3.2-21.5,0.6-34c4.6-15,16.8-44.9,30.5-64.5c6.6-9.5,12.3-16.9,18.2-20.8
		c4.6-3.2,10.5-4.5,13.6,0.1c6.8,10.1-31.3,53.8-42.7,64.1c-2.2,2-3.7,3.3-4.9,4.3C697.9,664.7,695.1,677.7,694.1,685.9z
		 M714.2,627.3c-1.9,3.9-3.6,7.5-5.1,11c6-6.2,17-17.9,23.5-26.1c14.7-18.9,19.5-28.4,20.5-32.8c2.6-10.8-8.4,0.4-11.4,3.9
		C736.7,588.8,726.9,601.4,714.2,627.3z"/>
	<path class="st1" d="M737.1,634.3c6.9-0.1,12.4,4,12.4,15c0,3.2-0.7,7.7-2,12c2.2-0.9,4.5-2.3,6.8-4.2c9.2-7.4,11.4-14.7,16.2-14.3
		c-5.1,3.9-9.4,12.8-18,18c-1.7,1-3.6,1.9-5.5,2.5c-3.3,10.4-10,20.6-17.6,20.3c-10.8-0.3-11.5-14.4-6.5-24.5
		c0.6-1.3,1.3-2.5,1.9-3.6C718.5,643.7,728.7,634.4,737.1,634.3z M729.9,661.4c-1.6,2.8-2.8,5.5-3.6,8.4c-2,7.5,1.9,15.7,8.5,9.8
		c3.2-2.9,6.9-8.9,9.5-15.7C739.3,664.8,734.1,664.3,729.9,661.4z M734.8,642.8c4.2-0.6,4.6,3.3,4.3,5.6c0,0.1-4.5,4.9-8.2,11.1
		c3.6,2.8,8.6,3.9,14.1,2.5c3.2-9.2,4.2-19.2-1.3-23.7c-7.2-6.2-15.9,0.9-17.4,6.2c-0.7,2.9-0.7,5.9,0,8.4
		C730.3,646.5,733.6,642.9,734.8,642.8z"/>
</g>
<g>
	<path class="st1" d="M723.2,413.9c-0.2-0.6-0.7-1-1.4-1.2l-45.3-2.8c-0.3,0-0.5,0-0.9-0.1c0.1-0.6,0.1-1.5,0.2-2.3
		c0.2-4.2,0.4-8.4,0.6-12.6c0.1-2.1,0.2-4.2,0.3-6.3c0.3-5.8-3-9-9.9-9.4c-2.6-0.2-5.2,0-7.9,0.1c-2.1,0.1-4.3,0.2-5.9,0.1
		c-0.4,0-0.9,0-1.4-0.1c0.3-0.1,0.6-0.2,1-0.3c3.6-1,8.2-2.6,11.6-5.9c0.7-0.7,1.9-1.9,2.3-3.6c0.3-1.3,0.2-2.5,0.1-3.7
		c-1.5-10.7-4.2-18.6-9.6-28.4l-0.1,0.1c-1.5-4.4-5.2-8.1-9.8-9c-7-1.4-13.3,3.2-17.6,6.8c-7,6.1-13.2,13-18.5,20.7
		c-2.6,3.8-4.9,7.8-7.1,12.2c0,0-0.7,1.7-1.2,3.5c-0.4-0.2-1-0.3-1.5-0.3c-1.9-0.2-3.6,0.3-5,1c-0.3-2.1-1.3-4.2-1.3-4.2
		c-2.1-4.4-4.6-8.5-7.1-12.2c-5.2-7.7-11.4-14.6-18.5-20.7c-4.2-3.6-10.6-8.2-17.6-6.8c-4.6,0.9-8.4,4.5-9.8,9l-0.1-0.1
		c-5.6,9.8-8.3,17.8-9.6,28.4c-0.1,1.2-0.2,2.5,0.1,3.7c0.4,1.6,1.6,2.8,2.3,3.6c3.5,3.2,7.9,4.8,11.6,5.9c0.6,0.2,1.4,0.3,2,0.5
		c-0.9,0-1.9-0.1-3-0.2c-4.9-0.3-12.9-1.3-16,1.7c-1.7,1.6-2.6,3.8-2.6,6.8c0,2.8-0.1,5.8-0.2,8.6c-0.1,3.3-0.2,6.9-0.2,10.2
		c-0.4,0.2-0.9,0.3-1.5,0.5c-3.7,1.4-8.1,2.8-12.7,3c-4.1,0.2-7.1,0.2-9.5-0.1c-0.1,0-0.4,0-0.6-0.1c-3.7-0.4-8.4-2.8-11.8-2.6
		c0.4,0,7.1,11.6,8.1,12.9c2.6,3.8,4.4,7.9,7,11.6c1.8,2.5,10.9-1.7,13.1-2.2c8.1-2.2,16.3-4.5,24.4-8.3c-0.5,11-1,22.2-1.3,33.3
		c-0.2,7.7,0.4,15.5,1,23c0.4,6.5,1,13.2,1,19.8c0.1,8.5,9.8,12.1,18.9,12.7c15.4,0.9,30.6,1,45.1,1.2c6.5,0,13.4-0.2,22.1-0.6
		c2.2-0.1,4.6,0.1,7.1,0.4c2.2,0.2,4.6,0.5,6.8,0.5c2.8,0,5.4-0.3,8.1-1.7c3.2-1.6,5.8-4.9,7-9.9l0,0c1.8-6.7,1.7-14.1,1.5-21.3
		c0-2.2-0.1-4.3-0.1-6.3c0-3.6-0.1-7.3-0.2-10.9c-0.2-6.3-0.3-12.7,0.1-18.8c0.4-5.9,0.5-11.9,0.4-18.5c2.3,1.6,4.8,2.8,7.5,3.6
		c5.2,1.6,10.8,1.4,16,1.2c1.6-0.1,3.1-0.1,4.6-0.2c8.3-0.1,14.1,1.7,17.8,5.6c0.2,0.2,0.5,0.4,0.9,0.4c0.1,0,0.2,0,0.3,0
		c0.4,0,0.9-0.3,1.3-0.7c4.3-6.5,9.1-12.8,14.1-18.6C723.2,415.2,723.4,414.5,723.2,413.9z M652.8,383.5c1.8,0.1,4.1,0,6.3-0.1
		c2.6-0.1,5.1-0.3,7.5-0.1c5.6,0.4,6.6,2.5,6.5,5.3c-0.1,2.1-0.2,4.2-0.3,6.3c-0.2,4.2-0.4,8.3-0.6,12.6c0,0.6-0.1,1.5-0.2,2.2
		c-2.3-0.2-4.8-0.6-7-1.5c-6.3-2.1-11.1-6.9-16.3-12.1c-2.5-2.5-5-4.9-7.7-7c-2.2-1.9-5.2-3.9-8.6-5.8c1.7-0.1,3.3-0.3,5.1-0.5
		C642.7,382.8,647.8,383.1,652.8,383.5z M657.1,345.9c3.1,6.7,4.9,13,6,20.8c0.1,0.7,0.2,1.6,0,2.1c-0.1,0.5-0.5,1.2-1.3,1.8
		c-2.8,2.7-6.8,4.1-9.9,4.9c-10,2.8-18.9,4.2-26.7,4.2c-4.8-2-9.8-3.3-14.5-3.3c1.9-0.3,3.9-0.4,6-0.4c11-3.6,20.1-9.6,30.4-17.6
		C651.4,354.9,655.6,350.9,657.1,345.9z M653.9,343c-0.5,4.9-4.8,8.9-9.3,12.3c-8.4,6.6-16,11.7-24.5,15.3
		c7.1-13.4,19.5-24.3,33.8-29.6C654,341.6,654,342.3,653.9,343z M607.7,370.3c2.1-4.3,4.4-8.2,6.8-11.7c5-7.4,11-14.1,17.8-19.9
		c5.8-4.8,10.1-6.7,14.3-6c2.6,0.4,4.8,2.3,6.2,4.7c-16.5,6.1-30.5,19-37.9,35.1l0,0c-2.7,0.9-5.3,1.6-8.3,2.1l0,0
		C606.5,373.6,607,371.4,607.7,370.3z M597.9,376.3c1.3-0.5,2.2-0.9,3.2-0.7c0.7,0.1,1.6,0.6,2.1,1.6c0.1,0.2,0.2,0.4,0.3,0.7
		c-0.1,0.1-0.2,0.2-0.2,0.3c-1.8,0-3.6,0-5.2,0C597.9,377.6,597.8,376.8,597.9,376.3z M589.4,385.4c1.2-0.9,2.8-2.1,4.1-2.9
		c-1.2,9.9-2,19.9-2.7,30c-9.5,0.1-19,0.3-28.3,0.4c-2,0-4.1,0.1-6.1,0.1c2.8-2.5,5.2-5.1,7.7-7.7c2.8-2.9,5.8-6,9-8.7
		c4.1-3.3,8.7-6.2,12.8-8.5C586.4,387.5,587.6,386.8,589.4,385.4z M552.9,332.7c0.5-0.1,1.3-0.2,1.8-0.2c3.6,0,7.6,2,12.6,6.2
		c6.7,5.9,12.8,12.6,17.8,19.9c2.5,3.6,4.8,7.6,6.8,11.7c0.5,1.2,1.2,3.2,1,4.2l0,0c-2.8-0.5-5.4-1.3-8.4-2.1h0.1
		c-7.1-16-21.2-29.1-37.9-35.1C547.9,334.9,550.2,333.1,552.9,332.7z M545.5,341c14.3,5.2,26.8,16.1,33.8,29.7
		c-6.8-2.9-14.4-7.4-24.5-15.4c-4.5-3.5-8.7-7.4-9.3-12.3C545.4,342.3,545.4,341.6,545.5,341z M547.5,375.6
		c-3.1-0.9-7.1-2.2-9.9-4.9c-0.6-0.6-1.2-1.3-1.3-1.8s-0.1-1.4,0-2.1c1-7.7,2.8-14.1,6-20.8c1.6,5,5.9,8.9,10.1,12.3
		c12.2,9.5,22.8,16.2,36.7,19.3c-1.2,0.3-2.2,0.5-3.3,0.9c-1.6,0.2-3.1,0.4-4.7,0.7C571.6,380.5,560.6,379.2,547.5,375.6z
		 M530.5,396.8c0.1-2.9,0.2-5.9,0.2-8.6c0-1.9,0.4-3.2,1.4-4.1c2-1.8,9-1,13.1-0.6c2,0.1,4.2,0.3,6.1,0.2c4.3-0.2,8.5-0.4,13-0.6
		c1.6,0.2,3.1,0.3,4.7,0.4c-6.1,2.7-11.9,6.3-18.1,10c-0.7,0.4-1.6,0.9-2.2,1.5c-6,3.7-12.1,7.5-18.3,10.6
		C530.3,402.4,530.4,399.6,530.5,396.8z M517.5,426.8c-3.5,0.9-7,1.9-10.7,3c-0.4-1.8-1.9-4.7-5.4-10.2c-1.5-2.3-3-4.6-4.4-6.4
		c1.3,0.2,2.8,0.4,4.6,0.6c0.3,0,0.5,0.1,0.6,0.1c2.7,0.3,6,0.4,10.1,0.2c5-0.2,9.7-1.8,13.7-3.2c8.4-3.1,16.4-8.2,24.2-13
		c0.7-0.4,1.6-0.9,2.2-1.5c12.1-7.5,23.3-13.9,35.9-14.6c-0.4,0.3-0.7,0.6-1.4,1c-1.4,1-2.7,2-3.2,2.3c-4.3,2.5-9.1,5.3-13.3,9
		c-3.5,2.9-6.4,6.1-9.3,9.1c-4.8,5-9.4,9.8-15.8,13.5C536.6,421.5,527.3,424.1,517.5,426.8z M562.7,506.7
		c-1.6-0.1-15.4-1.2-15.4-8.9c0-6.7-0.5-13.5-1-20.2c-0.5-7.4-1.2-15.1-1-22.6c0.2-11.7,0.7-23.7,1.4-35.3c0.2-0.1,0.4-0.2,0.7-0.4
		c1.5-0.7,2.7-1.7,4.1-2.6c3.7,0,7.3-0.1,11-0.1c9.2-0.1,18.6-0.2,28-0.4c-1.9,30.4-1.6,61,0.7,91.4
		C581.8,507.5,572.3,507.3,562.7,506.7z M606.7,507.8c-3.8,0-7.7,0-11.6-0.1c-2.5-30.4-0.5-95.4-0.5-95.4
		c0.6-10.1,1.6-20.3,2.8-30.4c2.7,0,5.3,0,7.9,0c0.6,10,1.4,20.2,1.8,30.2C606.7,412.2,608.2,477.2,606.7,507.8z M656,442.7
		c-0.4,6.4-0.2,12.9-0.1,19.2c0.1,3.6,0.2,7.1,0.2,10.8c0,2.1,0,4.2,0.1,6.4c0.2,6.9,0.3,14.1-1.4,20.3l0,0c-1.2,3.9-2.8,6.5-5,7.6
		c-3.7,1.8-8.3,1.3-12.8,0.7c-2.1-0.2-4.4-0.4-6.5-0.4c-0.4,0-0.9,0-1.3,0c-7.1,0.3-13.2,0.5-18.8,0.5c1.5-30.4,1.6-61.2,0.3-91.9
		c8.4-0.1,16.9,0.3,25.2,0.6c1.5,0.1,2.8,0.1,4.3,0.2c3.8,0.1,7.5,0.2,11.1,0.1c1.6,1.7,3.2,3.2,5,4.7
		C656.6,429.1,656.4,436,656,442.7z M609.2,384.3c2.1,1.3,4.4,2.3,6.6,3.5c3,1.6,6.3,3.1,9.1,5c6.7,4.5,13,9.7,18.6,15.6
		c1.3,1.3,2.5,2.6,3.6,3.8c0.2,0.3,0.5,0.5,0.7,0.9c-2.5,0-4.9,0-7.4-0.1c-1.5-0.1-2.8-0.1-4.3-0.2c-8.4-0.3-16.9-0.6-25.5-0.6
		C610.3,402.8,609.8,393.6,609.2,384.3z M707.1,430.7c-3-2.6-6.9-4.2-11.9-4.8c-2-0.2-4.3-0.3-6.7-0.3c-1.6,0-3.1,0.1-4.7,0.2
		c-5.2,0.2-10.2,0.4-15-1c-7.6-2.3-13.7-8.7-19.3-15c-1.3-1.3-2.5-2.6-3.7-3.9c-5.9-6.1-12.2-11.4-19.1-16c-3-2-6.3-3.7-9.4-5.2
		c-2.8-1.5-5.9-2.9-8.5-4.7c9.5-1,22.8,5.9,30.2,11.8c2.6,2.1,5,4.5,7.5,6.9c5.1,5.1,10.6,10.5,17.5,12.8c4.2,1.5,8.4,1.7,12.6,1.9
		l41.8,2.6C714.1,420.7,710.5,425.6,707.1,430.7z"/>
</g>
<a onclick="changerect()" pointer-events="all">
	<g>
		<rect x="436" y="1338.1" class="st2" width="341.4" height="178.3"/>
		<path class="st1" d="M465.7,1378.5h14.4h2.2v2.2v87.2c0,3,1.3,5.6,3.1,7.6c2,2,4.6,3.1,7.6,3.1h55h2.2v2.2v9.3
			c0,4.3-1.8,8.1-4.6,11c-2.9,2.9-6.7,4.6-11,4.6h-69.3c-4.3,0-8.1-1.8-11-4.6c-2.9-2.9-4.6-6.7-4.6-11v-96.3c0-4.3,1.8-8.1,4.6-11
			C457.4,1380.2,461.5,1378.5,465.7,1378.5L465.7,1378.5z M477.8,1383h-12.1c-3,0-5.6,1.3-7.6,3.1c-2,2-3.2,4.6-3.2,7.6v96.3
			c0,3,1.3,5.6,3.2,7.6c2,2,4.6,3.1,7.6,3.1h69.5c3,0,5.6-1.3,7.6-3.1c2-2,3.1-4.6,3.1-7.6v-6.9h-52.8c-4.3,0-8.1-1.8-11-4.6
			c-2.9-2.9-4.6-6.7-4.6-11V1383H477.8L477.8,1383z"/>
		<g>
			<g>
				<g>
					<g class="st0">
						<path class="st1" d="M627.5,1400.6l0.9,13.3h-0.9c-1.3-4.2-3-6.8-5.1-8.6c-2.2-1.8-4.8-2.6-7.9-2.6c-2.6,0-4.8,0.7-6.9,2
							c-2.1,1.3-3.7,3.5-4.8,6.4c-1.3,2.9-1.8,6.5-1.8,10.8c0,3.5,0.4,6.7,1.8,9.1c1,2.6,2.9,4.6,5.1,6c2.2,1.4,4.8,2.1,7.7,2.1
							c2.6,0,4.7-0.4,6.7-1.5c2-1,4.2-3.1,6.5-6.5l0.9,0.4c-2,3.5-4.3,6-6.8,7.7c-2.6,1.5-5.9,2.5-9.3,2.5c-6.5,0-11.4-2.5-15.3-7.3
							c-2.6-3.5-4.2-7.7-4.2-12.7c0-3.8,0.9-7.6,2.6-10.8c1.8-3.3,4.3-5.9,7.3-7.6c3.1-1.8,6.5-2.6,10-2.6c2.9,0,5.6,0.7,8.5,2.1
							c0.9,0.3,1.4,0.7,1.8,0.7c0.4,0,1-0.1,1.4-0.4c0.4-0.4,0.9-1.3,1-2.1h0.9v-0.4H627.5L627.5,1400.6L627.5,1400.6z"/>
						<path class="st1" d="M646.2,1413.7c4.2,0,7.3,1.5,9.7,4.6c2.1,2.6,3.1,5.6,3.1,9c0,2.2-0.4,4.7-1.8,7.3
							c-1.3,2.5-2.6,4.3-4.7,5.4c-2,1.3-4.3,2-6.7,2c-4.2,0-7.3-1.5-9.5-4.7c-2-2.6-3-5.6-3-9c0-2.5,0.4-4.8,1.8-7.3
							c1.3-2.2,2.9-4.3,4.7-5.3C642,1414.1,644.2,1413.7,646.2,1413.7z M645.3,1415.5c-1,0-2.1,0.3-3,0.9c-1,0.4-2,1.8-2.5,3.1
							c-0.7,1.5-0.9,3.5-0.9,5.9c0,3.8,0.7,7.3,2.2,10c1.5,2.9,3.5,4.3,6.3,4.3c2,0,3.3-0.7,4.6-2.2s1.8-4.3,1.8-7.9
							c0-4.7-1-8.5-3-11.1C649.3,1416.3,647.4,1415.5,645.3,1415.5z"/>
						<path class="st1" d="M660.9,1417l8.1-3.3h1v6.3c1.4-2.2,2.9-3.8,4.2-4.8c1.4-0.9,2.9-1.4,4.4-1.4c2.6,0,4.8,1,6.7,3.1
							c2.1,2.5,3.3,5.9,3.3,10c0,4.6-1.3,8.2-3.8,11.2c-2.1,2.5-4.8,3.7-8.1,3.7c-1.4,0-2.6-0.1-3.7-0.4c-0.7-0.3-1.5-0.9-2.6-1.8
							v8.1c0,1.8,0.1,3,0.3,3.5c0.1,0.4,0.4,0.9,1.3,1.3c0.4,0.3,1.5,0.3,3,0.3v1h-14v-1h0.7c1,0,2-0.1,2.9-0.4
							c0.3-0.1,0.7-0.4,0.9-1c0.1-0.4,0.3-1.8,0.3-3.7v-25.1c0-1.8,0-2.9-0.1-3.3s-0.3-0.9-0.7-1c-0.3-0.1-0.7-0.3-1.4-0.3
							c-0.4,0-1,0.1-1.8,0.3L660.9,1417z M670.3,1421.7v9.8c0,2.1,0,3.5,0.1,4.3c0.3,1,0.9,2.1,2,3s2.2,1.3,4.2,1.3s3.5-0.7,4.7-2.2
							c1.5-2,2.2-4.7,2.2-8.2c0-4.2-0.9-7.3-2.6-9.3c-1.3-1.4-2.6-2.2-4.4-2.2c-0.9,0-1.8,0.1-2.9,0.7
							C673.1,1418.8,671.9,1419.7,670.3,1421.7z"/>
						<path class="st1" d="M701.7,1413.7v21.2c0,1.8,0.1,2.9,0.3,3.3c0.1,0.4,0.4,0.9,1,1.3c0.4,0.3,1.4,0.3,2.6,0.3v1h-12.9v-1
							c1.3,0,2.1-0.1,2.6-0.3c0.4-0.1,0.7-0.7,1-1.3c0.1-0.4,0.3-1.8,0.3-3.3v-10.1c0-2.9,0-4.7-0.1-5.6c-0.1-0.7-0.3-1-0.7-1.3
							c-0.3-0.1-0.7-0.3-1.3-0.3c-0.4,0-1.3,0.1-2,0.3l-0.3-1l7.9-3.1L701.7,1413.7L701.7,1413.7z M699.4,1399.7
							c0.9,0,1.5,0.3,2.1,0.9c0.4,0.4,0.9,1.3,0.9,2.1c0,0.7-0.3,1.4-0.9,2.1c-0.4,0.4-1.3,0.9-2.1,0.9c-0.9,0-1.5-0.3-2.1-0.9
							c-0.4-0.4-0.9-1.3-0.9-2.1c0-0.8,0.3-1.5,0.9-2.1C697.8,1400,698.4,1399.7,699.4,1399.7z"/>
						<path class="st1" d="M724,1437c-2.6,2.1-4.4,3.3-5.1,3.7c-1,0.4-2.1,0.7-3.3,0.7c-1.8,0-3.3-0.7-4.6-2s-1.8-2.9-1.8-4.8
							c0-1.3,0.3-2.5,0.9-3.3c0.7-1.3,2.1-2.6,4.2-3.7c2-1,5.3-2.6,9.7-4.3v-1c0-2.6-0.3-4.4-1.3-5.4c-0.9-1-2.1-1.4-3.7-1.4
							c-1.3,0-2.1,0.3-2.9,1c-0.7,0.7-1,1.4-1,2.2v1.8c0,0.9-0.1,1.5-0.7,2.1c-0.4,0.4-1,0.7-1.8,0.7c-0.7,0-1.3-0.1-1.8-0.7
							c-0.4-0.4-0.7-1.3-0.7-2.1c0-1.5,0.9-3.1,2.5-4.6c1.8-1.4,4.2-2.1,7.3-2.1c2.2,0,4.3,0.3,5.9,1.3c1,0.4,2,1.5,2.5,2.9
							c0.3,0.9,0.4,2.5,0.4,5.1v9c0,2.5,0,4.2,0.1,4.6s0.1,0.9,0.4,1.3c0.1,0.1,0.4,0.3,0.7,0.3s0.4,0,0.7-0.1s1.3-0.9,2.2-2.1v1.5
							c-2.1,2.9-4.3,4.4-6.3,4.4c-0.9,0-1.8-0.3-2.2-1C724.4,1439.7,724,1438.5,724,1437z M724,1435v-10c-2.9,1.3-4.7,2-5.6,2.5
							c-1.5,0.9-2.6,1.8-3.1,2.6c-0.7,0.9-1,2-1,3c0,1.4,0.3,2.5,1.3,3.5c0.9,1,1.8,1.4,2.9,1.4C719.7,1438,721.7,1437.1,724,1435z"
							/>
						<path class="st1" d="M742.9,1413.7v6c2.2-4.2,4.6-6,6.8-6c1,0,2,0.3,2.6,1c0.7,0.7,1,1.4,1,2.2c0,0.7-0.1,1.4-0.7,2
							c-0.4,0.4-1,0.7-1.8,0.7s-1.4-0.3-2.2-1c-0.9-0.7-1.4-1-1.8-1c-0.3,0-0.7,0.1-1.3,0.4c-0.9,0.7-1.8,2.1-2.6,3.8v12.7
							c0,1.4,0.1,2.6,0.4,3.3c0.1,0.4,0.7,0.9,1.3,1.3c0.7,0.3,1.5,0.4,2.9,0.4v1H734v-1c1.4,0,2.2-0.1,3-0.7c0.4-0.3,0.9-0.9,1-1.4
							c0.1-0.3,0.1-1.3,0.1-2.9v-10.1c0-3,0-4.8-0.1-5.4c-0.1-0.4-0.3-1-0.7-1.3s-0.7-0.3-1.3-0.3c-0.5,0-1.3,0.1-2,0.3l-0.3-1
							l8.1-3.1L742.9,1413.7L742.9,1413.7L742.9,1413.7L742.9,1413.7L742.9,1413.7z"/>
					</g>
				</g>
			</g>
		</g>
		<path class="st2" d="M563.4,1480.6h-68.9c-6.5,0-11.9-5.3-11.9-11.9v-97.8c0-6.5,5.3-11.9,11.9-11.9h68.9
			c6.5,0,11.9,5.3,11.9,11.9v97.8C575.4,1475.3,570,1480.6,563.4,1480.6z"/>
		<path class="st1" d="M493.1,1356.3h69.5c4.3,0,8.1,1.8,11,4.6c2.9,2.9,4.6,6.7,4.6,11v96.3c0,4.3-1.8,8.1-4.6,11s-6.7,4.6-11,4.6
			h-69.5c-4.3,0-8.1-1.8-11-4.6c-2.9-2.9-4.6-6.7-4.6-11v-96.3c0-4.3,1.8-8.1,4.6-11C485,1357.9,488.9,1356.3,493.1,1356.3
			L493.1,1356.3z M562.4,1360.9h-69.5c-3,0-5.6,1.3-7.6,3.1c-2,2-3.2,4.6-3.2,7.6v96.3c0,3,1.3,5.6,3.2,7.6c2,2,4.6,3.1,7.6,3.1
			h69.5c3,0,5.6-1.3,7.6-3.1c2-2,3.1-4.6,3.1-7.6v-96.3c0-3-1.3-5.6-3.1-7.6C568,1362,565.4,1360.9,562.4,1360.9z"/>
	</g>
</a>
<g>
	<g>
		<g>
			<g>
				<g>
					<path class="st1" d="M472.2,801.4c12.6,17.3,36.6,13.3,55.2,9.7c15-2.9,30.1-4.8,45.4-4.4c7.6,0.2,15.6,0.5,22.8,2.3
						c3.5,0.9,7.1,2,9.7,4.7c3.9,4.7,3.9,9.4-0.1,14c-6.3,5.1-8.7,4.6-7.4-1.9c0.2,0.9,1.7,0.6,1.6-0.2c-0.4-9.8-16.9-0.6-6.4,6.1
						c11.6,7.5,22.2-10,14.7-18.9c-5.2-6.3-14.9-6.9-22.7-7.7c-13.3-1.4-26.8-0.9-40.1,0.6c-23.4,2.9-53.3,15-71.8-5.3
						C472.7,800.1,471.8,800.8,472.2,801.4L472.2,801.4z"/>
				</g>
				<g>
					<path class="st1" d="M574.5,816.1c1.2-6-7.8-4.4-6.3,1.3c2.8,10,17,1.7,18.8-4.6c3.1-11.4-10-18.8-20.3-18.9
						c-8.9-0.1-17.2,3.3-25.3,6.1c-4.9,1.6-9.9,3-15.3,2.9c-3.3,0-7-0.4-10.1-1.9c-1.2-0.6-2.1-1.4-3.2-2c-4.1-2.8-4.1-5.1-0.1-7.1
						c-0.7-1-2.3-0.2-1.8,1c2.8,6.3,12.3,1.7,9.2-4.5c-3.7-7.3-13.8-1.7-13.4,4.9c0.4,11.6,17.2,13.4,26.1,11.7
						c9.4-1.7,17.8-6.3,27.1-8.1c6.6-1.3,13.4-0.9,19,2.9c2.5,1.7,5.4,4.6,5.9,7.7c-0.4,2.5-0.9,4.8-1.4,7.3c-3.5,5.4-6.7,6-9.7,1.4
						C573.9,816.4,574.4,816.4,574.5,816.1L574.5,816.1z"/>
				</g>
			</g>
		</g>
	</g>
	<g>
		<g>
			<g>
				<g>
					<path class="st1" d="M757.8,801c-12.6,17.3-36.6,13.3-55.2,9.7c-15-2.9-30.1-4.8-45.4-4.4c-7.6,0.2-15.6,0.5-22.8,2.3
						c-3.5,0.9-7.1,2-9.7,4.7c-3.9,4.7-3.9,9.4,0.1,14c6.3,5.1,8.7,4.6,7.4-1.9c-0.2,0.9-1.6,0.6-1.6-0.2c0.4-9.8,16.9-0.6,6.4,6.1
						c-11.6,7.5-22.2-10-14.7-18.9c5.2-6.3,14.9-6.9,22.7-7.7c13.3-1.4,26.8-0.9,40.1,0.6c23.4,2.9,53.3,15,71.8-5.3
						C757.2,799.6,758.3,800.3,757.8,801L757.8,801z"/>
				</g>
				<g>
					<path class="st1" d="M655.6,815.6c-1.2-6,7.8-4.4,6.3,1.3c-2.8,10-17,1.7-18.8-4.6c-3.1-11.4,10-18.8,20.3-18.9
						c8.9-0.1,17.2,3.3,25.3,6.1c4.9,1.6,9.9,3,15.3,2.9c3.3,0,7-0.4,10.1-1.9c1.2-0.6,2.1-1.4,3.2-2c4.1-2.8,4.1-5.1,0.1-7.1
						c0.7-1,2.3-0.2,1.8,1c-2.8,6.3-12.3,1.7-9.2-4.5c3.7-7.3,13.8-1.7,13.4,4.9c-0.4,11.6-17.2,13.4-26.1,11.7
						c-9.4-1.7-17.8-6.3-27.1-8.1c-6.6-1.3-13.4-0.9-19,2.9c-2.5,1.7-5.4,4.6-5.9,7.7c0.4,2.5,0.9,4.8,1.4,7.3
						c3.5,5.4,6.7,6,9.7,1.4C656.1,815.8,655.6,815.9,655.6,815.6L655.6,815.6z"/>
				</g>
			</g>
		</g>
	</g>
</g>
<g>
	<path class="st1" d="M473.4,899.8l-4.7,16.2h3.8c2.7,0,4.7-0.4,6-1.3c1.2-0.8,2.3-2.4,3.1-4.6h1.1l-4.2,14.8h-1.2
		c0.3-1.2,0.5-2.3,0.5-3.2c0-0.8-0.2-1.5-0.5-2.1c-0.3-0.5-0.8-0.9-1.4-1.2c-0.6-0.2-1.9-0.4-3.9-0.4h-3.9l-3.9,13.5
		c-0.4,1.3-0.6,2.3-0.6,3c0,0.5,0.2,1,0.7,1.4c0.3,0.3,1.2,0.4,2.5,0.4h3.6c3.9,0,7.1-0.7,9.4-2.1c2.4-1.4,4.5-3.8,6.3-7.2h1.1
		l-3.9,11.3h-31.6l0.4-1.1c1.6,0,2.6-0.2,3.2-0.4c0.8-0.4,1.4-0.8,1.8-1.4c0.5-0.8,1.2-2.6,1.9-5.2l7.2-24.6c0.5-2,0.8-3.5,0.8-4.6
		c0-0.7-0.3-1.3-0.8-1.8c-0.5-0.4-1.6-0.7-3.1-0.7h-0.6l0.3-1.1h29.3l-2.5,9.9h-1.1c0.1-0.9,0.2-1.7,0.2-2.3c0-1.1-0.3-2-0.8-2.7
		c-0.7-0.9-1.7-1.6-3-2.1c-1-0.4-3.2-0.6-6.7-0.6H473.4z"/>
	<path class="st1" d="M509.5,895.6l-10.3,35.9c-0.5,1.8-0.7,2.9-0.7,3.3c0,0.3,0.1,0.5,0.3,0.7c0.2,0.2,0.4,0.3,0.7,0.3
		c0.4,0,0.8-0.2,1.2-0.5c1-0.8,2.1-2.1,3.3-3.8l0.9,0.9c-1.9,2.7-3.7,4.6-5.3,5.7c-1.2,0.7-2.3,1.1-3.4,1.1c-0.7,0-1.4-0.3-1.9-0.8
		c-0.5-0.5-0.8-1.1-0.8-1.8c0-0.7,0.3-2.2,0.9-4.5l8.2-28.3c0.6-2.3,1-3.6,1-4c0-0.5-0.2-0.9-0.6-1.2c-0.4-0.3-1-0.5-1.8-0.5
		c-0.4,0-1.1,0.1-2.1,0.2v-1.1L509.5,895.6z"/>
	<path class="st1" d="M553,911.1l-9.9,34.1c-0.4,1.6-0.6,2.6-0.6,3c0,0.4,0.1,0.8,0.3,1.2c0.2,0.3,0.5,0.6,0.9,0.7
		c0.6,0.2,1.4,0.4,2.5,0.4l-0.3,1.1h-14.4l0.3-1.1c2-0.2,3.2-0.3,3.7-0.5c0.8-0.3,1.4-0.8,1.9-1.5c0.5-0.7,1-2.1,1.6-4.3l4.2-14.9
		c-2.6,3.9-5.1,6.6-7.4,8.2c-1.6,1.1-3.1,1.6-4.5,1.6c-2,0-3.5-0.8-4.6-2.5c-1-1.6-1.5-3.4-1.5-5.3c0-3,0.9-6.2,2.8-9.5
		c1.9-3.3,4.3-6.1,7.4-8.2c2.4-1.7,4.5-2.5,6.5-2.5c1.4,0,2.6,0.3,3.5,1c0.9,0.7,1.6,1.8,2.1,3.3l0.9-3.4L553,911.1z M546.1,917
		c0-1.3-0.4-2.3-1.2-3.1c-0.8-0.8-1.8-1.2-2.9-1.2c-2.4,0-5,2.1-7.7,6.3c-2.7,4.2-4.1,8.2-4.1,11.9c0,1.5,0.3,2.6,1,3.4
		c0.7,0.8,1.5,1.2,2.4,1.2c1.2,0,2.6-0.7,4.2-2.1c2.3-2.1,4.3-4.7,5.9-8S546.1,919.4,546.1,917z"/>
	<path class="st1" d="M583.6,911.9l-5.2,18c-0.8,2.7-1.2,4.4-1.2,5.1c0,0.3,0.1,0.6,0.2,0.8s0.3,0.3,0.5,0.3c0.3,0,0.7-0.2,1.1-0.5
		c0.4-0.3,1.4-1.6,3.1-3.7l0.9,0.7c-1.6,2.5-3.2,4.3-4.9,5.5c-1.1,0.7-2.2,1.1-3.2,1.1c-0.8,0-1.4-0.2-1.9-0.7
		c-0.4-0.4-0.7-1-0.7-1.7c0-0.7,0.1-1.6,0.4-2.7c0.3-1.5,1.2-4.7,2.8-9.7c-3.4,5.6-6.3,9.5-8.6,11.6c-2.3,2.1-4.4,3.2-6.4,3.2
		c-0.9,0-1.7-0.3-2.4-1c-0.6-0.6-1-1.5-1-2.5c0-1.5,0.4-3.8,1.3-6.9l2.7-9.3c0.6-2.2,0.9-3.6,0.9-4.2c0-0.2-0.1-0.4-0.2-0.6
		c-0.2-0.2-0.3-0.3-0.5-0.3c-0.4,0-0.8,0.1-1.3,0.4c-0.4,0.3-1.4,1.4-2.9,3.3l-0.9-0.6c1.5-2.3,3.1-4.1,4.8-5.2
		c1.3-0.9,2.5-1.3,3.6-1.3c0.7,0,1.4,0.2,1.8,0.7c0.5,0.5,0.7,1.1,0.7,1.8c0,1.1-0.4,3-1.2,5.8l-2.8,9.7c-0.8,2.7-1.2,4.4-1.2,5.1
		c0,0.4,0.1,0.7,0.4,0.9c0.2,0.2,0.6,0.4,1,0.4c0.6,0,1.5-0.3,2.6-1c1.1-0.7,2.5-2.1,4.3-4.4c1.8-2.3,3.2-4.4,4.4-6.4
		c1.2-2,2.4-5.2,3.7-9.5l0.7-2.3H583.6z"/>
	<path class="st1" d="M592.7,927.1c-0.1,1-0.2,1.8-0.2,2.5c0,1.8,0.6,3.3,1.9,4.6c1.3,1.3,2.8,1.9,4.6,1.9c1.4,0,2.8-0.3,4.2-0.9
		c1.3-0.6,3.3-1.9,5.9-3.9l0.6,0.9c-4.8,4.7-9.3,7.1-13.6,7.1c-2.9,0-5.1-0.9-6.6-2.8c-1.5-1.8-2.2-3.9-2.2-6.1c0-3,0.9-6.1,2.8-9.2
		c1.8-3.1,4.2-5.6,6.9-7.3c2.8-1.7,5.7-2.6,8.6-2.6c2.1,0,3.7,0.4,4.7,1.3c1,0.9,1.5,1.9,1.5,3.1c0,1.7-0.7,3.3-2,4.8
		c-1.7,2-4.3,3.6-7.7,4.8C600,926,596.8,926.6,592.7,927.1z M592.9,925.6c3-0.3,5.4-0.9,7.3-1.8c2.5-1.1,4.3-2.4,5.6-3.9
		c1.2-1.5,1.9-3,1.9-4.4c0-0.8-0.3-1.5-0.8-2c-0.5-0.5-1.3-0.8-2.3-0.8c-2,0-4.2,1.1-6.5,3.3S594,921.3,592.9,925.6z"/>
	<path class="st1" d="M641.8,911.1l-2.1,7c2.2-2.6,4.2-4.4,5.9-5.4c1.7-1,3.5-1.6,5.2-1.6c1.8,0,3.3,0.7,4.6,2.1
		c1.3,1.4,1.9,3.3,1.9,5.5c0,4.4-1.8,8.9-5.4,13.5c-3.6,4.6-7.8,6.8-12.6,6.8c-1,0-1.9-0.1-2.7-0.3c-0.8-0.2-1.6-0.6-2.6-1.2
		l-2.2,7.8c-0.4,1.5-0.7,2.5-0.7,3c0,0.4,0.1,0.8,0.4,1.1c0.2,0.3,0.6,0.6,1.1,0.7c0.5,0.2,1.5,0.3,3.1,0.3l-0.3,1.1h-14.2l0.3-1.1
		c1.9-0.1,3.1-0.4,3.8-1c0.6-0.6,1.3-2.1,2.1-4.7l7.6-26.4c0.4-1.7,0.7-2.7,0.7-3.1c0-0.5-0.2-1-0.4-1.3c-0.3-0.3-0.8-0.4-1.4-0.4
		c-0.6,0-1.4,0.1-2.4,0.2v-1.2L641.8,911.1z M634.8,935.2c1.2,1.5,2.9,2.2,5.1,2.2c1,0,2.1-0.3,3.2-0.9c1.1-0.6,2.1-1.4,3.2-2.6
		c1-1.1,2-2.5,2.8-3.9c0.8-1.5,1.6-3.3,2.2-5.3c0.7-2,1-4,1-6c0-1.6-0.4-2.8-1.1-3.7c-0.7-0.8-1.6-1.3-2.6-1.3
		c-2.2,0-4.3,1.2-6.4,3.7c-2.1,2.5-3.7,5.4-4.7,8.7L634.8,935.2z"/>
	<path class="st1" d="M673.2,911.1l-6,21.1c-0.4,1.4-0.6,2.3-0.6,2.5c0,0.3,0.1,0.6,0.3,0.8c0.2,0.2,0.4,0.3,0.7,0.3
		c0.3,0,0.7-0.2,1.1-0.5c1.1-0.9,2.3-2.2,3.5-3.9l1,0.7c-1.4,2.1-3,3.8-4.8,5.3c-1.3,1-2.6,1.6-3.9,1.6c-0.8,0-1.5-0.2-2-0.7
		c-0.5-0.5-0.8-1.1-0.8-1.9c0-0.7,0.2-2,0.7-3.7l3.9-13.5c0.6-2.2,0.9-3.6,0.9-4.2c0-0.4-0.2-0.8-0.5-1.1c-0.3-0.3-0.7-0.4-1.3-0.4
		c-0.4,0-1.4,0.1-2.8,0.3v-1.2L673.2,911.1z M672.8,899.2c0.8,0,1.6,0.3,2.1,0.9c0.6,0.6,0.9,1.3,0.9,2.1c0,0.8-0.3,1.5-0.9,2.1
		c-0.6,0.6-1.3,0.9-2.1,0.9c-0.8,0-1.5-0.3-2.1-0.9c-0.6-0.6-0.9-1.3-0.9-2.1c0-0.8,0.3-1.5,0.9-2.1
		C671.3,899.5,672,899.2,672.8,899.2z"/>
	<path class="st1" d="M683.5,927.1c-0.1,1-0.2,1.8-0.2,2.5c0,1.8,0.6,3.3,1.9,4.6c1.3,1.3,2.8,1.9,4.6,1.9c1.4,0,2.8-0.3,4.2-0.9
		c1.3-0.6,3.3-1.9,5.9-3.9l0.6,0.9c-4.8,4.7-9.3,7.1-13.6,7.1c-2.9,0-5.1-0.9-6.6-2.8c-1.5-1.8-2.2-3.9-2.2-6.1c0-3,0.9-6.1,2.8-9.2
		c1.8-3.1,4.2-5.6,6.9-7.3c2.8-1.7,5.7-2.6,8.6-2.6c2.1,0,3.7,0.4,4.7,1.3c1,0.9,1.5,1.9,1.5,3.1c0,1.7-0.7,3.3-2,4.8
		c-1.7,2-4.3,3.6-7.7,4.8C690.8,926,687.6,926.6,683.5,927.1z M683.7,925.6c3-0.3,5.4-0.9,7.3-1.8c2.5-1.1,4.3-2.4,5.6-3.9
		c1.2-1.5,1.9-3,1.9-4.4c0-0.8-0.3-1.5-0.8-2c-0.5-0.5-1.3-0.8-2.3-0.8c-2,0-4.2,1.1-6.5,3.3S684.8,921.3,683.7,925.6z"/>
	<path class="st1" d="M717.2,911.1l-4,13.7c3.7-5.6,6.6-9.3,8.6-11.1c2-1.8,3.9-2.7,5.8-2.7c1,0,1.8,0.3,2.5,1c0.6,0.7,1,1.5,1,2.6
		c0,1.2-0.3,2.8-0.9,4.8l-3.7,12.7c-0.4,1.5-0.6,2.4-0.6,2.7c0,0.3,0.1,0.5,0.2,0.7c0.2,0.2,0.3,0.3,0.5,0.3c0.2,0,0.5-0.1,0.9-0.4
		c1.1-0.8,2.2-2.1,3.5-3.9l0.9,0.6c-1.9,2.7-3.6,4.6-5.3,5.7c-1.2,0.8-2.2,1.2-3.1,1.2c-0.7,0-1.3-0.2-1.8-0.7
		c-0.4-0.4-0.7-1-0.7-1.8c0-1,0.3-2.6,1-5l3.5-12.1c0.4-1.5,0.6-2.7,0.6-3.5c0-0.4-0.1-0.7-0.4-1c-0.3-0.2-0.6-0.4-1-0.4
		c-0.5,0-1.2,0.2-2,0.7c-1.5,0.9-3,2.4-4.6,4.5c-1.6,2.1-3.3,4.7-5.1,8c-0.9,1.7-1.7,3.6-2.4,5.6l-1.5,5h-4.5l5.5-18.9
		c0.6-2.3,1-3.6,1-4.1c0-0.4-0.2-0.8-0.5-1.2c-0.4-0.3-0.8-0.5-1.3-0.5c-0.2,0-0.7,0.1-1.3,0.2l-1.2,0.1l-0.2-1.1L717.2,911.1z"/>
	<path class="st1" d="M756.8,911.1l-1.8,9.3h-1.1c-0.1-2.7-0.7-4.7-1.7-5.9c-1-1.2-2.3-1.8-3.9-1.8c-1.2,0-2.2,0.3-2.9,1
		c-0.7,0.7-1.1,1.5-1.1,2.5c0,0.6,0.1,1.3,0.4,1.9c0.3,0.6,0.9,1.5,1.9,2.5c2.6,2.9,4.3,5,5,6.5c0.8,1.4,1.1,2.8,1.1,4.1
		c0,2.1-0.9,3.9-2.6,5.6c-1.7,1.6-3.9,2.4-6.6,2.4c-1.4,0-3.1-0.3-5-1c-0.6-0.2-1.2-0.4-1.5-0.4c-0.9,0-1.6,0.5-2.1,1.4h-1.1
		l1.8-9.8h1.1c0.1,3.1,0.7,5.2,1.9,6.5c1.1,1.3,2.7,1.9,4.7,1.9c1.5,0,2.7-0.4,3.6-1.3c0.9-0.8,1.3-1.9,1.3-3.1
		c0-0.8-0.2-1.5-0.5-2.2c-0.6-1.2-1.8-2.9-3.6-5c-1.8-2.1-2.9-3.7-3.5-4.8c-0.5-1.1-0.8-2.1-0.8-3.2c0-1.9,0.7-3.6,2.1-4.9
		c1.4-1.3,3.2-2,5.5-2c0.6,0,1.2,0.1,1.8,0.1c0.3,0.1,0.9,0.3,2,0.7c1,0.4,1.7,0.6,2.1,0.6c0.8,0,1.6-0.5,2.2-1.4H756.8z"/>
	<path class="st1" d="M765.8,927.1c-0.1,1-0.2,1.8-0.2,2.5c0,1.8,0.6,3.3,1.9,4.6c1.3,1.3,2.8,1.9,4.6,1.9c1.4,0,2.8-0.3,4.2-0.9
		c1.3-0.6,3.3-1.9,5.9-3.9l0.6,0.9c-4.8,4.7-9.3,7.1-13.6,7.1c-2.9,0-5.1-0.9-6.6-2.8c-1.5-1.8-2.2-3.9-2.2-6.1c0-3,0.9-6.1,2.8-9.2
		c1.8-3.1,4.2-5.6,6.9-7.3c2.8-1.7,5.7-2.6,8.6-2.6c2.1,0,3.7,0.4,4.7,1.3c1,0.9,1.5,1.9,1.5,3.1c0,1.7-0.7,3.3-2,4.8
		c-1.7,2-4.3,3.6-7.7,4.8C773,926,769.8,926.6,765.8,927.1z M766,925.6c3-0.3,5.4-0.9,7.3-1.8c2.5-1.1,4.3-2.4,5.6-3.9
		c1.2-1.5,1.9-3,1.9-4.4c0-0.8-0.3-1.5-0.8-2c-0.5-0.5-1.3-0.8-2.3-0.8c-2,0-4.2,1.1-6.5,3.3S767.1,921.3,766,925.6z"/>
	<path class="st1" d="M226.6,1003.1l-9.9,34.1c-0.4,1.6-0.6,2.6-0.6,3c0,0.4,0.1,0.8,0.3,1.2c0.2,0.3,0.5,0.6,0.9,0.7
		c0.6,0.2,1.4,0.4,2.5,0.4l-0.3,1.1h-14.4l0.3-1.1c2-0.2,3.2-0.3,3.7-0.5c0.8-0.3,1.4-0.8,1.9-1.5c0.5-0.7,1-2.1,1.6-4.3l4.2-14.9
		c-2.6,3.9-5.1,6.6-7.4,8.2c-1.6,1.1-3.1,1.6-4.5,1.6c-2,0-3.5-0.8-4.6-2.5c-1-1.6-1.5-3.4-1.5-5.3c0-3,0.9-6.2,2.8-9.5
		c1.9-3.3,4.3-6.1,7.4-8.2c2.4-1.7,4.5-2.5,6.5-2.5c1.4,0,2.6,0.3,3.5,1c0.9,0.7,1.6,1.8,2.1,3.3l0.9-3.4L226.6,1003.1z M219.7,1009
		c0-1.3-0.4-2.3-1.2-3.1c-0.8-0.8-1.8-1.2-2.9-1.2c-2.4,0-5,2.1-7.7,6.3c-2.7,4.2-4.1,8.2-4.1,11.9c0,1.5,0.3,2.6,1,3.4
		c0.7,0.8,1.5,1.2,2.4,1.2c1.2,0,2.6-0.7,4.2-2.1c2.3-2.1,4.3-4.7,5.9-8S219.7,1011.4,219.7,1009z"/>
	<path class="st1" d="M257.2,1003.9l-5.2,18c-0.8,2.7-1.2,4.4-1.2,5.1c0,0.3,0.1,0.6,0.2,0.8c0.1,0.2,0.3,0.3,0.5,0.3
		c0.3,0,0.7-0.2,1.1-0.5c0.4-0.3,1.4-1.6,3.1-3.7l0.9,0.7c-1.6,2.5-3.2,4.3-4.9,5.5c-1.1,0.7-2.2,1.1-3.2,1.1
		c-0.8,0-1.4-0.2-1.9-0.7s-0.7-1-0.7-1.7c0-0.7,0.1-1.6,0.4-2.7c0.3-1.5,1.2-4.7,2.8-9.7c-3.4,5.6-6.3,9.5-8.6,11.6
		c-2.3,2.1-4.4,3.2-6.4,3.2c-0.9,0-1.7-0.3-2.4-1c-0.6-0.6-1-1.5-1-2.5c0-1.5,0.4-3.8,1.3-6.9l2.7-9.3c0.6-2.2,0.9-3.6,0.9-4.2
		c0-0.2-0.1-0.4-0.2-0.6c-0.2-0.2-0.3-0.3-0.5-0.3c-0.4,0-0.8,0.1-1.3,0.4c-0.4,0.3-1.4,1.4-2.9,3.3l-0.9-0.6
		c1.5-2.3,3.1-4.1,4.8-5.2c1.3-0.9,2.5-1.3,3.6-1.3c0.7,0,1.4,0.2,1.8,0.7c0.5,0.5,0.7,1.1,0.7,1.8c0,1.1-0.4,3-1.2,5.8l-2.8,9.7
		c-0.8,2.7-1.2,4.4-1.2,5.1c0,0.4,0.1,0.7,0.4,0.9c0.2,0.2,0.6,0.4,1,0.4c0.6,0,1.5-0.3,2.6-1c1.1-0.7,2.5-2.1,4.3-4.4
		s3.2-4.4,4.4-6.4c1.2-2,2.4-5.2,3.7-9.5l0.7-2.3H257.2z"/>
	<path class="st1" d="M266.4,1019c-0.1,1-0.2,1.8-0.2,2.5c0,1.8,0.6,3.3,1.9,4.6c1.3,1.3,2.8,1.9,4.6,1.9c1.4,0,2.8-0.3,4.2-0.9
		c1.3-0.6,3.3-1.9,5.9-3.9l0.6,0.9c-4.8,4.7-9.3,7.1-13.6,7.1c-2.9,0-5.1-0.9-6.6-2.8c-1.5-1.8-2.2-3.9-2.2-6.1c0-3,0.9-6.1,2.8-9.2
		c1.8-3.1,4.2-5.6,6.9-7.3c2.8-1.7,5.7-2.6,8.6-2.6c2.1,0,3.7,0.4,4.7,1.3c1,0.9,1.5,1.9,1.5,3.1c0,1.7-0.7,3.3-2,4.8
		c-1.7,2-4.3,3.6-7.7,4.8C273.6,1017.9,270.5,1018.6,266.4,1019z M266.6,1017.6c3-0.3,5.4-0.9,7.3-1.8c2.5-1.1,4.3-2.4,5.6-3.9
		c1.2-1.5,1.9-3,1.9-4.4c0-0.8-0.3-1.5-0.8-2c-0.5-0.5-1.3-0.8-2.3-0.8c-2,0-4.2,1.1-6.5,3.3
		C269.4,1010.1,267.7,1013.3,266.6,1017.6z"/>
	<path class="st1" d="M309.2,1019c-0.1,1-0.2,1.8-0.2,2.5c0,1.8,0.6,3.3,1.9,4.6c1.3,1.3,2.8,1.9,4.6,1.9c1.4,0,2.8-0.3,4.2-0.9
		c1.3-0.6,3.3-1.9,5.9-3.9l0.6,0.9c-4.8,4.7-9.3,7.1-13.6,7.1c-2.9,0-5.1-0.9-6.6-2.8c-1.5-1.8-2.2-3.9-2.2-6.1c0-3,0.9-6.1,2.8-9.2
		c1.8-3.1,4.2-5.6,6.9-7.3c2.8-1.7,5.7-2.6,8.6-2.6c2.1,0,3.7,0.4,4.7,1.3c1,0.9,1.5,1.9,1.5,3.1c0,1.7-0.7,3.3-2,4.8
		c-1.7,2-4.3,3.6-7.7,4.8C316.4,1017.9,313.3,1018.6,309.2,1019z M309.4,1017.6c3-0.3,5.4-0.9,7.3-1.8c2.5-1.1,4.3-2.4,5.6-3.9
		c1.2-1.5,1.9-3,1.9-4.4c0-0.8-0.3-1.5-0.8-2c-0.5-0.5-1.3-0.8-2.3-0.8c-2,0-4.2,1.1-6.5,3.3S310.5,1013.3,309.4,1017.6z"/>
	<path class="st1" d="M347.6,987.5l-10.3,35.9c-0.5,1.8-0.7,2.9-0.7,3.3c0,0.3,0.1,0.5,0.3,0.7c0.2,0.2,0.4,0.3,0.7,0.3
		c0.4,0,0.8-0.2,1.2-0.5c1-0.8,2.1-2.1,3.3-3.8l0.9,0.9c-1.9,2.7-3.7,4.6-5.3,5.7c-1.2,0.7-2.3,1.1-3.4,1.1c-0.7,0-1.4-0.3-1.9-0.8
		c-0.5-0.5-0.8-1.1-0.8-1.8c0-0.7,0.3-2.2,0.9-4.5l8.2-28.3c0.6-2.3,1-3.6,1-4c0-0.5-0.2-0.9-0.6-1.2c-0.4-0.3-1-0.5-1.8-0.5
		c-0.4,0-1.1,0.1-2.1,0.2v-1.1L347.6,987.5z"/>
	<path class="st1" d="M395.2,987.5l-10.4,35.6c-0.6,1.9-0.9,3.2-0.9,3.8c0,0.2,0.1,0.4,0.3,0.6c0.2,0.2,0.3,0.3,0.5,0.3
		c0.3,0,0.6-0.1,0.9-0.4c0.7-0.5,1.8-1.7,3.4-3.6l1,0.6c-1.4,2-2.9,3.6-4.4,4.9c-1.5,1.2-2.9,1.9-4.1,1.9c-0.7,0-1.3-0.2-1.7-0.7
		s-0.7-1.2-0.7-2.1c0-1.1,0.3-2.7,0.9-4.6l1.2-3.7c-2.9,4.5-5.5,7.6-7.9,9.4c-1.6,1.2-3.2,1.8-4.7,1.8c-1.5,0-2.9-0.7-4-2
		c-1.1-1.3-1.7-3.2-1.7-5.5c0-3,1-6.2,2.9-9.6c1.9-3.4,4.4-6.1,7.6-8.3c2.5-1.7,4.7-2.6,6.8-2.6c1.1,0,2,0.2,2.8,0.7
		c0.8,0.4,1.6,1.2,2.3,2.2l3-10.5c0.2-0.7,0.4-1.3,0.5-1.8c0.2-0.8,0.4-1.5,0.4-2c0-0.4-0.1-0.8-0.4-1c-0.4-0.3-1-0.5-1.6-0.5
		c-0.4,0-1.2,0.1-2.3,0.2v-1.1L395.2,987.5z M384,1008.9c0-1.3-0.4-2.3-1.1-3.1c-0.7-0.8-1.7-1.2-2.8-1.2c-2.5,0-5.2,2.1-7.9,6.2
		c-2.7,4.2-4.1,8.2-4.1,12c0,1.5,0.3,2.7,1,3.5c0.7,0.8,1.5,1.2,2.4,1.2c2.1,0,4.7-2.3,7.9-6.8S384,1012.3,384,1008.9z"/>
	<path class="st1" d="M406.8,1003.1l-6,21.1c-0.4,1.4-0.6,2.3-0.6,2.5c0,0.3,0.1,0.6,0.3,0.8c0.2,0.2,0.4,0.3,0.7,0.3
		c0.3,0,0.7-0.2,1.1-0.5c1.1-0.9,2.3-2.2,3.5-3.9l1,0.7c-1.4,2.1-3,3.8-4.8,5.3c-1.3,1-2.6,1.6-3.9,1.6c-0.8,0-1.5-0.2-2-0.7
		c-0.5-0.5-0.8-1.1-0.8-1.9c0-0.7,0.2-2,0.7-3.7l3.9-13.5c0.6-2.2,0.9-3.6,0.9-4.2c0-0.4-0.2-0.8-0.5-1.1c-0.3-0.3-0.7-0.4-1.3-0.4
		c-0.4,0-1.4,0.1-2.8,0.3v-1.2L406.8,1003.1z M406.4,991.2c0.8,0,1.6,0.3,2.1,0.9c0.6,0.6,0.9,1.3,0.9,2.1c0,0.8-0.3,1.5-0.9,2.1
		c-0.6,0.6-1.3,0.9-2.1,0.9c-0.8,0-1.5-0.3-2.1-0.9c-0.6-0.6-0.9-1.3-0.9-2.1c0-0.8,0.3-1.5,0.9-2.1
		C404.9,991.5,405.6,991.2,406.4,991.2z"/>
	<path class="st1" d="M423.4,1003.1l-4,13.7c3.7-5.6,6.6-9.3,8.6-11.1c2-1.8,3.9-2.7,5.8-2.7c1,0,1.8,0.3,2.5,1c0.6,0.7,1,1.5,1,2.6
		c0,1.2-0.3,2.8-0.9,4.8l-3.7,12.7c-0.4,1.5-0.6,2.4-0.6,2.7c0,0.3,0.1,0.5,0.2,0.7c0.2,0.2,0.3,0.3,0.5,0.3c0.2,0,0.5-0.1,0.9-0.4
		c1.1-0.8,2.2-2.1,3.5-3.9l0.9,0.6c-1.9,2.7-3.6,4.6-5.3,5.7c-1.2,0.8-2.2,1.2-3.1,1.2c-0.7,0-1.3-0.2-1.8-0.7
		c-0.4-0.4-0.7-1-0.7-1.8c0-1,0.3-2.6,1-5l3.5-12.1c0.4-1.5,0.6-2.7,0.6-3.5c0-0.4-0.1-0.7-0.4-1c-0.3-0.2-0.6-0.4-1-0.4
		c-0.5,0-1.2,0.2-2,0.7c-1.5,0.9-3,2.4-4.6,4.5c-1.6,2.1-3.3,4.7-5.1,8c-0.9,1.7-1.7,3.6-2.4,5.6l-1.5,5h-4.5l5.5-18.9
		c0.6-2.3,1-3.6,1-4.1c0-0.4-0.2-0.8-0.5-1.2c-0.4-0.3-0.8-0.5-1.3-0.5c-0.2,0-0.7,0.1-1.3,0.2l-1.2,0.1l-0.2-1.1L423.4,1003.1z"/>
	<path class="st1" d="M447.9,1019c-0.1,1-0.2,1.8-0.2,2.5c0,1.8,0.6,3.3,1.9,4.6c1.3,1.3,2.8,1.9,4.6,1.9c1.4,0,2.8-0.3,4.2-0.9
		c1.3-0.6,3.3-1.9,5.9-3.9l0.6,0.9c-4.8,4.7-9.3,7.1-13.6,7.1c-2.9,0-5.1-0.9-6.6-2.8c-1.5-1.8-2.2-3.9-2.2-6.1c0-3,0.9-6.1,2.8-9.2
		c1.8-3.1,4.2-5.6,6.9-7.3c2.8-1.7,5.7-2.6,8.6-2.6c2.1,0,3.7,0.4,4.7,1.3c1,0.9,1.5,1.9,1.5,3.1c0,1.7-0.7,3.3-2,4.8
		c-1.7,2-4.3,3.6-7.7,4.8C455.2,1017.9,452,1018.6,447.9,1019z M448.2,1017.6c3-0.3,5.4-0.9,7.3-1.8c2.5-1.1,4.3-2.4,5.6-3.9
		c1.2-1.5,1.9-3,1.9-4.4c0-0.8-0.3-1.5-0.8-2c-0.5-0.5-1.3-0.8-2.3-0.8c-2,0-4.2,1.1-6.5,3.3C451,1010.1,449.3,1013.3,448.2,1017.6z
		"/>
	<path class="st1" d="M471.2,1004.8l10.4-1.7l-4.3,14.7c3.5-6,6.7-10.2,9.6-12.6c1.6-1.4,2.9-2.1,4-2.1c0.7,0,1.2,0.2,1.6,0.6
		c0.4,0.4,0.6,1,0.6,1.7c0,1.3-0.3,2.6-1,3.8c-0.5,0.9-1.2,1.3-2.1,1.3c-0.4,0-0.8-0.1-1.2-0.4c-0.3-0.3-0.5-0.8-0.6-1.4
		c0-0.4-0.1-0.6-0.3-0.7c-0.2-0.1-0.4-0.2-0.6-0.2c-0.3,0-0.7,0.1-1,0.2c-0.5,0.3-1.3,1.1-2.4,2.4c-1.7,2-3.5,4.5-5.4,7.6
		c-0.8,1.3-1.5,2.8-2.2,4.5c-0.8,2.3-1.3,3.7-1.4,4.2l-1,3.8h-4.6l5.6-18.7c0.6-2.2,0.9-3.7,0.9-4.6c0-0.3-0.1-0.6-0.4-0.9
		c-0.4-0.3-0.9-0.5-1.6-0.5c-0.4,0-1.2,0.1-2.3,0.3L471.2,1004.8z"/>
	<path class="st1" d="M520.5,1012.5c0,3-0.8,6-2.4,9c-1.6,3-3.8,5.3-6.7,7c-2.8,1.7-5.6,2.6-8.3,2.6c-2.7,0-5-0.9-6.7-2.6
		c-1.7-1.8-2.6-4-2.6-6.8c0-3,0.8-5.9,2.5-8.9c1.7-3,4-5.3,6.8-7.1c2.8-1.7,5.6-2.6,8.2-2.6c2.7,0,4.9,0.9,6.6,2.6
		C519.7,1007.5,520.5,1009.8,520.5,1012.5z M515.6,1010.5c0-1.9-0.5-3.3-1.4-4.3c-0.9-1-2.1-1.5-3.6-1.5c-2.9,0-5.7,2.1-8.1,6.3
		c-2.5,4.2-3.7,8.4-3.7,12.6c0,1.9,0.5,3.4,1.5,4.4c1,1,2.2,1.6,3.6,1.6c2.8,0,5.5-2.1,8-6.3
		C514.3,1019.1,515.6,1014.8,515.6,1010.5z"/>
	<path class="st1" d="M551.9,1003.1l-4,13.7c3.7-5.6,6.6-9.3,8.6-11.1c2-1.8,3.9-2.7,5.8-2.7c1,0,1.8,0.3,2.5,1c0.6,0.7,1,1.5,1,2.6
		c0,1.2-0.3,2.8-0.9,4.8l-3.7,12.7c-0.4,1.5-0.6,2.4-0.6,2.7c0,0.3,0.1,0.5,0.2,0.7c0.2,0.2,0.3,0.3,0.5,0.3c0.2,0,0.5-0.1,0.9-0.4
		c1.1-0.8,2.2-2.1,3.5-3.9l0.9,0.6c-1.9,2.7-3.6,4.6-5.3,5.7c-1.2,0.8-2.2,1.2-3.1,1.2c-0.7,0-1.3-0.2-1.8-0.7
		c-0.4-0.4-0.7-1-0.7-1.8c0-1,0.3-2.6,1-5l3.5-12.1c0.4-1.5,0.6-2.7,0.6-3.5c0-0.4-0.1-0.7-0.4-1c-0.3-0.2-0.6-0.4-1-0.4
		c-0.5,0-1.2,0.2-2,0.7c-1.5,0.9-3,2.4-4.6,4.5c-1.6,2.1-3.3,4.7-5.1,8c-0.9,1.7-1.7,3.6-2.4,5.6l-1.5,5h-4.5l5.5-18.9
		c0.6-2.3,1-3.6,1-4.1c0-0.4-0.2-0.8-0.5-1.2c-0.4-0.3-0.8-0.5-1.3-0.5c-0.2,0-0.7,0.1-1.3,0.2l-1.2,0.1l-0.2-1.1L551.9,1003.1z"/>
	<path class="st1" d="M597.6,1012.5c0,3-0.8,6-2.4,9c-1.6,3-3.8,5.3-6.7,7c-2.8,1.7-5.6,2.6-8.3,2.6c-2.7,0-5-0.9-6.7-2.6
		c-1.7-1.8-2.6-4-2.6-6.8c0-3,0.8-5.9,2.5-8.9c1.7-3,4-5.3,6.8-7.1c2.8-1.7,5.6-2.6,8.2-2.6c2.7,0,4.9,0.9,6.6,2.6
		C596.8,1007.5,597.6,1009.8,597.6,1012.5z M592.7,1010.5c0-1.9-0.5-3.3-1.4-4.3c-0.9-1-2.1-1.5-3.6-1.5c-2.9,0-5.7,2.1-8.1,6.3
		c-2.5,4.2-3.7,8.4-3.7,12.6c0,1.9,0.5,3.4,1.5,4.4c1,1,2.2,1.6,3.6,1.6c2.8,0,5.5-2.1,8-6.3
		C591.4,1019.1,592.7,1014.8,592.7,1010.5z"/>
	<path class="st1" d="M633.5,987.5l-8.5,29.3c3.6-5.5,6.5-9.2,8.5-11c2-1.8,4-2.7,5.9-2.7c1,0,1.8,0.3,2.4,1c0.6,0.7,1,1.6,1,2.7
		c0,1.3-0.3,2.9-0.8,4.8l-3.7,12.6c-0.5,1.5-0.7,2.4-0.7,2.5c0,0.3,0.1,0.5,0.3,0.7c0.2,0.2,0.4,0.3,0.6,0.3c0.2,0,0.5-0.1,0.9-0.4
		c1.1-0.9,2.3-2.1,3.4-3.7l0.9,0.6c-0.7,1.1-1.7,2.2-2.9,3.5c-1.2,1.3-2.3,2.2-3.1,2.6c-0.9,0.5-1.6,0.7-2.3,0.7
		c-0.7,0-1.4-0.2-1.8-0.7s-0.7-1.1-0.7-1.8c0-0.9,0.3-2.5,1-4.9l3.5-12c0.4-1.5,0.6-2.7,0.6-3.6c0-0.4-0.1-0.7-0.4-1
		c-0.3-0.2-0.6-0.4-1-0.4c-0.6,0-1.2,0.2-2,0.7c-1.4,0.8-2.9,2.4-4.7,4.7c-0.5,0.6-2.1,3.1-4.8,7.5c-0.8,1.4-1.5,2.9-2.1,4.6
		l-1.9,6.2h-4.5l9.9-34.5l1-3.7c0-0.5-0.2-1-0.7-1.4c-0.4-0.4-1-0.6-1.6-0.6c-0.3,0-0.9,0.1-1.6,0.2l-0.6,0.1v-1.2L633.5,987.5z"/>
	<path class="st1" d="M675.2,1003.1l-5.9,20.4l-0.7,2.8c0,0.2-0.1,0.5-0.1,0.6c0,0.3,0.1,0.6,0.3,0.9c0.2,0.2,0.3,0.3,0.6,0.3
		s0.6-0.2,1-0.5c0.8-0.6,1.8-1.8,3.1-3.6l1,0.7c-1.4,2.1-2.8,3.7-4.3,4.8c-1.5,1.1-2.8,1.6-4.1,1.6c-0.8,0-1.5-0.2-1.9-0.6
		c-0.4-0.4-0.7-1-0.7-1.9c0-1,0.2-2.3,0.7-3.9l0.6-2.3c-2.6,3.4-5.1,5.9-7.3,7.2c-1.6,1-3.2,1.5-4.7,1.5c-1.5,0-2.7-0.6-3.8-1.8
		c-1.1-1.2-1.6-2.9-1.6-5c0-3.2,1-6.6,2.9-10.1c1.9-3.6,4.3-6.4,7.3-8.5c2.3-1.7,4.5-2.5,6.5-2.5c1.2,0,2.3,0.3,3.1,1
		c0.8,0.6,1.4,1.7,1.9,3.2l1.1-3.4L675.2,1003.1z M664.4,1004.7c-1.3,0-2.6,0.6-4.1,1.8c-2.1,1.7-3.9,4.2-5.5,7.6
		c-1.6,3.4-2.4,6.4-2.4,9.1c0,1.3,0.3,2.4,1,3.2c0.7,0.8,1.5,1.2,2.4,1.2c2.2,0,4.5-1.6,7.1-4.9c3.4-4.3,5.2-8.7,5.2-13.2
		c0-1.7-0.3-2.9-1-3.7C666.5,1005.1,665.6,1004.7,664.4,1004.7z"/>
	<path class="st1" d="M700.9,1023.8c-2.1,2.5-4.2,4.3-6.3,5.5c-2.1,1.2-4.4,1.8-6.8,1.8c-2.8,0-5.1-0.8-6.7-2.4
		c-1.6-1.6-2.4-3.8-2.4-6.5c0-3.1,0.9-6.1,2.6-9.1c1.7-3,4-5.4,6.9-7.3c2.9-1.9,5.7-2.8,8.5-2.8c2.2,0,3.8,0.5,4.9,1.4
		c1.1,0.9,1.6,2,1.6,3.4c0,1.2-0.4,2.3-1.2,3.2c-0.5,0.7-1.2,1-2.1,1c-0.6,0-1.1-0.2-1.6-0.6c-0.4-0.4-0.6-0.9-0.6-1.5
		c0-0.4,0.1-0.7,0.2-1c0.1-0.3,0.5-0.7,0.9-1.2c0.5-0.4,0.8-0.8,0.9-1c0.1-0.2,0.1-0.4,0.1-0.6c0-0.4-0.2-0.8-0.6-1
		c-0.6-0.4-1.4-0.6-2.5-0.6c-2,0-3.9,0.7-5.9,2.1c-1.9,1.4-3.6,3.3-5,5.9c-1.6,3.1-2.5,6.2-2.5,9.3c0,2,0.6,3.7,1.8,4.9
		c1.2,1.2,2.8,1.8,4.8,1.8c1.5,0,3.1-0.4,4.6-1.2c1.5-0.8,3.2-2.2,5.1-4.2L700.9,1023.8z"/>
	<path class="st1" d="M711.8,1019c-0.1,1-0.2,1.8-0.2,2.5c0,1.8,0.6,3.3,1.9,4.6c1.3,1.3,2.8,1.9,4.6,1.9c1.4,0,2.8-0.3,4.2-0.9
		c1.3-0.6,3.3-1.9,5.9-3.9l0.6,0.9c-4.8,4.7-9.3,7.1-13.6,7.1c-2.9,0-5.1-0.9-6.6-2.8c-1.5-1.8-2.2-3.9-2.2-6.1c0-3,0.9-6.1,2.8-9.2
		c1.8-3.1,4.2-5.6,6.9-7.3c2.8-1.7,5.7-2.6,8.6-2.6c2.1,0,3.7,0.4,4.7,1.3c1,0.9,1.5,1.9,1.5,3.1c0,1.7-0.7,3.3-2,4.8
		c-1.7,2-4.3,3.6-7.7,4.8C719,1017.9,715.9,1018.6,711.8,1019z M712,1017.6c3-0.3,5.4-0.9,7.3-1.8c2.5-1.1,4.3-2.4,5.6-3.9
		c1.2-1.5,1.9-3,1.9-4.4c0-0.8-0.3-1.5-0.8-2c-0.5-0.5-1.3-0.8-2.3-0.8c-2,0-4.2,1.1-6.5,3.3S713.1,1013.3,712,1017.6z"/>
	<path class="st1" d="M765.6,987.5l-10.3,35.9c-0.5,1.8-0.7,2.9-0.7,3.3c0,0.3,0.1,0.5,0.3,0.7c0.2,0.2,0.4,0.3,0.7,0.3
		c0.4,0,0.8-0.2,1.2-0.5c1-0.8,2.1-2.1,3.3-3.8l0.9,0.9c-1.9,2.7-3.7,4.6-5.3,5.7c-1.2,0.7-2.3,1.1-3.4,1.1c-0.7,0-1.4-0.3-1.9-0.8
		c-0.5-0.5-0.8-1.1-0.8-1.8c0-0.7,0.3-2.2,0.9-4.5l8.2-28.3c0.6-2.3,1-3.6,1-4c0-0.5-0.2-0.9-0.6-1.2c-0.4-0.3-1-0.5-1.8-0.5
		c-0.4,0-1.1,0.1-2.1,0.2v-1.1L765.6,987.5z"/>
	<path class="st1" d="M793.4,1003.1l-5.9,20.4l-0.7,2.8c0,0.2-0.1,0.5-0.1,0.6c0,0.3,0.1,0.6,0.3,0.9c0.2,0.2,0.3,0.3,0.6,0.3
		s0.6-0.2,1-0.5c0.8-0.6,1.8-1.8,3.1-3.6l1,0.7c-1.4,2.1-2.8,3.7-4.3,4.8c-1.5,1.1-2.8,1.6-4.1,1.6c-0.8,0-1.5-0.2-1.9-0.6
		s-0.7-1-0.7-1.9c0-1,0.2-2.3,0.7-3.9l0.6-2.3c-2.6,3.4-5.1,5.9-7.3,7.2c-1.6,1-3.2,1.5-4.7,1.5c-1.5,0-2.7-0.6-3.8-1.8
		c-1.1-1.2-1.6-2.9-1.6-5c0-3.2,1-6.6,2.9-10.1c1.9-3.6,4.3-6.4,7.3-8.5c2.3-1.7,4.5-2.5,6.5-2.5c1.2,0,2.3,0.3,3.1,1
		c0.8,0.6,1.4,1.7,1.9,3.2l1.1-3.4L793.4,1003.1z M782.6,1004.7c-1.3,0-2.6,0.6-4.1,1.8c-2.1,1.7-3.9,4.2-5.5,7.6
		c-1.6,3.4-2.4,6.4-2.4,9.1c0,1.3,0.3,2.4,1,3.2c0.7,0.8,1.5,1.2,2.4,1.2c2.2,0,4.5-1.6,7.1-4.9c3.4-4.3,5.2-8.7,5.2-13.2
		c0-1.7-0.3-2.9-1-3.7C784.7,1005.1,783.8,1004.7,782.6,1004.7z"/>
	<path class="st1" d="M828.9,1003.9l-0.6,2H824l-3.3,13.2c-1.5,5.8-2.9,10.3-4.4,13.5c-2.1,4.5-4.4,7.5-6.8,9.2
		c-1.8,1.3-3.7,2-5.5,2c-1.2,0-2.2-0.4-3.1-1.1c-0.6-0.5-0.9-1.1-0.9-1.9c0-0.6,0.3-1.2,0.8-1.7c0.5-0.5,1.1-0.7,1.9-0.7
		c0.5,0,1,0.2,1.4,0.5c0.4,0.3,0.6,0.7,0.6,1.2c0,0.4-0.2,0.9-0.6,1.2c-0.3,0.3-0.5,0.5-0.5,0.6c0,0.2,0.1,0.3,0.2,0.4
		c0.2,0.1,0.4,0.2,0.8,0.2c0.9,0,1.8-0.3,2.7-0.8c0.9-0.5,1.8-1.4,2.5-2.4c0.7-1.1,1.5-2.6,2.1-4.6c0.3-0.8,1-3.6,2.2-8.3l5.2-20.4
		H814l0.4-2c1.7,0,2.8-0.1,3.5-0.4c0.7-0.2,1.3-0.7,1.8-1.3c0.5-0.6,1.3-1.9,2.2-3.7c1.2-2.4,2.3-4.3,3.4-5.6c1.5-1.8,3-3.1,4.7-4
		c1.6-0.9,3.2-1.3,4.6-1.3c1.5,0,2.7,0.4,3.7,1.2c0.9,0.8,1.4,1.6,1.4,2.5c0,0.7-0.2,1.3-0.7,1.8c-0.5,0.5-1.1,0.7-1.8,0.7
		c-0.6,0-1.1-0.2-1.5-0.5c-0.4-0.4-0.6-0.8-0.6-1.3c0-0.3,0.1-0.7,0.4-1.2c0.3-0.5,0.4-0.8,0.4-0.9c0-0.3-0.1-0.5-0.3-0.6
		c-0.2-0.2-0.6-0.3-1.1-0.3c-1.3,0-2.4,0.4-3.4,1.2c-1.3,1.1-2.6,2.7-3.6,5c-0.5,1.2-1.5,4.1-3,8.8H828.9z"/>
	<path class="st1" d="M835.1,1019c-0.1,1-0.2,1.8-0.2,2.5c0,1.8,0.6,3.3,1.9,4.6c1.3,1.3,2.8,1.9,4.6,1.9c1.4,0,2.8-0.3,4.2-0.9
		c1.3-0.6,3.3-1.9,5.9-3.9l0.6,0.9c-4.8,4.7-9.3,7.1-13.6,7.1c-2.9,0-5.1-0.9-6.6-2.8c-1.5-1.8-2.2-3.9-2.2-6.1c0-3,0.9-6.1,2.8-9.2
		c1.8-3.1,4.2-5.6,6.9-7.3c2.8-1.7,5.7-2.6,8.6-2.6c2.1,0,3.7,0.4,4.7,1.3c1,0.9,1.5,1.9,1.5,3.1c0,1.7-0.7,3.3-2,4.8
		c-1.7,2-4.3,3.6-7.7,4.8C842.4,1017.9,839.2,1018.6,835.1,1019z M835.3,1017.6c3-0.3,5.4-0.9,7.3-1.8c2.5-1.1,4.3-2.4,5.6-3.9
		c1.2-1.5,1.9-3,1.9-4.4c0-0.8-0.3-1.5-0.8-2c-0.5-0.5-1.3-0.8-2.3-0.8c-2,0-4.2,1.1-6.5,3.3S836.4,1013.3,835.3,1017.6z"/>
	<path class="st1" d="M873.5,987.5l-10.3,35.9c-0.5,1.8-0.7,2.9-0.7,3.3c0,0.3,0.1,0.5,0.3,0.7c0.2,0.2,0.4,0.3,0.7,0.3
		c0.4,0,0.8-0.2,1.2-0.5c1-0.8,2.1-2.1,3.3-3.8l0.9,0.9c-1.9,2.7-3.7,4.6-5.3,5.7c-1.2,0.7-2.3,1.1-3.4,1.1c-0.7,0-1.4-0.3-1.9-0.8
		c-0.5-0.5-0.8-1.1-0.8-1.8c0-0.7,0.3-2.2,0.9-4.5l8.2-28.3c0.6-2.3,1-3.6,1-4c0-0.5-0.2-0.9-0.6-1.2c-0.4-0.3-1-0.5-1.8-0.5
		c-0.4,0-1.1,0.1-2.1,0.2v-1.1L873.5,987.5z"/>
	<path class="st1" d="M886.5,1003.1l-6,21.1c-0.4,1.4-0.6,2.3-0.6,2.5c0,0.3,0.1,0.6,0.3,0.8c0.2,0.2,0.4,0.3,0.7,0.3
		c0.3,0,0.7-0.2,1.1-0.5c1.1-0.9,2.3-2.2,3.5-3.9l1,0.7c-1.4,2.1-3,3.8-4.8,5.3c-1.3,1-2.6,1.6-3.9,1.6c-0.8,0-1.5-0.2-2-0.7
		c-0.5-0.5-0.8-1.1-0.8-1.9c0-0.7,0.2-2,0.7-3.7l3.9-13.5c0.6-2.2,0.9-3.6,0.9-4.2c0-0.4-0.2-0.8-0.5-1.1c-0.3-0.3-0.7-0.4-1.3-0.4
		c-0.4,0-1.4,0.1-2.8,0.3v-1.2L886.5,1003.1z M886.1,991.2c0.8,0,1.6,0.3,2.1,0.9c0.6,0.6,0.9,1.3,0.9,2.1c0,0.8-0.3,1.5-0.9,2.1
		c-0.6,0.6-1.3,0.9-2.1,0.9c-0.8,0-1.5-0.3-2.1-0.9c-0.6-0.6-0.9-1.3-0.9-2.1c0-0.8,0.3-1.5,0.9-2.1
		C884.6,991.5,885.3,991.2,886.1,991.2z"/>
	<path class="st1" d="M913.3,1023.8c-2.1,2.5-4.2,4.3-6.3,5.5c-2.1,1.2-4.4,1.8-6.8,1.8c-2.8,0-5.1-0.8-6.7-2.4
		c-1.6-1.6-2.4-3.8-2.4-6.5c0-3.1,0.9-6.1,2.6-9.1c1.7-3,4-5.4,6.9-7.3c2.9-1.9,5.7-2.8,8.5-2.8c2.2,0,3.8,0.5,4.9,1.4
		c1.1,0.9,1.6,2,1.6,3.4c0,1.2-0.4,2.3-1.2,3.2c-0.5,0.7-1.2,1-2.1,1c-0.6,0-1.1-0.2-1.6-0.6c-0.4-0.4-0.6-0.9-0.6-1.5
		c0-0.4,0.1-0.7,0.2-1c0.1-0.3,0.5-0.7,0.9-1.2c0.5-0.4,0.8-0.8,0.9-1c0.1-0.2,0.1-0.4,0.1-0.6c0-0.4-0.2-0.8-0.6-1
		c-0.6-0.4-1.4-0.6-2.5-0.6c-2,0-3.9,0.7-5.9,2.1c-1.9,1.4-3.6,3.3-5,5.9c-1.6,3.1-2.5,6.2-2.5,9.3c0,2,0.6,3.7,1.8,4.9
		c1.2,1.2,2.8,1.8,4.8,1.8c1.5,0,3.1-0.4,4.6-1.2c1.5-0.8,3.2-2.2,5.1-4.2L913.3,1023.8z"/>
	<path class="st1" d="M931,1003.1l-6,21.1c-0.4,1.4-0.6,2.3-0.6,2.5c0,0.3,0.1,0.6,0.3,0.8c0.2,0.2,0.4,0.3,0.7,0.3
		c0.3,0,0.7-0.2,1.1-0.5c1.1-0.9,2.3-2.2,3.5-3.9l1,0.7c-1.4,2.1-3,3.8-4.8,5.3c-1.3,1-2.6,1.6-3.9,1.6c-0.8,0-1.5-0.2-2-0.7
		c-0.5-0.5-0.8-1.1-0.8-1.9c0-0.7,0.2-2,0.7-3.7l3.9-13.5c0.6-2.2,0.9-3.6,0.9-4.2c0-0.4-0.2-0.8-0.5-1.1c-0.3-0.3-0.7-0.4-1.3-0.4
		c-0.4,0-1.4,0.1-2.8,0.3v-1.2L931,1003.1z M930.7,991.2c0.8,0,1.6,0.3,2.1,0.9c0.6,0.6,0.9,1.3,0.9,2.1c0,0.8-0.3,1.5-0.9,2.1
		c-0.6,0.6-1.3,0.9-2.1,0.9c-0.8,0-1.5-0.3-2.1-0.9c-0.6-0.6-0.9-1.3-0.9-2.1c0-0.8,0.3-1.5,0.9-2.1
		C929.1,991.5,929.8,991.2,930.7,991.2z"/>
	<path class="st1" d="M967.4,987.5l-10.4,35.6c-0.6,1.9-0.9,3.2-0.9,3.8c0,0.2,0.1,0.4,0.3,0.6c0.2,0.2,0.3,0.3,0.5,0.3
		c0.3,0,0.6-0.1,0.9-0.4c0.7-0.5,1.8-1.7,3.4-3.6l1,0.6c-1.4,2-2.9,3.6-4.4,4.9c-1.5,1.2-2.9,1.9-4.1,1.9c-0.7,0-1.3-0.2-1.7-0.7
		c-0.4-0.5-0.7-1.2-0.7-2.1c0-1.1,0.3-2.7,0.9-4.6l1.2-3.7c-2.9,4.5-5.5,7.6-7.9,9.4c-1.6,1.2-3.2,1.8-4.7,1.8c-1.5,0-2.9-0.7-4-2
		c-1.1-1.3-1.7-3.2-1.7-5.5c0-3,1-6.2,2.9-9.6c1.9-3.4,4.4-6.1,7.6-8.3c2.5-1.7,4.7-2.6,6.8-2.6c1.1,0,2,0.2,2.8,0.7
		c0.8,0.4,1.6,1.2,2.3,2.2l3-10.5c0.2-0.7,0.4-1.3,0.5-1.8c0.2-0.8,0.4-1.5,0.4-2c0-0.4-0.1-0.8-0.4-1c-0.4-0.3-1-0.5-1.6-0.5
		c-0.4,0-1.2,0.1-2.3,0.2v-1.1L967.4,987.5z M956.2,1008.9c0-1.3-0.4-2.3-1.1-3.1c-0.7-0.8-1.7-1.2-2.8-1.2c-2.5,0-5.2,2.1-7.9,6.2
		c-2.7,4.2-4.1,8.2-4.1,12c0,1.5,0.3,2.7,1,3.5c0.7,0.8,1.5,1.2,2.4,1.2c2.1,0,4.7-2.3,7.9-6.8
		C954.6,1016.3,956.2,1012.3,956.2,1008.9z"/>
	<path class="st1" d="M993.8,1003.1l-5.9,20.4l-0.7,2.8c0,0.2-0.1,0.5-0.1,0.6c0,0.3,0.1,0.6,0.3,0.9c0.2,0.2,0.3,0.3,0.6,0.3
		s0.6-0.2,1-0.5c0.8-0.6,1.8-1.8,3.1-3.6l1,0.7c-1.4,2.1-2.8,3.7-4.3,4.8c-1.5,1.1-2.8,1.6-4.1,1.6c-0.8,0-1.5-0.2-1.9-0.6
		c-0.4-0.4-0.7-1-0.7-1.9c0-1,0.2-2.3,0.7-3.9l0.6-2.3c-2.6,3.4-5.1,5.9-7.3,7.2c-1.6,1-3.2,1.5-4.7,1.5c-1.5,0-2.7-0.6-3.8-1.8
		c-1.1-1.2-1.6-2.9-1.6-5c0-3.2,1-6.6,2.9-10.1c1.9-3.6,4.3-6.4,7.3-8.5c2.3-1.7,4.5-2.5,6.5-2.5c1.2,0,2.3,0.3,3.1,1
		c0.8,0.6,1.4,1.7,1.9,3.2l1.1-3.4L993.8,1003.1z M983.1,1004.7c-1.3,0-2.6,0.6-4.1,1.8c-2.1,1.7-3.9,4.2-5.5,7.6
		c-1.6,3.4-2.4,6.4-2.4,9.1c0,1.3,0.3,2.4,1,3.2c0.7,0.8,1.5,1.2,2.4,1.2c2.2,0,4.5-1.6,7.1-4.9c3.4-4.3,5.2-8.7,5.2-13.2
		c0-1.7-0.3-2.9-1-3.7C985.1,1005.1,984.2,1004.7,983.1,1004.7z"/>
	<path class="st1" d="M1029,987.5l-10.4,35.6c-0.6,1.9-0.9,3.2-0.9,3.8c0,0.2,0.1,0.4,0.3,0.6c0.2,0.2,0.3,0.3,0.5,0.3
		c0.3,0,0.6-0.1,0.9-0.4c0.7-0.5,1.8-1.7,3.4-3.6l1,0.6c-1.4,2-2.9,3.6-4.4,4.9c-1.5,1.2-2.9,1.9-4.1,1.9c-0.7,0-1.3-0.2-1.7-0.7
		c-0.4-0.5-0.7-1.2-0.7-2.1c0-1.1,0.3-2.7,0.9-4.6l1.2-3.7c-2.9,4.5-5.5,7.6-7.9,9.4c-1.6,1.2-3.2,1.8-4.7,1.8c-1.5,0-2.9-0.7-4-2
		c-1.1-1.3-1.7-3.2-1.7-5.5c0-3,1-6.2,2.9-9.6c1.9-3.4,4.4-6.1,7.6-8.3c2.5-1.7,4.7-2.6,6.8-2.6c1.1,0,2,0.2,2.8,0.7
		c0.8,0.4,1.6,1.2,2.3,2.2l3-10.5c0.2-0.7,0.4-1.3,0.5-1.8c0.2-0.8,0.4-1.5,0.4-2c0-0.4-0.1-0.8-0.4-1c-0.4-0.3-1-0.5-1.6-0.5
		c-0.4,0-1.2,0.1-2.3,0.2v-1.1L1029,987.5z M1017.9,1008.9c0-1.3-0.4-2.3-1.1-3.1c-0.7-0.8-1.7-1.2-2.8-1.2c-2.5,0-5.2,2.1-7.9,6.2
		c-2.7,4.2-4.1,8.2-4.1,12c0,1.5,0.3,2.7,1,3.5c0.7,0.8,1.5,1.2,2.4,1.2c2.1,0,4.7-2.3,7.9-6.8S1017.9,1012.3,1017.9,1008.9z"/>
	<path class="st1" d="M1025.9,1037.2c1.5-0.7,2.7-1.5,3.7-2.6c0.7-0.8,1.1-1.6,1.1-2.3c0-0.4-0.1-0.7-0.2-1c-0.1-0.1-0.3-0.5-0.8-1
		c-0.5-0.5-0.7-0.8-0.8-1c-0.1-0.3-0.2-0.7-0.2-1.2c0-0.9,0.3-1.6,0.9-2.2c0.6-0.6,1.3-0.9,2.1-0.9c0.8,0,1.6,0.3,2.2,1
		c0.6,0.7,1,1.5,1,2.5c0,1.8-0.7,3.6-2.1,5.4c-1.4,1.8-3.4,3.2-6.1,4.2L1025.9,1037.2z"/>
	<path class="st1" d="M267.7,1095.1l-9.9,34.1c-0.4,1.6-0.6,2.6-0.6,3c0,0.4,0.1,0.8,0.3,1.2c0.2,0.3,0.5,0.6,0.9,0.7
		c0.6,0.2,1.4,0.4,2.5,0.4l-0.3,1.1h-14.4l0.3-1.1c2-0.2,3.2-0.3,3.7-0.5c0.8-0.3,1.4-0.8,1.9-1.5c0.5-0.7,1-2.1,1.6-4.3l4.2-14.9
		c-2.6,3.9-5.1,6.6-7.4,8.2c-1.6,1.1-3.1,1.6-4.5,1.6c-2,0-3.5-0.8-4.6-2.5c-1-1.6-1.5-3.4-1.5-5.3c0-3,0.9-6.2,2.8-9.5
		c1.9-3.3,4.3-6.1,7.4-8.2c2.4-1.7,4.5-2.5,6.5-2.5c1.4,0,2.6,0.3,3.5,1c0.9,0.7,1.6,1.8,2.1,3.3l0.9-3.4L267.7,1095.1z M260.8,1101
		c0-1.3-0.4-2.3-1.2-3.1c-0.8-0.8-1.8-1.2-2.9-1.2c-2.4,0-5,2.1-7.7,6.3c-2.7,4.2-4.1,8.2-4.1,11.9c0,1.5,0.3,2.6,1,3.4
		c0.7,0.8,1.5,1.2,2.4,1.2c1.2,0,2.6-0.7,4.2-2.1c2.3-2.1,4.3-4.7,5.9-8C260.1,1106.2,260.8,1103.3,260.8,1101z"/>
	<path class="st1" d="M298.3,1095.8l-5.2,18c-0.8,2.7-1.2,4.4-1.2,5.1c0,0.3,0.1,0.6,0.2,0.8c0.1,0.2,0.3,0.3,0.5,0.3
		c0.3,0,0.7-0.2,1.1-0.5s1.4-1.6,3.1-3.7l0.9,0.7c-1.6,2.5-3.2,4.3-4.9,5.5c-1.1,0.7-2.2,1.1-3.2,1.1c-0.8,0-1.4-0.2-1.9-0.7
		s-0.7-1-0.7-1.7c0-0.7,0.1-1.6,0.4-2.7c0.3-1.5,1.2-4.7,2.8-9.7c-3.4,5.6-6.3,9.5-8.6,11.6c-2.3,2.1-4.4,3.2-6.4,3.2
		c-0.9,0-1.7-0.3-2.4-1c-0.6-0.6-1-1.5-1-2.5c0-1.5,0.4-3.8,1.3-6.9l2.7-9.3c0.6-2.2,0.9-3.6,0.9-4.2c0-0.2-0.1-0.4-0.2-0.6
		c-0.2-0.2-0.3-0.3-0.5-0.3c-0.4,0-0.8,0.1-1.3,0.4c-0.4,0.3-1.4,1.4-2.9,3.3l-0.9-0.6c1.5-2.3,3.1-4.1,4.8-5.2
		c1.3-0.9,2.5-1.3,3.6-1.3c0.7,0,1.4,0.2,1.8,0.7c0.5,0.5,0.7,1.1,0.7,1.8c0,1.1-0.4,3-1.2,5.8l-2.8,9.7c-0.8,2.7-1.2,4.4-1.2,5.1
		c0,0.4,0.1,0.7,0.4,0.9c0.2,0.2,0.6,0.4,1,0.4c0.6,0,1.5-0.3,2.6-1c1.1-0.7,2.5-2.1,4.3-4.4c1.8-2.3,3.2-4.4,4.4-6.4
		c1.2-2,2.4-5.2,3.7-9.5l0.7-2.3H298.3z"/>
	<path class="st1" d="M307.5,1111c-0.1,1-0.2,1.8-0.2,2.5c0,1.8,0.6,3.3,1.9,4.6c1.3,1.3,2.8,1.9,4.6,1.9c1.4,0,2.8-0.3,4.2-0.9
		c1.3-0.6,3.3-1.9,5.9-3.9l0.6,0.9c-4.8,4.7-9.3,7.1-13.6,7.1c-2.9,0-5.1-0.9-6.6-2.8c-1.5-1.8-2.2-3.9-2.2-6.1c0-3,0.9-6.1,2.8-9.2
		c1.8-3.1,4.2-5.6,6.9-7.3c2.8-1.7,5.7-2.6,8.6-2.6c2.1,0,3.7,0.4,4.7,1.3c1,0.9,1.5,1.9,1.5,3.1c0,1.7-0.7,3.3-2,4.8
		c-1.7,2-4.3,3.6-7.7,4.8C314.7,1109.9,311.6,1110.5,307.5,1111z M307.7,1109.5c3-0.3,5.4-0.9,7.3-1.8c2.5-1.1,4.3-2.4,5.6-3.9
		c1.2-1.5,1.9-3,1.9-4.4c0-0.8-0.3-1.5-0.8-2c-0.5-0.5-1.3-0.8-2.3-0.8c-2,0-4.2,1.1-6.5,3.3S308.8,1105.3,307.7,1109.5z"/>
	<path class="st1" d="M361.3,1079.5l-10.3,35.9c-0.5,1.8-0.7,2.9-0.7,3.3c0,0.3,0.1,0.5,0.3,0.7c0.2,0.2,0.4,0.3,0.7,0.3
		c0.4,0,0.8-0.2,1.2-0.5c1-0.8,2.1-2.1,3.3-3.8l0.9,0.9c-1.9,2.7-3.7,4.6-5.3,5.7c-1.2,0.7-2.3,1.1-3.4,1.1c-0.7,0-1.4-0.3-1.9-0.8
		c-0.5-0.5-0.8-1.1-0.8-1.8c0-0.7,0.3-2.2,0.9-4.5l8.2-28.3c0.6-2.3,1-3.6,1-4c0-0.5-0.2-0.9-0.6-1.2c-0.4-0.3-1-0.5-1.8-0.5
		c-0.4,0-1.1,0.1-2.1,0.2v-1.1L361.3,1079.5z"/>
	<path class="st1" d="M388.6,1104.5c0,3-0.8,6-2.4,9c-1.6,3-3.8,5.3-6.7,7c-2.8,1.7-5.6,2.6-8.3,2.6c-2.7,0-5-0.9-6.7-2.6
		c-1.7-1.8-2.6-4-2.6-6.8c0-3,0.8-5.9,2.5-8.9c1.7-3,4-5.3,6.8-7.1c2.8-1.7,5.6-2.6,8.2-2.6c2.7,0,4.9,0.9,6.6,2.6
		S388.6,1101.7,388.6,1104.5z M383.6,1102.4c0-1.9-0.5-3.3-1.4-4.3c-0.9-1-2.1-1.5-3.6-1.5c-2.9,0-5.7,2.1-8.1,6.3
		c-2.5,4.2-3.7,8.4-3.7,12.6c0,1.9,0.5,3.4,1.5,4.4c1,1,2.2,1.6,3.6,1.6c2.8,0,5.5-2.1,8-6.3
		C382.4,1111.1,383.6,1106.8,383.6,1102.4z"/>
	<path class="st1" d="M439.7,1079.5l-10.4,35.6c-0.6,1.9-0.9,3.2-0.9,3.8c0,0.2,0.1,0.4,0.3,0.6c0.2,0.2,0.3,0.3,0.5,0.3
		c0.3,0,0.6-0.1,0.9-0.4c0.7-0.5,1.8-1.7,3.4-3.6l1,0.6c-1.4,2-2.9,3.6-4.4,4.9c-1.5,1.2-2.9,1.9-4.1,1.9c-0.7,0-1.3-0.2-1.7-0.7
		s-0.7-1.2-0.7-2.1c0-1.1,0.3-2.7,0.9-4.6l1.2-3.7c-2.9,4.5-5.5,7.6-7.9,9.4c-1.6,1.2-3.2,1.8-4.7,1.8c-1.5,0-2.9-0.7-4-2
		c-1.1-1.3-1.7-3.2-1.7-5.5c0-3,1-6.2,2.9-9.6c1.9-3.4,4.4-6.1,7.6-8.3c2.5-1.7,4.7-2.6,6.8-2.6c1.1,0,2,0.2,2.8,0.7
		c0.8,0.4,1.6,1.2,2.3,2.2l3-10.5c0.2-0.7,0.4-1.3,0.5-1.8c0.2-0.8,0.4-1.5,0.4-2c0-0.4-0.1-0.8-0.4-1c-0.4-0.3-1-0.5-1.6-0.5
		c-0.4,0-1.2,0.1-2.3,0.2v-1.1L439.7,1079.5z M428.5,1100.9c0-1.3-0.4-2.3-1.1-3.1c-0.7-0.8-1.7-1.2-2.8-1.2c-2.5,0-5.2,2.1-7.9,6.2
		c-2.7,4.2-4.1,8.2-4.1,12c0,1.5,0.3,2.7,1,3.5c0.7,0.8,1.5,1.2,2.4,1.2c2.1,0,4.7-2.3,7.9-6.8
		C427,1108.2,428.5,1104.3,428.5,1100.9z"/>
	<path class="st1" d="M444.5,1111c-0.1,1-0.2,1.8-0.2,2.5c0,1.8,0.6,3.3,1.9,4.6c1.3,1.3,2.8,1.9,4.6,1.9c1.4,0,2.8-0.3,4.2-0.9
		c1.3-0.6,3.3-1.9,5.9-3.9l0.6,0.9c-4.8,4.7-9.3,7.1-13.6,7.1c-2.9,0-5.1-0.9-6.6-2.8c-1.5-1.8-2.2-3.9-2.2-6.1c0-3,0.9-6.1,2.8-9.2
		c1.8-3.1,4.2-5.6,6.9-7.3c2.8-1.7,5.7-2.6,8.6-2.6c2.1,0,3.7,0.4,4.7,1.3c1,0.9,1.5,1.9,1.5,3.1c0,1.7-0.7,3.3-2,4.8
		c-1.7,2-4.3,3.6-7.7,4.8C451.8,1109.9,448.6,1110.5,444.5,1111z M444.7,1109.5c3-0.3,5.4-0.9,7.3-1.8c2.5-1.1,4.3-2.4,5.6-3.9
		c1.2-1.5,1.9-3,1.9-4.4c0-0.8-0.3-1.5-0.8-2c-0.5-0.5-1.3-0.8-2.3-0.8c-2,0-4.2,1.1-6.5,3.3S445.8,1105.3,444.7,1109.5z"/>
	<path class="st1" d="M478.2,1095.1l-2.1,7c2.2-2.6,4.2-4.4,5.9-5.4c1.7-1,3.5-1.6,5.2-1.6c1.8,0,3.3,0.7,4.6,2.1
		c1.3,1.4,1.9,3.3,1.9,5.5c0,4.4-1.8,8.9-5.4,13.5c-3.6,4.6-7.8,6.8-12.6,6.8c-1,0-1.9-0.1-2.7-0.3c-0.8-0.2-1.6-0.6-2.6-1.2
		l-2.2,7.8c-0.4,1.5-0.7,2.5-0.7,3s0.1,0.8,0.4,1.1c0.2,0.3,0.6,0.6,1.1,0.7c0.5,0.2,1.5,0.3,3.1,0.3l-0.3,1.1h-14.2l0.3-1.1
		c1.9-0.1,3.1-0.4,3.8-1c0.6-0.6,1.3-2.1,2.1-4.7l7.6-26.4c0.4-1.7,0.7-2.7,0.7-3.1c0-0.5-0.2-1-0.4-1.3c-0.3-0.3-0.8-0.4-1.4-0.4
		c-0.6,0-1.4,0.1-2.4,0.2v-1.2L478.2,1095.1z M471.2,1119.2c1.2,1.5,2.9,2.2,5.1,2.2c1,0,2.1-0.3,3.2-0.9c1.1-0.6,2.1-1.4,3.2-2.6
		c1-1.1,2-2.5,2.8-3.9c0.8-1.5,1.6-3.3,2.2-5.3c0.7-2,1-4,1-6c0-1.6-0.4-2.8-1.1-3.7c-0.7-0.8-1.6-1.3-2.6-1.3
		c-2.2,0-4.3,1.2-6.4,3.7c-2.1,2.5-3.7,5.4-4.7,8.7L471.2,1119.2z"/>
	<path class="st1" d="M523.9,1104.5c0,3-0.8,6-2.4,9s-3.8,5.3-6.7,7c-2.8,1.7-5.6,2.6-8.3,2.6c-2.7,0-5-0.9-6.7-2.6
		c-1.7-1.8-2.6-4-2.6-6.8c0-3,0.8-5.9,2.5-8.9c1.7-3,4-5.3,6.8-7.1c2.8-1.7,5.6-2.6,8.2-2.6c2.7,0,4.9,0.9,6.6,2.6
		C523.1,1099.5,523.9,1101.7,523.9,1104.5z M519,1102.4c0-1.9-0.5-3.3-1.4-4.3c-0.9-1-2.1-1.5-3.6-1.5c-2.9,0-5.7,2.1-8.1,6.3
		c-2.5,4.2-3.7,8.4-3.7,12.6c0,1.9,0.5,3.4,1.5,4.4c1,1,2.2,1.6,3.6,1.6c2.8,0,5.5-2.1,8-6.3C517.7,1111.1,519,1106.8,519,1102.4z"
		/>
	<path class="st1" d="M548.6,1095.1l-1.8,9.3h-1.1c-0.1-2.7-0.7-4.7-1.7-5.9c-1-1.2-2.3-1.8-3.9-1.8c-1.2,0-2.2,0.3-2.9,1
		c-0.7,0.7-1.1,1.5-1.1,2.5c0,0.6,0.1,1.3,0.4,1.9c0.3,0.6,0.9,1.5,1.9,2.5c2.6,2.9,4.3,5,5,6.5c0.8,1.4,1.1,2.8,1.1,4.1
		c0,2.1-0.9,3.9-2.6,5.6c-1.7,1.6-3.9,2.4-6.6,2.4c-1.4,0-3.1-0.3-5-1c-0.6-0.2-1.2-0.4-1.5-0.4c-0.9,0-1.6,0.5-2.1,1.4h-1.1
		l1.8-9.8h1.1c0.1,3.1,0.7,5.2,1.9,6.5c1.1,1.3,2.7,1.9,4.7,1.9c1.5,0,2.7-0.4,3.6-1.3c0.9-0.8,1.3-1.9,1.3-3.1
		c0-0.8-0.2-1.5-0.5-2.2c-0.6-1.2-1.8-2.9-3.6-5c-1.8-2.1-2.9-3.7-3.5-4.8c-0.5-1.1-0.8-2.1-0.8-3.2c0-1.9,0.7-3.6,2.1-4.9
		c1.4-1.3,3.2-2,5.5-2c0.6,0,1.2,0.1,1.8,0.1c0.3,0.1,0.9,0.3,2,0.7c1,0.4,1.7,0.6,2.1,0.6c0.8,0,1.6-0.5,2.2-1.4H548.6z"/>
	<path class="st1" d="M564.5,1095.1l-6,21.1c-0.4,1.4-0.6,2.3-0.6,2.5c0,0.3,0.1,0.6,0.3,0.8c0.2,0.2,0.4,0.3,0.7,0.3
		c0.3,0,0.7-0.2,1.1-0.5c1.1-0.9,2.3-2.2,3.5-3.9l1,0.7c-1.4,2.1-3,3.8-4.8,5.3c-1.3,1-2.6,1.6-3.9,1.6c-0.8,0-1.5-0.2-2-0.7
		c-0.5-0.5-0.8-1.1-0.8-1.9c0-0.7,0.2-2,0.7-3.7l3.9-13.5c0.6-2.2,0.9-3.6,0.9-4.2c0-0.4-0.2-0.8-0.5-1.1c-0.3-0.3-0.7-0.4-1.3-0.4
		c-0.4,0-1.4,0.1-2.8,0.3v-1.2L564.5,1095.1z M564.1,1083.1c0.8,0,1.6,0.3,2.1,0.9c0.6,0.6,0.9,1.3,0.9,2.1c0,0.8-0.3,1.5-0.9,2.1
		c-0.6,0.6-1.3,0.9-2.1,0.9c-0.8,0-1.5-0.3-2.1-0.9c-0.6-0.6-0.9-1.3-0.9-2.1c0-0.8,0.3-1.5,0.9-2.1
		C562.5,1083.4,563.2,1083.1,564.1,1083.1z"/>
	<path class="st1" d="M583.4,1087.6l-2.4,8.2h4.8l-0.5,1.9h-4.7l-5.2,17.7c-0.5,1.9-0.8,3.2-0.8,3.7c0,0.3,0.1,0.6,0.2,0.8
		c0.2,0.2,0.3,0.3,0.6,0.3c0.5,0,1.2-0.4,2-1.1c0.5-0.4,1.6-1.6,3.3-3.7l1,0.8c-1.8,2.7-3.6,4.6-5.2,5.7c-1.1,0.7-2.3,1.1-3.4,1.1
		c-0.9,0-1.6-0.3-2.2-0.8c-0.6-0.5-0.8-1.3-0.8-2.1c0-1.1,0.3-2.7,0.9-4.9l5.1-17.4h-4.6l0.3-1.2c2.2-0.6,4.1-1.5,5.5-2.7
		c1.5-1.2,3.1-3.3,4.9-6.2H583.4z"/>
	<path class="st1" d="M591.9,1111c-0.1,1-0.2,1.8-0.2,2.5c0,1.8,0.6,3.3,1.9,4.6c1.3,1.3,2.8,1.9,4.6,1.9c1.4,0,2.8-0.3,4.2-0.9
		c1.3-0.6,3.3-1.9,5.9-3.9l0.6,0.9c-4.8,4.7-9.3,7.1-13.6,7.1c-2.9,0-5.1-0.9-6.6-2.8c-1.5-1.8-2.2-3.9-2.2-6.1c0-3,0.9-6.1,2.8-9.2
		c1.8-3.1,4.2-5.6,6.9-7.3c2.8-1.7,5.7-2.6,8.6-2.6c2.1,0,3.7,0.4,4.7,1.3c1,0.9,1.5,1.9,1.5,3.1c0,1.7-0.7,3.3-2,4.8
		c-1.7,2-4.3,3.6-7.7,4.8C599.1,1109.9,596,1110.5,591.9,1111z M592.1,1109.5c3-0.3,5.4-0.9,7.3-1.8c2.5-1.1,4.3-2.4,5.6-3.9
		c1.2-1.5,1.9-3,1.9-4.4c0-0.8-0.3-1.5-0.8-2c-0.5-0.5-1.3-0.8-2.3-0.8c-2,0-4.2,1.1-6.5,3.3S593.2,1105.3,592.1,1109.5z"/>
	<path class="st1" d="M634.7,1111c-0.1,1-0.2,1.8-0.2,2.5c0,1.8,0.6,3.3,1.9,4.6c1.3,1.3,2.8,1.9,4.6,1.9c1.4,0,2.8-0.3,4.2-0.9
		c1.3-0.6,3.3-1.9,5.9-3.9l0.6,0.9c-4.8,4.7-9.3,7.1-13.6,7.1c-2.9,0-5.1-0.9-6.6-2.8c-1.5-1.8-2.2-3.9-2.2-6.1c0-3,0.9-6.1,2.8-9.2
		c1.8-3.1,4.2-5.6,6.9-7.3c2.8-1.7,5.7-2.6,8.6-2.6c2.1,0,3.7,0.4,4.7,1.3c1,0.9,1.5,1.9,1.5,3.1c0,1.7-0.7,3.3-2,4.8
		c-1.7,2-4.3,3.6-7.7,4.8C642,1109.9,638.8,1110.5,634.7,1111z M634.9,1109.5c3-0.3,5.4-0.9,7.3-1.8c2.5-1.1,4.3-2.4,5.6-3.9
		c1.2-1.5,1.9-3,1.9-4.4c0-0.8-0.3-1.5-0.8-2c-0.5-0.5-1.3-0.8-2.3-0.8c-2,0-4.2,1.1-6.5,3.3S636,1105.3,634.9,1109.5z"/>
	<path class="st1" d="M668.4,1095.1l-4,13.7c3.7-5.6,6.6-9.3,8.6-11.1c2-1.8,3.9-2.7,5.8-2.7c1,0,1.8,0.3,2.5,1c0.6,0.7,1,1.5,1,2.6
		c0,1.2-0.3,2.8-0.9,4.8l-3.7,12.7c-0.4,1.5-0.6,2.4-0.6,2.7c0,0.3,0.1,0.5,0.2,0.7c0.2,0.2,0.3,0.3,0.5,0.3c0.2,0,0.5-0.1,0.9-0.4
		c1.1-0.8,2.2-2.1,3.5-3.9l0.9,0.6c-1.9,2.7-3.6,4.6-5.3,5.7c-1.2,0.8-2.2,1.2-3.1,1.2c-0.7,0-1.3-0.2-1.8-0.7
		c-0.4-0.4-0.7-1-0.7-1.8c0-1,0.3-2.6,1-5l3.5-12.1c0.4-1.5,0.6-2.7,0.6-3.5c0-0.4-0.1-0.7-0.4-1c-0.3-0.2-0.6-0.4-1-0.4
		c-0.5,0-1.2,0.2-2,0.7c-1.5,0.9-3,2.4-4.6,4.5c-1.6,2.1-3.3,4.7-5.1,8c-0.9,1.7-1.7,3.6-2.4,5.6l-1.5,5h-4.5l5.5-18.9
		c0.6-2.3,1-3.6,1-4.1c0-0.4-0.2-0.8-0.5-1.2c-0.4-0.3-0.8-0.5-1.3-0.5c-0.2,0-0.7,0.1-1.3,0.2l-1.2,0.1l-0.2-1.1L668.4,1095.1z"/>
	<path class="st1" d="M708.3,1111c-0.1,1-0.2,1.8-0.2,2.5c0,1.8,0.6,3.3,1.9,4.6c1.3,1.3,2.8,1.9,4.6,1.9c1.4,0,2.8-0.3,4.2-0.9
		c1.3-0.6,3.3-1.9,5.9-3.9l0.6,0.9c-4.8,4.7-9.3,7.1-13.6,7.1c-2.9,0-5.1-0.9-6.6-2.8c-1.5-1.8-2.2-3.9-2.2-6.1c0-3,0.9-6.1,2.8-9.2
		c1.8-3.1,4.2-5.6,6.9-7.3c2.8-1.7,5.7-2.6,8.6-2.6c2.1,0,3.7,0.4,4.7,1.3c1,0.9,1.5,1.9,1.5,3.1c0,1.7-0.7,3.3-2,4.8
		c-1.7,2-4.3,3.6-7.7,4.8C715.6,1109.9,712.4,1110.5,708.3,1111z M708.6,1109.5c3-0.3,5.4-0.9,7.3-1.8c2.5-1.1,4.3-2.4,5.6-3.9
		c1.2-1.5,1.9-3,1.9-4.4c0-0.8-0.3-1.5-0.8-2c-0.5-0.5-1.3-0.8-2.3-0.8c-2,0-4.2,1.1-6.5,3.3S709.7,1105.3,708.6,1109.5z"/>
	<path class="st1" d="M750.8,1095.1l-1.8,9.3h-1.1c-0.1-2.7-0.7-4.7-1.7-5.9c-1-1.2-2.3-1.8-3.9-1.8c-1.2,0-2.2,0.3-2.9,1
		c-0.7,0.7-1.1,1.5-1.1,2.5c0,0.6,0.1,1.3,0.4,1.9c0.3,0.6,0.9,1.5,1.9,2.5c2.6,2.9,4.3,5,5,6.5c0.8,1.4,1.1,2.8,1.1,4.1
		c0,2.1-0.9,3.9-2.6,5.6c-1.7,1.6-3.9,2.4-6.6,2.4c-1.4,0-3.1-0.3-5-1c-0.6-0.2-1.2-0.4-1.5-0.4c-0.9,0-1.6,0.5-2.1,1.4h-1.1
		l1.8-9.8h1.1c0.1,3.1,0.7,5.2,1.9,6.5c1.1,1.3,2.7,1.9,4.7,1.9c1.5,0,2.7-0.4,3.6-1.3c0.9-0.8,1.3-1.9,1.3-3.1
		c0-0.8-0.2-1.5-0.5-2.2c-0.6-1.2-1.8-2.9-3.6-5c-1.8-2.1-2.9-3.7-3.5-4.8c-0.5-1.1-0.8-2.1-0.8-3.2c0-1.9,0.7-3.6,2.1-4.9
		c1.4-1.3,3.2-2,5.5-2c0.6,0,1.2,0.1,1.8,0.1c0.3,0.1,0.9,0.3,2,0.7c1,0.4,1.7,0.6,2.1,0.6c0.8,0,1.6-0.5,2.2-1.4H750.8z"/>
	<path class="st1" d="M768.4,1087.6l-2.4,8.2h4.8l-0.5,1.9h-4.7l-5.2,17.7c-0.5,1.9-0.8,3.2-0.8,3.7c0,0.3,0.1,0.6,0.2,0.8
		c0.2,0.2,0.3,0.3,0.6,0.3c0.5,0,1.2-0.4,2-1.1c0.5-0.4,1.6-1.6,3.3-3.7l1,0.8c-1.8,2.7-3.6,4.6-5.2,5.7c-1.1,0.7-2.3,1.1-3.4,1.1
		c-0.9,0-1.6-0.3-2.2-0.8c-0.6-0.5-0.8-1.3-0.8-2.1c0-1.1,0.3-2.7,0.9-4.9l5.1-17.4h-4.6l0.3-1.2c2.2-0.6,4.1-1.5,5.5-2.7
		c1.5-1.2,3.1-3.3,4.9-6.2H768.4z"/>
	<path class="st1" d="M798.5,1095.1l-5.9,20.4l-0.7,2.8c0,0.2-0.1,0.5-0.1,0.6c0,0.3,0.1,0.6,0.3,0.9c0.2,0.2,0.3,0.3,0.6,0.3
		s0.6-0.2,1-0.5c0.8-0.6,1.8-1.8,3.1-3.6l1,0.7c-1.4,2.1-2.8,3.7-4.3,4.8c-1.5,1.1-2.8,1.6-4.1,1.6c-0.8,0-1.5-0.2-1.9-0.6
		c-0.4-0.4-0.7-1-0.7-1.9c0-1,0.2-2.3,0.7-3.9l0.6-2.3c-2.6,3.4-5.1,5.9-7.3,7.2c-1.6,1-3.2,1.5-4.7,1.5c-1.5,0-2.7-0.6-3.8-1.8
		c-1.1-1.2-1.6-2.9-1.6-5c0-3.2,1-6.6,2.9-10.1c1.9-3.6,4.3-6.4,7.3-8.5c2.3-1.7,4.5-2.5,6.5-2.5c1.2,0,2.3,0.3,3.1,1
		c0.8,0.6,1.4,1.7,1.9,3.2l1.1-3.4L798.5,1095.1z M787.8,1096.6c-1.3,0-2.6,0.6-4.1,1.8c-2.1,1.7-3.9,4.2-5.5,7.6
		c-1.6,3.4-2.4,6.4-2.4,9.1c0,1.3,0.3,2.4,1,3.2c0.7,0.8,1.5,1.2,2.4,1.2c2.2,0,4.5-1.6,7.1-4.9c3.4-4.3,5.2-8.7,5.2-13.2
		c0-1.7-0.3-2.9-1-3.7C789.8,1097,788.9,1096.6,787.8,1096.6z"/>
	<path class="st1" d="M839.7,1115.8c-2.1,2.5-4.2,4.3-6.3,5.5c-2.1,1.2-4.4,1.8-6.8,1.8c-2.8,0-5.1-0.8-6.7-2.4
		c-1.6-1.6-2.4-3.8-2.4-6.5c0-3.1,0.9-6.1,2.6-9.1c1.7-3,4-5.4,6.9-7.3c2.9-1.9,5.7-2.8,8.5-2.8c2.2,0,3.8,0.5,4.9,1.4
		c1.1,0.9,1.6,2,1.6,3.4c0,1.2-0.4,2.3-1.2,3.2c-0.5,0.7-1.2,1-2.1,1c-0.6,0-1.1-0.2-1.6-0.6c-0.4-0.4-0.6-0.9-0.6-1.5
		c0-0.4,0.1-0.7,0.2-1c0.1-0.3,0.5-0.7,0.9-1.2c0.5-0.4,0.8-0.8,0.9-1c0.1-0.2,0.1-0.4,0.1-0.6c0-0.4-0.2-0.8-0.6-1
		c-0.6-0.4-1.4-0.6-2.5-0.6c-2,0-3.9,0.7-5.9,2.1c-1.9,1.4-3.6,3.3-5,5.9c-1.6,3.1-2.5,6.2-2.5,9.3c0,2,0.6,3.7,1.8,4.9
		c1.2,1.2,2.8,1.8,4.8,1.8c1.5,0,3.1-0.4,4.6-1.2c1.5-0.8,3.2-2.2,5.1-4.2L839.7,1115.8z"/>
	<path class="st1" d="M872.3,1095.8l-5.2,18c-0.8,2.7-1.2,4.4-1.2,5.1c0,0.3,0.1,0.6,0.2,0.8c0.1,0.2,0.3,0.3,0.5,0.3
		c0.3,0,0.7-0.2,1.1-0.5c0.4-0.3,1.4-1.6,3.1-3.7l0.9,0.7c-1.6,2.5-3.2,4.3-4.9,5.5c-1.1,0.7-2.2,1.1-3.2,1.1
		c-0.8,0-1.4-0.2-1.9-0.7c-0.4-0.4-0.7-1-0.7-1.7c0-0.7,0.1-1.6,0.4-2.7c0.3-1.5,1.2-4.7,2.8-9.7c-3.4,5.6-6.3,9.5-8.6,11.6
		c-2.3,2.1-4.4,3.2-6.4,3.2c-0.9,0-1.7-0.3-2.4-1c-0.6-0.6-1-1.5-1-2.5c0-1.5,0.4-3.8,1.3-6.9l2.7-9.3c0.6-2.2,0.9-3.6,0.9-4.2
		c0-0.2-0.1-0.4-0.2-0.6c-0.2-0.2-0.3-0.3-0.5-0.3c-0.4,0-0.8,0.1-1.3,0.4c-0.4,0.3-1.4,1.4-2.9,3.3l-0.9-0.6
		c1.5-2.3,3.1-4.1,4.8-5.2c1.3-0.9,2.5-1.3,3.6-1.3c0.7,0,1.4,0.2,1.8,0.7c0.5,0.5,0.7,1.1,0.7,1.8c0,1.1-0.4,3-1.2,5.8l-2.8,9.7
		c-0.8,2.7-1.2,4.4-1.2,5.1c0,0.4,0.1,0.7,0.4,0.9c0.2,0.2,0.6,0.4,1,0.4c0.6,0,1.5-0.3,2.6-1c1.1-0.7,2.5-2.1,4.3-4.4
		c1.8-2.3,3.2-4.4,4.4-6.4c1.2-2,2.4-5.2,3.7-9.5l0.7-2.3H872.3z"/>
	<path class="st1" d="M881.4,1111c-0.1,1-0.2,1.8-0.2,2.5c0,1.8,0.6,3.3,1.9,4.6c1.3,1.3,2.8,1.9,4.6,1.9c1.4,0,2.8-0.3,4.2-0.9
		c1.3-0.6,3.3-1.9,5.9-3.9l0.6,0.9c-4.8,4.7-9.3,7.1-13.6,7.1c-2.9,0-5.1-0.9-6.6-2.8c-1.5-1.8-2.2-3.9-2.2-6.1c0-3,0.9-6.1,2.8-9.2
		c1.8-3.1,4.2-5.6,6.9-7.3c2.8-1.7,5.7-2.6,8.6-2.6c2.1,0,3.7,0.4,4.7,1.3c1,0.9,1.5,1.9,1.5,3.1c0,1.7-0.7,3.3-2,4.8
		c-1.7,2-4.3,3.6-7.7,4.8C888.7,1109.9,885.5,1110.5,881.4,1111z M881.6,1109.5c3-0.3,5.4-0.9,7.3-1.8c2.5-1.1,4.3-2.4,5.6-3.9
		c1.2-1.5,1.9-3,1.9-4.4c0-0.8-0.3-1.5-0.8-2c-0.5-0.5-1.3-0.8-2.3-0.8c-2,0-4.2,1.1-6.5,3.3S882.7,1105.3,881.6,1109.5z"/>
	<path class="st1" d="M915.1,1095.1l-4,13.7c3.7-5.6,6.6-9.3,8.6-11.1c2-1.8,3.9-2.7,5.8-2.7c1,0,1.8,0.3,2.5,1c0.6,0.7,1,1.5,1,2.6
		c0,1.2-0.3,2.8-0.9,4.8l-3.7,12.7c-0.4,1.5-0.6,2.4-0.6,2.7c0,0.3,0.1,0.5,0.2,0.7c0.2,0.2,0.3,0.3,0.5,0.3c0.2,0,0.5-0.1,0.9-0.4
		c1.1-0.8,2.2-2.1,3.5-3.9l0.9,0.6c-1.9,2.7-3.6,4.6-5.3,5.7c-1.2,0.8-2.2,1.2-3.1,1.2c-0.7,0-1.3-0.2-1.8-0.7
		c-0.4-0.4-0.7-1-0.7-1.8c0-1,0.3-2.6,1-5l3.5-12.1c0.4-1.5,0.6-2.7,0.6-3.5c0-0.4-0.1-0.7-0.4-1c-0.3-0.2-0.6-0.4-1-0.4
		c-0.5,0-1.2,0.2-2,0.7c-1.5,0.9-3,2.4-4.6,4.5c-1.6,2.1-3.3,4.7-5.1,8c-0.9,1.7-1.7,3.6-2.4,5.6l-1.5,5h-4.5l5.5-18.9
		c0.6-2.3,1-3.6,1-4.1c0-0.4-0.2-0.8-0.5-1.2c-0.4-0.3-0.8-0.5-1.3-0.5c-0.2,0-0.7,0.1-1.3,0.2l-1.2,0.1l-0.2-1.1L915.1,1095.1z"/>
	<path class="st1" d="M948.3,1087.6l-2.4,8.2h4.8l-0.5,1.9h-4.7l-5.2,17.7c-0.5,1.9-0.8,3.2-0.8,3.7c0,0.3,0.1,0.6,0.2,0.8
		c0.2,0.2,0.3,0.3,0.6,0.3c0.5,0,1.2-0.4,2-1.1c0.5-0.4,1.6-1.6,3.3-3.7l1,0.8c-1.8,2.7-3.6,4.6-5.2,5.7c-1.1,0.7-2.3,1.1-3.4,1.1
		c-0.9,0-1.6-0.3-2.2-0.8c-0.6-0.5-0.8-1.3-0.8-2.1c0-1.1,0.3-2.7,0.9-4.9l5.1-17.4h-4.6l0.3-1.2c2.2-0.6,4.1-1.5,5.5-2.7
		c1.5-1.2,3.1-3.3,4.9-6.2H948.3z"/>
	<path class="st1" d="M978.4,1095.1l-5.9,20.4l-0.7,2.8c0,0.2-0.1,0.5-0.1,0.6c0,0.3,0.1,0.6,0.3,0.9c0.2,0.2,0.3,0.3,0.6,0.3
		s0.6-0.2,1-0.5c0.8-0.6,1.8-1.8,3.1-3.6l1,0.7c-1.4,2.1-2.8,3.7-4.3,4.8c-1.5,1.1-2.8,1.6-4.1,1.6c-0.8,0-1.5-0.2-1.9-0.6
		c-0.4-0.4-0.7-1-0.7-1.9c0-1,0.2-2.3,0.7-3.9l0.6-2.3c-2.6,3.4-5.1,5.9-7.3,7.2c-1.6,1-3.2,1.5-4.7,1.5c-1.5,0-2.7-0.6-3.8-1.8
		c-1.1-1.2-1.6-2.9-1.6-5c0-3.2,1-6.6,2.9-10.1c1.9-3.6,4.3-6.4,7.3-8.5c2.3-1.7,4.5-2.5,6.5-2.5c1.2,0,2.3,0.3,3.1,1
		c0.8,0.6,1.4,1.7,1.9,3.2l1.1-3.4L978.4,1095.1z M967.7,1096.6c-1.3,0-2.6,0.6-4.1,1.8c-2.1,1.7-3.9,4.2-5.5,7.6
		c-1.6,3.4-2.4,6.4-2.4,9.1c0,1.3,0.3,2.4,1,3.2c0.7,0.8,1.5,1.2,2.4,1.2c2.2,0,4.5-1.6,7.1-4.9c3.4-4.3,5.2-8.7,5.2-13.2
		c0-1.7-0.3-2.9-1-3.7C969.7,1097,968.8,1096.6,967.7,1096.6z"/>
	<path class="st1" d="M987,1116.9c0.8,0,1.5,0.3,2.1,0.9c0.6,0.6,0.9,1.3,0.9,2.2c0,0.8-0.3,1.5-0.9,2.1c-0.6,0.6-1.3,0.9-2.1,0.9
		c-0.8,0-1.6-0.3-2.2-0.9c-0.6-0.6-0.9-1.3-0.9-2.1c0-0.8,0.3-1.6,0.9-2.2C985.4,1117.2,986.2,1116.9,987,1116.9z M993.4,1095.1
		c0.8,0,1.6,0.3,2.2,0.9c0.6,0.6,0.9,1.3,0.9,2.2c0,0.8-0.3,1.6-0.9,2.2c-0.6,0.6-1.3,0.9-2.2,0.9s-1.6-0.3-2.2-0.9
		c-0.6-0.6-0.9-1.3-0.9-2.2c0-0.8,0.3-1.6,0.9-2.2C991.8,1095.4,992.5,1095.1,993.4,1095.1z"/>
</g>
<g>
	<path class="st1" d="M211.2,1218.4v16.2h9c2.4,0,3.9-0.4,4.7-1.1c1.1-0.9,1.6-2.6,1.8-4.9h1.1v14.3h-1.1c-0.3-2-0.6-3.3-0.9-3.8
		c-0.4-0.7-0.9-1.3-1.8-1.7s-2.1-0.6-3.8-0.6h-9v13.5c0,1.8,0.1,2.9,0.2,3.3s0.4,0.7,0.8,0.9c0.4,0.2,1.2,0.3,2.3,0.3h7
		c2.3,0,4-0.2,5-0.5s2.1-0.9,3-1.9c1.3-1.3,2.5-3.1,3.8-5.7h1.2l-3.5,10.3h-31.6v-1.1h1.4c1,0,1.9-0.2,2.8-0.7
		c0.6-0.3,1.1-0.8,1.3-1.5c0.2-0.7,0.4-2,0.4-3.9v-26.7c0-2.6-0.3-4.2-0.8-4.8c-0.7-0.8-1.9-1.2-3.6-1.2h-1.4v-1.1h31.6l0.5,9h-1.2
		c-0.4-2.2-0.9-3.7-1.4-4.5c-0.5-0.8-1.3-1.4-2.3-1.8c-0.8-0.3-2.3-0.5-4.3-0.5H211.2z"/>
	<path class="st1" d="M264.5,1215.2v14.2h-1.1c-0.4-2.7-1-4.9-1.9-6.5c-0.9-1.6-2.3-2.9-4-3.8c-1.7-1-3.5-1.4-5.4-1.4
		c-2.1,0-3.8,0.6-5.2,1.9c-1.4,1.3-2.1,2.7-2.1,4.4c0,1.3,0.4,2.4,1.3,3.4c1.3,1.5,4.2,3.5,8.9,6.1c3.8,2.1,6.5,3.6,7.9,4.7
		c1.4,1.1,2.5,2.4,3.2,3.9s1.1,3.1,1.1,4.7c0,3.1-1.2,5.8-3.6,8s-5.5,3.4-9.3,3.4c-1.2,0-2.3-0.1-3.4-0.3c-0.6-0.1-1.9-0.5-3.9-1.1
		c-2-0.6-3.2-1-3.7-1c-0.5,0-0.9,0.2-1.2,0.5s-0.5,0.9-0.7,1.9h-1.1V1244h1.1c0.5,2.9,1.2,5.1,2.1,6.6c0.9,1.5,2.2,2.7,4.1,3.6
		c1.8,1,3.8,1.4,6,1.4c2.5,0,4.5-0.7,6-2c1.5-1.3,2.2-2.9,2.2-4.7c0-1-0.3-2-0.8-3c-0.6-1-1.4-2-2.6-2.9c-0.8-0.6-2.9-1.9-6.4-3.9
		c-3.5-2-6-3.5-7.5-4.7c-1.5-1.2-2.6-2.5-3.4-3.9c-0.8-1.4-1.1-3-1.1-4.6c0-3,1.1-5.5,3.4-7.6s5.1-3.2,8.6-3.2
		c2.2,0,4.5,0.5,6.9,1.6c1.1,0.5,1.9,0.8,2.4,0.8c0.5,0,0.9-0.2,1.3-0.5c0.3-0.3,0.6-0.9,0.8-1.9H264.5z"/>
	<path class="st1" d="M276.8,1216.1h22v1.2l-13.7,40.8h-3.4l12.3-37h-11.3c-2.3,0-3.9,0.3-4.9,0.8c-1.7,0.9-3,2.4-4.1,4.3l-0.9-0.3
		L276.8,1216.1z"/>
	<path class="st1" d="M328.5,1216.1l-2.4,5.2h-12.4l-2.7,5.5c5.3,0.8,9.6,2.8,12.7,5.9c2.7,2.8,4,6,4,9.7c0,2.2-0.4,4.2-1.3,6
		c-0.9,1.8-2,3.4-3.3,4.7c-1.3,1.3-2.8,2.3-4.5,3.1c-2.3,1.1-4.7,1.7-7.1,1.7c-2.5,0-4.2-0.4-5.4-1.2c-1.1-0.8-1.7-1.8-1.7-2.8
		c0-0.6,0.2-1,0.7-1.5c0.5-0.4,1-0.7,1.7-0.7c0.5,0,1,0.1,1.4,0.2s1.1,0.6,2,1.3c1.5,1,3.1,1.5,4.6,1.5c2.4,0,4.4-0.9,6.2-2.7
		c1.8-1.8,2.7-3.9,2.7-6.5c0-2.5-0.8-4.8-2.4-7c-1.6-2.2-3.8-3.8-6.6-5c-2.2-0.9-5.2-1.5-9-1.6l7.9-16H328.5z"/>
	<path class="st1" d="M376.5,1249.3l-2.9,7.9h-24.2v-1.1c7.1-6.5,12.2-11.8,15.1-15.9c2.9-4.1,4.3-7.9,4.3-11.3
		c0-2.6-0.8-4.8-2.4-6.4c-1.6-1.7-3.5-2.5-5.7-2.5c-2,0-3.8,0.6-5.5,1.8c-1.6,1.2-2.8,2.9-3.5,5.2h-1.1c0.5-3.7,1.8-6.6,3.9-8.6
		c2.1-2,4.7-3,7.8-3c3.3,0,6.1,1.1,8.3,3.2c2.2,2.1,3.3,4.7,3.3,7.5c0,2.1-0.5,4.2-1.5,6.2c-1.5,3.3-3.9,6.7-7.3,10.4
		c-5,5.5-8.1,8.8-9.4,9.9h10.7c2.2,0,3.7-0.1,4.6-0.2c0.9-0.2,1.7-0.5,2.4-1c0.7-0.5,1.3-1.2,1.8-2.1H376.5z"/>
	<path class="st1" d="M386.3,1220.1l10-4.9h1v34.7c0,2.3,0.1,3.7,0.3,4.3c0.2,0.6,0.6,1,1.2,1.3s1.8,0.5,3.7,0.5v1.1H387v-1.1
		c1.9,0,3.2-0.2,3.7-0.5c0.6-0.3,1-0.7,1.2-1.2c0.2-0.5,0.3-2,0.3-4.4v-22.2c0-3-0.1-4.9-0.3-5.8c-0.2-0.6-0.4-1.1-0.8-1.4
		s-0.8-0.5-1.4-0.5c-0.8,0-1.8,0.3-3.1,0.9L386.3,1220.1z"/>
	<path class="st1" d="M412.3,1236.9c0-4.7,0.7-8.7,2.1-12.1c1.4-3.4,3.3-5.9,5.6-7.6c1.8-1.3,3.7-2,5.6-2c3.2,0,6,1.6,8.5,4.8
		c3.1,4,4.7,9.3,4.7,16.2c0,4.8-0.7,8.8-2.1,12.1c-1.4,3.3-3.1,5.7-5.3,7.2c-2.1,1.5-4.2,2.3-6.2,2.3c-3.9,0-7.2-2.3-9.8-6.9
		C413.4,1247.1,412.3,1242.4,412.3,1236.9z M418.2,1237.6c0,5.6,0.7,10.3,2.1,13.8c1.2,3,2.9,4.5,5.2,4.5c1.1,0,2.2-0.5,3.4-1.5
		c1.2-1,2.1-2.6,2.7-4.9c0.9-3.5,1.4-8.4,1.4-14.7c0-4.7-0.5-8.6-1.5-11.7c-0.7-2.3-1.7-4-2.8-4.9c-0.8-0.7-1.8-1-3-1
		c-1.4,0-2.6,0.6-3.7,1.8c-1.5,1.7-2.4,4.3-3,7.9C418.4,1230.6,418.2,1234.2,418.2,1237.6z"/>
	<path class="st1" d="M443.2,1236.9c0-4.7,0.7-8.7,2.1-12.1c1.4-3.4,3.3-5.9,5.6-7.6c1.8-1.3,3.7-2,5.6-2c3.2,0,6,1.6,8.5,4.8
		c3.1,4,4.7,9.3,4.7,16.2c0,4.8-0.7,8.8-2.1,12.1c-1.4,3.3-3.1,5.7-5.3,7.2c-2.1,1.5-4.2,2.3-6.2,2.3c-3.9,0-7.2-2.3-9.8-6.9
		C444.3,1247.1,443.2,1242.4,443.2,1236.9z M449.1,1237.6c0,5.6,0.7,10.3,2.1,13.8c1.2,3,2.9,4.5,5.2,4.5c1.1,0,2.2-0.5,3.4-1.5
		c1.2-1,2.1-2.6,2.7-4.9c0.9-3.5,1.4-8.4,1.4-14.7c0-4.7-0.5-8.6-1.5-11.7c-0.7-2.3-1.7-4-2.8-4.9c-0.8-0.7-1.8-1-3-1
		c-1.4,0-2.6,0.6-3.7,1.8c-1.5,1.7-2.4,4.3-3,7.9C449.4,1230.6,449.1,1234.2,449.1,1237.6z"/>
	<path class="st1" d="M489.7,1236.9c0-4.7,0.7-8.7,2.1-12.1c1.4-3.4,3.3-5.9,5.6-7.6c1.8-1.3,3.7-2,5.6-2c3.2,0,6,1.6,8.5,4.8
		c3.1,4,4.7,9.3,4.7,16.2c0,4.8-0.7,8.8-2.1,12.1c-1.4,3.3-3.1,5.7-5.3,7.2c-2.1,1.5-4.2,2.3-6.2,2.3c-3.9,0-7.2-2.3-9.8-6.9
		C490.8,1247.1,489.7,1242.4,489.7,1236.9z M495.6,1237.6c0,5.6,0.7,10.3,2.1,13.8c1.2,3,2.9,4.5,5.2,4.5c1.1,0,2.2-0.5,3.4-1.5
		c1.2-1,2.1-2.6,2.7-4.9c0.9-3.5,1.4-8.4,1.4-14.7c0-4.7-0.5-8.6-1.5-11.7c-0.7-2.3-1.7-4-2.8-4.9c-0.8-0.7-1.8-1-3-1
		c-1.4,0-2.6,0.6-3.7,1.8c-1.5,1.7-2.4,4.3-3,7.9C495.9,1230.6,495.6,1234.2,495.6,1237.6z"/>
	<path class="st1" d="M521.6,1223.9c1.2-2.8,2.6-4.9,4.4-6.4c1.8-1.5,4-2.3,6.7-2.3c3.3,0,5.8,1.1,7.6,3.2c1.4,1.6,2,3.3,2,5.1
		c0,3-1.9,6.1-5.6,9.3c2.5,1,4.4,2.4,5.7,4.2c1.3,1.8,1.9,4,1.9,6.5c0,3.5-1.1,6.6-3.4,9.2c-2.9,3.4-7.2,5.1-12.8,5.1
		c-2.8,0-4.6-0.3-5.6-1c-1-0.7-1.5-1.4-1.5-2.2c0-0.6,0.2-1.1,0.7-1.5c0.5-0.5,1-0.7,1.7-0.7c0.5,0,1,0.1,1.5,0.3
		c0.4,0.1,1.1,0.5,2.3,1.1c1.2,0.6,2,1,2.5,1.1c0.8,0.2,1.6,0.3,2.4,0.3c2.1,0,3.8-0.8,5.4-2.4c1.5-1.6,2.3-3.5,2.3-5.7
		c0-1.6-0.4-3.1-1.1-4.7c-0.5-1.1-1.1-2-1.7-2.6c-0.9-0.8-2-1.5-3.6-2.2c-1.5-0.7-3.1-1-4.6-1h-1v-0.9c1.6-0.2,3.2-0.8,4.8-1.7
		c1.6-1,2.8-2.1,3.5-3.4c0.7-1.3,1.1-2.8,1.1-4.4c0-2.1-0.7-3.8-2-5.1c-1.3-1.3-2.9-1.9-4.8-1.9c-3.1,0-5.8,1.7-7.9,5L521.6,1223.9z
		"/>
	<path class="st1" d="M578.3,1242v4.3h-5.5v10.8h-5v-10.8h-17.4v-3.9l19-27.2h3.3v26.7H578.3z M567.8,1242v-20.3l-14.4,20.3H567.8z"
		/>
	<path class="st1" d="M582.7,1236.9c0-4.7,0.7-8.7,2.1-12.1c1.4-3.4,3.3-5.9,5.6-7.6c1.8-1.3,3.7-2,5.6-2c3.2,0,6,1.6,8.5,4.8
		c3.1,4,4.7,9.3,4.7,16.2c0,4.8-0.7,8.8-2.1,12.1c-1.4,3.3-3.1,5.7-5.3,7.2c-2.1,1.5-4.2,2.3-6.2,2.3c-3.9,0-7.2-2.3-9.8-6.9
		C583.7,1247.1,582.7,1242.4,582.7,1236.9z M588.6,1237.6c0,5.6,0.7,10.3,2.1,13.8c1.2,3,2.9,4.5,5.2,4.5c1.1,0,2.2-0.5,3.4-1.5
		c1.2-1,2.1-2.6,2.7-4.9c0.9-3.5,1.4-8.4,1.4-14.7c0-4.7-0.5-8.6-1.5-11.7c-0.7-2.3-1.7-4-2.8-4.9c-0.8-0.7-1.8-1-3-1
		c-1.4,0-2.6,0.6-3.7,1.8c-1.5,1.7-2.4,4.3-3,7.9C588.8,1230.6,588.6,1234.2,588.6,1237.6z"/>
	<path class="st1" d="M654.7,1215.3v1.1c-2.7,0.3-4.8,0.8-6.5,1.6c-1.7,0.8-3.4,2-5,3.6s-3,3.4-4.1,5.5c-1.1,2-2,4.4-2.7,7.2
		c2.9-2,5.8-3,8.8-3c2.8,0,5.2,1.1,7.3,3.4c2.1,2.3,3.1,5.2,3.1,8.7c0,3.4-1,6.6-3.1,9.4c-2.5,3.4-5.8,5.2-9.9,5.2
		c-2.8,0-5.2-0.9-7.1-2.8c-3.8-3.6-5.8-8.3-5.8-14c0-3.7,0.7-7.2,2.2-10.5c1.5-3.3,3.6-6.2,6.3-8.8c2.7-2.6,5.4-4.3,7.9-5.2
		s4.8-1.3,7-1.3H654.7z M635.8,1236.4c-0.4,2.7-0.5,4.9-0.5,6.6c0,1.9,0.4,4,1.1,6.3c0.7,2.3,1.8,4.1,3.2,5.4c1,1,2.3,1.4,3.8,1.4
		c1.8,0,3.3-0.8,4.7-2.5c1.4-1.7,2.1-4,2.1-7.1c0-3.5-0.7-6.4-2-9c-1.4-2.5-3.3-3.8-5.8-3.8c-0.8,0-1.6,0.2-2.4,0.5
		C638.9,1234.7,637.6,1235.4,635.8,1236.4z"/>
	<path class="st1" d="M660.1,1236.9c0-4.7,0.7-8.7,2.1-12.1c1.4-3.4,3.3-5.9,5.6-7.6c1.8-1.3,3.7-2,5.6-2c3.2,0,6,1.6,8.5,4.8
		c3.1,4,4.7,9.3,4.7,16.2c0,4.8-0.7,8.8-2.1,12.1c-1.4,3.3-3.1,5.7-5.3,7.2c-2.1,1.5-4.2,2.3-6.2,2.3c-3.9,0-7.2-2.3-9.8-6.9
		C661.2,1247.1,660.1,1242.4,660.1,1236.9z M666,1237.6c0,5.6,0.7,10.3,2.1,13.8c1.2,3,2.9,4.5,5.2,4.5c1.1,0,2.2-0.5,3.4-1.5
		c1.2-1,2.1-2.6,2.7-4.9c0.9-3.5,1.4-8.4,1.4-14.7c0-4.7-0.5-8.6-1.5-11.7c-0.7-2.3-1.7-4-2.8-4.9c-0.8-0.7-1.8-1-3-1
		c-1.4,0-2.6,0.6-3.7,1.8c-1.5,1.7-2.4,4.3-3,7.9C666.3,1230.6,666,1234.2,666,1237.6z"/>
	<path class="st1" d="M691.1,1236.9c0-4.7,0.7-8.7,2.1-12.1c1.4-3.4,3.3-5.9,5.6-7.6c1.8-1.3,3.7-2,5.6-2c3.2,0,6,1.6,8.5,4.8
		c3.1,4,4.7,9.3,4.7,16.2c0,4.8-0.7,8.8-2.1,12.1c-1.4,3.3-3.1,5.7-5.3,7.2c-2.1,1.5-4.2,2.3-6.2,2.3c-3.9,0-7.2-2.3-9.8-6.9
		C692.2,1247.1,691.1,1242.4,691.1,1236.9z M697,1237.6c0,5.6,0.7,10.3,2.1,13.8c1.2,3,2.9,4.5,5.2,4.5c1.1,0,2.2-0.5,3.4-1.5
		c1.2-1,2.1-2.6,2.7-4.9c0.9-3.5,1.4-8.4,1.4-14.7c0-4.7-0.5-8.6-1.5-11.7c-0.7-2.3-1.7-4-2.8-4.9c-0.8-0.7-1.8-1-3-1
		c-1.4,0-2.6,0.6-3.7,1.8c-1.5,1.7-2.4,4.3-3,7.9C697.3,1230.6,697,1234.2,697,1237.6z"/>
	<path class="st1" d="M727.1,1220.1l10-4.9h1v34.7c0,2.3,0.1,3.7,0.3,4.3c0.2,0.6,0.6,1,1.2,1.3s1.8,0.5,3.7,0.5v1.1h-15.4v-1.1
		c1.9,0,3.2-0.2,3.7-0.5c0.6-0.3,1-0.7,1.2-1.2c0.2-0.5,0.3-2,0.3-4.4v-22.2c0-3-0.1-4.9-0.3-5.8c-0.2-0.6-0.4-1.1-0.8-1.4
		s-0.8-0.5-1.4-0.5c-0.8,0-1.8,0.3-3.1,0.9L727.1,1220.1z"/>
	<path class="st1" d="M768.5,1236.9c0-4.7,0.7-8.7,2.1-12.1c1.4-3.4,3.3-5.9,5.6-7.6c1.8-1.3,3.7-2,5.6-2c3.2,0,6,1.6,8.5,4.8
		c3.1,4,4.7,9.3,4.7,16.2c0,4.8-0.7,8.8-2.1,12.1c-1.4,3.3-3.1,5.7-5.3,7.2c-2.1,1.5-4.2,2.3-6.2,2.3c-3.9,0-7.2-2.3-9.8-6.9
		C769.6,1247.1,768.5,1242.4,768.5,1236.9z M774.4,1237.6c0,5.6,0.7,10.3,2.1,13.8c1.2,3,2.9,4.5,5.2,4.5c1.1,0,2.2-0.5,3.4-1.5
		c1.2-1,2.1-2.6,2.7-4.9c0.9-3.5,1.4-8.4,1.4-14.7c0-4.7-0.5-8.6-1.5-11.7c-0.7-2.3-1.7-4-2.8-4.9c-0.8-0.7-1.8-1-3-1
		c-1.4,0-2.6,0.6-3.7,1.8c-1.5,1.7-2.4,4.3-3,7.9C774.7,1230.6,774.4,1234.2,774.4,1237.6z"/>
	<path class="st1" d="M804.5,1220.1l10-4.9h1v34.7c0,2.3,0.1,3.7,0.3,4.3c0.2,0.6,0.6,1,1.2,1.3s1.8,0.5,3.7,0.5v1.1h-15.4v-1.1
		c1.9,0,3.2-0.2,3.7-0.5c0.6-0.3,1-0.7,1.2-1.2c0.2-0.5,0.3-2,0.3-4.4v-22.2c0-3-0.1-4.9-0.3-5.8c-0.2-0.6-0.4-1.1-0.8-1.4
		s-0.8-0.5-1.4-0.5c-0.8,0-1.8,0.3-3.1,0.9L804.5,1220.1z"/>
	<path class="st1" d="M856.7,1249.3l-2.9,7.9h-24.2v-1.1c7.1-6.5,12.2-11.8,15.1-15.9c2.9-4.1,4.3-7.9,4.3-11.3
		c0-2.6-0.8-4.8-2.4-6.4c-1.6-1.7-3.5-2.5-5.7-2.5c-2,0-3.8,0.6-5.5,1.8c-1.6,1.2-2.8,2.9-3.5,5.2h-1.1c0.5-3.7,1.8-6.6,3.9-8.6
		c2.1-2,4.7-3,7.8-3c3.3,0,6.1,1.1,8.3,3.2c2.2,2.1,3.3,4.7,3.3,7.5c0,2.1-0.5,4.2-1.5,6.2c-1.5,3.3-3.9,6.7-7.3,10.4
		c-5,5.5-8.1,8.8-9.4,9.9h10.7c2.2,0,3.7-0.1,4.6-0.2c0.9-0.2,1.7-0.5,2.4-1c0.7-0.5,1.3-1.2,1.8-2.1H856.7z"/>
	<path class="st1" d="M866.5,1220.1l10-4.9h1v34.7c0,2.3,0.1,3.7,0.3,4.3c0.2,0.6,0.6,1,1.2,1.3s1.8,0.5,3.7,0.5v1.1h-15.4v-1.1
		c1.9,0,3.2-0.2,3.7-0.5c0.6-0.3,1-0.7,1.2-1.2c0.2-0.5,0.3-2,0.3-4.4v-22.2c0-3-0.1-4.9-0.3-5.8c-0.2-0.6-0.4-1.1-0.8-1.4
		s-0.8-0.5-1.4-0.5c-0.8,0-1.8,0.3-3.1,0.9L866.5,1220.1z"/>
	<path class="st1" d="M932.6,1216.1l-2.4,5.2h-12.4l-2.7,5.5c5.3,0.8,9.6,2.8,12.7,5.9c2.7,2.8,4,6,4,9.7c0,2.2-0.4,4.2-1.3,6
		c-0.9,1.8-2,3.4-3.3,4.7c-1.3,1.3-2.8,2.3-4.5,3.1c-2.3,1.1-4.7,1.7-7.1,1.7c-2.5,0-4.2-0.4-5.4-1.2c-1.1-0.8-1.7-1.8-1.7-2.8
		c0-0.6,0.2-1,0.7-1.5c0.5-0.4,1-0.7,1.7-0.7c0.5,0,1,0.1,1.4,0.2s1.1,0.6,2,1.3c1.5,1,3.1,1.5,4.6,1.5c2.4,0,4.4-0.9,6.2-2.7
		c1.8-1.8,2.7-3.9,2.7-6.5c0-2.5-0.8-4.8-2.4-7c-1.6-2.2-3.8-3.8-6.6-5c-2.2-0.9-5.2-1.5-9-1.6l7.9-16H932.6z"/>
	<path class="st1" d="M964.5,1215.3v1.1c-2.7,0.3-4.8,0.8-6.5,1.6c-1.7,0.8-3.4,2-5,3.6s-3,3.4-4.1,5.5c-1.1,2-2,4.4-2.7,7.2
		c2.9-2,5.8-3,8.8-3c2.8,0,5.2,1.1,7.3,3.4c2.1,2.3,3.1,5.2,3.1,8.7c0,3.4-1,6.6-3.1,9.4c-2.5,3.4-5.8,5.2-9.9,5.2
		c-2.8,0-5.2-0.9-7.1-2.8c-3.8-3.6-5.8-8.3-5.8-14c0-3.7,0.7-7.2,2.2-10.5c1.5-3.3,3.6-6.2,6.3-8.8c2.7-2.6,5.4-4.3,7.9-5.2
		s4.8-1.3,7-1.3H964.5z M945.6,1236.4c-0.4,2.7-0.5,4.9-0.5,6.6c0,1.9,0.4,4,1.1,6.3c0.7,2.3,1.8,4.1,3.2,5.4c1,1,2.3,1.4,3.8,1.4
		c1.8,0,3.3-0.8,4.7-2.5c1.4-1.7,2.1-4,2.1-7.1c0-3.5-0.7-6.4-2-9c-1.4-2.5-3.3-3.8-5.8-3.8c-0.8,0-1.6,0.2-2.4,0.5
		C948.7,1234.7,947.4,1235.4,945.6,1236.4z"/>
	<path class="st1" d="M995.4,1215.3v1.1c-2.7,0.3-4.8,0.8-6.5,1.6c-1.7,0.8-3.4,2-5,3.6s-3,3.4-4.1,5.5c-1.1,2-2,4.4-2.7,7.2
		c2.9-2,5.8-3,8.8-3c2.8,0,5.2,1.1,7.3,3.4c2.1,2.3,3.1,5.2,3.1,8.7c0,3.4-1,6.6-3.1,9.4c-2.5,3.4-5.8,5.2-9.9,5.2
		c-2.8,0-5.2-0.9-7.1-2.8c-3.8-3.6-5.8-8.3-5.8-14c0-3.7,0.7-7.2,2.2-10.5c1.5-3.3,3.6-6.2,6.3-8.8c2.7-2.6,5.4-4.3,7.9-5.2
		s4.8-1.3,7-1.3H995.4z M976.6,1236.4c-0.4,2.7-0.5,4.9-0.5,6.6c0,1.9,0.4,4,1.1,6.3c0.7,2.3,1.8,4.1,3.2,5.4c1,1,2.3,1.4,3.8,1.4
		c1.8,0,3.3-0.8,4.7-2.5c1.4-1.7,2.1-4,2.1-7.1c0-3.5-0.7-6.4-2-9c-1.4-2.5-3.3-3.8-5.8-3.8c-0.8,0-1.6,0.2-2.4,0.5
		C979.6,1234.7,978.3,1235.4,976.6,1236.4z"/>
	<path class="st1" d="M1025.6,1216.1l-2.4,5.2h-12.4l-2.7,5.5c5.3,0.8,9.6,2.8,12.7,5.9c2.7,2.8,4,6,4,9.7c0,2.2-0.4,4.2-1.3,6
		c-0.9,1.8-2,3.4-3.3,4.7c-1.3,1.3-2.8,2.3-4.5,3.1c-2.3,1.1-4.7,1.7-7.1,1.7c-2.5,0-4.2-0.4-5.4-1.2c-1.1-0.8-1.7-1.8-1.7-2.8
		c0-0.6,0.2-1,0.7-1.5c0.5-0.4,1-0.7,1.7-0.7c0.5,0,1,0.1,1.4,0.2s1.1,0.6,2,1.3c1.5,1,3.1,1.5,4.6,1.5c2.4,0,4.4-0.9,6.2-2.7
		c1.8-1.8,2.7-3.9,2.7-6.5c0-2.5-0.8-4.8-2.4-7c-1.6-2.2-3.8-3.8-6.6-5c-2.2-0.9-5.2-1.5-9-1.6l7.9-16H1025.6z"/>
</g>
</svg>
